<?xml version="1.0" encoding="UTF-8" standalone="no"?>
<!-- Created with Inkscape (http://www.inkscape.org/) -->

<svg
   width="120"
   height="120"
   viewBox="0 0 120 120"
   version="1.1"
   id="svg1"
   xml:space="preserve"
   inkscape:export-filename="flower.svg"
   inkscape:export-xdpi="96"
   inkscape:export-ydpi="96"
   xmlns:inkscape="http://www.inkscape.org/namespaces/inkscape"
   xmlns:sodipodi="http://sodipodi.sourceforge.net/DTD/sodipodi-0.dtd"
   xmlns="http://www.w3.org/2000/svg"
   xmlns:svg="http://www.w3.org/2000/svg"><sodipodi:namedview
     id="namedview1"
     pagecolor="#ffffff"
     bordercolor="#000000"
     borderopacity="0.25"
     inkscape:showpageshadow="2"
     inkscape:pageopacity="0.0"
     inkscape:pagecheckerboard="0"
     inkscape:deskcolor="#d1d1d1"
     inkscape:document-units="px"><inkscape:page
       x="0"
       y="0"
       width="120"
       height="120"
       id="page2"
       margin="0"
       bleed="0" /></sodipodi:namedview><defs
     id="defs1" /><g
     inkscape:label="Layer 1"
     inkscape:groupmode="layer"
     id="layer1"><path
       style="fill:#000000"
       d="m 35.222909,109.78481 c -0.646406,-0.0869 -1.079258,-0.38591 -1.61625,-1.11652 -0.618337,-0.84128 -0.668365,-1.04329 -0.481798,-1.94543 0.186932,-0.90391 0.141344,-0.81424 1.313987,-2.58453 0.514211,-0.77628 1.064062,-1.61369 1.22189,-1.86091 0.345593,-0.54134 0.615911,-0.61342 0.907977,-0.24212 0.28752,0.36553 0.387527,0.80766 0.461444,2.04009 0.06747,1.12492 0.221353,2.098 0.331628,2.09704 0.150314,-0.001 0.926095,-1.70969 1.201748,-2.64642 0.161667,-0.54938 0.406467,-1.38094 0.544,-1.84791 0.137534,-0.46698 0.370979,-1.36596 0.518766,-1.997747 0.147787,-0.631786 0.42389,-1.629989 0.613563,-2.218228 0.189673,-0.58824 0.475983,-1.644546 0.636246,-2.347348 0.335255,-1.470199 0.58628,-2.346494 0.895402,-3.125733 0.119866,-0.302158 0.253565,-0.661752 0.297108,-0.799097 0.100974,-0.318491 1.505846,-3.044958 1.849431,-3.589231 0.268079,-0.424665 1.352709,-2.663371 1.352709,-2.792029 0,-0.03976 0.134522,-0.28441 0.298937,-0.543666 0.28196,-0.444604 0.628933,-1.420614 0.885507,-2.490869 0.154085,-0.642736 0.140255,-1.830688 -0.034,-2.920265 -0.189559,-1.185277 -0.167644,-6.132701 0.02821,-6.36869 0.09091,-0.109538 -0.05265,-0.08101 -0.498444,0.09906 -0.862664,0.348446 -1.851673,0.283088 -3.183481,-0.210377 -0.51856,-0.192138 -1.190058,-0.422534 -1.492216,-0.51199 -0.302159,-0.08946 -1.043821,-0.316734 -1.648138,-0.505061 -1.338343,-0.417077 -1.742894,-0.506292 -2.89216,-0.637801 -1.036837,-0.118645 -1.792355,-0.443157 -2.113471,-0.907785 -0.358354,-0.518505 -0.187991,-1.031713 0.683059,-2.057679 0.39965,-0.470726 0.918326,-1.13237 1.152613,-1.47032 1.600876,-2.309191 1.850267,-2.523731 2.83039,-2.434857 0.729767,0.06617 1.306383,0.339857 1.94366,0.922535 0.44549,0.407323 1.7293,1.110779 2.641112,1.447181 0.192283,0.07094 0.518299,0.259526 0.724482,0.419078 0.206182,0.159552 0.498352,0.34461 0.649266,0.411239 0.367605,0.1623 2.285956,1.427788 2.369641,1.563193 0.121054,0.19587 1.296479,0.908715 1.449785,0.879233 0.186593,-0.03588 0.202194,-1.957414 0.0509,-6.26929 -0.09645,-2.748748 -0.105583,-3.799156 -0.06472,-7.441591 0.01048,-0.933944 -0.03242,-2.147573 -0.09532,-2.696952 -0.06908,-0.603322 -0.123481,-3.174396 -0.137375,-6.492663 -0.01476,-3.525543 -0.06894,-5.976908 -0.15122,-6.842269 -0.184552,-1.940967 -0.09109,-4.169187 0.230742,-5.501202 0.138389,-0.572772 0.305513,-1.400998 0.371386,-1.840501 0.06587,-0.439504 0.142048,-0.922708 0.169278,-1.073787 0.0415,-0.230263 0.01456,-0.27469 -0.166562,-0.27469 -0.375391,0 -0.7493,-0.265438 -1.006323,-0.714389 -0.221665,-0.387188 -0.246788,-0.537274 -0.231541,-1.38324 0.01086,-0.602462 0.09013,-1.204218 0.217112,-1.648138 0.511962,-1.789753 0.738625,-2.024353 1.133963,-1.173673 0.121275,0.260955 0.436866,0.773897 0.701313,1.139871 0.599028,0.829006 0.984393,1.677148 0.906491,1.995075 -0.09653,0.393948 -0.661272,1.25304 -0.95298,1.449685 -0.343031,0.231243 -0.342101,0.283052 0.01142,0.636575 0.160668,0.160668 0.337731,0.490261 0.403329,0.750774 0.244545,0.971175 0.407637,2.861414 0.413362,4.790857 0.0033,1.098759 0.04453,2.289913 0.09172,2.647009 0.14896,1.127342 0.323135,2.027927 0.511935,2.647009 0.15352,0.503394 0.364226,1.498024 0.560754,2.647009 0.02349,0.137345 0.08013,0.901481 0.125852,1.698081 0.04573,0.7966 0.109409,1.560736 0.141518,1.698081 0.173235,0.741016 0.279074,2.989171 0.313201,6.652804 0.02104,2.258125 0.08361,4.550534 0.139061,5.094243 0.165233,1.62021 0.259317,3.761432 0.257401,5.858059 -9.92e-4,1.085024 0.0063,1.972771 0.01625,1.972771 0.0099,0 0.256938,-0.157322 0.548905,-0.349605 0.291966,-0.192283 0.576102,-0.349605 0.631412,-0.349605 0.05531,0 0.483353,-0.176495 0.951206,-0.39221 0.467852,-0.215716 1.457455,-0.604914 2.199117,-0.864885 0.741662,-0.25997 2.045189,-0.797332 2.896727,-1.194137 1.690784,-0.787882 2.276217,-0.995694 3.068491,-1.089228 0.436544,-0.05154 0.553312,-0.02961 0.717696,0.134774 0.204534,0.204534 0.407555,0.793991 0.408515,1.18609 3.06e-4,0.125201 0.128329,0.619642 0.284494,1.098758 0.449595,1.379358 0.65071,2.26368 0.579415,2.547741 -0.234028,0.932442 -3.542157,2.327093 -7.156241,3.01695 -1.943339,0.370944 -3.569361,0.573434 -4.153767,0.51727 l -0.507886,-0.04881 0.08383,0.534561 c 0.04611,0.294009 0.21651,0.750724 0.378677,1.014921 0.574245,0.935543 1.045961,3.452401 0.817274,4.360599 -0.145249,0.576836 -0.144144,0.764512 0.0045,0.764512 0.214623,0 0.778926,0.445977 0.779623,0.616147 7.53e-4,0.183893 -0.574725,0.582498 -0.840969,0.582498 -0.153481,0 -0.163526,0.133751 -0.110652,1.473335 0.07263,1.840153 0.114915,2.328565 0.295057,3.408086 0.07912,0.474149 0.173498,1.379005 0.209722,2.010791 0.03623,0.631786 0.108316,1.345707 0.160203,1.58649 0.05189,0.240784 0.138186,1.027395 0.191775,1.748025 0.186407,2.506679 0.208978,2.711266 0.348421,3.158148 0.07714,0.247221 0.184927,0.786611 0.239523,1.198646 0.143671,1.084271 1.063508,4.983162 1.244876,5.276621 0.03174,0.05136 0.260519,0.840373 0.50839,1.753353 0.24787,0.91299 0.605406,2.05333 0.794525,2.5341 0.189119,0.48077 0.396865,1.08764 0.461658,1.34859 0.08738,0.35193 0.165381,0.47446 0.302025,0.47446 0.421557,0 1.257097,-0.4397 1.812294,-0.95371 0.32275,-0.29881 0.708183,-0.56932 0.856517,-0.60113 0.148334,-0.0318 0.447367,-0.13293 0.664517,-0.22472 0.315265,-0.13326 0.644753,-0.16014 1.635236,-0.13343 l 1.240419,0.0335 -0.249997,-0.33379 c -0.570364,-0.76155 -0.737003,-1.58718 -0.454511,-2.25192 0.145641,-0.34272 0.576177,-0.82877 0.734102,-0.82877 0.106492,0 1.428854,-0.945477 1.544458,-1.104275 0.08701,-0.119526 1.236073,-0.666081 1.548251,-0.736433 0.449204,-0.101232 0.810756,-0.453417 0.981562,-0.956131 0.084,-0.247221 0.29488,-0.786611 0.468626,-1.198646 0.293205,-0.695327 0.31173,-0.806983 0.257819,-1.554024 -0.04684,-0.649069 -0.0099,-1.016443 0.191042,-1.897855 0.147039,-0.645102 0.224015,-1.21578 0.187847,-1.392646 -0.0337,-0.164814 -0.28969,-0.771629 -0.568859,-1.348477 -0.626459,-1.294455 -0.722646,-2.000311 -0.368633,-2.705183 0.121889,-0.242694 0.301915,-0.53116 0.400057,-0.641035 0.275849,-0.308829 0.491075,-1.070843 0.561601,-1.988365 0.05266,-0.685127 0.0348,-0.877034 -0.09948,-1.068747 -0.221697,-0.316517 -0.206771,-0.492981 0.08485,-1.003093 0.173888,-0.304174 0.248417,-0.584693 0.248189,-0.934152 -5.67e-4,-0.867349 -0.135282,-0.775701 -0.489051,0.332707 -0.405279,1.269796 -0.614259,1.86065 -0.942201,2.663907 -0.156371,0.383013 -0.287513,0.99589 -0.36335,1.698081 -0.219817,2.03532 -0.663402,3.983494 -1.166229,5.121946 -0.128054,0.289926 -0.232825,0.547656 -0.232825,0.572733 0,0.110538 -2.040463,3.313136 -2.528305,3.968289 -0.768355,1.031868 -1.422493,1.664901 -1.966615,1.903163 -0.137345,0.06014 -0.327011,0.173809 -0.421479,0.252593 -0.214615,0.178985 -0.954115,0.171931 -1.395666,-0.01331 -0.181736,-0.07624 -0.503274,-0.31392 -0.71453,-0.528169 -0.66187,-0.671252 -2.462682,-3.448821 -2.462682,-3.798438 0,-0.262211 0.285574,-0.258159 0.856981,0.01216 0.769171,0.363876 1.531898,0.549951 2.25427,0.549951 0.725788,0 1.077747,0.153517 1.716707,0.748791 0.680575,0.634044 0.789245,0.604121 0.996284,-0.274327 0.341838,-1.450386 0.568957,-2.453834 0.775558,-3.42654 0.116055,-0.546406 0.273102,-1.285635 0.348993,-1.642732 0.134882,-0.634675 0.297164,-3.691325 0.403039,-7.591421 0.07354,-2.708861 0.452153,-4.727469 1.283355,-6.842269 0.954898,-2.429517 1.193124,-3.590168 1.104319,-5.380307 -0.05865,-1.182325 -0.07115,-1.23443 -0.506369,-2.111227 -0.527123,-1.06195 -0.675996,-1.744315 -0.588399,-2.696952 0.08107,-0.881612 0.345261,-1.35448 1.16446,-2.084199 0.341841,-0.304502 0.598857,-0.576312 0.571147,-0.604022 -0.02771,-0.02771 -0.318197,-0.121534 -0.645527,-0.208499 -0.778852,-0.206924 -2.688329,-0.206201 -4.33435,0.0016 l -1.255152,0.158487 -0.69921,-0.255012 c -0.384565,-0.140256 -0.711827,-0.2928 -0.727249,-0.338987 -0.01542,-0.04619 -0.221517,-0.349871 -0.457991,-0.674856 -0.236474,-0.324984 -0.477999,-0.680657 -0.536724,-0.790385 -0.303181,-0.5665 -0.573251,-3.273634 -0.408451,-4.094239 0.123427,-0.614588 0.338878,-0.85923 1.225555,-1.391599 0.795629,-0.477703 1.334261,-0.481724 2.530177,-0.01889 0.479524,0.185582 1.164031,0.438575 1.521128,0.562205 0.725966,0.251336 2.112026,0.823166 3.099833,1.278859 0.651056,0.300344 0.789784,0.44139 1.899791,1.931521 0.144096,0.193442 0.154724,0.145392 0.14983,-0.677337 -0.0029,-0.487052 0.05252,-1.762059 0.123143,-2.833349 0.275382,-4.177133 0.31364,-5.272317 0.230295,-6.59255 -0.158816,-2.515744 0.08621,-6.341085 0.738993,-11.536963 0.08282,-0.659255 0.197304,-1.738036 0.254398,-2.397291 0.05709,-0.659255 0.143904,-1.648138 0.192912,-2.197517 0.04901,-0.549379 0.06546,-2.661992 0.03655,-4.694695 -0.05344,-3.75874 0.01283,-5.204262 0.409896,-8.939897 0.13899,-1.307644 0.413066,-2.414164 0.71044,-2.868241 0.07969,-0.121677 0.144884,-0.352658 0.144884,-0.513291 0,-0.252692 -0.04548,-0.300592 -0.337441,-0.355363 -0.742259,-0.139249 -1.196627,-0.901313 -1.180915,-1.980626 0.01118,-0.768049 0.335668,-1.575352 0.885184,-2.202279 0.297297,-0.339177 0.710044,-0.988505 0.827655,-1.302056 0.207262,-0.5525604 0.384529,-0.3688643 1.393823,1.444368 0.235078,0.422326 0.440312,1.560385 0.353285,1.959029 -0.177952,0.815142 -0.718476,1.593913 -1.296753,1.868324 -0.298308,0.141556 -0.345177,0.212069 -0.345177,0.519311 0,0.253961 0.0669,0.408138 0.234198,0.539734 0.39513,0.31081 0.594334,1.519443 0.591744,3.590299 -0.0013,1.016264 0.05205,2.040729 0.127373,2.447235 0.47277,2.551463 0.620132,3.874497 0.69535,6.242945 0.02879,0.906476 0.09583,2.052681 0.148992,2.547122 0.124389,1.157001 0.124992,2.867645 0.0014,3.942822 -0.05351,0.465477 -0.120365,1.297037 -0.148563,1.847912 -0.0282,0.550875 -0.07595,1.496032 -0.106112,2.100349 -0.03016,0.604317 -0.09484,1.435877 -0.143716,1.847912 -0.08448,0.712126 -0.128112,1.83808 -0.257393,6.642494 -0.03104,1.153696 -0.09741,2.592071 -0.147484,3.196388 -0.05007,0.604317 -0.137627,2.402285 -0.194566,3.995485 -0.05694,1.593199 -0.118724,3.106727 -0.137297,3.363395 l -0.03377,0.466668 0.259278,-0.166774 c 0.142603,-0.09173 0.856055,-0.616371 1.58545,-1.165878 2.17272,-1.636872 3.576814,-2.445065 5.216435,-3.002565 1.182168,-0.401959 2.874572,-0.201022 3.64588,0.43287 0.374393,0.307691 0.490991,0.52824 0.645503,1.220986 0.170307,0.763563 0.685107,2.107275 0.89931,2.347347 0.490149,0.549344 0.527536,1.056984 0.114306,1.552024 l -0.288681,0.345832 -1.211819,0.04994 -1.21182,0.04994 -0.721989,0.750522 c -0.564794,0.587117 -0.89597,0.834539 -1.521085,1.136404 -0.788621,0.380822 -0.810432,0.385083 -1.663679,0.325022 -0.47552,-0.03347 -1.531827,-0.197785 -2.347348,-0.36514 -0.815521,-0.167355 -1.617613,-0.331465 -1.782426,-0.364688 -0.291371,-0.05874 -0.288158,-0.0519 0.116151,0.246898 1.085213,0.802024 1.651872,2.258826 2.076568,5.338572 0.212931,1.544104 0.658032,2.816267 1.546257,4.419429 0.453621,0.818745 0.597401,1.252259 0.751189,2.264941 0.119863,0.789285 0.08022,1.596649 -0.09209,1.875449 -0.02774,0.04489 -0.122516,0.566773 -0.210611,1.159746 -0.273718,1.842433 0.04087,3.501814 1.103274,5.819536 0.591747,1.290943 0.837424,2.280738 0.958934,3.863397 0.05483,0.714193 0.168945,1.792974 0.253583,2.397291 0.236254,1.686867 0.209241,2.644762 -0.101407,3.595937 -0.472375,1.446365 -0.519787,1.498404 -1.688218,1.852995 -0.5953,0.180658 -0.761067,0.289661 -1.327099,0.872649 -0.355755,0.366412 -0.73455,0.814884 -0.841768,0.996604 -0.235915,0.399847 -0.131748,0.475423 0.549452,0.398642 0.318794,-0.03593 0.62323,-0.183879 1.11909,-0.543841 0.374639,-0.271964 0.905908,-0.623292 1.180597,-0.780729 0.27469,-0.157437 0.679233,-0.406177 0.898984,-0.552756 0.724334,-0.483146 1.377956,-0.638797 2.696953,-0.642241 1.968658,-0.0051 2.974722,0.163932 3.496049,0.58752 0.489902,0.398054 0.298855,0.465495 -1.707347,0.602707 -0.916519,0.06268 -1.798954,0.324607 -2.692829,0.799281 -0.442332,0.234891 -1.543587,0.759149 -2.447234,1.165018 l -1.642995,0.737943 -0.849041,-0.01165 c -0.973529,-0.01336 -1.879994,-0.3005 -2.267056,-0.718146 -0.128891,-0.139076 -0.307801,-0.503734 -0.397577,-0.810351 -0.151392,-0.517055 -0.151206,-0.603648 0.0026,-1.194006 0.09733,-0.373655 0.347213,-0.909911 0.605091,-1.298532 1.051109,-1.584022 1.284339,-2.378091 1.269775,-4.323158 -0.0052,-0.69512 -0.04941,-1.369358 -0.09824,-1.498307 -0.04883,-0.128949 -0.120429,-0.571572 -0.159113,-0.983607 -0.07444,-0.792915 -0.446631,-2.449606 -0.773035,-3.440953 -0.191421,-0.581382 -0.280131,-2.309699 -0.130941,-2.551095 0.03348,-0.05418 0.103189,-0.60476 0.154901,-1.223516 0.05171,-0.618756 0.115925,-1.282333 0.142697,-1.474616 0.02677,-0.192282 0.0528,-1.001368 0.05784,-1.797968 0.0069,-1.093557 -0.03199,-1.582945 -0.158819,-1.997742 -0.184322,-0.602829 -0.494713,-1.26068 -0.620115,-1.314291 -0.04398,-0.0188 -0.299477,-0.315683 -0.56777,-0.659734 -0.43391,-0.556435 -0.505382,-0.609717 -0.646887,-0.482247 -0.0875,0.07882 -0.276835,0.172682 -0.420754,0.20859 -0.228571,0.05703 -0.269526,0.130666 -0.323765,0.582134 -0.03415,0.284265 -0.06248,1.294181 -0.06296,2.244258 -8.61e-4,1.712954 -0.003,1.729675 -0.25517,1.997743 -0.55865,0.593861 -0.677222,0.898364 -0.697003,1.789969 -0.01323,0.596493 0.02083,0.881831 0.116703,0.977709 0.178886,0.178885 0.172985,0.541053 -0.01,0.611255 -0.07994,0.03068 -0.219523,0.310198 -0.31018,0.62116 -0.18616,0.638551 -0.142078,1.399548 0.102715,1.773148 0.202104,0.308451 0.193112,0.532575 -0.04668,1.163483 -0.109848,0.289013 -0.199746,0.628033 -0.199774,0.753376 -7.4e-5,0.3341 0.370842,1.378816 0.64209,1.808501 0.129345,0.204894 0.35766,0.678708 0.507368,1.052918 0.372258,0.9305 0.31603,1.296976 -0.429204,2.797406 -0.329246,0.662895 -0.628794,1.377825 -0.665661,1.588732 -0.039,0.223101 0.0047,0.820801 0.104578,1.429211 0.152386,0.928592 0.15486,1.062493 0.02209,1.195265 -0.127668,0.127668 -0.132082,0.247268 -0.0302,0.81825 0.06562,0.3678 0.224468,1.023083 0.352983,1.456184 0.203124,0.684539 0.285324,0.824881 0.628928,1.073787 0.217396,0.157481 0.428025,0.286329 0.468064,0.286329 0.04004,0 0.324175,0.151371 0.631413,0.33638 0.307238,0.185009 0.728464,0.36427 0.936058,0.398358 0.2877,0.04724 0.513903,0.202108 0.951373,0.651342 0.315661,0.324153 0.844489,0.839853 1.175172,1.146003 0.643046,0.59535 0.678376,0.68059 0.767664,1.8522 0.06864,0.90066 -0.117645,1.23703 -1.010491,1.82464 -1.179421,0.77622 -1.853555,1.05671 -3.216257,1.33818 -0.800466,0.16534 -2.691146,0.13941 -3.420883,-0.0469 -0.19961,-0.051 -0.655097,-0.12382 -1.012193,-0.1619 -0.682324,-0.0727 -2.877105,-0.6694 -3.196785,-0.86904 -0.161725,-0.101 -0.284626,-0.0301 -0.914234,0.52772 -0.400066,0.35443 -1.102772,1.01134 -1.561569,1.45981 -0.994689,0.9723 -1.79227,1.41759 -3.071533,1.71484 -0.49664,0.1154 -1.208546,0.32483 -1.582013,0.46541 -0.954751,0.35936 -1.710475,0.42072 -2.51147,0.2039 -1.180927,-0.31966 -1.346375,-0.52065 -3.193746,-3.87987 -0.268613,-0.48844 -0.416638,-0.66401 -0.524829,-0.6225 -0.707425,0.27147 -1.89955,0.30668 -3.870739,0.11432 -0.329627,-0.0322 -0.869018,-0.0839 -1.198645,-0.11505 -0.686589,-0.0648 -1.725231,-0.36159 -2.165091,-0.61865 -0.165091,-0.0965 -0.503575,-0.44513 -0.752185,-0.77475 -0.446142,-0.59153 -0.451368,-0.60746 -0.401935,-1.22493 0.03799,-0.47448 0.131262,-0.76107 0.386115,-1.18636 0.52676,-0.87902 1.905986,-1.782584 2.614901,-1.713078 0.294807,0.0289 0.296299,0.02633 0.474937,-0.820045 0.260867,-1.235968 0.563124,-2.143057 1.011121,-3.034421 0.626367,-1.246262 0.594368,-1.806563 -0.21895,-3.833768 -0.523385,-1.304544 -0.530017,-1.752239 -0.04064,-2.743307 0.554738,-1.123422 0.564111,-2.085849 0.03019,-3.100348 -0.105617,-0.200685 -0.03654,-0.545876 0.224648,-1.122523 0.245529,-0.542084 0.232082,-0.688194 -0.0985,-1.070311 -0.41164,-0.475809 -0.52678,-0.877345 -0.652614,-2.275908 L 49.016527,80.15242 48.69696,80.121497 c -0.286646,-0.02774 -0.341641,0.01235 -0.533844,0.389094 -0.423286,0.82971 -0.706439,2.234868 -0.766859,3.805571 -0.04864,1.264339 -0.025,1.633548 0.17124,2.674987 0.218088,1.157385 0.220923,1.235511 0.0674,1.857642 -0.08815,0.357194 -0.226975,0.794096 -0.308507,0.970893 -0.08153,0.176797 -0.23897,0.681042 -0.349862,1.120546 -0.238524,0.945353 -0.590117,2.03625 -1.336021,4.145315 -0.647332,1.830348 -1.204922,3.770726 -1.363427,4.744639 -0.06259,0.384566 -0.201427,1.253536 -0.30853,1.931036 -0.321985,2.03677 -0.831497,3.27119 -2.18217,5.28683 -0.382997,0.57156 -1.615368,1.72203 -1.844613,1.72203 -0.0528,0 -0.243324,0.11237 -0.423393,0.24972 -0.180068,0.13734 -0.431531,0.25039 -0.558807,0.25122 -0.127276,8.2e-4 -0.591005,0.11544 -1.030508,0.2547 -0.855964,0.27122 -1.883801,0.36963 -2.706147,0.25909 z m 2.58429,-0.53209 0.577353,-0.24647 -0.213129,-0.19288 c -0.394581,-0.35709 -0.715961,-1.0473 -1.004411,-2.15712 -0.157724,-0.60685 -0.286771,-1.35409 -0.286771,-1.66055 0,-1.32648 -0.322603,-2.91806 -0.591475,-2.91806 -0.08816,0 -0.707058,0.90753 -0.707058,1.03681 0,0.0387 -0.04346,0.12467 -0.09659,0.19103 -0.611302,0.76353 -1.474157,1.99634 -1.694469,2.42097 -0.151985,0.29294 -0.33317,0.80042 -0.402631,1.12774 l -0.126294,0.59512 0.36726,0.6989 c 0.645268,1.22795 1.052536,1.44518 2.601989,1.38791 0.781763,-0.0289 1.124361,-0.0905 1.576224,-0.2834 z m 21.847307,-0.25681 c 0.412034,-0.13782 0.766035,-0.26564 0.786668,-0.28404 0.02063,-0.0184 -0.100751,-0.14981 -0.269741,-0.292 -0.395829,-0.33307 -0.834811,-1.14868 -1.172613,-2.17867 -0.147433,-0.44954 -0.348711,-1.01961 -0.447286,-1.26683 -0.178317,-0.44721 -0.50536,-1.49547 -1.090718,-3.49605 -0.168783,-0.57685 -0.412894,-1.40841 -0.54247,-1.847911 -0.129575,-0.439503 -0.264339,-0.933944 -0.299474,-1.098758 -0.03514,-0.164814 -0.150898,-0.63678 -0.257251,-1.048815 -0.106352,-0.412034 -0.293161,-1.243594 -0.415131,-1.847912 -0.12197,-0.604317 -0.283156,-1.277674 -0.358192,-1.496349 -0.198004,-0.577036 -0.404252,-2.283277 -0.477169,-3.947499 -0.0349,-0.7966 -0.191172,-2.369822 -0.347264,-3.496049 -0.156092,-1.126228 -0.288969,-2.384805 -0.295281,-2.79684 -0.0063,-0.412034 -0.06165,-1.197873 -0.122976,-1.746308 -0.09979,-0.892455 -0.07021,-2.588581 0.06624,-3.797427 0.04268,-0.378138 -0.02297,-0.109502 -0.402794,1.648137 -0.375578,1.738003 -0.481244,2.180808 -0.667402,2.79684 -0.65275,2.16007 -0.883198,3.114884 -1.036653,4.295146 -0.03214,0.247221 -0.118753,0.696713 -0.192466,0.998871 -0.07371,0.302159 -0.205211,0.998872 -0.292218,1.548251 -0.08701,0.549379 -0.22703,1.380939 -0.311163,1.847912 -0.205926,1.142962 -0.32392,2.408229 -0.298084,3.196388 0.03889,1.186514 0.717959,4.688894 1.055489,5.443853 0.04912,0.10987 0.162002,0.49194 0.25084,0.84904 0.08884,0.35709 0.221549,0.78411 0.294912,0.94892 0.07336,0.16482 0.219897,0.50194 0.325629,0.74916 0.281621,0.65847 2.374988,4.54159 2.713914,5.0342 0.851424,1.2375 1.554852,1.68411 2.504125,1.58987 0.302159,-0.03 0.886499,-0.1673 1.298533,-0.30513 z m -18.980025,-1.11485 c 0.440613,-0.32866 0.739413,-0.67813 1.2841,-1.50184 1.084424,-1.63993 1.637844,-3.29781 1.760523,-5.274 0.107239,-1.727494 0.386078,-2.79267 1.523517,-5.8199 0.196101,-0.521911 0.431846,-1.1512 0.523879,-1.39842 0.295269,-0.793159 0.981795,-3.204757 1.31623,-4.623595 l 0.324636,-1.377263 -0.176613,-1.22472 c -0.152067,-1.054512 -0.161377,-1.411443 -0.06699,-2.568278 0.06029,-0.738957 0.14874,-1.512118 0.196549,-1.718136 0.04781,-0.206017 0.07233,-0.374576 0.0545,-0.374576 -0.01784,0 -0.222683,0.348356 -0.455218,0.774125 -0.232535,0.425769 -0.626319,1.08877 -0.875074,1.473335 -0.248756,0.384566 -0.762108,1.306024 -1.140783,2.047686 -0.378675,0.741662 -0.748579,1.4159 -0.82201,1.498307 -0.265933,0.298441 -1.91558,3.668099 -2.230831,4.556817 -0.281248,0.792861 -0.457823,1.460164 -1.027651,3.883645 -0.06459,0.27469 -0.314583,1.196149 -0.555547,2.047686 -0.240964,0.851538 -0.685827,2.469707 -0.988586,3.595937 -0.612241,2.27747 -0.880027,3.01814 -1.462597,4.04543 l -0.39652,0.69921 0.160993,0.51258 c 0.194468,0.61916 0.811734,1.58406 1.093904,1.70997 0.158955,0.0709 0.360979,0.003 0.907951,-0.30655 0.386928,-0.21877 0.860166,-0.51463 1.05164,-0.65745 z m 22.224134,0.0437 c 0.928127,-0.46062 1.328371,-0.77425 2.092107,-1.63937 0.160554,-0.18187 0.628529,-0.58495 1.039944,-0.89574 0.751269,-0.56752 1.01291,-0.85066 0.895009,-0.96856 -0.159008,-0.15901 -0.946384,-0.2412 -2.331751,-0.24339 -0.826815,-0.001 -1.546003,0.0355 -1.598194,0.0818 -0.05219,0.0463 -0.364588,0.1657 -0.694215,0.26529 -0.466338,0.14089 -0.710143,0.29397 -1.098759,0.6899 -0.373047,0.38007 -0.668458,0.57056 -1.167346,0.75273 -0.654291,0.23893 -0.666725,0.25013 -0.609761,0.54938 0.09432,0.4955 0.529401,1.27935 0.91,1.63946 0.336219,0.31813 0.385187,0.33314 0.966202,0.29614 0.483961,-0.0308 0.818096,-0.14124 1.596764,-0.52768 z m 12.726194,-2.29944 c 1.650153,-0.4514 2.866161,-1.22239 3.035294,-1.92447 0.07543,-0.3131 -0.0296,-0.28133 -0.412727,0.12486 -0.181366,0.19228 -0.42724,0.3512 -0.546387,0.35314 -0.119147,0.002 -0.329004,0.0725 -0.466349,0.15673 -0.137362,0.0843 -0.167314,0.12759 -0.06657,0.0963 0.115381,-0.0358 0.168563,-0.0131 0.143728,0.0614 -0.05345,0.16034 -1.590911,0.44108 -2.873998,0.52479 -1.328484,0.0867 -4.160307,-0.15738 -4.042266,-0.34838 0.02721,-0.044 0.194624,-0.0384 0.372028,0.0125 0.321798,0.0923 0.973285,0.0288 0.973285,-0.0948 0,-0.10428 -0.755561,-0.40267 -1.199275,-0.47363 -0.479992,-0.0768 -0.481282,-0.27354 -0.0021,-0.32036 0.182319,-0.0178 0.393427,-0.0943 0.46913,-0.17002 0.116929,-0.11693 0.110105,-0.15238 -0.04535,-0.23558 -0.100643,-0.0539 -0.369004,-0.1193 -0.596358,-0.14542 -0.494179,-0.0568 -0.62379,-0.12599 -0.62379,-0.33312 0,-0.1154 0.05805,-0.13759 0.224746,-0.0859 0.506955,0.15713 0.722622,0.15019 0.349605,-0.0112 -0.206017,-0.0892 -0.374577,-0.20036 -0.374577,-0.2471 0,-0.0468 -0.16856,-0.15541 -0.374577,-0.24147 -0.206017,-0.0861 -0.486949,-0.26132 -0.624294,-0.38948 -0.494042,-0.461 -1.498307,-0.7969 -1.498307,-0.50114 0,0.10931 -0.06681,0.13247 -0.249718,0.0866 -0.174967,-0.0439 -0.249718,-0.0219 -0.249718,0.0736 0,0.16171 -0.54995,0.42712 -0.696874,0.33632 -0.05622,-0.0348 -0.102223,-0.11795 -0.102223,-0.18489 0,-0.0669 -0.07147,-0.22375 -0.15883,-0.34847 -0.125997,-0.17989 -0.187942,-0.2026 -0.299661,-0.10988 -0.107947,0.0896 -0.175817,0.0878 -0.290662,-0.007 -0.229846,-0.19076 -0.195878,0.20516 0.05966,0.69543 0.248939,0.4776 0.571447,0.76444 1.239645,1.10254 0.271441,0.13734 0.553626,0.30545 0.627078,0.37356 0.07345,0.0681 0.389251,0.19259 0.701775,0.27661 0.960946,0.25834 1.248951,0.36615 1.766871,0.66142 0.620813,0.35392 0.377743,0.37144 -0.649266,0.0468 -1.997457,-0.63143 -2.976089,-1.1385 -3.688178,-1.91103 -0.360401,-0.39099 -0.407194,-0.41567 -0.407194,-0.21482 0,0.12481 0.146085,0.46829 0.324633,0.76329 0.323017,0.53368 0.703952,0.80688 1.54825,1.11037 0.209644,0.0754 0.324634,0.18317 0.324634,0.30435 0,0.12428 0.07112,0.18766 0.210598,0.18766 0.11583,0 0.666457,0.15406 1.223618,0.34235 2.260821,0.76405 5.377249,1.03699 6.944665,0.60822 z m -1.284275,-0.85094 c 1.821579,-0.21551 2.773785,-0.49569 3.320177,-0.97694 0.168011,-0.14798 0.166757,-0.16554 -0.02652,-0.37128 -0.172905,-0.18405 -0.283806,-0.20924 -0.750703,-0.17052 -0.583556,0.0484 -0.718604,-0.0692 -0.299018,-0.26038 0.181575,-0.0827 0.243118,-0.18215 0.227745,-0.3679 -0.01537,-0.18566 -0.06241,-0.23734 -0.173895,-0.19099 -0.08406,0.0349 -0.242728,0.0874 -0.352603,0.11657 -0.109876,0.0292 -0.252827,0.0944 -0.317668,0.14494 -0.171569,0.13376 -0.363292,-0.24889 -0.204345,-0.40783 0.09061,-0.0906 0.04154,-0.0913 -0.212017,-0.003 -0.237565,0.0828 -0.360317,0.0846 -0.438506,0.006 -0.07819,-0.0782 -0.03222,-0.13762 0.164224,-0.21231 0.715219,-0.27192 1.258029,-0.9896 1.258029,-1.6633 0,-0.37922 -0.300528,-0.823143 -0.593711,-0.876991 -0.963261,-0.176922 -0.989919,-0.176076 -0.936107,0.0297 0.03059,0.116972 0.107546,0.174154 0.191185,0.142059 0.101359,-0.03889 0.139988,0.03105 0.139988,0.253495 0,0.217647 0.03952,0.292047 0.13554,0.255197 0.184505,-0.0708 0.304133,0.79227 0.151112,1.0902 -0.178116,0.34679 -0.609462,0.76605 -0.788128,0.76605 -0.293521,0 -0.301704,-0.12562 -0.03128,-0.48016 0.242125,-0.31744 0.250839,-0.35858 0.09941,-0.46931 -0.09129,-0.0667 -0.165978,-0.16709 -0.165978,-0.22298 0,-0.0559 -0.06742,-0.15757 -0.149831,-0.22597 -0.103519,-0.0859 -0.14983,-0.0897 -0.14983,-0.0122 0,0.0617 -0.03568,0.11212 -0.0793,0.11212 -0.07572,0 -0.690037,-1.230317 -0.916737,-1.835984 -0.05923,-0.158255 -0.189283,-0.405476 -0.288998,-0.54938 -0.181315,-0.261666 -0.433351,-0.973895 -0.560935,-1.585148 -0.05546,-0.265712 -0.03688,-0.324633 0.102376,-0.324633 0.145153,0 0.163448,-0.08066 0.124588,-0.549264 -0.02505,-0.302095 -0.07351,-0.577226 -0.107689,-0.611402 -0.107476,-0.107477 -1.170038,0.06867 -1.169952,0.193954 4.5e-5,0.06472 0.08784,0.342417 0.195102,0.617107 0.18052,0.462299 0.195369,0.476225 0.199693,0.187288 0.0073,-0.485393 0.119086,-0.936441 0.232156,-0.936441 0.0681,0 0.08132,0.411616 0.0393,1.223617 -0.100723,1.946284 0.15146,3.000482 0.906315,3.788666 0.262356,0.27394 0.331824,0.41384 0.272798,0.54938 -0.04356,0.10001 -0.06968,0.22268 -0.05806,0.27258 0.01162,0.0499 -0.03743,0.12788 -0.109001,0.17327 -0.09981,0.0633 -0.101038,0.0829 -0.0053,0.0841 0.06867,8.4e-4 0.124859,0.0642 0.124859,0.14068 0,0.18176 0.19744,0.25224 0.529073,0.18884 0.146681,-0.028 0.344843,-0.021 0.440361,0.0157 0.313082,0.12014 -0.0694,0.25286 -0.719716,0.24974 -0.580674,-0.003 -1.466889,-0.17907 -1.607588,-0.31977 -0.03796,-0.038 -0.01587,-0.13306 0.0491,-0.21134 0.09869,-0.11891 0.03484,-0.15377 -0.388268,-0.21197 -0.33827,-0.0465 -0.553694,-0.0304 -0.648886,0.0486 -0.07838,0.065 -0.200657,0.0851 -0.271736,0.0446 -0.07108,-0.0405 0.05056,0.0869 0.270314,0.28311 0.438111,0.39117 1.062981,0.55454 2.395905,0.62638 0.807819,0.0435 0.987676,0.21666 0.282488,0.2719 -0.264482,0.0207 0.0023,0.0458 0.59291,0.0557 0.637264,0.0107 1.073787,0.0586 1.073787,0.11789 0,0.0549 -0.107564,0.0999 -0.239031,0.0999 -0.131467,0 -0.264904,0.0674 -0.296527,0.14983 -0.04152,0.1082 -0.21103,0.14983 -0.610009,0.14983 -0.303883,0 -0.552514,0.045 -0.552514,0.0999 0,0.0549 -0.0899,0.0999 -0.199775,0.0999 -0.109875,0 -0.188537,0.0542 -0.174802,0.12047 0.02412,0.11637 -0.622382,0.28468 -1.088901,0.28349 -0.162243,-4.1e-4 -0.202699,0.0461 -0.165132,0.18973 0.03915,0.14969 -0.01089,0.19721 -0.234603,0.22281 -0.222832,0.0255 -0.133069,0.0742 0.414849,0.22519 0.384566,0.10595 0.758607,0.25204 0.831204,0.32463 0.15837,0.15836 0.234179,0.16019 1.31899,0.0318 z m -23.975531,-0.2049 c -1.766124,-0.12647 -3.026368,-0.50525 -4.135225,-1.24289 -0.289493,-0.19257 -0.28954,-0.19257 -0.179037,0.0139 0.1514,0.28289 1.719782,1.02923 2.393187,1.13882 0.302453,0.0492 0.573747,0.11334 0.602876,0.14247 0.02913,0.0291 0.573624,0.0462 1.209988,0.0379 l 1.157026,-0.0151 z m 1.152389,-0.4145 c 0.05009,-0.0501 -0.394772,-0.10727 -2.163915,-0.27813 -0.473932,-0.0458 -1.004332,-0.15698 -1.178666,-0.24713 -0.180599,-0.0934 -0.404993,-0.13597 -0.521564,-0.099 -0.143889,0.0457 -0.364688,-0.0453 -0.744162,-0.30668 -0.296762,-0.20439 -0.539567,-0.41109 -0.539567,-0.45934 0,-0.0482 -0.04495,-0.0877 -0.09989,-0.0877 -0.242251,0 -0.06131,0.27557 0.37477,0.57076 0.669061,0.4529 1.119276,0.63298 2.322182,0.92883 0.359167,0.0883 2.458649,0.0705 2.550809,-0.0216 z m 1.844225,-0.26793 c 0,-0.0583 -0.09984,-0.31144 -0.22187,-0.56261 -0.216477,-0.44558 -0.23165,-0.45564 -0.624294,-0.4138 -0.221334,0.0236 -0.603556,0.0975 -0.849383,0.16423 -0.484526,0.13156 -1.170843,0.0799 -1.90039,-0.14293 -0.24722,-0.0755 -0.572555,-0.1645 -0.722966,-0.19772 -0.184593,-0.0408 -0.334837,-0.18163 -0.462274,-0.43339 -0.317569,-0.62736 -0.338169,-0.9369 -0.118236,-1.77658 0.112595,-0.42988 0.204718,-0.816966 0.204718,-0.860197 0,-0.09774 -0.373351,0.04044 -1.139684,0.421797 -0.324668,0.16156 -0.631286,0.29375 -0.681373,0.29375 -0.224978,0 -0.676294,0.66547 -0.675564,0.99613 0.0013,0.60298 0.196728,0.98114 0.668399,1.29356 0.603957,0.40005 0.722285,0.3894 0.352535,-0.0317 -0.313203,-0.35671 -0.695246,-1.21908 -0.587714,-1.32661 0.03469,-0.0347 0.171431,0.17982 0.30387,0.47669 0.251725,0.56425 0.588409,0.9339 1.135237,1.24637 0.178548,0.10203 0.324633,0.24183 0.324633,0.31066 0,0.0707 0.06577,0.0999 0.151102,0.0672 0.08311,-0.0319 0.211696,-0.008 0.285754,0.0538 0.07406,0.0615 0.466792,0.15618 0.872741,0.21048 0.405949,0.0543 0.96098,0.13265 1.233402,0.17411 0.852192,0.1297 2.451357,0.15373 2.451357,0.0368 z m 25.069091,-0.92267 c 0.293249,-0.40482 0.295318,-0.41632 0.121298,-0.67424 -0.09737,-0.14432 -0.265052,-0.43324 -0.372625,-0.64206 -0.165685,-0.32161 -1.021831,-1.16859 -1.181238,-1.16859 -0.02795,0 -0.03919,0.21351 -0.02496,0.47446 0.01422,0.26096 -0.01458,0.55681 -0.06401,0.65746 -0.06263,0.12753 -0.04552,0.21835 0.05647,0.29966 0.08048,0.0642 0.314941,0.36389 0.521014,0.66605 0.43642,0.63991 0.557664,0.7991 0.608634,0.7991 0.0204,0 0.171338,-0.18533 0.335423,-0.41184 z m -6.464715,-0.001 c 0.20451,-0.10945 0.19986,-0.11939 -0.131426,-0.28097 -0.18889,-0.0921 -0.332463,-0.22007 -0.31905,-0.28432 0.01341,-0.0643 -0.07649,-0.13549 -0.199774,-0.15829 -0.578164,-0.10695 -1.619282,-0.24836 -1.644294,-0.22335 -0.0327,0.0327 0.17856,0.14028 1.088902,0.55454 0.367202,0.16709 0.695736,0.34927 0.730077,0.40483 0.08106,0.13116 0.213732,0.12769 0.475565,-0.0124 z M 51.288959,102.7716 c 0.206017,-0.0572 0.374577,-0.11925 0.374577,-0.13785 0,-0.0186 -0.06715,-0.16258 -0.149215,-0.31994 -0.170509,-0.32694 -0.198597,-0.7356 -0.05056,-0.7356 0.05494,0 0.100575,0.12361 0.101416,0.27469 8.42e-4,0.15108 0.03953,0.33464 0.08599,0.40792 0.129613,0.20447 0.194986,-0.051 0.271105,-1.05929 0.05462,-0.72355 0.02791,-1.03526 -0.15101,-1.762042 -0.571158,-2.320122 -0.740525,-3.460958 -0.742769,-5.003209 -0.0012,-0.824069 0.02808,-1.655629 0.06506,-1.847912 0.08595,-0.446872 -0.03089,-0.625589 -0.424311,-0.648994 -0.417613,-0.02484 -0.549094,0.215312 -0.364037,0.66493 0.07553,0.183518 0.168577,0.523456 0.206764,0.755419 0.03917,0.237953 0.120222,0.412074 0.185978,0.399548 0.159149,-0.03032 0.142945,1.214133 -0.01924,1.477334 -0.104641,0.169821 -0.11504,0.133514 -0.07188,-0.250946 0.04999,-0.445261 0.04946,-0.446201 -0.05629,-0.09989 -0.12159,0.398175 -0.405142,1.117675 -0.728257,1.847912 -0.588943,1.331009 -0.953366,3.071129 -0.954836,4.55935 -6.72e-4,0.67984 0.02605,0.78946 0.243531,0.99888 0.282275,0.27181 1.06789,0.57489 1.503739,0.58012 0.164814,0.002 0.468221,-0.0432 0.674238,-0.10043 z m -0.995784,-0.84693 c 0.02816,-0.43777 0.145393,-1.44772 0.260524,-2.244317 0.115131,-0.7966 0.209672,-1.633779 0.210091,-1.860398 9.07e-4,-0.490738 0.100376,-1.036329 0.188937,-1.036329 0.08136,0 -0.0347,1.681613 -0.230958,3.346224 -0.0842,0.71419 -0.153971,1.52901 -0.155043,1.8107 -0.0013,0.34787 -0.05373,0.55515 -0.163347,0.64613 -0.14695,0.12196 -0.156816,0.0627 -0.110204,-0.66201 z m -1.126817,-0.79595 c 0,-0.46068 0.04073,-0.74916 0.105782,-0.74916 0.05818,0 0.078,0.045 0.04405,0.0999 -0.03395,0.0549 -0.01861,0.0999 0.03409,0.0999 0.0527,0 0.148692,-0.23599 0.213315,-0.52441 0.06462,-0.288424 0.26589,-0.9739 0.447262,-1.523279 0.181372,-0.549379 0.390016,-1.21238 0.463654,-1.473335 0.127528,-0.451933 0.290047,-0.637396 0.290047,-0.330997 0,0.232609 -0.476613,2.057556 -0.692969,2.653373 -0.109722,0.302158 -0.200961,0.670338 -0.202755,0.818178 -0.0018,0.14783 -0.04228,0.29291 -0.08998,0.32239 -0.0477,0.0295 -0.11801,0.28946 -0.156252,0.57775 -0.06811,0.51346 -0.193707,0.77886 -0.36858,0.77886 -0.04821,0 -0.08766,-0.33712 -0.08766,-0.74915 z m 2.204537,-0.0749 c -0.0039,-0.20602 0.03793,-0.37458 0.09287,-0.37458 0.119278,0 0.119278,0.27181 0,0.54938 -0.06887,0.16026 -0.08723,0.12568 -0.09287,-0.1748 z m 1.184026,1.19865 c -0.0042,-0.17855 -0.06495,-0.48196 -0.135056,-0.67424 l -0.127456,-0.34961 -0.0012,0.40725 c -6.35e-4,0.22399 -0.07988,0.52739 -0.176094,0.67424 l -0.17494,0.26699 h 0.31115 c 0.286007,0 0.310535,-0.0262 0.30355,-0.32463 z m 18.004746,-0.77774 c 0.03357,-0.35204 0.0096,-0.41042 -0.189282,-0.46032 -0.215461,-0.0541 -0.298283,-0.23132 -0.168663,-0.36094 0.03249,-0.0325 0.255751,1.3e-4 0.496141,0.0725 0.357099,0.10748 0.456674,0.10793 0.544196,0.002 0.05892,-0.071 0.265668,-0.12908 0.459446,-0.12908 0.193777,0 0.374449,-0.0221 0.401492,-0.0492 0.02704,-0.0271 0.271267,0.032 0.54272,0.13123 0.271453,0.0992 0.493551,0.15649 0.493551,0.12728 0,-0.0292 -0.138072,-0.21037 -0.306826,-0.40257 -0.168755,-0.19221 -0.379351,-0.501547 -0.467993,-0.687429 -0.199887,-0.419169 -0.369494,-0.440884 -0.28871,-0.03696 0.05682,0.284118 0.04556,0.297331 -0.200709,0.235521 -0.24584,-0.0617 -0.25825,-0.04736 -0.214846,0.248368 0.0515,0.35092 0.04611,0.35585 -0.228361,0.20896 -0.107803,-0.0577 -0.167563,-0.15092 -0.132799,-0.20717 0.03476,-0.0562 -0.02658,-0.200071 -0.136321,-0.319615 -0.154755,-0.168581 -0.179095,-0.270874 -0.108473,-0.455878 0.08517,-0.223107 0.102741,-0.22795 0.271842,-0.07492 0.221542,0.200493 0.326546,0.210328 0.255001,0.02388 -0.02949,-0.07685 -0.0131,-0.164769 0.03642,-0.195377 0.111452,-0.06888 0.03379,-0.663767 -0.08665,-0.663767 -0.04809,0 -0.08093,-0.325882 -0.07297,-0.724182 0.03117,-1.560821 -0.215274,-2.730496 -0.508419,-2.413035 -0.04604,0.04986 -0.161568,0.450253 -0.256721,0.889756 -0.09515,0.439504 -0.212953,0.874904 -0.261777,0.967558 -0.04882,0.09265 -0.113126,0.362348 -0.142894,0.599323 -0.05534,0.440569 -0.317051,1.796738 -0.404235,2.094743 -0.02664,0.09107 -0.108962,0.188804 -0.182933,0.217194 -0.107216,0.0411 -0.09814,-0.113991 0.04475,-0.764907 0.310742,-1.415531 0.316117,-1.456669 0.130431,-0.998325 -0.180448,0.445416 -0.276745,0.50646 -1.528001,0.968617 -0.813619,0.300514 -0.98905,0.524434 -0.699379,0.892695 0.11358,0.14439 0.471604,0.44849 0.795608,0.67576 0.324004,0.22728 0.603219,0.48704 0.620477,0.57724 0.02717,0.142 0.689061,0.34068 1.342069,0.40284 0.06327,0.006 0.131547,-0.16925 0.152815,-0.39227 z m -3.842172,0.12353 c 0.08862,-0.0563 0.062,-0.14899 -0.09989,-0.34763 -0.160734,-0.19724 -0.260187,-0.24559 -0.365936,-0.1779 -0.124458,0.0797 -0.125615,0.12958 -0.0081,0.34917 0.141269,0.26397 0.26413,0.30969 0.473915,0.17636 z m 0.478239,-0.50809 c -0.238159,-0.20333 -0.483763,-0.60948 -0.41197,-0.68127 0.02811,-0.0281 0.18425,0.0437 0.346973,0.15956 0.374294,0.26652 0.565833,0.27263 0.341732,0.0109 -0.09408,-0.10988 -0.228487,-0.19978 -0.298684,-0.19978 -0.0702,0 -0.127632,-0.11237 -0.127632,-0.24971 0,-0.512149 -0.377734,-0.187966 -0.412983,0.35443 -0.03098,0.47668 0.135206,0.74104 0.477938,0.76027 0.278853,0.0156 0.280431,0.0128 0.08463,-0.1544 z m 7.049287,-1.360722 c -0.25051,-0.811059 -0.254089,-0.887704 -0.03757,-0.804617 0.277586,0.10652 -0.14395,-0.315987 -0.485016,-0.486133 -0.309387,-0.154343 -0.358214,-0.109966 -0.148596,0.135051 0.0742,0.08673 0.206462,0.382442 0.293911,0.657132 0.228331,0.717215 0.473658,1.278389 0.532951,1.219099 0.0281,-0.0281 -0.04196,-0.35234 -0.155683,-0.720532 z M 62.639489,98.246004 c 0.148796,-0.179288 1.210276,-1.941347 1.210276,-2.009061 0,-0.02895 -0.06592,-0.05264 -0.146496,-0.05264 -0.08057,0 -0.372038,-0.200313 -0.647699,-0.445139 -0.686815,-0.609989 -0.81649,-0.665308 -1.636294,-0.698038 -0.934332,-0.0373 -1.546171,-0.18988 -2.234631,-0.557263 -0.308278,-0.164507 -0.577772,-0.281837 -0.598876,-0.260733 -0.115784,0.115784 1.889733,3.168083 2.352532,3.580438 0.613259,0.546416 1.437076,0.76067 1.701188,0.442436 z m 0.763006,-0.3064 c 0.770736,-0.399863 1.331161,-1.055002 2.36228,-2.761515 0.567413,-0.939076 1.152412,-1.894693 1.299997,-2.123594 0.569675,-0.883551 0.805322,-1.336559 0.995889,-1.914491 0.421558,-1.278463 0.790817,-2.945896 0.895874,-4.045429 0.104836,-1.097219 0.575597,-2.827084 1.291194,-4.744638 0.445228,-1.193058 0.50432,-1.655826 0.398185,-3.118325 -0.05495,-0.757128 -0.146154,-2.253106 -0.202686,-3.324395 -0.106243,-2.013305 -0.333149,-3.432253 -0.715409,-4.473774 -0.188492,-0.513575 -0.54369,-1.055877 -1.204998,-1.839745 l -0.228079,-0.270347 0.0329,1.234174 c 0.04837,1.814368 -0.205545,3.021094 -1.136184,5.399636 -0.786898,2.011165 -1.126154,3.806461 -1.1986,6.342832 -0.02118,0.741662 -0.08224,1.977765 -0.135684,2.746896 -0.05344,0.769131 -0.0955,1.98276 -0.09346,2.696953 0.0039,1.36045 -0.153771,2.559689 -0.564674,4.295146 -0.130076,0.549379 -0.355393,1.536194 -0.500705,2.192922 -0.304483,1.376092 -0.584745,2.118401 -1.126974,2.984923 -0.629487,1.005968 -0.617727,0.955638 -0.168875,0.722771 z m 16.886177,-0.565951 c 0.545268,-0.171229 1.710584,-0.662973 2.589591,-1.092764 1.89764,-0.927853 2.347872,-1.064432 3.795711,-1.151434 0.604317,-0.03631 1.114173,-0.08021 1.133012,-0.09755 0.01884,-0.01734 -0.107524,-0.104837 -0.280809,-0.194446 -0.780184,-0.403449 -3.968081,-0.454262 -4.951809,-0.07893 -0.277017,0.105694 -1.210606,0.672002 -2.07464,1.258462 -1.568123,1.064359 -1.572066,1.066292 -2.174946,1.066292 -0.597929,0 -0.603659,0.0027 -0.572369,0.270739 0.06078,0.520655 0.919601,0.5273 2.536259,0.01963 z m -2.796476,0.143534 c -0.09489,-0.247273 0.224884,-1.122159 0.59812,-1.636442 0.561329,-0.773455 1.36543,-1.465257 1.851291,-1.592744 0.885875,-0.232448 1.116672,-0.406465 1.459326,-1.100311 0.176352,-0.357097 0.367386,-0.864988 0.424521,-1.128647 0.145459,-0.671247 0.129327,-1.825617 -0.03453,-2.471275 -0.07613,-0.299967 -0.189423,-1.152208 -0.251767,-1.89387 -0.06234,-0.741662 -0.136602,-1.595697 -0.165019,-1.897855 -0.0608,-0.646489 -0.294772,-1.624345 -0.48995,-2.047687 -0.498551,-1.081356 -0.670864,-1.497811 -0.950576,-2.297403 -0.441673,-1.262579 -0.562586,-1.927785 -0.590082,-3.246332 -0.01932,-0.926432 0.02611,-1.379714 0.234754,-2.342583 0.224885,-1.037796 0.244573,-1.266329 0.150591,-1.748025 -0.05946,-0.304779 -0.151958,-0.782011 -0.205543,-1.060516 -0.05358,-0.278505 -0.282295,-0.817896 -0.508246,-1.198646 -0.794113,-1.338159 -1.067527,-2.015085 -1.474637,-3.650935 -0.223131,-0.896584 -0.405692,-1.796106 -0.405692,-1.998938 0,-1.40883 -0.664368,-3.044177 -1.578669,-3.885904 -0.780667,-0.7187 -1.715105,-1.494797 -1.799864,-1.494875 -0.03717,-3.4e-5 -0.05192,0.225855 -0.03279,0.501975 0.01913,0.27612 -0.01599,0.793569 -0.07803,1.149886 -0.1202,0.690241 -0.117771,0.69935 0.644648,2.417653 0.256112,0.577213 0.349374,1.571458 0.327316,3.489419 -0.02828,2.458747 0.05092,2.718819 1.311004,4.3052 0.492009,0.619412 1.017732,1.383549 1.168273,1.698081 0.262403,0.548246 0.273883,0.637915 0.277829,2.17007 0.0038,1.479876 -0.14003,3.097858 -0.459294,5.166331 -0.140618,0.911043 -0.102711,1.164125 0.550243,3.67368 0.250147,0.961414 0.508701,2.188848 0.574563,2.727631 0.148495,1.214757 0.06965,3.326979 -0.149857,4.01475 -0.20493,0.642087 -0.793963,1.798948 -1.144329,2.24746 -0.615713,0.78819 -0.749579,1.586096 -0.401752,2.394641 0.174089,0.404682 0.284438,0.517529 0.674238,0.689497 0.568676,0.250884 0.551621,0.249203 0.473918,0.04671 z m 1.615078,-21.634942 c 0.03388,-0.668588 8.84e-4,-1.099555 -0.119404,-1.5593 -0.17373,-0.664002 -0.141571,-0.94976 0.0509,-0.452295 0.226259,0.584792 0.320212,1.40265 0.248744,2.165319 -0.0397,0.423628 -0.107028,0.770232 -0.149623,0.770232 -0.04259,0 -0.05637,-0.41578 -0.03062,-0.923956 z m -4.229337,-12.48589 c -0.406408,-0.470793 -0.657559,-0.898514 -0.693267,-1.180664 -0.02037,-0.16097 5.44e-4,-0.292672 0.04648,-0.292672 0.120072,0 0.754036,0.720791 1.059346,1.204435 0.276459,0.437939 0.239054,0.717336 -0.03954,0.295374 -0.09014,-0.13652 -0.291832,-0.38374 -0.448213,-0.54938 l -0.284328,-0.301162 0.195251,0.299661 c 0.245627,0.376977 0.44153,0.749154 0.394332,0.749154 -0.01982,0 -0.123351,-0.101136 -0.230056,-0.224746 z m -2.562738,31.620336 c -0.09614,-0.02512 -0.174802,-0.108845 -0.174802,-0.186046 0,-0.115864 -0.04656,-0.119149 -0.266757,-0.01882 -0.221755,0.101039 -0.275063,0.09663 -0.31599,-0.02615 -0.02708,-0.08123 -0.187539,-0.282976 -0.356582,-0.448318 l -0.307351,-0.300622 -0.03572,0.246498 c -0.02566,0.177077 0.05187,0.324766 0.275311,0.524408 0.261679,0.23381 0.393999,0.276071 0.833866,0.266322 0.287558,-0.0064 0.444171,-0.03214 0.348029,-0.05727 z m 0.412204,-1.408283 c 0.01132,-1.514469 0.08069,-1.841967 0.626633,-2.958368 0.41567,-0.850002 0.612241,-1.557722 0.43266,-1.557722 -0.02848,0 -0.27104,0.114647 -0.539022,0.254771 -0.475851,0.248815 -0.490053,0.269675 -0.607542,0.892343 -0.06617,0.350664 -0.134579,1.10129 -0.152029,1.668056 -0.01745,0.566766 -0.08811,1.398596 -0.15702,1.84851 -0.102323,0.66807 -0.101389,0.846826 0.0051,0.975131 0.269548,0.324786 0.382838,-3.27e-4 0.391225,-1.122721 z m -1.035125,-0.249716 c -0.121842,-0.404851 -0.121578,-0.561208 0.0019,-1.144041 0.191328,-0.90288 0.185985,-1.470413 -0.01574,-1.672141 -0.117964,-0.117964 -0.147596,-0.271678 -0.108527,-0.562964 0.04249,-0.316788 0.01895,-0.411697 -0.112418,-0.453244 -0.09139,-0.0289 -0.256061,-0.08935 -0.365937,-0.134323 -0.404943,-0.165752 -0.549379,-0.191189 -0.549379,-0.09675 0,0.05321 0.04495,0.09675 0.09989,0.09675 0.05494,0 0.09989,0.04495 0.09989,0.09989 0,0.192614 -0.28717,0.09733 -0.492186,-0.163301 -0.344649,-0.43815 -0.235886,-0.101933 0.350567,1.083702 0.595561,1.204049 0.594773,1.199036 0.420766,2.675536 -0.02098,0.178033 0.01845,0.250093 0.137356,0.251026 0.09173,7.2e-4 0.265415,0.126697 0.385964,0.27995 0.120549,0.153253 0.234881,0.26294 0.254072,0.243748 0.01919,-0.01919 -0.02862,-0.245916 -0.106238,-0.503835 z m 0.476511,-0.895184 c 0.03052,-0.535645 0.02212,-0.973899 -0.01866,-0.973899 -0.14427,0 -0.299298,1.397579 -0.189853,1.711531 0.05683,0.163025 0.114511,0.282877 0.128178,0.266338 0.01367,-0.01654 0.04982,-0.468325 0.08033,-1.00397 z M 50.564777,91.140004 c 0.0735,-0.137345 0.172986,-0.249718 0.221069,-0.249718 0.04808,0 0.06128,-0.310955 0.02934,-0.691012 -0.03633,-0.432235 -0.01928,-0.714993 0.04553,-0.755048 0.05699,-0.03522 0.102759,-0.117571 0.101715,-0.183001 -0.001,-0.06543 -0.135891,0.09441 -0.299661,0.355205 -0.16377,0.260793 -0.297764,0.584022 -0.297764,0.718287 0,0.232898 -0.158355,0.43051 -0.261961,0.326903 -0.09117,-0.09117 0.27242,-1.291877 0.473582,-1.563963 0.197765,-0.267491 0.282336,-0.970418 0.143736,-1.194679 -0.137267,-0.222102 -0.355357,-0.112714 -0.355357,0.178238 0,0.158087 -0.06158,0.338536 -0.13684,0.400998 -0.209273,0.173681 -0.692483,1.315502 -0.683935,1.616134 0.009,0.316766 0.584485,1.291374 0.762521,1.291374 0.06841,0 0.184524,-0.112373 0.258028,-0.249718 z m 0.844503,-0.724182 c 0.03372,-0.370831 0.10472,-0.836775 0.157781,-1.035432 0.05306,-0.198656 0.09347,-0.423402 0.08979,-0.499435 -0.01091,-0.22579 -0.280293,0.70484 -0.429825,1.484924 -0.113036,0.589695 -0.114696,0.724181 -0.0089,0.724181 0.0877,0 0.14979,-0.21897 0.191186,-0.674238 z m 20.993453,-0.153866 c 0.0546,-0.398329 0.03896,-0.470428 -0.102063,-0.470428 -0.209869,0 -0.331318,0.293837 -0.164151,0.397151 0.08497,0.05252 0.102292,0.185494 0.05397,0.414439 -0.05126,0.242908 -0.04056,0.308071 0.03831,0.233189 0.0602,-0.05716 0.138467,-0.315616 0.173931,-0.574351 z m -0.338787,-1.124984 c -0.03604,-0.188547 -0.101983,-0.24712 -0.253014,-0.224746 -0.290456,0.04303 -0.315286,0.227762 -0.04793,0.356584 0.331359,0.159661 0.354711,0.149431 0.300944,-0.131838 z m 1.743808,-0.754011 C 73.78741,88.13016 73.668906,87.71291 73.544412,87.45574 l -0.226352,-0.467583 -0.222176,0.228012 c -0.122196,0.125406 -0.317329,0.304162 -0.433628,0.397236 -0.185891,0.148768 -0.198287,0.20914 -0.102541,0.499435 0.0599,0.181616 0.1291,0.541556 0.153774,0.799866 l 0.04486,0.469655 0.543195,-0.269881 0.543195,-0.26988 z m -2.666228,0.670831 c 0,-0.02119 -0.06512,-0.164051 -0.144719,-0.317471 -0.07959,-0.15342 -0.126918,-0.307747 -0.105163,-0.342949 0.02176,-0.0352 -0.09292,-0.04456 -0.254829,-0.0208 -0.411287,0.06036 -0.363212,-0.07276 0.171953,-0.476159 l 0.460162,-0.346862 -0.31342,-0.127889 c -0.172381,-0.07034 -0.31342,-0.178213 -0.31342,-0.23972 0,-0.197855 -0.322491,0.142932 -0.470629,0.497329 -0.19727,0.471939 -0.08486,0.84182 0.349837,1.151111 0.323794,0.230382 0.620228,0.337158 0.620228,0.223407 z M 51.24634,88.592434 c 0.03718,-2.46e-4 0.07576,-0.168806 0.08574,-0.374577 0.0267,-0.550591 0.245821,-1.52283 0.343205,-1.52283 0.04638,0 0.112539,0.112373 0.14701,0.249717 0.09616,0.383145 0.216811,0.297343 0.255706,-0.181853 l 0.03503,-0.431571 -0.399549,0.07715 c -0.235804,0.04553 -0.537454,0.03341 -0.73605,-0.02958 -0.264769,-0.08398 -0.354938,-0.07763 -0.42299,0.02979 -0.101777,0.160653 -0.114899,0.503612 -0.02794,0.730225 0.04972,0.129576 0.09013,0.13688 0.209441,0.03786 0.290179,-0.240827 0.470385,0.48242 0.284348,1.141211 -0.04263,0.150957 -0.04323,0.353228 -0.0013,0.449492 0.07251,0.166595 0.07819,0.166606 0.117984,2.24e-4 0.023,-0.09614 0.07223,-0.175004 0.109401,-0.175251 z m 21.542407,-1.335006 c 0.296668,-0.216929 0.293783,-0.619046 -0.0073,-1.013752 -0.145882,-0.19126 -0.306925,-0.347746 -0.357874,-0.347746 -0.09325,0 -0.09742,0.713357 -0.0072,1.223617 0.0551,0.311455 0.10809,0.331082 0.372308,0.137881 z m -1.372532,-0.543893 c 0.16414,-0.205838 0.159049,-0.632778 -0.01031,-0.864387 -0.158754,-0.217108 -0.02277,-0.947995 0.201291,-1.081912 0.180189,-0.107695 0.173692,-0.569387 -0.008,-0.569387 -0.07791,0 -0.212761,-0.02728 -0.299661,-0.06063 -0.137392,-0.05272 -0.158,0.0659 -0.158,0.90945 0,0.829237 -0.03539,1.040536 -0.243742,1.455357 l -0.243741,0.485278 0.318657,-0.05859 c 0.175261,-0.03223 0.374843,-0.129055 0.443515,-0.215173 z M 52.324712,85.446438 c 0.07349,-0.27469 0.107313,-0.673002 0.07516,-0.885138 l -0.05845,-0.385702 -0.246471,0.435645 c -0.135559,0.239606 -0.27963,0.447811 -0.320157,0.462679 -0.04053,0.01487 -0.02668,0.229648 0.03078,0.477288 0.136706,0.589221 0.344701,0.547243 0.519135,-0.104772 z m -1.409708,0.28477 c 0.109695,-0.109695 0.140418,-0.234825 0.09197,-0.374576 -0.099,-0.285569 -0.08622,-0.822887 0.03167,-1.331643 l 0.09792,-0.422576 -0.360809,-0.05739 c -0.198445,-0.03157 -0.43947,-0.07318 -0.535612,-0.09248 -0.200923,-0.04033 -0.226535,0.0543 -0.05982,0.221012 0.205523,0.205523 0.277854,1.0428 0.117113,1.355655 -0.206991,0.40287 -0.09022,0.866722 0.218199,0.866722 0.129055,0 0.308771,-0.07413 0.399368,-0.164722 z m 21.704261,-0.665733 c 0.05125,-0.06516 0.121312,-0.303182 0.155694,-0.528938 0.05883,-0.386259 0.04918,-0.407916 -0.163592,-0.367242 -0.189267,0.03618 -0.228133,0.111194 -0.238546,0.460409 -0.0068,0.229452 -0.03331,0.529558 -0.05881,0.666903 -0.06635,0.357315 0.04947,0.495331 0.137971,0.164415 0.04076,-0.152391 0.116032,-0.330387 0.167283,-0.395547 z M 72.140397,84.73058 c 0,-0.428096 -0.04633,-0.413595 -0.132986,0.04162 -0.03551,0.186533 -0.02036,0.324633 0.0356,0.324633 0.05356,0 0.09739,-0.164814 0.09739,-0.366253 z M 51.86331,84.680903 c 0,-0.05746 0.134848,-0.304284 0.299661,-0.548491 0.164814,-0.244208 0.299662,-0.471933 0.299662,-0.506057 0,-0.03412 0.07866,-0.151865 0.174802,-0.261647 0.168076,-0.191924 0.167115,-0.196513 -0.02497,-0.119234 -0.633653,0.254927 -0.923163,0.344755 -1.123731,0.348667 -0.231793,0.0045 -0.300953,0.14527 -0.124859,0.254103 0.05494,0.03395 0.09989,0.148979 0.09989,0.255612 0,0.106634 0.04495,0.19388 0.09989,0.19388 0.05494,0 0.09989,0.1375 0.09989,0.305556 0,0.178269 0.04161,0.27984 0.09989,0.243823 0.05494,-0.03395 0.09989,-0.108749 0.09989,-0.166212 z m 19.977425,-0.944777 c 0,-0.232334 -0.01867,-0.24645 -0.165175,-0.124865 -0.09085,0.0754 -0.259407,0.121963 -0.374577,0.103482 -0.138667,-0.02225 -0.17566,-2.19e-4 -0.109514,0.06522 0.08625,0.08533 0.309247,0.165516 0.574351,0.206519 0.0412,0.0064 0.07491,-0.10629 0.07491,-0.250361 z m 0.780226,0.200796 c 0.296103,-0.05922 0.472612,-0.269789 0.368016,-0.439029 -0.06448,-0.104337 -0.775372,0.08577 -0.866961,0.231842 -0.149819,0.238944 0.0095,0.305084 0.498945,0.207187 z M 47.058112,82.138463 c 0.404462,-0.74248 0.688606,-1.375735 0.655735,-1.461395 -0.0319,-0.08314 0.187474,-0.776747 0.487504,-1.541349 0.300031,-0.764602 0.660027,-1.747621 0.79999,-2.184485 0.695668,-2.171369 0.773537,-2.373307 0.875754,-2.27109 0.08575,0.08575 -0.142402,0.972003 -0.300228,1.166247 -0.08137,0.100151 -0.316133,0.832011 -0.660328,2.058569 -0.06937,0.24722 -0.288165,0.828416 -0.486201,1.291545 -0.198035,0.46313 -0.344727,0.857392 -0.325981,0.876138 0.01875,0.01875 0.362618,-0.719772 0.764159,-1.641151 0.762178,-1.748896 1.181862,-3.008893 1.463346,-4.393332 0.145643,-0.716326 0.149642,-0.891643 0.03157,-1.383827 -0.107387,-0.44764 -0.111292,-0.677574 -0.01898,-1.11767 0.109827,-0.523601 0.103972,-0.564145 -0.106415,-0.736923 -0.12245,-0.100561 -0.279632,-0.231147 -0.349292,-0.290193 -0.169405,-0.14359 -1.962993,0.789779 -2.489094,1.295305 -0.468504,0.45018 -0.719436,1.182076 -0.819897,2.391393 -0.09894,1.191065 -0.06345,3.101928 0.07539,4.05832 0.0638,0.439503 0.142519,1.293538 0.174929,1.897855 0.05268,0.982334 0.03124,1.201515 -0.202363,2.068524 -0.143709,0.53337 -0.290228,1.050286 -0.325599,1.148702 -0.126326,0.35149 0.05243,0.06037 0.756001,-1.231183 z m 4.733359,-0.34387 c -0.02919,-0.860808 -0.01042,-1.392455 0.04918,-1.392455 0.140883,0 0.220083,0.616568 0.221332,1.723053 6.05e-4,0.535644 0.03481,0.972015 0.07601,0.969712 0.0412,-0.0023 0.22221,-0.08274 0.402237,-0.178758 l 0.327323,-0.174571 0.02228,-1.223275 0.02228,-1.223275 -1.327362,0.01336 -1.327361,0.01336 0.0538,0.589574 c 0.02959,0.324265 0.07898,0.86346 0.109758,1.198211 0.06879,0.748212 0.191276,1.089443 0.391062,1.089443 0.128059,0 0.152303,-0.191739 0.152303,-1.20454 0,-0.777592 0.0354,-1.182659 0.09989,-1.142807 0.05494,0.03395 0.102567,0.340013 0.105842,0.680133 0.0081,0.838626 0.137697,1.570795 0.29534,1.668224 0.329838,0.203851 0.374172,0.01277 0.326076,-1.405394 z m 19.97827,0.416611 c 0.04336,-0.569482 0.06574,-1.048516 0.04974,-1.06452 -0.016,-0.016 -0.15135,-0.05978 -0.300769,-0.09728 l -0.271672,-0.06819 0.06089,0.652098 c 0.04533,0.485421 0.01908,0.756602 -0.1027,1.060958 -0.200764,0.501759 -0.201218,0.480001 0.01121,0.536781 0.438247,0.11714 0.471381,0.05607 0.5533,-1.019848 z m 0.947112,1.024152 c 0.151516,-0.04059 0.196911,-0.09819 0.136696,-0.173438 -0.157363,-0.196641 -0.185958,-0.893324 -0.05926,-1.443661 0.138949,-0.603531 0.06081,-0.705202 -0.419051,-0.545248 -0.260829,0.08694 -0.270375,0.114941 -0.250104,0.733604 0.03104,0.947246 0.122948,1.49243 0.251345,1.490887 0.06243,-7.5e-4 0.215601,-0.02872 0.340369,-0.06214 z M 50.065342,81.600783 V 80.302251 H 49.75063 49.435919 l 0.05995,1.058651 c 0.05792,1.022707 0.216101,1.538414 0.471887,1.538414 0.05852,0 0.09759,-0.519863 0.09759,-1.298533 z m 3.649019,-1.667506 c 0.137062,-0.538726 0.316107,-1.519745 0.39788,-2.180041 0.175699,-1.418726 0.0967,-2.331332 -0.272771,-3.151032 -0.134587,-0.298594 -0.350534,-0.780459 -0.479882,-1.070811 -0.176523,-0.39625 -0.274106,-0.511756 -0.391264,-0.463131 -0.08585,0.03563 -0.234747,0.0874 -0.330889,0.115042 -0.264934,0.07618 -0.217558,0.365305 0.291466,1.778775 0.444733,1.234942 0.4666,1.345492 0.473435,2.393501 0.0039,0.604318 -0.02897,1.728048 -0.07314,2.497179 -0.09239,1.608861 -0.0082,1.626471 0.385165,0.08052 z m 19.125246,0.818563 c 0.260647,-0.06046 0.256483,-0.07217 -0.04994,-0.14043 -0.410185,-0.09137 -0.749153,-0.01696 -0.749153,0.164463 0,0.148538 0.06337,0.146633 0.799097,-0.02403 z m -1.221551,-0.199872 c -0.01567,-0.189362 -0.07718,-0.249717 -0.254494,-0.249717 -0.2322,0 -0.23119,0.06851 0.0055,0.374576 0.155991,0.201696 0.271217,0.143911 0.248973,-0.124859 z m 1.407557,-0.549379 C 72.832,79.17056 72.98783,78.145761 73.373588,77.714162 c 0.187567,-0.209855 0.191698,-0.232281 0.0322,-0.174802 -0.100634,0.03627 -0.246082,0.06594 -0.323216,0.06594 -0.30923,0 -0.629714,0.715642 -0.69335,1.548251 -0.03359,0.439503 -0.07888,0.888995 -0.100642,0.998871 -0.03464,0.174905 0.01384,0.199774 0.389409,0.199774 h 0.428977 z m -21.012472,-0.0385 c 0.838116,-0.03166 1.004275,-0.06482 1.032449,-0.206052 0.03033,-0.152018 -0.05673,-0.161721 -0.898984,-0.100211 -1.745422,0.127469 -2.040807,0.113309 -2.348153,-0.112567 -0.15537,-0.114186 -0.327127,-0.305837 -0.381682,-0.425892 -0.0552,-0.121478 -0.158496,-0.195524 -0.232916,-0.166967 -0.07355,0.02822 -0.173842,0.05132 -0.222876,0.05132 -0.04903,0 -0.159302,0.135655 -0.245041,0.301456 -0.144735,0.279885 -0.143132,0.305482 0.02241,0.357731 0.09806,0.03095 0.290669,0.105131 0.428014,0.164842 0.343746,0.149447 1.077816,0.252083 1.498307,0.209492 0.192282,-0.01948 0.799097,-0.05239 1.348476,-0.07315 z m 19.571253,-0.844657 c 0.07482,-0.956465 -0.01148,-1.336722 -0.343738,-1.514542 -0.348138,-0.186318 -0.413434,-0.07042 -0.19751,0.35057 0.1804,0.35173 0.295022,1.456466 0.196853,1.897296 -0.04135,0.185696 8.43e-4,0.243666 0.138824,0.190718 0.09421,-0.03615 0.158839,-0.326665 0.205571,-0.924042 z m -0.542756,-0.04668 c 0,-0.407446 -0.05296,-0.698705 -0.149853,-0.824069 -0.136091,-0.176085 -0.144514,-0.129673 -0.09171,0.505316 0.03198,0.384566 0.07553,0.755397 0.09677,0.824069 0.08809,0.284708 0.144788,0.08683 0.144788,-0.505316 z m -16.036552,0.396223 c 0.175061,-0.128008 0.172663,-0.141546 -0.05308,-0.299661 -0.329519,-0.230805 -0.391745,-0.209509 -0.391745,0.134064 0,0.327507 0.148032,0.382615 0.444823,0.165597 z m -2.27986,-0.218651 0.312537,-0.06697 0.06446,-0.863946 c 0.04328,-0.580041 0.01585,-1.159364 -0.08347,-1.76293 -0.168675,-1.025093 -0.855503,-3.240269 -1.005614,-3.243336 -0.05494,-0.0011 -0.270948,0.155067 -0.480023,0.347087 -0.209074,0.19202 -0.443903,0.349128 -0.521842,0.349128 -0.202603,0 -0.417861,0.457986 -0.962433,2.047686 -0.381213,1.112828 -0.479443,1.533856 -0.480991,2.061592 -0.0026,0.875325 0.171011,1.102603 0.910025,1.191551 0.603188,0.0726 1.774776,0.04139 2.247349,-0.05987 z m -3.558868,-0.746043 c 0,-0.109875 -0.01723,-0.199774 -0.03829,-0.199774 -0.02106,0 -0.0618,0.0899 -0.09054,0.199774 -0.02873,0.109876 -0.0115,0.199775 0.03829,0.199775 0.04979,0 0.09054,-0.0899 0.09054,-0.199775 z m 23.453497,-0.719187 c 0.188546,-0.188546 0.140102,-0.297544 -0.07991,-0.179797 -0.109876,0.0588 -0.199774,0.150284 -0.199774,0.203289 0,0.132289 0.135264,0.120928 0.279684,-0.02349 z M 54.53192,77.030947 c -0.02289,-0.151079 -0.04161,-0.02747 -0.04161,0.27469 0,0.302158 0.01873,0.425769 0.04161,0.274689 0.02289,-0.151079 0.02289,-0.398299 0,-0.549379 z m 17.109041,0.07492 c 0,-0.109876 -0.04241,-0.199775 -0.09424,-0.199775 -0.05183,0 -0.172452,-0.132403 -0.268045,-0.294229 -0.09559,-0.161826 -0.215533,-0.26844 -0.266533,-0.236921 -0.051,0.03152 -0.131963,-0.0046 -0.179917,-0.08035 -0.06581,-0.103904 -0.08467,-0.08867 -0.0769,0.06212 0.02743,0.53254 0.144152,0.792206 0.38641,0.859602 0.416876,0.115974 0.499226,0.09775 0.499226,-0.110448 z m 1.902816,0.04738 c 0.210669,-0.108941 0.297723,-0.22999 0.3053,-0.42452 0.0058,-0.149669 0.02508,-1.117102 0.04277,-2.149851 l 0.03217,-1.877726 -0.545803,0.02208 -0.545803,0.02208 0.03862,0.80683 c 0.03723,0.777743 -0.03282,1.977242 -0.185667,3.179149 l -0.07304,0.574351 h 0.318375 c 0.175105,0 0.450989,-0.06858 0.613075,-0.152396 z m -2.364163,-2.331682 c 0.101921,-0.112622 0.208816,-0.413299 0.237544,-0.668171 l 0.05223,-0.463402 -0.301099,0.155704 c -0.165604,0.08564 -0.329272,0.127531 -0.363706,0.0931 -0.03444,-0.03444 -0.05896,0.315714 -0.0545,0.778108 0.0071,0.733798 0.02313,0.806934 0.126162,0.575074 0.06493,-0.146103 0.20144,-0.357788 0.303362,-0.47041 z m -0.268723,-1.299336 c 0.06439,-0.103113 0.147255,-0.348316 0.184134,-0.544897 0.06139,-0.327223 0.04469,-0.363032 -0.197593,-0.423842 -0.145555,-0.03653 -0.288734,-0.04233 -0.318176,-0.01289 -0.07216,0.07216 0.06877,1.169107 0.150203,1.169107 0.03539,0 0.117037,-0.08436 0.181432,-0.187478 z M 51.763423,73.110378 c 0.247221,-0.164344 0.521557,-0.298999 0.609637,-0.299234 0.259048,-6.92e-4 0.330768,-1.297138 0.110583,-1.998937 -0.208377,-0.664164 -0.288665,-0.79833 -0.477738,-0.79833 -0.126025,0 -0.125244,0.04794 0.0059,0.361803 0.08314,0.198992 0.151171,0.459698 0.151171,0.579346 0,0.119647 0.04887,0.266407 0.108591,0.326132 0.0782,0.0782 0.07753,0.127784 -0.0024,0.177163 -0.127746,0.07895 -0.430247,-0.550221 -0.610433,-1.269642 -0.100165,-0.399927 -0.156201,-0.474464 -0.356693,-0.474464 -0.174086,0 -0.23786,0.05554 -0.23786,0.207135 0,0.113923 -0.112373,0.541887 -0.249718,0.95103 -0.289867,0.863499 -0.313276,1.360996 -0.08946,1.901166 0.306901,0.740686 0.390216,0.767711 1.038386,0.336832 z M 71.819615,72.72555 c -0.106796,-0.04164 -0.478315,0.275186 -0.478315,0.407906 0,0.0506 0.127944,-0.01255 0.284321,-0.14034 0.156376,-0.127789 0.243673,-0.248193 0.193994,-0.267566 z m -1.487372,-0.545648 c -0.147048,-1.184435 -0.428995,-1.79898 -1.329584,-2.89803 -0.212594,-0.259443 -0.357709,-0.500539 -0.322479,-0.535769 0.03523,-0.03523 0.07755,-0.04533 0.09404,-0.02244 0.01649,0.02289 0.157198,0.198115 0.312679,0.389387 l 0.282693,0.347768 -0.08793,-0.347768 c -0.04836,-0.191272 -0.08793,-0.753401 -0.08793,-1.249176 0,-1.301959 0.325464,-2.293005 0.992842,-3.023223 0.27362,-0.299383 0.679082,-0.661682 0.901026,-0.805108 0.353864,-0.228676 0.376764,-0.264823 0.186043,-0.293664 -0.11962,-0.01809 -0.271209,-0.09761 -0.336864,-0.176724 -0.06565,-0.07911 -0.221506,-0.143834 -0.346337,-0.143834 -0.124831,0 -0.528296,-0.09307 -0.896589,-0.206825 l -0.669624,-0.206826 -0.559482,0.488508 c -0.307715,0.268679 -0.712272,0.710107 -0.899016,0.980951 l -0.339535,0.492443 0.04172,1.098758 c 0.05245,1.381491 0.231041,1.803363 1.399654,3.306349 1.0173,1.308376 1.202712,1.655466 1.484489,2.778947 0.119166,0.475127 0.230178,0.850355 0.246694,0.833838 0.01652,-0.01652 -0.01341,-0.379921 -0.0665,-0.807567 z m -2.41981,-4.436121 c -0.280172,-0.443821 -0.566618,-1.226939 -0.566618,-1.549083 0,-0.311076 0.144073,-0.10383 0.294072,0.423016 0.07039,0.247221 0.238309,0.667471 0.37316,0.933888 0.302142,0.596926 0.235385,0.724435 -0.100614,0.192179 z m 6.717855,4.505802 c 0.484206,-0.201793 0.270439,-0.340432 -0.342318,-0.222011 -0.27469,0.05309 -0.993825,0.121518 -1.598079,0.152072 -1.047611,0.05297 -1.082409,0.06167 -0.749153,0.187342 0.43909,0.165578 2.194389,0.08896 2.68955,-0.117403 z m -28.604494,0.0062 c 0.190791,-0.152856 0.190697,-0.153871 -0.0059,-0.06344 -0.109876,0.05054 -0.267198,0.116899 -0.349605,0.147455 -0.129428,0.04799 -0.128627,0.05663 0.0059,0.06344 0.08564,0.0043 0.242963,-0.06202 0.349605,-0.147455 z m -0.217031,-0.298498 c 0.378308,-0.194136 0.782851,-0.419681 0.898984,-0.501209 0.198614,-0.139433 0.190395,-0.143652 -0.138455,-0.07106 -1.019421,0.225042 -3.30902,2.4e-5 -3.012894,-0.296102 0.0597,-0.0597 0.166828,-0.05613 0.289766,0.0097 0.298554,0.159781 2.023919,0.269094 2.023919,0.128228 0,-0.06282 -0.08443,-0.114219 -0.187614,-0.114219 -0.34873,0 -1.45984,-0.474544 -1.49262,-0.637483 -0.0557,-0.276855 -1.509062,-0.637676 -2.843049,-0.705833 -0.647385,-0.03308 -1.591319,-0.149434 -2.09763,-0.258573 -0.506311,-0.109139 -1.257685,-0.266333 -1.669719,-0.34932 -0.412034,-0.08299 -0.973899,-0.198512 -1.248589,-0.256721 -0.27469,-0.05821 -0.724182,-0.09092 -0.998871,-0.07268 -0.488625,0.03244 -0.498802,0.03964 -0.470163,0.332814 0.03892,0.398391 0.31158,0.760999 0.728716,0.969102 0.563828,0.281285 0.674337,0.197095 0.162861,-0.124076 -0.556462,-0.349419 -0.770324,-0.705038 -0.569509,-0.947005 0.139864,-0.168525 0.64753,-0.166885 0.64753,0.0021 0,0.05494 -0.101135,0.114251 -0.224746,0.131806 -0.303315,0.04308 -0.28301,0.151014 0.08697,0.462335 0.378334,0.318347 0.884131,0.53854 1.356677,0.590614 0.193613,0.02134 0.380633,0.08261 0.4156,0.136159 0.03497,0.05355 0.435414,0.171577 0.889881,0.26228 0.454468,0.0907 1.353452,0.340861 1.997743,0.555907 0.644291,0.215047 1.553506,0.491239 2.020478,0.613761 0.466972,0.122522 1.051312,0.280642 1.298533,0.351377 0.817891,0.234016 1.375002,0.178764 2.136197,-0.211859 z m 25.589001,0.264616 c -0.06709,-0.108552 -0.855561,-0.195042 -0.855561,-0.09385 0,0.0395 0.191034,0.08902 0.42452,0.110048 0.233486,0.02103 0.43841,0.04609 0.455387,0.05569 0.01698,0.0096 0.006,-0.02275 -0.02435,-0.07188 z M 55.509911,71.720812 c 0.60392,-0.06375 1.50258,-0.206009 1.997022,-0.316125 0.494441,-0.110116 1.135669,-0.242319 1.424951,-0.293785 0.289281,-0.05147 0.851146,-0.202464 1.248589,-0.335551 0.397442,-0.133088 0.85747,-0.271089 1.022283,-0.30667 0.853982,-0.184361 2.981271,-1.117106 2.888842,-1.26666 -0.06335,-0.102507 0.43698,-0.678643 0.593724,-0.683677 0.04752,-0.0015 0.01277,0.109599 -0.07722,0.246944 -0.08999,0.137344 -0.122445,0.249717 -0.07212,0.249717 0.123282,0 0.220205,-0.267684 0.269087,-0.743174 0.02982,-0.290113 -0.0076,-0.438387 -0.142543,-0.564063 -0.134671,-0.125465 -0.201073,-0.387162 -0.251421,-0.990876 -0.03763,-0.45121 -0.129214,-0.96589 -0.203522,-1.143733 -0.07431,-0.177843 -0.166827,-0.554004 -0.2056,-0.835913 l -0.0705,-0.512562 -0.265609,0.13423 c -0.146086,0.07383 -0.805,0.304908 -1.464255,0.513513 -0.659255,0.208606 -1.51329,0.522505 -1.897856,0.697553 -1.432732,0.652158 -2.502627,1.187356 -2.678607,1.339929 -0.09979,0.08651 -0.684125,0.404518 -1.298532,0.706677 -0.718737,0.353466 -1.151265,0.6272 -1.212898,0.767604 -0.05269,0.120024 -0.210009,0.272003 -0.349605,0.33773 -0.150331,0.07078 -0.202906,0.13792 -0.128952,0.164675 0.06867,0.02484 0.124859,0.153798 0.124859,0.286565 0,0.185298 -0.05339,0.241394 -0.229741,0.241394 -0.126357,0 -0.276163,-0.04642 -0.332902,-0.103162 -0.138936,-0.138936 -0.436891,-0.01479 -0.371773,0.154904 0.03473,0.09049 -0.08478,0.176028 -0.361952,0.259072 -0.264861,0.07935 -0.366681,0.149864 -0.282895,0.195903 0.174337,0.0958 1.796071,-0.06043 2.626471,-0.253008 0.794765,-0.184318 1.034183,-0.197516 0.88548,-0.04881 -0.304671,0.304671 -2.760768,0.707041 -3.552179,0.581936 -0.284507,-0.04497 -0.528824,-0.07023 -0.542927,-0.05613 -0.0141,0.0141 0.05089,0.311283 0.144432,0.6604 0.117669,0.439168 0.243318,0.68275 0.407778,0.790508 0.229298,0.150243 0.954673,0.315884 1.161436,0.265217 0.05533,-0.01356 0.594725,-0.07681 1.198646,-0.140569 z m 18.410497,0.04109 c 0.09308,-0.101341 0.0036,-3.433213 -0.167719,-6.242945 -0.07299,-1.197323 -0.128597,-1.530601 -0.320818,-1.922827 -0.296465,-0.604936 -0.593706,-0.638129 -1.081672,-0.120792 -0.183475,0.194519 -0.496773,0.441074 -0.696217,0.547899 -0.199444,0.106825 -0.502423,0.318504 -0.673286,0.470397 l -0.310659,0.27617 -0.06871,3.467971 -0.06871,3.467971 0.279483,0.06179 c 0.153716,0.03398 0.324432,0.079 0.37937,0.100045 0.215048,0.08236 2.64257,-0.01164 2.728939,-0.105676 z m 0.717167,-0.249717 c -0.314577,-0.246066 -0.353549,-0.246066 -0.372084,0 -0.01217,0.161552 0.04587,0.199349 0.303376,0.197553 l 0.318426,-0.0022 z m -0.202781,-0.824069 c -0.268425,-1.034969 -0.276759,-1.052382 -0.2271,-0.474464 0.05674,0.660303 0.09454,0.799097 0.217622,0.799097 0.05636,0 0.06014,-0.129307 0.0095,-0.324633 z m -26.131895,-0.1326 c 0.655829,-0.168376 1.013949,-0.372632 0.451151,-0.257315 -0.185265,0.03796 -0.539117,0.05999 -0.786338,0.04896 -0.24722,-0.01103 -0.558119,-0.02311 -0.690886,-0.02684 -0.409435,-0.0115 -0.156863,-0.117475 0.404204,-0.169592 0.292725,-0.02719 0.546479,-0.06369 0.563899,-0.08111 0.01742,-0.01742 -0.172675,-0.06232 -0.422433,-0.09977 -0.270132,-0.04051 -0.454107,-0.120518 -0.454107,-0.197489 0,-0.07117 -0.348356,-0.288511 -0.774125,-0.48299 -0.868462,-0.396689 -1.208445,-0.622491 -1.100218,-0.730718 0.04023,-0.04023 0.474798,0.135525 0.965713,0.39056 0.816519,0.424191 1.819971,0.770837 2.203177,0.761096 0.0846,-0.0022 0.0082,-0.0672 -0.169711,-0.144543 -0.17794,-0.07735 -0.76228,-0.448843 -1.298533,-0.825542 -2.219918,-1.559416 -3.135532,-2.088691 -4.118079,-2.380476 -0.545642,-0.162039 -1.231934,-0.607563 -2.240721,-1.454625 -0.715701,-0.600962 -1.490668,-0.948187 -1.891639,-0.847549 -0.516959,0.129748 -2.658483,2.64169 -2.661847,3.122265 -8.18e-4,0.116883 -0.06891,0.268472 -0.151318,0.336863 -0.08241,0.06839 -0.149831,0.180765 -0.149831,0.249718 0,0.06895 -0.06988,0.183363 -0.155284,0.254244 -0.08541,0.07088 -0.195846,0.204664 -0.245421,0.297297 -0.07941,0.148378 0.0312,0.189474 0.929409,0.345321 2.177179,0.377758 5.109912,0.823325 6.263621,0.951626 0.715371,0.07955 1.108729,0.183529 1.598194,0.42244 0.357096,0.174301 0.851537,0.394165 1.098758,0.488585 0.588609,0.224807 2.013986,0.239696 2.832365,0.02959 z m 2.354227,-0.350226 c 0.101508,-0.473314 0.09359,-0.520743 -0.116581,-0.698418 -0.494865,-0.418345 -0.9529,-0.364701 -0.718735,0.08418 0.07833,0.150149 0.142691,0.325736 0.143029,0.390193 5.56e-4,0.105815 0.471544,0.731846 0.550597,0.731846 0.01803,0 0.08179,-0.22851 0.14169,-0.507798 z m 19.535472,-2.224615 c 0,-2.526133 -4.68e-4,-2.531638 -0.188808,-2.222372 -0.49953,0.820256 -0.598737,1.181977 -0.591851,2.157945 0.005,0.711484 0.05747,1.073898 0.209597,1.448363 0.111596,0.27469 0.26188,0.645521 0.333965,0.824069 0.07209,0.178548 0.154922,0.324581 0.18408,0.324517 0.02916,-6.4e-5 0.05302,-1.139699 0.05302,-2.532522 z m -17.280473,1.373574 c 0.62023,-0.299059 1.608659,-0.901799 2.058142,-1.255044 0.186532,-0.146594 0.721217,-0.457655 1.18819,-0.691247 0.466972,-0.233592 1.028837,-0.546113 1.248589,-0.694492 0.910772,-0.614966 2.87395,-1.494199 4.564178,-2.044124 1.061724,-0.345439 1.790296,-0.634841 1.824839,-0.724861 0.118009,-0.307524 -1.41902,0.04893 -2.693194,0.624581 -1.584151,0.715693 -2.961294,1.290372 -3.595936,1.500574 -1.231054,0.407742 -1.86394,0.653182 -2.459485,0.953812 -0.319756,0.161412 -0.626734,0.293477 -0.682172,0.293477 -0.09989,0 -1.013956,0.575425 -1.304482,0.821196 -0.285457,0.241484 -1.184671,1.455725 -1.123412,1.516985 0.08082,0.08082 0.365235,-0.007 0.974743,-0.300857 z M 52.147263,68.82652 c 0.387472,-0.567646 0.402187,-0.619535 0.460079,-1.622349 0.124608,-2.158474 0.124645,-2.889005 2.37e-4,-4.781715 -0.345447,-5.255531 -0.464429,-9.643581 -0.293549,-10.826072 0.03425,-0.23703 -0.04653,-1.151706 -0.190694,-2.159254 -0.137566,-0.961414 -0.27688,-2.152568 -0.309587,-2.647009 -0.08391,-1.268456 -0.24298,-2.458589 -0.460604,-3.446106 -0.102909,-0.466972 -0.255949,-1.231109 -0.340089,-1.698081 -0.08414,-0.466972 -0.202855,-1.073787 -0.263812,-1.348476 -0.06096,-0.27469 -0.146337,-1.915336 -0.189736,-3.64588 -0.06331,-2.52444 -0.117015,-3.3186 -0.271684,-4.017299 -0.181593,-0.820324 -0.341437,-1.176832 -0.527643,-1.176832 -0.1214,0 -0.178943,0.246573 -0.338458,1.450288 -0.07994,0.603258 -0.211571,1.389004 -0.292507,1.7461 -0.393117,1.734471 -0.413966,2.491437 -0.158188,5.74351 0.05617,0.714193 0.119002,3.613417 0.139621,6.442719 0.03275,4.493322 0.101766,6.203854 0.296674,7.352635 0.0833,0.490967 0.08023,2.108949 -0.0074,3.884667 -0.04624,0.937302 -0.04456,2.794498 0.0037,4.145316 0.04813,1.345979 0.09308,3.400287 0.09989,4.565128 l 0.01237,2.117894 0.227665,-0.0568 c 0.152214,-0.03797 0.353801,0.03061 0.608258,0.206952 0.342435,0.237308 1.158514,0.477525 1.328405,0.391023 0.03668,-0.01868 0.246821,-0.297841 0.466972,-0.620362 z m 22.062553,0.01506 c -0.02296,-0.151834 -0.04236,-0.05132 -0.04311,0.223373 -7.49e-4,0.27469 0.01804,0.398918 0.04175,0.276063 0.02371,-0.122855 0.02432,-0.347601 0.0014,-0.499436 z m 0.0024,-2.444693 c -0.01956,-0.345515 -0.03573,-0.08882 -0.03592,0.570436 -1.98e-4,0.659255 0.01581,0.941949 0.03557,0.628209 0.01976,-0.31374 0.01992,-0.85313 3.59e-4,-1.198645 z m -2.364689,-3.232068 c 0.269136,-0.242423 0.59255,-0.997532 0.59255,-1.38349 0,-0.245698 0.03722,-0.34653 0.111058,-0.300894 0.107365,0.06635 0.05816,0.844913 -0.0754,1.192958 -0.04376,0.114035 0.02394,0.148615 0.290963,0.148615 0.324223,0 0.363283,-0.03555 0.571874,-0.520429 0.391179,-0.909322 0.100841,-2.064428 -0.611486,-2.432786 -0.368617,-0.190619 -0.539458,-0.05329 -0.642665,0.516598 -0.07012,0.387183 -0.454527,1.27272 -0.840245,1.935623 -0.20015,0.34398 -0.269998,0.899651 -0.130608,1.039041 0.09703,0.09703 0.540431,-0.02091 0.733962,-0.195236 z m -1.197325,-0.143037 c -0.02302,-0.02747 0.01228,-0.151079 0.07843,-0.27469 0.06615,-0.12361 0.08499,-0.228664 0.04185,-0.233452 -0.04314,-0.0048 -0.314836,-0.02672 -0.603778,-0.04874 -1.011143,-0.07705 -1.814877,-0.68084 -2.801663,-2.104701 -0.249845,-0.360509 -0.897773,-0.731313 -1.295844,-0.741602 -0.149388,-0.0039 -0.361512,-0.04565 -0.471388,-0.09287 -0.184147,-0.07913 -0.18024,-0.08695 0.04994,-0.0999 0.212926,-0.01199 0.19085,-0.0367 -0.149831,-0.167758 -0.442047,-0.170048 -2.15183,-0.233979 -2.766288,-0.103435 -0.254373,0.05404 -0.413022,0.162642 -0.510724,0.349605 -0.07795,0.149166 -0.256782,0.473482 -0.397402,0.720702 -0.226528,0.398251 -0.249331,0.525997 -0.200033,1.120596 l 0.05564,0.671103 0.46104,0.177068 c 0.362655,0.139282 0.684857,0.169836 1.509855,0.143177 2.685238,-0.08677 4.035849,-0.04834 4.644751,0.132155 0.329628,0.09771 0.644272,0.205865 0.69921,0.24034 0.372059,0.23348 1.818759,0.506358 1.656231,0.312401 z m -8.990049,-2.099414 c -0.01178,-0.226552 0.459921,-0.873699 0.690084,-0.94675 0.110558,-0.03509 0.201015,-0.102427 0.201015,-0.149639 0,-0.10379 0.561907,-0.399722 0.874012,-0.460303 0.154592,-0.03001 0.224746,0.0043 0.224746,0.110062 0,0.106201 0.06944,0.139701 0.224746,0.108421 0.633033,-0.1275 0.872778,-0.140566 1.135564,-0.06189 0.354177,0.106042 0.346837,0.108458 -0.495153,0.163008 -0.375701,0.02434 -0.811405,0.110607 -0.968231,0.191705 -0.318316,0.164608 -0.496392,0.03946 -0.292843,-0.205797 0.198911,-0.239674 -0.0015,-0.166327 -0.561955,0.205713 -0.495352,0.328796 -0.836578,0.698035 -0.967799,1.047251 -0.04961,0.132039 -0.05724,0.131827 -0.06419,-0.0018 z m 9.236094,0.725966 c -0.08197,-0.68688 -0.340617,-1.262123 -0.866779,-1.927768 -0.214111,-0.27087 -0.569566,-0.77141 -0.789901,-1.112311 -0.220335,-0.340901 -0.455629,-0.629395 -0.522876,-0.641098 -0.06725,-0.0117 -0.286144,-0.09148 -0.486436,-0.177271 -0.374227,-0.160301 -2.096154,-0.361551 -3.09475,-0.3617 -0.925135,-1.37e-4 -2.272997,0.6162 -2.572063,1.176128 -0.08461,0.158414 0.0016,0.172556 1.07163,0.175882 0.924138,0.0029 1.317832,0.05099 1.912793,0.233787 1.197567,0.367941 1.604,0.642025 2.526838,1.704013 0.665116,0.765405 0.931869,0.999178 1.279348,1.121176 0.24146,0.08478 0.573865,0.200965 0.738679,0.258199 0.164813,0.05723 0.428451,0.108843 0.58586,0.114688 l 0.286199,0.01063 z M 68.363232,60.272906 C 68.028668,60.02141 67.649707,59.694224 67.521098,59.545827 66.913737,58.845022 65.501905,57.922182 64.819599,57.78 c -0.451174,-0.09402 -0.219084,-0.227679 0.267197,-0.15388 0.661759,0.10043 1.502029,0.647605 2.456965,1.599951 0.468242,0.466972 1.007197,0.970276 1.197677,1.118452 0.190481,0.148177 0.320175,0.295565 0.28821,0.32753 -0.03196,0.03197 -0.331852,-0.147651 -0.666416,-0.399147 z m -0.399836,-1.473069 c -0.237189,-0.175137 -0.384827,-0.333906 -0.328085,-0.352821 0.09827,-0.03276 1.009055,0.539523 1.009055,0.634023 0,0.125488 -0.295383,0.0035 -0.68097,-0.281202 z m 0.456403,-0.05736 c -0.294279,-0.177601 -0.378483,-0.376635 -0.116868,-0.276244 0.0869,0.03335 0.197692,0.06063 0.246203,0.06063 0.04851,0 0.136316,0.0899 0.195119,0.199774 0.126619,0.23659 0.04771,0.240442 -0.324454,0.01584 z m 12.768893,3.036319 c 0.55328,-0.255632 0.930091,-0.528118 1.466789,-1.060692 0.39723,-0.394178 0.83461,-0.76027 0.971954,-0.813539 0.137345,-0.05327 0.550436,-0.06794 0.91798,-0.03261 1.101264,0.105871 1.778973,-0.200018 1.778973,-0.802954 0,-0.116878 -0.13623,-0.400565 -0.302732,-0.630415 -0.499366,-0.689354 -1.022642,-1.79064 -1.108304,-2.332534 -0.04426,-0.279992 -0.12255,-0.551152 -0.173977,-0.602579 -0.05808,-0.05808 -0.669498,0.19728 -1.613861,0.674027 -1.564428,0.789776 -2.944889,1.29748 -4.342604,1.597117 -0.439504,0.09422 -1.071796,0.233028 -1.405094,0.308464 -0.698794,0.158161 -2.828503,1.191983 -3.330123,1.616539 -0.43901,0.371563 -0.378772,0.672653 0.235231,1.175783 0.438584,0.359386 0.865155,0.499856 2.302469,0.758204 0.27469,0.04937 0.903978,0.175719 1.39842,0.280768 0.494441,0.105048 1.250286,0.194918 1.679656,0.199709 0.689236,0.0077 0.867877,-0.03158 1.525223,-0.335291 z m -2.156064,0.175841 c -0.872989,-0.08774 -1.698082,-0.258349 -1.698082,-0.351126 0,-0.05593 0.101136,-0.0769 0.224746,-0.04661 0.123611,0.03029 0.730425,0.08651 1.348477,0.124932 0.618051,0.03842 1.12373,0.108404 1.12373,0.155523 0,0.04712 -0.08622,0.08567 -0.191605,0.08567 -0.105383,0 -0.251467,0.01502 -0.324633,0.03338 -0.07317,0.01835 -0.290351,0.01756 -0.482633,-0.0018 z M 75.13703,60.435341 c 0,-0.08561 1.041256,-0.543318 1.631622,-0.71722 0.581431,-0.171269 0.07222,0.179565 -0.718758,0.495208 -0.850427,0.339367 -0.912864,0.354552 -0.912864,0.222012 z m -0.547998,-0.212632 c 0.05922,-0.09583 1.055878,-0.645418 1.496925,-0.825459 0.432205,-0.176432 -0.100848,0.206361 -0.789178,0.566719 -0.749089,0.392168 -0.802213,0.411589 -0.707747,0.25874 z M 74.05812,60.008974 c 0.08887,-0.280446 1.578345,-1.12294 1.578345,-0.892762 0,0.04374 -0.186895,0.163799 -0.415323,0.266805 -0.228428,0.103007 -0.593084,0.316054 -0.810346,0.473438 -0.217263,0.157384 -0.375967,0.226017 -0.352676,0.152519 z m 9.469428,-0.26256 c 0,-0.0526 0.110332,-0.293036 0.245182,-0.534309 0.264851,-0.473869 0.509596,-1.748777 0.411072,-2.141325 -0.03341,-0.133099 -0.01697,-0.241998 0.03653,-0.241998 0.163624,0 0.239591,0.699297 0.137284,1.263731 -0.104936,0.578934 -0.08084,0.678413 0.06892,0.284519 0.143935,-0.378576 0.318016,-0.304631 0.293945,0.124859 -0.01155,0.206018 0.0075,0.453238 0.04231,0.54938 0.03481,0.09614 0.08407,0.241468 0.109461,0.322949 0.02669,0.08564 0.110979,0.123274 0.199775,0.0892 0.107818,-0.04137 0.153611,0.0029 0.153611,0.14838 0,0.155574 -0.04363,0.191134 -0.174802,0.142458 -0.253584,-0.0941 -0.624031,-0.547669 -0.624173,-0.76422 -7.9e-5,-0.121415 -0.112947,-0.0194 -0.324755,0.293535 -0.308656,0.456021 -0.574351,0.670131 -0.574351,0.462841 z M 61.269001,61.84811 c -0.181958,-0.350935 -0.217581,-1.069672 -0.07594,-1.532273 0.312184,-1.019628 1.474647,-2.486816 2.287758,-2.887465 0.629181,-0.31002 1.785329,-0.452754 2.506389,-0.309431 0.337397,0.06706 0.724928,0.134948 0.86118,0.150854 0.136253,0.0159 0.450003,0.05987 0.697224,0.0977 0.433881,0.06639 0.42174,0.0551 -0.349605,-0.325049 -0.439503,-0.216606 -1.113741,-0.492169 -1.498307,-0.612363 -0.384565,-0.120194 -0.923956,-0.323167 -1.198645,-0.451052 -1.616837,-0.752734 -1.946968,-0.821571 -2.84096,-0.592378 -0.755674,0.193732 -1.335591,0.617871 -1.630364,1.192412 -0.250009,0.487293 -0.25415,1.52645 -0.01154,2.896727 0.158789,0.896862 0.343803,1.319782 0.92857,2.122601 0.314978,0.432429 0.488119,0.565774 0.324246,0.249718 z m -0.743498,-1.887331 c -0.03552,-0.05747 -0.09554,-0.298125 -0.133387,-0.534784 -0.08398,-0.525183 0.118427,-0.480586 0.217579,0.04794 0.07052,0.375893 0.0217,0.658182 -0.08419,0.486845 z m -0.155392,-2.580612 c 0.03202,-1.093771 0.04611,-1.159222 0.30523,-1.418094 0.361425,-0.361074 0.473297,-0.224782 0.140315,0.170944 -0.246245,0.292646 -0.262147,0.374701 -0.262147,1.352695 0,0.682506 -0.03737,1.041151 -0.108483,1.041151 -0.0737,0 -0.09772,-0.367646 -0.07491,-1.146696 z m 11.295461,3.319241 0.252986,-0.774125 h -0.376276 c -0.557503,0 -0.615373,0.133544 -0.422203,0.974307 0.09095,0.395847 0.193967,0.686922 0.228933,0.646833 0.03497,-0.04009 0.177418,-0.421246 0.31656,-0.847015 z m 2.572473,-1.449482 c 0.754135,-0.448066 2.388451,-1.214196 2.903484,-1.361086 0.298442,-0.08512 0.902216,-0.226505 1.341719,-0.314194 0.905901,-0.180744 2.15764,-0.551563 2.896727,-0.858136 0.991755,-0.411379 2.502386,-1.204686 2.741898,-1.439907 l 0.24472,-0.240334 -0.22408,-0.238522 c -0.369165,-0.392959 -2.07955,-0.597984 -2.962312,-0.355095 -1.046721,0.288002 -3.556172,1.678937 -5.331753,2.955278 -1.600625,1.150577 -2.557867,1.787983 -2.883963,1.920365 -0.178549,0.07248 -0.324404,0.160048 -0.324124,0.194586 2.8e-4,0.03454 0.168839,0.134743 0.374576,0.222677 0.359124,0.153493 0.384044,0.151135 0.623786,-0.05902 0.137344,-0.120394 0.40704,-0.31237 0.599322,-0.426615 z m 8.70908,-3.647918 c 0.14774,-0.121874 0.372486,-0.296361 0.499436,-0.387749 0.327101,-0.235471 0.124756,-0.404814 -0.550629,-0.460822 -0.471052,-0.03906 -1.162811,0.09064 -1.811914,0.339721 -0.08444,0.0324 -0.153535,0.01971 -0.153535,-0.02821 0,-0.155414 1.03164,-0.460824 1.698081,-0.502705 0.765832,-0.04813 1.134329,0.101129 1.178522,0.477345 0.02506,0.213373 -0.04878,0.296642 -0.46301,0.522093 -0.595621,0.324178 -0.761466,0.341027 -0.396951,0.04033 z M 71.539156,59.52635 c 0.299184,-4.12e-4 0.67088,-0.108237 1.121203,-0.325249 l 0.673647,-0.324633 0.0028,-0.599323 c 0.0024,-0.516634 0.103913,-2.02324 0.25578,-3.79571 0.02354,-0.27469 0.06449,-1.375946 0.091,-2.447235 0.02651,-1.071289 0.09526,-2.487189 0.152778,-3.146445 0.251113,-2.878412 0.301649,-3.7254 0.351629,-5.89334 0.02913,-1.263572 0.119401,-3.039066 0.200603,-3.945541 0.249565,-2.785971 0.383628,-5.718711 0.315765,-6.907626 -0.03558,-0.623308 -0.112532,-2.143644 -0.17101,-3.378524 -0.06009,-1.268858 -0.215445,-3.006361 -0.357256,-3.995485 -0.178527,-1.245209 -0.276802,-2.514052 -0.34058,-4.397258 -0.0493,-1.455855 -0.134983,-2.86116 -0.190397,-3.122901 -0.122639,-0.579272 -0.282877,-0.896948 -0.428022,-0.848567 -0.202042,0.06735 -0.654775,1.518508 -0.818322,2.622992 -0.381795,2.578379 -0.567139,7.922558 -0.360363,10.39065 0.09817,1.171715 0.100157,1.926585 0.0092,3.48308 -0.102297,1.750294 -0.225475,3.072221 -0.345367,3.706404 -0.200404,1.06007 -0.515069,4.295194 -0.670371,6.892212 -0.04928,0.824068 -0.130462,1.947799 -0.180405,2.497178 -0.04994,0.549379 -0.06972,2.145076 -0.04395,3.545993 0.02907,1.580072 0.0014,3.040127 -0.07294,3.845654 -0.06589,0.714193 -0.127975,2.449087 -0.137973,3.855321 l -0.01818,2.556788 0.256606,-0.13391 c 0.141133,-0.07365 0.458006,-0.134187 0.704161,-0.134525 z M 49.466019,30.374169 c 0,-0.250108 -0.06602,-0.443811 -0.189272,-0.555356 -0.18438,-0.166862 -0.347014,-0.658771 -0.217801,-0.658771 0.168298,0 0.706734,0.861317 0.706734,1.130537 v 0.295125 l 0.228745,-0.238367 c 0.334951,-0.349042 0.569926,-0.752149 0.588986,-1.010425 0.02107,-0.285464 -0.523961,-1.387029 -0.970283,-1.961056 -0.186327,-0.23964 -0.389035,-0.587997 -0.450463,-0.774125 -0.06143,-0.186129 -0.14834,-0.338416 -0.193137,-0.338416 -0.0448,0 -0.205641,0.370831 -0.357431,0.824069 -0.313649,0.936537 -0.423714,2.111496 -0.25594,2.732193 0.140384,0.519368 0.522473,0.938659 0.855375,0.938659 0.228601,0 0.254487,-0.03907 0.254487,-0.384067 z M 72.939494,14.226917 c 0,-0.671603 0.03,-0.849041 0.143551,-0.849041 0.105149,0 0.130788,0.08684 0.09584,0.324633 -0.02624,0.178549 -0.0115,0.523569 0.03275,0.766712 l 0.08046,0.442078 0.388906,-0.341464 c 1.016656,-0.892636 1.130099,-2.346755 0.282049,-3.615319 -0.155685,-0.232882 -0.343195,-0.558271 -0.416689,-0.723084 -0.09391,-0.210597 -0.14881,-0.2551292 -0.184715,-0.149831 -0.0281,0.08241 -0.127665,0.262204 -0.221258,0.399549 -0.162384,0.238295 -0.742102,1.270305 -1.113402,1.982072 -0.241151,0.462277 -0.333818,1.316565 -0.19006,1.752155 0.131718,0.399109 0.619934,0.86058 0.910456,0.86058 0.174489,0 0.192111,-0.07788 0.192111,-0.84904 z"
       id="path1"
       sodipodi:nodetypes="ssssssscssssssssssssssssssssssssssssssssssssssssssssssccsssssssssssssssssssscsssssssssssssssssssssccsssssssscsssssssssssssssssssssssssssssssssccsssssssssssssssscsssssssssssscssssssssssscssssssscccsssssssssssssssssssssscsssscsssssssssssssssssssssssssssssssscssssssssssssccssssssscccssssssssssssscsssssssssssssssssccsssssssscssscssssssssssssssssssssssssssssssssssssscssssssssssssscsccsscssscssssssscccsscccscscscssccsccscsssscssscssssscssscssscccssscsccssccsssssssssscsssssssssssscssssssssccccsccsscssssssssssssssccsssssscsscscsssscssssscscssssscssssssccsssssssssscssssccsssssccsssssssssssssssssssssssssssscssssssssssssssssscssccsccscsccccsscsscsssssssssssssssssssscsssssssccsscsssssssssscssssssssssssssssssssssssssssscsssssssssssssssssssssssssssssssssssssssssssssssssssssssssssssssssssscssssssssscsscssssssssssssccsssssssssssssccsssssssssscssssssssssscssssccssssssssssssscsssscccsssssscsssssscsssscsssssscscccsscccssssssscssssscsssssssscsssssssssscssssssssssssscssssssssssscssssssssssssssssssssssssssssssssscccccssssscsssssscsssssssssssssccccssscssssssscsssssssscssccssssssscssssssssssssssssssssssscsssssssccsscssscsscsssssssssssssssssscssssscscccsscssssscsscsssssssssssssssscsssssssssssssssscsssssssscsscssssssssssssssssssscscssscsssssssssssssssssssssccsssssssssssscssscssscssssssssssssssssssssssssssssscccssssssccscssccssssssssssscssssssssssssssssssssssssscssssscsssssssssssccssssssssssssssssscscssscccssccsssssssssssssssssssssscssssssscsssssscssssssssscsccssssssscssssscsssssssssssssssssssssssssssssssssssscssssssccssssssssssssssssssssssssssssssssssssssssssssssssssssssssscssssssssscssssssssssssssssssscscssscssssssssssssssscscsccsssscssssssssssssscssssssssss" /></g></svg>
