<?xml version="1.0" encoding="UTF-8" standalone="no"?>
<!-- Created with Inkscape (http://www.inkscape.org/) -->

<svg
   width="120"
   height="120"
   viewBox="0 0 120 120"
   version="1.1"
   id="svg1"
   xml:space="preserve"
   inkscape:export-filename="queen-king.svg"
   inkscape:export-xdpi="96"
   inkscape:export-ydpi="96"
   xmlns:inkscape="http://www.inkscape.org/namespaces/inkscape"
   xmlns:sodipodi="http://sodipodi.sourceforge.net/DTD/sodipodi-0.dtd"
   xmlns="http://www.w3.org/2000/svg"
   xmlns:svg="http://www.w3.org/2000/svg"><sodipodi:namedview
     id="namedview1"
     pagecolor="#ffffff"
     bordercolor="#000000"
     borderopacity="0.25"
     inkscape:showpageshadow="2"
     inkscape:pageopacity="0.0"
     inkscape:pagecheckerboard="0"
     inkscape:deskcolor="#d1d1d1"
     inkscape:document-units="px"><inkscape:page
       x="0"
       y="0"
       width="120"
       height="120"
       id="page2"
       margin="0"
       bleed="0" /></sodipodi:namedview><defs
     id="defs1" /><g
     inkscape:label="Layer 1"
     inkscape:groupmode="layer"
     id="layer1"><path
       style="fill:#000000"
       d="m 69.59383,111.88279 c -0.57373,-0.33109 -1.476756,-0.95729 -2.006724,-1.39156 -0.529968,-0.43427 -1.260563,-0.90346 -1.623543,-1.04264 -1.194924,-0.45819 -2.891831,0.0593 -4.090949,1.24761 -1.029781,1.02048 -1.188398,-0.15949 -0.379285,-2.82155 0.246357,-0.81055 0.447922,-1.77173 0.447922,-2.13597 0,-0.36424 0.19744,-1.52717 0.438755,-2.58429 0.573489,-2.51226 0.80813,-6.174848 0.516809,-8.067028 -0.127633,-0.82899 -0.289847,-2.081176 -0.360477,-2.782631 -0.07063,-0.701455 -0.290654,-2.110162 -0.488943,-3.13046 -0.19829,-1.020299 -0.567994,-3.055098 -0.821565,-4.521777 -0.863792,-4.996243 -2.061394,-10.233948 -2.305498,-10.083083 -0.09051,0.05594 -0.231621,0.521038 -0.313575,1.033552 -0.08195,0.512514 -0.348071,1.375704 -0.591371,1.918199 -0.639337,1.425557 -2.151479,7.888734 -2.482255,10.609622 -0.220222,1.811492 -1.291477,7.894638 -1.717068,9.750408 -0.250026,1.09023 -0.454593,2.290938 -0.454593,2.668228 0,0.3773 -0.112417,1.05052 -0.249815,1.49606 -0.137398,0.44554 -0.34356,1.80138 -0.458137,3.01299 -0.249175,2.6349 -0.549027,4.58068 -0.734482,4.76613 -0.292482,0.29248 -2.193064,0.73757 -2.907334,0.68086 -0.993911,-0.0789 -1.320062,-0.37945 -2.021937,-1.86309 -0.322177,-0.68103 -0.685052,-1.29959 -0.806389,-1.37458 -0.121337,-0.075 -0.330792,0.27283 -0.465454,0.77293 -0.531866,1.9752 -2.912983,2.27865 -3.838362,0.48916 -0.305801,-0.59135 -0.488702,-0.68878 -1.293018,-0.68878 -2.057801,0 -2.33725,-0.84983 -0.90587,-2.75482 0.510411,-0.67929 1.098987,-1.82432 1.307947,-2.5445 0.20896,-0.72019 0.610877,-1.88335 0.893149,-2.584804 0.992796,-2.467134 1.682679,-5.868824 2.210315,-10.898648 0.140478,-1.339142 0.405282,-3.288333 0.588453,-4.331537 0.183172,-1.043203 0.333039,-2.261061 0.333039,-2.706351 0,-0.44529 0.204762,-1.678733 0.455026,-2.740986 0.250265,-1.062252 0.549322,-2.542903 0.664572,-3.290334 l 0.209545,-1.358967 -1.337558,0.09675 c -1.45163,0.105001 -2.85811,0.929212 -3.225779,1.890339 -0.308482,0.806403 -0.983076,1.258609 -2.130634,1.428246 -1.171296,0.173146 -2.055523,-0.133682 -2.055523,-0.71327 0,-0.191059 0.262629,-0.865654 0.583621,-1.499101 l 0.583621,-1.15172 h -2.647182 -2.647182 l -0.509312,0.985516 c -1.311673,2.53808 -2.669483,3.596699 -4.980879,3.883351 -0.842765,0.104517 -2.123886,0.109752 -2.846935,0.01163 -1.125907,-0.152789 -1.422649,-0.303355 -2.06705,-1.048817 -0.839875,-0.971592 -1.932606,-2.939013 -1.932606,-3.479585 0,-0.193653 -0.161705,-0.352097 -0.359345,-0.352097 -0.485611,0 -1.726576,-0.642948 -2.361765,-1.22364 -0.607928,-0.555768 -0.937717,-1.93498 -0.55435,-2.318347 0.143518,-0.143519 0.260942,-0.572481 0.260942,-0.953249 0,-0.391663 0.218953,-0.925372 0.504193,-1.228996 0.277306,-0.295179 0.390964,-0.536689 0.252572,-0.536689 -0.138392,0 -0.480875,-0.473574 -0.761074,-1.052387 -0.672369,-1.388931 -0.495907,-2.690918 0.533736,-3.938035 0.741411,-0.898008 0.747444,-0.926233 0.992435,-4.642947 0.205181,-3.112759 0.334338,-3.911024 0.770684,-4.763247 0.288306,-0.563091 0.646955,-1.12815 0.796997,-1.255687 0.150042,-0.127537 1.176564,-1.275373 2.28116,-2.550746 3.71333,-4.287433 11.102025,-11.014583 12.097752,-11.014583 0.336738,0 2.729165,-1.572102 4.692336,-3.083409 0.629062,-0.48427 1.926365,-1.429376 2.882894,-2.100234 2.348702,-1.647253 2.300315,-1.887973 -0.362553,-1.803674 -2.280911,0.07221 -2.839179,-0.173529 -2.539475,-1.117811 0.197313,-0.621677 0.857505,-0.957909 2.05072,-1.04442 0.531988,-0.03857 1.408388,-0.14781 1.947555,-0.242756 0.931345,-0.164007 0.993026,-0.139342 1.235045,0.493862 0.140108,0.366569 0.217957,1.057797 0.172999,1.536062 -0.09389,0.998757 -0.0052,1.04343 0.805388,0.4058 0.324274,-0.255074 0.709726,-0.463771 0.856558,-0.463771 0.146832,0 0.218406,-0.07857 0.159054,-0.174607 -0.22273,-0.360385 0.37165,-6.247442 0.740156,-7.330898 0.333213,-0.979692 0.503437,-1.169003 1.289844,-1.434476 2.471259,-0.83424 3.995771,-0.915542 16.727123,-0.892053 6.892381,0.01272 12.919308,0.09585 13.39317,0.184751 0.546017,0.102433 1.000729,0.374019 1.241529,0.741526 0.380117,0.580132 0.903176,3.193668 1.147621,5.73425 0.202459,2.1042 1.158639,4.059865 1.114659,2.2798 -0.01491,-0.603266 0.147925,-1.031175 0.565127,-1.485125 0.511065,-0.55608 0.759516,-0.637686 1.941445,-0.637686 0.745459,0 1.717249,0.151198 2.159533,0.335996 1.041248,0.435062 1.110436,1.376077 0.166466,2.264107 -0.586301,0.551557 -0.782498,0.595487 -2.434802,0.545177 -0.988414,-0.0301 -1.797117,0.02524 -1.797117,0.122976 0,0.09773 0.739228,0.889325 1.642729,1.759095 3.237275,3.116415 11.717246,14.222289 13.468766,17.639503 0.14708,0.286959 0.45789,0.521743 0.69068,0.521743 0.23556,0 0.690353,0.403596 1.025533,0.910083 0.63612,0.961246 0.64507,1.022624 0.93271,6.394325 0.13603,2.540422 0.19941,2.836604 0.72812,3.402693 0.74496,0.797635 0.9392,2.323503 0.44604,3.503821 -0.34964,0.836798 -0.34323,0.881054 0.20747,1.431752 0.60888,0.608876 0.64865,0.826531 0.57148,3.127563 -0.0583,1.737212 -0.41222,2.349914 -1.69693,2.937338 -0.6675,0.305209 -1.01901,0.689585 -1.44478,1.579868 -0.907873,1.89835 -2.248453,3.279403 -3.716433,3.828646 -2.663412,0.99651 -6.413592,0.390445 -7.699492,-1.244311 -0.584042,-0.742489 -1.072088,-2.113804 -0.906173,-2.546172 0.08905,-0.232067 -0.119359,-0.288914 -0.848433,-0.231421 -0.863943,0.06813 -9.358374,0.526958 -12.328897,0.665949 -2.008992,0.094 -2.011372,0.09467 -1.877034,0.529922 0.356065,1.153636 1.551901,12.139156 1.444627,13.271044 -0.06671,0.70389 -0.231328,3.617336 -0.365817,6.47432 -0.173304,3.68154 -0.380893,5.76871 -0.712713,7.16585 -0.390078,1.64243 -0.654269,5.08421 -0.457385,5.95862 0.184432,0.81911 -0.06309,2.01275 -0.524452,2.52909 -0.780254,0.87323 -1.511844,0.93694 -2.724318,0.23723 z m 2.065867,-0.50543 c 0.490911,-0.40295 0.877287,-2.25004 0.517216,-2.47258 -0.211783,-0.13089 0.124964,-4.41644 0.420359,-5.34964 0.334957,-1.05817 0.706535,-4.934518 0.705243,-7.357178 -6.31e-4,-1.18475 0.11909,-3.458445 0.266048,-5.052661 0.238518,-2.587481 0.212788,-3.371436 -0.239741,-7.304408 C 72.54607,77.037921 72.062189,74.68369 69.706578,66.217559 68.757595,62.806888 67.29,56.771168 67.13538,55.643096 l -0.143909,-1.049933 -1.655538,-0.585277 c -2.827615,-0.999638 -3.286148,-1.12377 -4.15109,-1.12377 -0.461683,0 -0.903914,-0.104349 -0.982737,-0.231886 -0.278888,-0.45125 -0.804547,-0.223357 -0.936023,0.4058 -0.07329,0.350728 -0.296711,1.263779 -0.496487,2.029003 -0.199777,0.765223 -0.451378,2.278279 -0.559115,3.362346 -0.107737,1.084067 -0.300412,2.537838 -0.428167,3.230602 -0.173944,0.943233 -0.143782,1.875033 0.1201,3.710175 0.383409,2.666391 1.225977,6.962097 1.431455,7.298052 0.07055,0.11535 0.155208,0.428396 0.188128,0.695658 0.03292,0.267262 0.281398,1.425069 0.552173,2.572904 0.909124,3.853848 2.769397,13.674113 3.258986,17.203981 0.395214,2.849441 0.289913,7.510219 -0.218108,9.653709 -0.247172,1.0429 -0.50589,2.42141 -0.574927,3.06336 -0.06904,0.64195 -0.336375,1.78004 -0.594082,2.52908 -0.617895,1.79594 -0.599622,1.87396 0.285069,1.21717 2.051076,-1.52271 3.595034,-1.41247 5.856735,0.41817 0.888193,0.71891 2.605795,1.74092 2.925809,1.74092 0.08341,0 0.374133,-0.18261 0.646045,-0.4058 z m -21.04979,-1.71788 c 0.69954,-0.20958 0.896475,-0.38456 0.896475,-0.7965 0,-0.29036 0.117362,-0.82167 0.260804,-1.1807 0.143443,-0.35903 0.340681,-1.64409 0.438307,-2.8557 0.219649,-2.72598 0.572481,-5.087148 1.143487,-7.652248 0.466864,-2.09726 0.773003,-3.871062 1.280674,-7.420346 0.441991,-3.090102 1.022466,-6.116347 1.512281,-7.884123 0.229698,-0.828993 0.49027,-1.924507 0.57905,-2.434477 0.08878,-0.50997 0.412695,-1.524226 0.719811,-2.253901 0.307117,-0.729676 0.558393,-1.496668 0.558393,-1.704426 0,-0.207759 0.174416,-0.745297 0.387591,-1.194529 0.370812,-0.781429 0.361402,-0.94857 -0.217397,-3.861163 -0.875048,-4.403367 -1.17957,-6.855839 -1.028441,-8.28257 0.330136,-3.116644 0.856749,-6.434535 1.156055,-7.28365 0.179823,-0.510149 0.389867,-1.327168 0.466764,-1.815596 l 0.139812,-0.888053 -1.694781,1.609877 c -0.93213,0.885432 -2.20519,1.897761 -2.829023,2.249619 -1.082051,0.610305 -1.210789,0.795826 -2.797811,4.031838 -0.914962,1.865653 -1.73453,3.652967 -1.821261,3.971811 -0.08673,0.318843 -0.291406,0.792598 -0.454833,1.052788 -0.163427,0.260191 -0.425768,1.09498 -0.582981,1.855088 -0.157213,0.760108 -0.468548,1.851583 -0.691855,2.425501 -0.223308,0.573918 -0.474365,1.669579 -0.557905,2.434803 -0.145644,1.33409 -0.309259,2.23885 -1.195116,6.60875 -0.219759,1.084067 -0.475402,2.701472 -0.568095,3.594233 -0.09269,0.892761 -0.282189,2.249293 -0.421104,3.014517 -0.138914,0.765224 -0.515604,3.426115 -0.837089,5.913092 -0.579724,4.484697 -1.315343,7.731097 -2.206852,9.739215 -0.254793,0.57392 -0.568286,1.46249 -0.696652,1.9746 -0.128365,0.51211 -0.575095,1.44092 -0.992733,2.06403 -1.500878,2.23926 -1.488654,2.21287 -1.12895,2.43808 0.179327,0.11228 0.592081,0.15591 0.91723,0.097 0.974344,-0.17668 1.580896,0.10258 2.08742,0.96108 0.369584,0.62639 0.631173,0.81316 1.138936,0.81316 0.879099,0 1.334898,-0.39867 1.672111,-1.46253 0.241998,-0.76348 0.363012,-0.87319 0.895159,-0.8116 0.484944,0.0561 0.768073,0.35883 1.336154,1.42857 0.995962,1.87546 1.342854,2.04186 3.136365,1.50451 z M 28.082085,78.839808 c 0.951881,-0.154434 1.778993,-0.454091 2.254532,-0.816802 0.77529,-0.591343 2.155116,-2.423528 2.155116,-2.861645 0,-0.144713 -0.507816,-0.248078 -1.218767,-0.248078 -1.117658,0 -1.243099,0.05497 -1.512066,0.662608 -0.273037,0.616833 -1.167437,1.161222 -2.522986,1.535649 -0.275085,0.07598 -0.991393,0.01446 -1.591795,-0.136726 -0.841054,-0.21178 -1.231923,-0.47468 -1.702761,-1.145288 -0.481224,-0.685399 -0.790341,-0.88837 -1.454286,-0.954907 -0.794856,-0.07966 -0.831604,-0.05409 -0.641395,0.446197 0.294642,0.774968 1.742884,2.987667 2.103004,3.213079 0.170005,0.106412 0.778669,0.260502 1.352586,0.342423 0.573918,0.08192 1.095662,0.162101 1.15943,0.178178 0.06377,0.01608 0.792493,-0.08053 1.619388,-0.214688 z m 67.714518,-0.269786 c 1.072327,-0.229218 1.464924,-0.468689 2.465994,-1.504167 1.12304,-1.161652 1.916733,-2.484858 1.65029,-2.7513 -0.24544,-0.245442 -2.49308,0.19652 -2.49308,0.490225 0,0.162536 -0.457809,0.801272 -1.017351,1.419413 -1.00405,1.109201 -1.03512,1.123586 -2.376831,1.100418 -1.711143,-0.02955 -2.618449,-0.162898 -2.49283,-0.366382 0.05364,-0.08688 -0.165073,-0.544927 -0.486023,-1.017874 -0.320951,-0.472947 -0.583546,-0.926361 -0.583546,-1.007587 0,-0.08123 -0.417395,-0.107878 -0.927544,-0.05923 -0.826325,0.0788 -0.92745,0.155386 -0.926677,0.701786 0.0011,0.753396 0.719996,1.974476 1.440434,2.446525 0.746703,0.489258 2.848894,0.996383 3.733548,0.900666 0.406034,-0.04393 1.312161,-0.202554 2.013616,-0.352495 z M 40.783026,76.924353 c 0.500519,-0.50052 0.154072,-0.85164 -0.840307,-0.85164 -1.077989,0 -1.789669,0.470991 -1.57135,1.039921 0.127988,0.333529 0.338511,0.387094 1.113068,0.283204 0.525374,-0.07047 1.109739,-0.282636 1.298589,-0.471485 z m 55.194611,-1.203537 c 0.576155,-0.576155 1.005907,-1.085767 0.955004,-1.13247 -0.0509,-0.0467 -1.370823,-0.03055 -2.933154,0.0359 -2.995081,0.127384 -3.153323,0.203149 -2.467963,1.181637 0.474629,0.677628 1.107386,0.929344 2.382531,0.947791 0.904268,0.01308 1.131253,-0.100528 2.063582,-1.032858 z m -67.369995,0.202071 c 0.350728,-0.17922 0.637687,-0.479699 0.637687,-0.66773 0,-0.281739 -0.47669,-0.341874 -2.710073,-0.341874 h -2.710072 l 0.654662,0.68332 c 0.926652,0.967217 2.612705,1.100492 4.127796,0.326284 z m 13.433046,-0.633046 0.389459,-0.536413 -1.526912,-0.04943 c -1.050352,-0.034 -1.586944,0.04522 -1.719253,0.253842 -0.352522,0.555839 -0.206188,0.712833 0.554187,0.594555 0.414496,-0.06448 0.962327,-0.03329 1.217401,0.0693 0.653625,0.262893 0.65321,0.26302 1.085118,-0.331857 z M 78.545867,74.92325 c 1.644362,-0.122056 5.911512,-0.385754 9.482556,-0.585997 3.571044,-0.200242 7.912848,-0.466237 9.648454,-0.591099 3.997303,-0.287571 5.035783,-0.744989 5.216573,-2.297734 l 0.0788,-0.676558 -0.9791,0.312782 c -0.93835,0.299767 -2.433433,0.382083 -19.066199,1.049755 -9.477978,0.380465 -10.601972,0.43381 -10.67292,0.506536 -0.03725,0.03819 0.04098,0.617262 0.173857,1.286833 l 0.241592,1.217401 h 1.443329 c 0.793831,0 2.788716,-0.09986 4.433078,-0.221919 z M 46.115033,74.070953 c 0.402268,-0.107404 0.521744,-0.307901 0.521744,-0.875558 v -0.736254 l -12.927643,0.08526 c -13.49828,0.08902 -13.766801,0.07252 -14.816239,-0.910406 -0.612557,-0.573735 -0.855715,-0.258988 -0.527435,0.682718 0.17974,0.515602 0.565495,0.857399 1.446511,1.281678 l 1.201406,0.578572 12.289956,0.01665 c 6.759477,0.0092 12.524741,-0.04604 12.8117,-0.122656 z m -9.76458,-2.170797 10.46747,-0.0014 0.09759,-0.835949 0.09759,-0.835949 -7.898374,0.14182 c -4.344106,0.078 -9.989773,0.204012 -12.545928,0.280024 -4.013936,0.119363 -4.687924,0.08956 -4.943668,-0.218592 -0.214708,-0.258707 -0.229937,-0.480452 -0.0554,-0.806586 0.221018,-0.412977 0.141678,-0.459655 -0.969424,-0.570331 -1.929194,-0.192166 -2.595164,0.724636 -1.435138,1.975672 0.820082,0.884422 1.977247,1.114619 4.862714,0.967351 1.020298,-0.05207 6.565449,-0.09531 12.322558,-0.09607 z m 43.90979,-0.231177 c 14.310466,-0.606858 21.043217,-0.975532 21.728237,-1.189802 0.4084,-0.127747 0.80392,-0.425643 0.87894,-0.661992 0.31995,-1.008088 -0.69546,-2.65641 -1.32729,-2.15459 -0.16181,0.128518 -0.68053,0.358064 -1.1527,0.510102 -0.483253,0.155606 -0.920883,0.472989 -1.001223,0.726124 -0.0785,0.24733 -0.3649,0.568598 -0.63646,0.713929 -0.58519,0.313187 -8.340455,0.622219 -16.982245,0.676708 -3.31597,0.02091 -6.975306,0.104598 -8.131859,0.185975 l -2.102823,0.14796 0.190674,0.731557 c 0.189835,0.728334 0.196547,0.731169 1.523109,0.643254 0.732838,-0.04857 3.888976,-0.196719 7.01364,-0.329225 z m -44.949511,-1.756566 11.978496,-0.165092 0.360045,-1.185166 c 0.198025,-0.651841 0.428157,-1.60256 0.511403,-2.11271 0.08325,-0.510149 0.296168,-1.158657 0.473159,-1.441128 0.176991,-0.282472 0.321802,-0.572372 0.321802,-0.644222 0,-0.07185 -5.373958,-0.121205 -11.942128,-0.109679 l -11.942128,0.02096 v 0.723967 c 0,1.039608 -0.822097,2.590006 -1.747702,3.295999 -1.334596,1.017946 -1.630737,2.17121 -0.487888,1.899985 0.273045,-0.0648 5.886769,-0.19211 12.474941,-0.282911 z m 52.852963,-0.336217 c 4.028055,-0.125497 7.959764,-0.228176 8.737132,-0.228176 1.00482,0 1.5241,-0.110708 1.79637,-0.382976 0.35604,-0.356044 0.29624,-0.425348 -0.8504,-0.985515 -1.944883,-0.950136 -2.654954,-2.81844 -1.742092,-4.58372 l 0.371343,-0.718099 -4.91947,0.106062 c -2.705709,0.05833 -8.693523,0.176534 -13.306252,0.262666 -4.61273,0.08613 -8.451625,0.221555 -8.530879,0.300939 -0.138517,0.138748 0.429126,2.531116 1.176199,4.957156 0.196368,0.637687 0.388992,1.266821 0.428052,1.398076 0.08061,0.270881 5.360164,0.231249 16.839997,-0.126413 z M 22.493046,68.176234 c 1.73555,-0.975434 2.409448,-3.082341 1.48594,-4.645715 -0.737783,-1.248966 -2.808788,-1.463232 -4.246684,-0.43936 -1.79889,1.280923 -1.893363,4.048158 -0.173992,5.096458 0.970152,0.591502 1.868245,0.588018 2.934736,-0.01138 z m -1.943441,-0.963377 c -1.785773,-1.024141 -1.13735,-3.661986 0.900173,-3.661986 1.667801,0 2.339369,2.013566 1.088695,3.264241 -0.722328,0.722328 -1.241765,0.826208 -1.988868,0.397745 z m 1.633742,-0.752871 c 0.313046,-0.313046 0.569175,-0.782616 0.569175,-1.043487 0,-0.606202 -0.789673,-1.401856 -1.391316,-1.401856 -0.537187,0 -1.391316,0.773684 -1.391316,1.260277 0,0.657416 0.445418,1.485345 0.856404,1.591859 0.727932,0.188656 0.776018,0.174242 1.357053,-0.406793 z m 78.606243,0.829929 c 1.78189,-0.809425 2.24011,-3.197718 0.85925,-4.478476 -1.44024,-1.33583 -3.421313,-1.253006 -4.693764,0.196235 -1.586692,1.807142 -0.166705,4.685888 2.319821,4.702975 0.31884,0.0022 1.000453,-0.187139 1.514693,-0.420734 z M 98.882667,66.53896 c -2.270616,-0.64948 -2.169708,-4.156203 0.1192,-4.142363 1.350103,0.0082 2.360003,1.079967 2.360003,2.504656 0,1.305594 -1.09998,2.032216 -2.479203,1.637707 z m 1.500063,-0.798321 c 0.72551,-0.508167 0.65485,-1.390299 -0.17807,-2.223222 -0.797843,-0.79784 -1.737673,-0.832812 -2.216793,-0.08249 -0.58202,0.911478 0.48731,2.646714 1.64123,2.66327 0.13104,0.0019 0.470183,-0.159022 0.753633,-0.357558 z M 25.96187,60.01461 c 0.148835,-2.072481 0.414471,-4.726945 0.590301,-5.898809 0.283131,-1.886998 0.44117,-2.311296 1.381937,-3.710176 0.584235,-0.868732 1.538601,-2.090697 2.120815,-2.715476 0.582213,-0.62478 1.805545,-1.981313 2.718516,-3.014518 0.91297,-1.033205 2.237207,-2.47856 2.942749,-3.211899 l 1.282803,-1.333344 h -0.940202 c -0.926807,0 -2.291961,0.820404 -3.677367,2.209953 -0.258172,0.258945 -1.304194,1.160206 -2.324492,2.002803 -1.654873,1.36665 -4.088891,3.863037 -6.74494,6.91777 -0.499013,0.573918 -1.038954,1.147836 -1.199868,1.275373 -0.213142,0.168933 -0.104677,0.238503 0.39953,0.25626 1.35551,0.04774 1.474973,0.354156 1.299008,3.331902 -0.08687,1.470018 -0.266648,3.393058 -0.399511,4.273423 l -0.24157,1.600663 0.719015,0.671978 c 0.395459,0.369588 0.719015,0.771038 0.719015,0.892111 0,0.121073 0.243822,0.220133 0.541826,0.220133 0.534512,0 0.545477,-0.05086 0.812435,-3.768147 z m 23.527194,2.898574 c 0.204541,-0.478265 0.577221,-1.234793 0.828178,-1.681173 0.614969,-1.093851 1.884798,-3.68534 1.884798,-3.846526 0,-0.07126 -0.54783,0.178352 -1.217401,0.554704 -2.183962,1.227561 -4.199813,1.901182 -5.662784,1.892289 -1.54643,-0.0094 -2.234745,-0.316896 -2.871468,-1.282791 -0.637015,-0.966339 -0.559074,-2.076433 0.267538,-3.810483 0.755304,-1.584461 1.368106,-3.598966 1.368106,-4.497464 0,-0.807124 -0.640175,-1.968649 -1.888418,-3.426322 -1.390568,-1.623877 -1.488313,-2.450427 -0.409009,-3.458648 1.546939,-1.445057 3.796127,-1.415129 7.779802,0.103517 3.643697,1.389042 8.709638,2.931022 9.629424,2.931022 0.492275,0 1.800776,-0.365221 2.907781,-0.811601 1.107005,-0.446381 2.120311,-0.811601 2.251791,-0.811601 0.13148,0 0.919904,-0.250676 1.752055,-0.557058 4.343532,-1.599206 5.359179,-1.832951 8.005808,-1.842493 1.40291,-0.0051 2.759443,0.05522 3.014517,0.133948 0.255075,0.07873 0.672516,0.151129 0.927647,0.160887 0.255131,0.0098 0.90731,0.423082 1.449287,0.918498 1.434785,1.311523 1.379482,2.145346 -0.287101,4.328689 -0.673134,0.881853 -0.749357,1.126974 -0.657958,2.115896 0.05686,0.615174 0.267455,1.764648 0.467998,2.554387 0.9683,3.81317 -0.520195,5.721114 -3.953791,5.067942 -0.783404,-0.149027 -1.858579,-0.54706 -2.389276,-0.884519 -0.530698,-0.337458 -1.835057,-0.892445 -2.898575,-1.233304 -1.063518,-0.340859 -2.02715,-0.674015 -2.141403,-0.740346 -0.114254,-0.06633 -0.151813,0.129745 -0.08347,0.435727 0.06835,0.305981 0.30703,1.391119 0.530405,2.411417 0.223376,1.020299 0.577621,2.533355 0.787211,3.362347 l 0.381074,1.507259 4.049917,-0.0244 c 2.227455,-0.01342 8.041255,-0.103885 12.919557,-0.201034 l 8.869638,-0.176635 V 60.65885 c 0,-3.516995 -0.48071,-7.421205 -1.185682,-9.629822 -0.843704,-2.643254 -2.708589,-6.462408 -4.345128,-8.898518 -1.301099,-1.936783 -1.330556,-2.001838 -0.904026,-1.996485 0.391368,0.0049 2.66331,3.547795 4.004366,6.244437 2.18471,4.393092 2.894242,7.49111 2.894242,12.637079 v 3.144014 l 0.753629,-0.0036 c 0.414497,-0.002 0.874364,-0.08038 1.021934,-0.17428 0.1774,-0.112883 0.32188,-1.624088 0.42642,-4.460254 0.11627,-3.154223 0.24821,-4.43078 0.49851,-4.823231 0.31998,-0.501697 0.2601,-0.661631 -0.9984,-2.666688 -1.779935,-2.835813 -4.459584,-6.585845 -6.291411,-8.804506 l -1.487745,-1.801918 -1.077444,0.121936 c -0.592595,0.06706 -12.218653,0.229362 -25.835684,0.360661 L 37.816284,40.1464 36.749567,41.239828 c -0.586694,0.601385 -1.653503,1.771694 -2.370687,2.600686 -0.717184,0.828992 -2.265468,2.530164 -3.44063,3.780381 -2.35435,2.504717 -3.535756,4.340945 -3.826756,5.947825 -0.105031,0.579971 -0.289593,2.411025 -0.410138,4.069009 -0.120546,1.657985 -0.290019,3.718872 -0.376608,4.579748 l -0.157435,1.565231 H 37.642242 49.11717 Z m -27.630732,-0.982349 0.844955,-0.0032 0.149797,-2.144945 c 0.08239,-1.17972 0.255726,-2.827417 0.385195,-3.661548 0.386466,-2.489886 -0.301292,-3.416396 -1.712199,-2.306577 -0.858656,0.675419 -1.266294,2.274243 -1.409609,5.528728 l -0.126163,2.864979 0.511534,-0.137152 c 0.281344,-0.07543 0.891765,-0.138577 1.35649,-0.140319 z m 78.971438,-4.199738 c -0.32415,-3.592382 -0.73873,-5.078867 -1.416493,-5.078867 -0.78845,0 -0.94865,0.718761 -1.06593,4.782167 l -0.11594,4.017288 0.8444,-0.135448 c 0.46441,-0.0745 1.038333,-0.02607 1.275373,0.107607 0.23703,0.133681 0.5142,0.161112 0.61592,0.06096 0.10172,-0.100153 0.0399,-1.789321 -0.13733,-3.753707 z M 50.205074,57.553426 c 3.409719,-1.733132 5.150248,-2.851044 6.866572,-4.410283 0.872228,-0.792399 1.200447,-1.234319 1.038342,-1.398044 -0.162472,-0.164096 -1.012223,0.261675 -2.701466,1.353578 -4.602829,2.975205 -5.743174,3.557736 -7.807024,3.988119 -1.193834,0.248955 -2.045454,0.555897 -2.225492,0.802114 -0.415577,0.568335 -0.649306,0.04651 -0.240555,-0.537062 0.233295,-0.333076 0.878984,-0.594977 2.135275,-0.866101 1.377682,-0.297322 2.46338,-0.766488 4.62031,-1.996589 1.550701,-0.884369 3.361201,-1.97251 4.023335,-2.418093 0.662133,-0.445583 1.347333,-0.810151 1.522666,-0.810151 0.252124,0 0.26794,-0.133351 0.07563,-0.637686 -0.3278,-0.859679 -0.0443,-2.609761 0.521555,-3.219616 l 0.459244,-0.494955 -1.172067,-0.281175 c -0.644636,-0.154646 -2.50369,-0.748601 -4.13123,-1.319901 -5.754981,-2.020117 -7.037539,-2.397229 -8.247872,-2.425131 -2.243942,-0.05173 -3.873435,1.27652 -3.172584,2.586073 0.135111,0.252458 0.324892,0.459014 0.421735,0.459014 0.302718,0 1.805261,2.158217 2.179414,3.13046 0.486405,1.263929 0.156909,3.336655 -0.883636,5.558602 -0.87864,1.87622 -0.987265,3.001493 -0.361986,3.749918 0.538592,0.644667 0.997746,0.759904 2.765156,0.693992 1.273502,-0.04749 1.815712,-0.236882 4.314673,-1.507083 z m 0.258813,-6.522794 c -0.150677,-0.2438 1.018635,-0.622874 2.549754,-0.826595 0.637686,-0.08485 1.772018,-0.460484 2.520737,-0.834752 1.443485,-0.721566 2.032811,-0.694172 1.070031,0.04974 -0.801519,0.619309 -2.880032,1.378118 -3.774912,1.378118 -0.410554,0 -1.083499,0.09666 -1.495433,0.214802 -0.411935,0.118142 -0.803514,0.126551 -0.870177,0.01869 z M 51.36694,48.44026 c -0.05578,-0.09026 0.344082,-0.229607 0.888584,-0.30967 1.250566,-0.183883 4.236407,-0.05864 4.236407,0.177697 0,0.225118 -4.98804,0.353564 -5.124991,0.131973 z m 3.878309,-1.283438 c -0.462161,-0.159944 -1.41421,-0.414788 -2.115665,-0.566321 -0.701455,-0.151532 -1.562332,-0.417544 -1.913059,-0.591137 -0.350728,-0.173592 -0.637687,-0.266511 -0.637687,-0.206485 0,0.06003 -0.576893,-0.145993 -1.281984,-0.457818 -1.599707,-0.707466 -3.570885,-0.769604 -4.479369,-0.141204 -0.989309,0.684308 -1.195226,0.775149 -1.195226,0.52728 0,-0.128574 0.370169,-0.516112 0.822597,-0.861196 0.673533,-0.513728 1.083234,-0.633017 2.260889,-0.658281 0.79106,-0.01697 1.646988,0.09231 1.902063,0.24285 1.007481,0.594591 5.83093,2.054657 7.865248,2.380824 1.138339,0.182513 1.444172,0.761864 0.35851,0.67914 -0.410314,-0.03127 -1.124157,-0.187708 -1.586317,-0.347652 z m 22.104031,9.744506 c 0.553163,-0.263785 0.895832,-0.633701 1.066742,-1.151565 0.267565,-0.810729 0.100784,-2.653568 -0.311814,-3.445362 -0.348005,-0.667839 -0.222851,-3.584025 0.180216,-4.199184 0.18462,-0.281765 0.600356,-0.797899 0.923859,-1.146965 0.906749,-0.978398 0.818396,-2.19851 -0.22126,-3.055482 -0.657414,-0.541896 -1.190947,-0.720654 -2.840603,-0.95173 -3.1792,-0.445328 -4.824272,-0.05959 -14.358477,3.366795 l -0.964909,0.346767 0.438073,0.964812 c 0.24094,0.530646 0.440364,1.25177 0.443165,1.602498 l 0.0051,0.637686 h 2.050567 c 1.127812,0 3.333722,0.069 4.902023,0.153322 2.448693,0.131665 2.792016,0.196784 2.430639,0.461029 -0.275719,0.201611 -0.826585,0.269319 -1.597647,0.196369 -2.924023,-0.27664 -8.249354,-0.314396 -8.249354,-0.05849 0,0.14375 -0.2265,0.502462 -0.503334,0.797138 -0.618866,0.658753 -0.509478,0.783368 0.771735,0.879157 0.998474,0.07465 4.028516,0.997849 6.428469,1.958637 2.098367,0.840053 1.558684,0.398278 -1.275788,-1.044339 -2.298765,-1.169966 -2.87868,-1.371795 -3.941573,-1.371795 -0.897112,0 -1.246444,-0.08854 -1.246937,-0.316025 -9.46e-4,-0.435847 2.882352,-0.261513 3.825433,0.231298 6.868394,3.589116 8.708938,4.081327 12.463871,3.333174 1.192837,-0.237668 0.644456,0.330858 -0.695658,0.721212 -1.094298,0.318752 -1.624358,0.346897 -2.956546,0.156986 -0.892761,-0.127268 -1.658987,-0.20247 -1.702723,-0.167116 -0.25645,0.207297 2.554698,1.247794 3.955744,1.46415 0.09133,0.0141 0.532773,-0.149238 0.980994,-0.36298 z M 62.025714,48.659232 c -0.072,-0.116492 -0.05981,-0.283124 0.02709,-0.370292 0.274516,-0.275377 10.091431,-0.329195 10.091431,-0.05532 0,0.161342 -1.322771,0.249373 -3.88409,0.258488 -2.13625,0.0076 -4.383464,0.09597 -4.993809,0.196378 -0.638316,0.105006 -1.165325,0.09258 -1.240621,-0.02925 z m -0.504992,-1.122278 c 0.194144,-0.582433 5.737893,-2.520524 8.909958,-3.114916 2.698076,-0.505574 7.742589,-0.411871 7.742589,0.14382 0,0.111237 -1.539143,0.205915 -3.420318,0.210395 -4.213801,0.01004 -6.773204,0.521019 -10.92024,2.180218 -2.250543,0.900427 -2.43399,0.946486 -2.311989,0.580483 z m -1.425299,3.7147 c 1.000961,-1.000961 1.183042,-2.452236 0.457054,-3.642944 -0.578163,-0.948256 -1.178471,-0.960607 -1.952959,-0.04018 -0.838177,0.996116 -0.853536,2.764599 -0.03115,3.586981 0.692009,0.69201 0.917026,0.706177 1.527059,0.09614 z M 40.037389,39.213189 c -0.277099,-0.30619 -0.380272,-0.711033 -0.317731,-1.246742 l 0.09262,-0.793314 -1.747211,1.173535 c -0.960966,0.645445 -1.79069,1.206478 -1.84383,1.246742 -0.05314,0.04026 0.876083,0.07321 2.064942,0.07321 2.130434,0 2.155651,-0.0065 1.751215,-0.453427 z m 3.352984,0.221541 c 0,-0.127538 -0.04602,-0.231886 -0.102258,-0.231886 -0.05624,0 -0.166748,0.104348 -0.245571,0.231886 -0.07882,0.127537 -0.03281,0.231886 0.102258,0.231886 0.135064,0 0.245571,-0.104349 0.245571,-0.231886 z m 1.15943,-0.144337 c 0,-0.308127 -0.06296,-0.323974 -0.347829,-0.08755 -0.191306,0.158769 -0.347829,0.328069 -0.347829,0.376222 0,0.04815 0.156523,0.08755 0.347829,0.08755 0.191306,0 0.347829,-0.1693 0.347829,-0.376223 z m 9.531149,0.131192 8.446748,-0.03215 -0.123998,-1.477707 c -0.0682,-0.812738 -0.257936,-1.61125 -0.421639,-1.774471 -0.220379,-0.219729 -1.18226,-0.281805 -3.705488,-0.239136 -6.776565,0.114594 -11.995721,0.347416 -12.385552,0.552509 -0.442336,0.232716 -0.907485,1.685476 -0.769841,2.404381 0.04884,0.255074 0.09678,0.548191 0.106537,0.651371 0.0098,0.10318 0.105209,0.133542 0.212113,0.06747 0.106904,-0.06607 3.995408,-0.134593 8.64112,-0.152273 z M 43.422701,38.149362 c 0.874981,-0.706952 1.590874,-1.381154 1.590874,-1.498226 0,-0.509507 1.00071,-1.13224 1.62033,-1.008316 0.534726,0.106945 0.760059,-0.03125 1.476385,-0.905427 0.819975,-1.000672 0.845738,-1.090075 0.858378,-2.978783 0.0072,-1.070931 0.09396,-3.029117 0.192868,-4.351522 0.161807,-2.163324 0.236055,-2.446799 0.740598,-2.827545 0.818966,-0.618021 2.281866,-0.925847 5.54631,-1.167064 3.226353,-0.238402 23.312764,-0.303712 23.679604,-0.07699 0.354374,0.219015 0.640795,1.120732 0.785648,2.473394 0.07185,0.670972 0.231395,1.786944 0.354537,2.479939 0.28357,1.595812 0.288627,3.097277 0.0099,2.924984 -0.117725,-0.07276 -0.281046,-0.437339 -0.362935,-0.81018 -0.155279,-0.706979 -0.227047,-0.739085 -2.377348,-1.06353 l -0.983299,-0.148363 0.809384,1.20274 c 0.445161,0.661507 0.809384,1.302761 0.809384,1.425009 0,0.122248 0.121007,0.147483 0.268904,0.05608 0.538975,-0.333105 2.072235,-0.08482 2.967928,0.480608 0.502581,0.317265 1.362515,1.218136 1.910965,2.001935 0.54845,0.783799 1.140345,1.620593 1.315322,1.859543 0.269598,0.368164 0.269598,0.434072 0,0.431944 -0.174977,-0.0014 -0.683361,-0.524086 -1.129742,-1.161565 -1.390587,-1.985907 -1.67292,-2.34179 -1.776022,-2.238689 -0.176292,0.176292 0.451501,2.335506 0.888224,3.054936 0.240071,0.395477 0.422667,1.140039 0.42316,1.725494 7.28e-4,0.864856 0.0473,0.971112 0.290724,0.663273 0.159422,-0.20161 0.681212,-0.490534 1.159534,-0.642053 1.139297,-0.360899 1.325932,-1.054081 0.641382,-2.382166 C 84.853678,35.12556 84.388411,34.4202 84.099772,34.101357 83.357792,33.281735 82.247018,31.55955 81.931127,30.739011 81.783829,30.356399 81.556222,29.208563 81.425333,28.188265 81.294444,27.167967 81.126926,25.863608 81.05307,25.28969 80.855723,23.75615 80.489027,22.958153 79.874276,22.724426 79.574264,22.610361 73.720946,22.500275 66.866903,22.479789 51.667992,22.434359 49.491866,22.653085 48.740725,24.30166 c -0.347761,0.763253 -0.708491,3.811821 -0.710823,6.007248 l -0.0018,1.65687 -1.212108,0.633794 c -1.091148,0.570546 -2.923171,1.704906 -5.323257,3.296078 -1.23089,0.816036 -1.628938,2.294848 -0.865351,3.214915 0.48413,0.583341 1.179706,0.344161 2.795324,-0.961198 z m 21.076377,-1.897994 c 0.701887,-0.760941 0.797263,-1.004524 0.733674,-1.873741 l -0.07309,-0.999099 -7.676328,0.139381 c -4.221981,0.07666 -7.755917,0.188568 -7.85319,0.248687 -0.09727,0.06012 -0.485808,0.499165 -0.86341,0.97566 l -0.686548,0.866355 6.640675,-0.169918 c 4.582118,-0.117245 6.833688,-0.09249 7.263312,0.07987 0.720951,0.289231 1.116509,1.223381 1.116509,2.63675 0,1.4157 0.327547,1.517821 0.469731,0.14645 0.09586,-0.924535 0.294278,-1.36263 0.928666,-2.050394 z m 9.790101,2.976051 8.289924,-0.02457 v -0.918014 c 0,-0.504907 -0.182611,-1.288069 -0.405801,-1.740361 l -0.4058,-0.822347 -8.076096,0.05919 -8.076095,0.05919 -0.793543,0.866167 c -0.798248,0.871303 -1.044645,1.920438 -0.563927,2.401155 0.126289,0.126289 0.569771,0.210392 0.985515,0.186896 0.415745,-0.0235 4.486365,-0.05378 9.045823,-0.0673 z M 88.933691,38.6811 c -0.360314,-0.630715 -1.869977,-2.437101 -2.955384,-3.536261 l -1.144922,-1.15943 0.612004,1.084779 c 1.003212,1.778199 0.81395,2.797797 -0.639397,3.444566 l -0.951517,0.423444 2.622403,0.01638 c 2.035167,0.01271 2.585322,-0.04853 2.456813,-0.273478 z M 76.990217,35.159865 c -0.0555,-0.0555 -0.600452,-0.160882 -1.210994,-0.234171 -0.610542,-0.07329 -1.443397,-0.269237 -1.85079,-0.435439 -0.601615,-0.245438 -0.848963,-0.246758 -1.317165,-0.007 -0.566394,0.290007 -1.540571,0.206091 -1.950816,-0.168044 -0.114625,-0.104536 -0.53202,-0.02143 -0.927544,0.184674 -0.395524,0.206106 -1.032181,0.450949 -1.414793,0.544096 -0.382612,0.09315 1.434795,0.180038 4.038681,0.193093 2.603886,0.01306 4.688926,-0.02168 4.633421,-0.07718 z m 4.376293,-0.232404 c 0.03453,-0.03453 -0.05242,-0.599937 -0.193221,-1.25647 -0.276035,-1.287106 -0.637409,-1.539035 -1.986486,-1.384861 -0.632703,0.07231 -0.666308,0.133853 -0.67787,1.241505 -0.0067,0.640986 -0.08018,1.275482 -0.163314,1.409993 -0.102364,0.165628 0.350629,0.213586 1.403481,0.148586 0.855046,-0.05279 1.582881,-0.124227 1.61741,-0.158753 z M 67.158685,34.333238 c 0.510149,-0.246419 1.105245,-0.451576 1.322434,-0.455904 0.473121,-0.0094 1.576141,-0.488937 1.576141,-0.685187 0,-0.07651 -0.878119,-0.158064 -1.951375,-0.181236 -2.083566,-0.04498 -2.186395,0.01026 -2.353358,1.264356 -0.08424,0.632729 0.192637,0.644144 1.406158,0.05797 z m 10.496645,0.33231 c -0.114713,-0.114713 -1.042514,-0.335039 -3.771951,-0.89573 -0.601453,-0.123553 -0.624698,-0.111679 -0.17165,0.08768 0.288204,0.126822 1.227342,0.381587 2.086973,0.566144 1.823526,0.3915 2.033592,0.41887 1.856628,0.241906 z m -4.902488,-1.176475 c 0.209169,-0.833396 -0.16921,-1.807921 -0.73368,-1.889611 -1.174609,-0.169989 -2.039891,1.835302 -0.976387,2.262778 0.998351,0.401288 1.545667,0.281854 1.710067,-0.373167 z m -1.266583,-0.05518 c -0.421772,-0.267343 -0.247166,-1.281011 0.236529,-1.373162 0.54372,-0.103587 1.009392,0.799996 0.64103,1.243845 -0.317567,0.382645 -0.447654,0.401815 -0.877559,0.129317 z m 6.260077,-1.035145 c -0.08787,-0.36755 -0.251449,-0.405847 -1.170947,-0.27414 -1.243031,0.178049 -2.846248,0.59809 -3.099971,0.81219 -0.09684,0.08172 0.685775,0.334861 1.739145,0.562541 1.053371,0.227681 2.019568,0.440062 2.147105,0.471959 0.276011,0.06903 0.529438,-0.966999 0.384668,-1.57255 z m -17.375028,0.549271 4.806921,-0.0061 0.44381,-0.869572 c 0.244095,-0.478265 0.663611,-1.068355 0.932257,-1.311312 0.268645,-0.242957 0.48857,-0.503829 0.488721,-0.579715 6.78e-4,-0.340102 -13.567546,0.139147 -16.52215,0.583587 l -0.869573,0.130803 v 1.16794 1.167941 l 2.956547,-0.138741 c 1.6261,-0.07631 5.11966,-0.141484 7.763467,-0.144836 z m 8.39722,-0.495155 c 0.06068,-0.06068 -0.466526,-0.21601 -1.171577,-0.345168 -1.084329,-0.198639 -1.311605,-0.179252 -1.474556,0.125782 -0.164484,0.307903 0.0068,0.358359 1.171577,0.345169 0.750323,-0.0085 1.413873,-0.0651 1.474556,-0.125783 z m 1.238485,-1.306921 c -0.291207,-0.311821 -0.827844,-0.722138 -1.192527,-0.911817 -0.629656,-0.327499 -0.696825,-0.312522 -1.333344,0.297302 -0.368657,0.353196 -0.670286,0.720606 -0.670286,0.816468 0,0.09586 0.495657,0.247321 1.101459,0.336577 0.605802,0.08926 1.310156,0.240155 1.56523,0.335332 0.255075,0.09518 0.597684,0.06506 0.761354,-0.06694 0.235204,-0.18968 0.186598,-0.358824 -0.231886,-0.806928 z m 5.821065,0.625095 c 1.312279,-0.216865 1.598942,-0.348316 1.335061,-0.612197 -0.16864,-0.168639 -3.395703,0.790882 -3.395703,1.009664 0,0.07006 0.18261,0.05573 0.4058,-0.03184 0.22319,-0.08757 0.967869,-0.252103 1.654842,-0.365631 z m -0.379469,-0.804459 c 0.733339,-0.22385 1.333344,-0.495756 1.333344,-0.604234 0,-0.223357 -1.728015,-1.362482 -2.066841,-1.362482 -0.121533,0 -0.601754,0.464697 -1.067157,1.032661 -0.607257,0.741076 -0.804018,1.165525 -0.696842,1.503208 0.133664,0.421139 0.202623,0.43733 0.656749,0.154197 0.279071,-0.173993 1.107407,-0.4995 1.840747,-0.72335 z m -31.159678,0.670987 c 0.617196,-0.123439 0.724644,-0.24746 0.724644,-0.83641 0,-0.565775 -0.07377,-0.661985 -0.4058,-0.529227 -0.223191,0.08924 -1.031893,0.218726 -1.797117,0.287745 -1.640666,0.14798 -2.236114,0.402721 -2.053529,0.878529 0.14147,0.368665 2.125359,0.480652 3.531802,0.199363 z m 43.472222,-0.843114 c 0.430661,-0.577368 0.44237,-0.675382 0.119273,-0.998479 -0.197047,-0.197047 -0.945286,-0.418852 -1.662754,-0.492901 -1.633856,-0.168629 -2.47914,0.279484 -2.47914,1.314273 0,0.669619 0.02054,0.680444 1.449288,0.763629 2.052774,0.119519 2.045449,0.121188 2.573333,-0.586522 z M 72.33414,30.028445 c 0.278163,-0.572545 0.505752,-1.090374 0.505752,-1.15073 0,-0.158819 -1.903767,-0.134787 -2.751355,0.03473 l -0.722352,0.144471 0.936983,1.119123 c 0.515341,0.615518 1.069336,1.068335 1.231101,1.00626 0.161765,-0.06208 0.521707,-0.58131 0.799871,-1.153854 z M 54.5209,29.834434 c 1.721753,-0.16689 5.415902,-0.323569 8.209218,-0.348176 4.032706,-0.03552 5.202842,-0.116444 5.681207,-0.392875 0.542019,-0.313215 -0.118598,-0.335671 -6.586017,-0.223883 -6.518685,0.112674 -11.194563,0.479941 -11.934777,0.937419 -0.534833,0.330545 -0.189967,0.582407 0.630336,0.460345 0.478265,-0.07117 2.27828,-0.265941 4.000033,-0.43283 z m 19.223955,-0.934449 c -0.061,-0.06101 -0.249066,0.11912 -0.417912,0.400279 -0.293317,0.488424 -0.288375,0.493365 0.110918,0.110918 0.229852,-0.220153 0.367999,-0.450192 0.306994,-0.511197 z M 52.549869,28.749419 c 1.470052,-0.272598 17.098503,-0.677381 20.058137,-0.519514 2.034861,0.10854 2.737496,0.186037 5.156767,0.568765 0.986932,0.156132 1.838597,0.239185 1.892588,0.184562 0.139081,-0.140707 -0.495774,-4.86967 -0.678088,-5.050998 -0.251176,-0.249817 -22.783442,-0.116773 -25.1905,0.148741 -2.348704,0.259076 -3.50769,0.680328 -3.780406,1.374048 -0.0896,0.227908 -0.22223,1.178568 -0.294744,2.112579 l -0.131844,1.698201 0.788387,-0.129193 c 0.433613,-0.07106 1.414479,-0.245292 2.179703,-0.387191 z"
       id="path1" /></g></svg>
