<?xml version="1.0" encoding="UTF-8" standalone="no"?>
<!-- Created with Inkscape (http://www.inkscape.org/) -->

<svg
   width="120"
   height="120"
   viewBox="0 0 120 120"
   version="1.1"
   id="svg1"
   xml:space="preserve"
   inkscape:export-filename="men-carrying-glass.svg"
   inkscape:export-xdpi="96"
   inkscape:export-ydpi="96"
   xmlns:inkscape="http://www.inkscape.org/namespaces/inkscape"
   xmlns:sodipodi="http://sodipodi.sourceforge.net/DTD/sodipodi-0.dtd"
   xmlns="http://www.w3.org/2000/svg"
   xmlns:svg="http://www.w3.org/2000/svg"><sodipodi:namedview
     id="namedview1"
     pagecolor="#ffffff"
     bordercolor="#000000"
     borderopacity="0.25"
     inkscape:showpageshadow="2"
     inkscape:pageopacity="0.0"
     inkscape:pagecheckerboard="0"
     inkscape:deskcolor="#d1d1d1"
     inkscape:document-units="px"><inkscape:page
       x="0"
       y="0"
       width="120"
       height="120"
       id="page2"
       margin="0"
       bleed="0" /></sodipodi:namedview><defs
     id="defs1" /><g
     inkscape:label="Layer 1"
     inkscape:groupmode="layer"
     id="layer1"><path
       style="fill:#000000"
       d="m 39.173338,101.38101 c -0.148633,-0.38733 0.06271,-14.928586 0.261788,-18.011818 0.114621,-1.775206 0.175184,-1.999495 0.539918,-1.999495 0.225948,0 0.42323,0.07295 0.438403,0.162122 0.146694,0.862074 0.13313,1.587573 -0.06971,3.728787 -0.129522,1.367223 -0.294621,5.590625 -0.366886,9.38534 -0.09961,5.230859 -0.196711,6.921174 -0.401479,6.989184 -0.148549,0.0493 -0.329462,-0.065 -0.402029,-0.25412 z m 31.972136,-1.565297 c 1.115029,-8.138791 1.631398,-11.018734 2.609706,-14.555107 0.180893,-0.653888 0.439646,-1.626616 0.575006,-2.161616 0.135361,-0.535 0.329415,-1.167272 0.431232,-1.40505 0.101817,-0.237778 0.252234,-0.772778 0.334261,-1.188889 0.261414,-1.326125 1.640505,-5.289921 1.897834,-5.454771 0.385825,-0.247168 1.004467,-0.193123 1.004467,0.08775 0,0.13925 -0.13004,0.40675 -0.288979,0.594445 -0.28629,0.338086 -0.839142,1.94524 -1.530203,4.448334 -0.19694,0.713333 -0.550508,1.929242 -0.785707,2.70202 -0.2352,0.772777 -0.426227,1.604459 -0.424505,1.848182 0.0017,0.243722 -0.07883,0.53554 -0.178997,0.648484 -0.165384,0.186475 -0.720682,2.368508 -1.317495,5.177071 -0.126318,0.594444 -0.327498,2.004899 -0.447067,3.134343 -0.119569,1.129445 -0.311409,2.491263 -0.426311,3.026263 -0.114903,0.535 -0.284574,1.605 -0.377047,2.377778 -0.15013,1.2546 -0.222829,1.41279 -0.678941,1.47733 -0.4765,0.0674 -0.503181,0.0166 -0.397254,-0.756567 z M 46.440685,99.638126 c -0.274777,-0.331087 -0.57359,-5.846116 -0.738003,-13.620954 -0.05783,-2.734444 -0.172087,-5.24768 -0.253916,-5.584969 -0.134125,-0.552849 -0.09891,-0.606077 0.357518,-0.540404 0.322645,0.04642 0.560503,0.268872 0.655733,0.613252 0.08219,0.297222 0.169198,2.631768 0.193353,5.187879 0.047,4.97366 0.327588,11.646405 0.550899,13.101102 0.104998,0.683979 0.06091,0.916906 -0.191901,1.013919 -0.180517,0.06927 -0.438674,-0.0071 -0.573683,-0.169825 z m 43.709371,0.03842 c -0.11041,-0.141544 -0.266603,-0.500535 -0.347095,-0.797757 -0.949375,-3.505634 -1.233277,-4.793651 -1.52467,-6.917171 -0.437297,-3.186788 -1.211052,-7.079034 -1.611436,-8.106061 -0.0927,-0.237778 -0.386271,-1.113232 -0.652385,-1.945455 -0.605248,-1.892796 -1.831686,-4.530763 -2.542478,-5.468657 -0.76821,-1.013659 -0.37407,-1.829813 0.474073,-0.981671 0.717743,0.717744 1.390104,2.005261 2.691162,5.153359 0.335286,0.811273 1.088026,3.358781 1.088026,3.682219 0,0.17745 0.09457,0.491544 0.210146,0.697987 0.274632,0.490531 1.086824,4.582148 1.086824,5.475145 0,1.238292 0.869955,5.36427 1.636565,7.76182 0.171065,0.535 0.310546,1.083911 0.309958,1.219803 -0.0016,0.363465 -0.585766,0.525046 -0.81869,0.226439 z M 61.879437,99.503807 c -0.21039,-0.340419 0.581619,-3.943194 1.206588,-5.488655 0.09616,-0.237778 0.396759,-1.161869 0.668009,-2.053535 0.27125,-0.891667 0.561536,-1.718485 0.64508,-1.837374 0.08354,-0.118889 0.251573,-0.556616 0.373398,-0.972727 0.121825,-0.416112 0.432434,-1.291566 0.690242,-1.945455 0.257807,-0.653889 0.573657,-1.505025 0.701888,-1.891414 0.128231,-0.386389 0.314099,-0.702525 0.413041,-0.702525 0.09894,0 0.179893,-0.10261 0.179893,-0.228021 0,-0.2212 0.465412,-1.330893 1.315546,-3.136691 0.227561,-0.48337 0.413747,-0.985946 0.413747,-1.116835 0,-0.13089 0.07296,-0.270406 0.162122,-0.310036 0.08917,-0.03963 0.687609,-1.113599 1.329872,-2.386599 1.107806,-2.195731 2.119788,-3.552992 3.213107,-4.309388 0.488187,-0.337746 0.488749,-0.34467 0.156289,-1.925133 -0.183514,-0.872392 -0.371525,-1.624032 -0.417803,-1.67031 -0.04628,-0.04628 -0.423585,0.446493 -0.83846,1.095047 -0.876933,1.370866 -1.708005,2.193272 -2.58238,2.55545 -1.309417,0.542378 -2.678371,-0.80216 -2.813901,-2.763713 -0.03143,-0.454852 -0.126473,-0.937421 -0.211212,-1.072375 -0.08474,-0.134955 -0.06604,-0.524046 0.04155,-0.864647 0.107592,-0.340601 0.268675,-3.391547 0.357963,-6.779881 0.251218,-9.533287 0.173556,-8.646464 0.757199,-8.646464 0.444988,0 0.449313,0.04924 0.308524,3.512626 -0.241775,5.947574 -0.291981,9.457071 -0.135292,9.457071 0.08238,0 0.41684,-0.527419 0.743243,-1.172042 0.326402,-0.644623 1.027633,-1.819508 1.558289,-2.610856 0.783171,-1.167912 0.964831,-1.620397 0.964831,-2.403236 0,-1.059301 0.645524,-2.546154 1.19736,-2.757913 0.193121,-0.07411 0.586356,-0.134741 0.873854,-0.134741 0.287499,0 0.522725,-0.115198 0.522725,-0.255995 0,-0.353316 0.887771,-2.166384 1.231721,-2.515506 0.55013,-0.558402 0.258716,-0.687085 -1.555963,-0.687085 -1.642903,0 -1.837374,-0.04228 -1.837374,-0.399474 0,-0.354981 0.258816,-0.415224 2.323737,-0.540887 1.727235,-0.105112 2.462459,-0.241462 2.864142,-0.531164 0.297222,-0.214363 0.855304,-0.517253 1.240182,-0.673089 0.809238,-0.327657 0.73682,-0.665487 -0.142655,-0.665487 -0.359963,0 -0.82786,-0.221609 -1.151754,-0.545503 -0.549019,-0.549019 -1.147415,-2.326529 -0.911648,-2.708009 0.172088,-0.278445 0.749713,-0.260764 0.749713,0.02295 0,0.507221 0.895397,2.149757 1.171899,2.149757 0.163046,0 0.617426,-0.364773 1.009735,-0.810606 l 0.713287,-0.810606 -0.528774,-0.07234 c -0.290825,-0.03979 -0.621182,-0.16138 -0.734127,-0.270202 -0.112944,-0.108822 -0.425727,-0.197858 -0.695072,-0.197858 -0.4852,0 -1.628051,-0.938776 -1.862896,-1.530245 -0.103727,-0.261242 -0.156177,-0.258685 -0.351051,0.01711 -0.126007,0.178333 -0.255004,0.390004 -0.286659,0.470381 -0.03165,0.08038 -0.335685,0.21518 -0.675623,0.299565 -0.60814,0.150961 -0.615517,0.141669 -0.459207,-0.578462 0.08737,-0.402539 0.268233,-0.809071 0.401908,-0.903406 0.140882,-0.09942 0.02126,-0.144853 -0.284583,-0.108081 -0.387098,0.04654 -0.574265,0.244411 -0.702733,0.742915 -0.18656,0.723922 -0.752885,1.098488 -1.114347,0.737027 -0.147732,-0.147733 -0.124475,-0.395278 0.07155,-0.761552 0.449051,-0.83906 -0.176801,-1.411519 -1.543172,-1.411519 -0.859497,0 -1.047306,-0.0689 -1.047306,-0.384226 0,-0.707191 0.641323,-1.338812 1.498561,-1.47589 0.664404,-0.106243 0.806224,-0.209693 0.723121,-0.527477 -0.05686,-0.217423 -0.38545,-0.493645 -0.730206,-0.613828 -0.825114,-0.287636 -0.794724,-0.73757 0.0757,-1.12068 0.934123,-0.411148 0.709556,-0.758997 -0.432323,-0.669659 l -0.918687,0.07188 v -1.291678 c 0,-1.493133 0.261337,-1.731296 1.212029,-1.104554 0.750804,0.494967 1.38191,0.536463 1.38191,0.09086 0,-0.178334 -0.09477,-0.324243 -0.21061,-0.324243 -0.64417,0 -1.008974,-2.781384 -0.413106,-3.149651 0.378353,-0.233835 1.01465,0.145214 1.15017,0.685169 0.110371,0.439751 0.250227,0.533091 0.717135,0.478618 0.441568,-0.05152 0.617079,-0.222471 0.735248,-0.716156 0.672534,-2.809699 0.700773,-2.869022 2.00649,-4.215151 0.443158,-0.456874 1.469646,-1.060631 2.931845,-1.724446 0.539486,-0.244917 4.92624,-0.25331 5.076791,-0.0097 0.07513,0.121565 0.302529,0.221026 0.505329,0.221026 0.474517,0 1.944937,0.776661 2.600916,1.373777 0.669703,0.609609 0.884389,1.211631 1.00332,2.813514 0.0541,0.728657 0.159165,1.697389 0.233481,2.152738 0.126335,0.774078 0.102419,0.823269 -0.367838,0.756566 -0.342673,-0.04861 -0.526929,0.04921 -0.578177,0.306941 -0.09078,0.45656 0.33434,0.494035 0.804107,0.07088 0.458178,-0.412715 1.353877,-0.606026 1.715405,-0.370221 0.379671,0.247638 0.172822,0.89369 -0.528385,1.650304 -0.665942,0.718563 -0.575908,0.871895 0.256931,0.437567 1.103961,-0.57572 1.492367,-0.260472 0.943242,0.765578 -0.202761,0.378862 -0.146956,0.418564 0.594444,0.422919 0.976085,0.0057 1.921504,0.640128 1.723383,1.156423 -0.105678,0.275393 -0.441994,0.351902 -1.546872,0.351902 -1.449875,0 -1.696485,0.178553 -1.087592,0.787446 0.178333,0.178333 0.324242,0.562908 0.324242,0.85461 0,0.407145 -0.13973,0.558315 -0.601416,0.650652 -0.330778,0.06616 -0.832213,0.294374 -1.1143,0.507152 l -0.512884,0.38687 0.621859,0.298049 c 0.706565,0.338647 0.663179,0.761758 -0.06851,0.668151 -0.596598,-0.07632 -0.615434,0.164076 -0.06744,0.860736 0.230407,0.292916 0.484134,0.792398 0.563837,1.10996 0.128694,0.512757 0.08317,0.577384 -0.406702,0.577384 -0.382379,0 -0.667916,-0.196878 -0.930682,-0.641705 -0.548904,-0.92922 -1.034428,-1.061633 -0.86953,-0.237139 0.07652,0.38258 9.31e-4,0.886452 -0.187033,1.246811 -0.173494,0.332618 -0.316043,0.726995 -0.316775,0.876392 -7.33e-4,0.149397 -0.245287,0.483748 -0.543456,0.743002 -0.353622,0.307471 -0.49888,0.60762 -0.417756,0.863217 0.0684,0.215516 0.05956,0.596022 -0.01964,0.845569 -0.112715,0.355134 -0.279134,0.43389 -0.765891,0.362449 -0.521671,-0.07656 -0.580237,-0.04109 -0.363436,0.220139 0.197228,0.237645 0.631328,0.287482 1.832584,0.210391 1.05408,-0.06765 1.643701,-0.0172 1.784702,0.152695 0.367911,0.443306 -0.236089,0.76222 -1.443591,0.76222 -0.630111,0 -1.145657,0.0806 -1.145657,0.179102 0,0.09851 0.300985,0.633506 0.668855,1.188888 0.629982,0.951099 0.724829,1.009787 1.631947,1.009787 1.144203,0 2.049018,0.420612 2.401601,1.116407 0.140691,0.277643 0.293563,1.392646 0.339716,2.477784 0.07087,1.666288 0.188575,2.187814 0.757212,3.355046 0.468863,0.962428 0.717395,1.856533 0.818529,2.944698 0.136363,1.467204 0.118815,1.562631 -0.287339,1.562631 -0.369421,0 -0.452316,-0.188923 -0.567832,-1.294119 -0.07439,-0.711765 -0.222572,-1.465629 -0.329283,-1.675252 -0.106711,-0.209624 -0.407457,-0.818861 -0.668324,-1.353861 -0.763889,-1.566625 -1.160937,-2.21074 -1.793424,-2.909403 -0.327255,-0.361495 -0.649947,-0.827491 -0.717092,-1.035547 -0.06715,-0.208055 -0.212801,-0.378283 -0.323678,-0.378283 -0.110877,0 -0.201595,-0.101665 -0.201595,-0.225923 0,-0.124258 -0.486364,-0.946683 -1.080808,-1.827612 -0.594444,-0.880929 -1.080808,-1.662106 -1.080808,-1.73595 0,-0.264125 -1.975117,-2.695363 -2.18969,-2.695363 -0.120433,0 -0.364877,-0.145909 -0.543211,-0.324242 -0.178333,-0.178334 -0.437515,-0.324243 -0.57596,-0.324243 -0.138445,0 0.06137,0.218864 0.444028,0.486364 0.803923,0.561985 0.898658,0.966957 0.249315,1.065774 l -0.453902,0.06907 0.443649,0.561465 c 0.459724,0.581809 0.302598,1.059747 -0.3484,1.059747 -0.161572,0 -0.231016,0.101534 -0.15432,0.225631 0.0767,0.124097 0.02415,0.364557 -0.116773,0.534357 -0.371301,0.44739 0.505767,1.455215 1.746676,2.007079 1.583264,0.704118 2.141155,1.664637 3.22656,5.555155 0.422032,1.512729 2.376931,5.644991 2.81221,5.944445 0.08641,0.05944 0.221585,0.302626 0.300394,0.540404 0.07881,0.237778 0.314928,0.63705 0.524709,0.887272 0.423096,0.504659 1.931987,1.29054 2.118922,1.103605 0.203831,-0.203831 0.541837,-1.703399 0.76545,-3.395928 0.147899,-1.119443 0.135847,-2.805793 -0.03894,-5.448586 -0.139222,-2.105056 -0.18464,-4.649589 -0.10093,-5.654518 0.189485,-2.274741 -0.253511,-3.947031 -1.101996,-4.159987 -0.28762,-0.07219 -0.522945,-0.205088 -0.522945,-0.295335 0,-0.09025 -0.462045,-0.270556 -1.026767,-0.400688 -4.256449,-0.98084 -4.161111,-0.947512 -4.161111,-1.454653 0,-0.171317 0.195188,-0.311485 0.433752,-0.311485 0.238564,0 0.645197,-0.243182 0.903628,-0.540404 0.624724,-0.718496 0.819204,-0.681372 0.849311,0.162121 0.01379,0.386389 0.06811,0.539833 0.120706,0.340988 0.0526,-0.198846 0.370197,-0.457253 0.705778,-0.574237 0.534292,-0.186255 0.64476,-0.148025 0.888549,0.307497 0.15312,0.286108 0.450768,0.520197 0.661439,0.520197 0.210672,0 0.443157,0.09727 0.516635,0.216161 0.07348,0.118889 0.511204,0.216162 0.972727,0.216162 0.944782,0 1.234368,0.251944 0.750837,0.653239 -0.284463,0.236083 -0.252372,0.365397 0.256122,1.032068 l 0.581333,0.762167 0.0422,4.666667 c 0.02439,2.696765 0.151494,5.138897 0.301112,5.785372 0.211884,0.915516 0.193271,1.661477 -0.102482,4.107071 -0.487025,4.027225 -0.827692,4.600875 -2.541354,4.279391 -0.783516,-0.146989 -2.083736,-1.186522 -2.516635,-2.012064 -0.145611,-0.277683 -0.308554,-0.461072 -0.362094,-0.407531 -0.162953,0.162952 -0.291841,1.054855 -0.350049,2.422329 l -0.05534,1.30018 1.328903,1.296969 c 0.730897,0.713334 1.725371,1.929243 2.209943,2.70202 0.484572,0.772778 0.955972,1.508041 1.047555,1.633918 0.699475,0.961391 4.15371,8.008271 4.496986,9.174163 0.08751,0.297222 0.223011,0.589041 0.301111,0.648485 0.118063,0.08986 1.348507,3.354097 2.732346,7.248641 0.39121,1.100976 0.396,1.830147 0.012,1.830147 -0.40565,0 -0.71923,-0.41616 -0.89673,-1.190098 -0.170009,-0.741299 -1.525382,-4.633745 -1.967935,-5.651661 -0.162878,-0.374635 -0.296141,-0.745431 -0.296141,-0.823992 0,-0.07856 -0.234177,-0.647497 -0.520393,-1.264302 -1.034763,-2.229949 -1.425062,-3.155477 -1.425062,-3.3793 0,-0.125411 -0.07773,-0.228021 -0.172737,-0.228021 -0.09501,0 -0.303259,-0.364772 -0.462786,-0.810606 -0.159528,-0.445833 -0.349296,-0.859242 -0.421708,-0.918687 -0.07241,-0.05944 -0.569385,-0.962122 -1.104385,-2.00595 -1.988917,-3.880537 -3.136265,-5.455283 -5.34771,-7.339778 -0.381563,-0.32515 -0.651377,-0.714241 -0.599589,-0.864646 0.05179,-0.150405 0.197893,-1.242109 0.324675,-2.426009 0.126782,-1.1839 0.324021,-2.210337 0.43831,-2.280971 0.115866,-0.07161 -0.271451,-1.079757 -0.875471,-2.278768 -0.595797,-1.182688 -1.179565,-2.539433 -1.297261,-3.014989 -0.894937,-3.616031 -1.534905,-4.89702 -2.63874,-5.281819 -0.575873,-0.20075 -0.755277,-0.160229 -1.37148,0.309772 -0.763512,0.582359 -1.827553,0.707845 -2.289516,0.270011 -0.157103,-0.148898 -0.650462,-0.462862 -1.096354,-0.697698 L 78.213904,57.06118 77.21914,58.137161 c -1.062176,1.148895 -1.868651,2.712268 -2.119409,4.108525 -0.08478,0.472101 -0.241314,1.150183 -0.347841,1.50685 -0.106527,0.356666 -0.411274,1.37803 -0.677215,2.269697 -0.265942,0.891666 -0.557129,1.722585 -0.647084,1.846486 -0.08995,0.123901 0.06874,0.707537 0.352647,1.29697 0.352599,0.732038 0.550178,1.599458 0.623407,2.736907 0.09628,1.495438 0.06557,1.678425 -0.301153,1.79482 -0.976135,0.309813 -2.378922,2.341725 -4.224794,6.119539 -1.027225,2.102347 -1.94963,4.016995 -2.049788,4.254773 -0.59345,1.408859 -1.039532,2.493332 -1.378181,3.350505 -0.211366,0.535 -0.504798,1.264545 -0.652071,1.621212 -0.25033,0.606253 -2.022476,6.128686 -2.799953,8.725328 -0.190973,0.637819 -0.347224,1.284003 -0.347224,1.435964 0,0.357002 -0.593094,0.587049 -0.771069,0.29908 z m 8.416986,-28.131584 c 0.429439,-0.505278 0.857235,-1.01596 0.950658,-1.134849 0.594192,-0.756162 2.235159,-5.186448 2.544108,-6.868587 0.788386,-4.292538 3.326123,-7.50616 5.927473,-7.50616 0.492997,0 0.873258,-0.103935 0.873258,-0.238683 0,-0.163593 -0.697059,-0.214597 -2.215657,-0.162122 -1.856714,0.06416 -2.215656,0.02418 -2.215656,-0.246769 0,-0.232938 0.36122,-0.368453 1.29206,-0.484727 1.774268,-0.22163 1.954728,-0.342987 0.545313,-0.366717 -0.653888,-0.01101 -1.386836,-0.0732 -1.628772,-0.138202 -0.452177,-0.121489 -0.824698,0.479496 -2.287718,3.690755 -0.270823,0.594445 -0.596358,1.186665 -0.723412,1.316046 -0.127053,0.129381 -0.61846,0.81029 -1.092016,1.513131 -0.473556,0.702842 -0.933965,1.310318 -1.023132,1.349948 -0.08917,0.03963 -0.162121,0.171432 -0.162121,0.292893 0,0.121462 -0.269263,0.624038 -0.598362,1.116835 -0.329099,0.492798 -0.932508,1.552307 -1.340909,2.354466 -0.408402,0.802158 -0.906756,1.510588 -1.107455,1.574287 -0.793981,0.252 -0.750462,3.10032 0.06513,4.262697 0.608788,0.867644 1.266739,0.77055 2.197211,-0.324242 z m 2.717842,-13.456061 c -0.0013,-0.118889 -0.193694,0.01348 -0.427517,0.294149 -0.233822,0.280671 -0.422968,0.621126 -0.420325,0.756566 0.0026,0.13544 0.195026,0.0031 0.427517,-0.294149 0.232491,-0.297222 0.421637,-0.637677 0.420325,-0.756566 z m 17.03022,-0.261672 c -0.07828,-0.694529 -0.266634,-1.14121 -0.592463,-1.40505 -0.566299,-0.458561 -1.294446,-0.509144 -1.294446,-0.08992 0,0.362808 1.546299,2.505349 1.811446,2.509927 0.104628,0.0018 0.138587,-0.454923 0.07546,-1.014954 z m -8.317717,-0.363477 c 0.379514,-0.288092 0.527231,-0.996063 0.207827,-0.996063 -0.09375,0 -0.519787,0.178099 -0.946748,0.395776 -0.6711,0.342146 -0.728552,0.428297 -0.423988,0.635773 0.465714,0.317255 0.70797,0.309862 1.162909,-0.03549 z m -1.193392,-3.072115 c -0.07183,-0.07183 -0.258268,-0.07951 -0.41431,-0.01707 -0.172439,0.069 -0.121218,0.120225 0.130598,0.130597 0.22787,0.0094 0.355541,-0.0417 0.283712,-0.113532 z m -1.454588,-0.93662 c 0,-0.111415 -0.339631,-0.147457 -0.754736,-0.0801 -0.425966,0.06912 -0.881899,0.01694 -1.046656,-0.119796 -0.160556,-0.133249 -0.355925,-0.178267 -0.434153,-0.10004 -0.356657,0.356658 -0.05288,0.502502 1.046657,0.502502 0.653888,0 1.188888,-0.09116 1.188888,-0.202571 z m 0.756566,-1.962402 c -0.72868,-0.148346 -0.855408,-0.11529 -0.675289,0.176148 0.06851,0.110854 0.394388,0.146275 0.72417,0.07871 l 0.599604,-0.122841 z m 3.218927,-1.601142 c -0.127125,-0.331281 -0.726185,-0.636055 -0.902891,-0.459348 -0.167224,0.167223 0.403524,0.766877 0.72991,0.766877 0.162821,0 0.239012,-0.135454 0.172981,-0.307529 z m -1.813876,-0.557117 c 0,-0.237778 -0.09727,-0.432323 -0.216162,-0.432323 -0.118889,0 -0.216162,0.194545 -0.216162,0.432323 0,0.237778 0.09727,0.432323 0.216162,0.432323 0.118889,0 0.216162,-0.194545 0.216162,-0.432323 z m 4.620498,-0.71011 c 0.209981,-0.153542 0.434553,-0.68529 0.502099,-1.188889 0.102191,-0.761886 0.06191,-0.911102 -0.245939,-0.911102 -0.590047,0 -1.078531,0.600474 -0.780558,0.959509 0.398151,0.479742 -0.135463,0.645832 -1.076804,0.335162 -0.454044,-0.149849 -1.002361,-0.204598 -1.21848,-0.121665 -0.358765,0.137671 -0.346061,0.186384 0.146049,0.560017 0.84277,0.639873 2.070046,0.808322 2.673633,0.366968 z m -3.972014,-1.219823 c 0,-0.101986 -0.145909,-0.24142 -0.324242,-0.309853 -0.197509,-0.07579 -0.324242,-3.42e-4 -0.324242,0.193035 0,0.174602 -0.103014,0.317458 -0.228919,0.317458 -0.125906,0 -0.168639,0.09754 -0.09496,0.216746 0.151669,0.245405 0.972366,-0.106878 0.972366,-0.417386 z m -2.287376,-0.579053 c 0.188057,-0.07216 0.341922,-0.266709 0.341922,-0.432323 0,-0.407327 -0.137839,-0.379438 -0.648485,0.131208 -0.435358,0.435357 -0.325209,0.543549 0.306563,0.301115 z m -2.035856,-0.409196 c 0.148004,-0.178333 0.456398,-0.324242 0.685321,-0.324242 0.228923,0 0.630422,-0.245148 0.892219,-0.544774 0.428037,-0.489884 0.552079,-0.522553 1.231134,-0.324242 0.415326,0.121292 1.068864,0.220531 1.452307,0.220531 0.545514,0 0.668762,-0.07402 0.566584,-0.340296 -0.1068,-0.278318 -0.410678,-0.323309 -1.668468,-0.247029 -0.845837,0.0513 -1.926976,0.216177 -2.402531,0.366401 -0.475556,0.150223 -1.132147,0.275346 -1.459091,0.278052 -0.686355,0.0057 -0.718858,0.101375 -0.257945,0.759421 0.395551,0.564728 0.594549,0.597086 0.96047,0.156178 z m 7.306551,-0.439241 c -0.06721,-0.06721 -0.401182,-0.05054 -0.742155,0.03706 l -0.619951,0.159259 0.540404,0.142778 c 0.521812,0.137866 1.071727,-0.08907 0.821702,-0.339093 z m 3.023689,-0.835927 c -0.153299,-0.166342 -0.312783,-0.270086 -0.354411,-0.230543 -0.128216,0.121798 0.196737,0.532984 0.421208,0.532984 0.11656,0 0.0865,-0.136099 -0.0668,-0.302441 z m -3.413068,-0.562206 c -0.422928,-0.273316 -0.864647,-0.273316 -0.864647,0 0,0.118889 0.2675,0.214672 0.594445,0.212852 0.463221,-0.0026 0.522868,-0.04957 0.270202,-0.212852 z m 1.729293,-0.347369 c 0,-0.338142 -0.04446,-0.353437 -0.509076,-0.175146 -0.18055,0.06928 -0.277728,0.257687 -0.215952,0.418675 0.139562,0.363691 0.725028,0.167039 0.725028,-0.243529 z M 75.187879,44.1899 c 0,-0.118889 -0.09727,-0.216162 -0.216161,-0.216162 -0.118889,0 -0.216162,0.09727 -0.216162,0.216162 0,0.118889 0.09727,0.216161 0.216162,0.216161 0.118889,0 0.216161,-0.09727 0.216161,-0.216161 z m -3.242424,-0.659377 c 0,-0.317797 -0.442309,-0.465792 -0.985013,-0.329582 -0.845828,0.212289 -0.658927,0.701257 0.228448,0.597661 0.416111,-0.04858 0.756565,-0.169214 0.756565,-0.268079 z m 1.29697,0.01089 c 0,-0.24018 -0.144108,-0.432323 -0.324243,-0.432323 -0.180134,0 -0.324242,0.192143 -0.324242,0.432323 0,0.240179 0.144108,0.432323 0.324242,0.432323 0.180135,0 0.324243,-0.192144 0.324243,-0.432323 z m 8.214141,-0.324243 c 0,-0.178333 -0.03823,-0.324242 -0.08495,-0.324242 -0.04672,0 -0.140944,0.145909 -0.209377,0.324242 -0.06843,0.178334 -0.0302,0.324243 0.08495,0.324243 0.115157,0 0.209377,-0.145909 0.209377,-0.324243 z m -3.965501,-0.225484 c 0.188466,-0.491135 -0.07108,-0.632449 -0.455518,-0.248012 -0.422269,0.422268 -0.42323,0.581577 -0.0035,0.581577 0.182065,0 0.388627,-0.150104 0.459028,-0.333565 z m 9.369542,0.117404 c 0,-0.270834 -0.2294,-0.270834 -0.648485,0 -0.262195,0.169443 -0.231172,0.210175 0.162121,0.212851 0.2675,0.0018 0.486364,-0.09396 0.486364,-0.212851 z M 75.570666,42.717299 c 0.129687,-0.389061 -0.31711,-0.307307 -0.467888,0.08561 -0.08079,0.210522 -0.03248,0.309345 0.125485,0.256692 0.141261,-0.04709 0.295342,-0.201125 0.342403,-0.342305 z m 4.805092,-0.135854 c 0,-0.228153 -0.414838,-0.324007 -0.538225,-0.124364 -0.07468,0.120828 0.01588,0.219687 0.201226,0.219687 0.185349,0 0.336999,-0.0429 0.336999,-0.09532 z m 9.863207,-0.617042 c 0.08376,-0.08375 -0.101372,-0.152281 -0.411392,-0.152281 -0.310021,0 -0.626552,0.101739 -0.703403,0.226086 -0.154609,0.250163 0.857858,0.183133 1.114795,-0.07381 z m -3.432399,-0.638645 c -0.04954,-0.148611 -0.171128,-0.270202 -0.270202,-0.270202 -0.09907,0 -0.220665,0.121591 -0.270202,0.270202 -0.04954,0.148611 0.07205,0.270202 0.270202,0.270202 0.198148,0 0.319739,-0.121591 0.270202,-0.270202 z M 73.242425,40.839395 c 0,-0.216162 -0.216162,-0.324243 -0.648485,-0.324243 -1.051582,0 -0.736049,0.519999 0.378283,0.62341 0.148611,0.01379 0.270202,-0.120834 0.270202,-0.299167 z m 2.476627,0.123017 c 0.216581,-0.350435 -0.254052,-0.456927 -0.533148,-0.120637 -0.217192,0.2617 -0.203952,0.321862 0.07083,0.321862 0.185874,0 0.393917,-0.09055 0.462318,-0.201225 z m 1.355738,0.07063 c -0.07183,-0.07183 -0.258268,-0.07951 -0.41431,-0.01707 -0.172439,0.069 -0.121218,0.120225 0.130598,0.130598 0.22787,0.0094 0.355541,-0.0417 0.283712,-0.113533 z m 7.191877,-0.193644 c 0,-0.178334 -0.145909,-0.324243 -0.324242,-0.324243 -0.178334,0 -0.324243,0.145909 -0.324243,0.324243 0,0.178333 0.145909,0.324242 0.324243,0.324242 0.178333,0 0.324242,-0.145909 0.324242,-0.324242 z m 3.390087,-0.148611 c -0.069,-0.17244 -0.120225,-0.121219 -0.130597,0.130597 -0.0094,0.227871 0.0417,0.355541 0.113532,0.283712 0.07183,-0.07183 0.07951,-0.258268 0.01707,-0.414309 z m 1.58163,0.04053 c 0,-0.237778 -0.04521,-0.432323 -0.100475,-0.432323 -0.05526,0 -0.204593,0.194545 -0.331848,0.432323 -0.18467,0.345058 -0.164389,0.432323 0.100476,0.432323 0.18774,0 0.331847,-0.18774 0.331847,-0.432323 z M 77.99798,40.082829 c 0,-0.118889 -0.145909,-0.216162 -0.324242,-0.216162 -0.178333,0 -0.324242,0.09727 -0.324242,0.216162 0,0.118889 0.145909,0.216162 0.324242,0.216162 0.178333,0 0.324242,-0.09727 0.324242,-0.216162 z m 9.511111,-0.769323 c 0,-0.366809 -0.557027,-0.418184 -0.771502,-0.07116 -0.162952,0.263663 0.322526,0.660124 0.59906,0.489216 0.09484,-0.05862 0.172442,-0.246743 0.172442,-0.41806 z m 1.643688,-0.02954 c 0.397206,-0.369727 0.481287,-0.52774 0.230047,-0.432323 -0.217779,0.08271 -0.533915,0.150379 -0.702525,0.150379 -0.16861,0 -0.306563,0.194545 -0.306563,0.432323 0,0.552777 0.02981,0.547023 0.779041,-0.150379 z m 2.188678,0.452105 c -0.07183,-0.07183 -0.258268,-0.07951 -0.41431,-0.01707 -0.172439,0.06901 -0.121218,0.120226 0.130598,0.130598 0.22787,0.0094 0.35554,-0.0417 0.283712,-0.113532 z m -15.55463,-0.477357 c 0.04706,-0.141181 -0.06845,-0.256692 -0.256692,-0.256692 -0.18824,0 -0.342256,0.154015 -0.342256,0.342256 0,0.381725 0.465344,0.315248 0.598948,-0.08556 z m -4.229031,-0.660702 c 0.08401,-0.07659 -0.134855,-0.304316 -0.486364,-0.506055 L 70.432324,37.72516 v 0.652997 c 0,0.576614 0.05689,0.63581 0.486363,0.506055 0.2675,-0.08082 0.555099,-0.209608 0.639109,-0.2862 z M 88.099033,38.4391 c -0.07183,-0.07183 -0.258269,-0.07951 -0.41431,-0.01707 -0.172439,0.069 -0.121219,0.120225 0.130597,0.130597 0.227871,0.0094 0.355541,-0.0417 0.283713,-0.113532 z M 83.29394,37.705051 c -0.07348,-0.118889 -0.279504,-0.216161 -0.457838,-0.216161 -0.178333,0 -0.264124,0.09727 -0.190647,0.216161 0.07348,0.118889 0.279504,0.216162 0.457838,0.216162 0.178333,0 0.264124,-0.09727 0.190647,-0.216162 z m -8.970707,-0.661242 c 0,-0.111872 -0.145909,-0.203404 -0.324242,-0.203404 -0.334275,0 -0.42945,0.255062 -0.186012,0.4985 0.172698,0.172698 0.510254,-0.02252 0.510254,-0.295096 z m 8.214141,-0.207523 c 0,-0.130769 -0.241552,-0.162331 -0.594444,-0.07767 -0.848648,0.203592 -0.877172,0.297952 -0.09007,0.297952 0.376481,0 0.684511,-0.09913 0.684511,-0.22028 z m 1.513132,-0.307366 c 0,-0.171317 -0.09727,-0.371604 -0.216162,-0.445081 -0.354537,-0.219116 -0.263312,-1.40505 0.108081,-1.40505 0.180134,0 0.324242,0.192143 0.324242,0.432323 0,0.54609 0.25233,0.554017 0.586808,0.01843 0.324822,-0.520123 -0.102982,-0.951261 -0.839096,-0.845634 -0.389706,0.05592 -0.530656,0.265731 -0.676642,1.007216 -0.101419,0.51512 -0.131497,1.074438 -0.06684,1.242929 0.153887,0.401024 0.77961,0.3969 0.77961,-0.0051 z m 2.188439,-0.178482 c -0.213485,-0.211896 -0.238314,-0.187067 -0.121006,0.121007 0.08117,0.213183 0.202044,0.333152 0.268597,0.266599 0.06655,-0.06655 1.38e-4,-0.240976 -0.147591,-0.387606 z M 73.026263,36.131879 c 0,-0.151911 -0.186987,-0.436306 -0.415527,-0.631988 -0.358909,-0.307308 -0.432224,-0.312271 -0.538076,-0.03643 -0.138161,0.360039 0.27337,0.923916 0.683401,0.936393 0.148611,0.0045 0.270202,-0.116069 0.270202,-0.26798 z m 7.565657,0.06004 c 0,-0.270834 -0.2294,-0.270834 -0.648485,0 -0.262195,0.169443 -0.231172,0.210175 0.162121,0.212851 0.2675,0.0018 0.486364,-0.09396 0.486364,-0.212851 z m -6.102013,-0.39194 c 0.05265,-0.15796 -0.04617,-0.20627 -0.256692,-0.125484 -0.188268,0.07225 -0.342305,0.226326 -0.342305,0.342403 0,0.284121 0.491288,0.106207 0.598997,-0.216919 z m 8.132421,-0.382305 c 0.200599,-0.522752 0.166238,-0.556683 -0.30717,-0.303323 -0.241107,0.129037 -0.381276,0.327005 -0.311485,0.439929 0.191041,0.309109 0.471371,0.247209 0.618655,-0.136606 z M 79.186869,34.19051 c 0.521019,-0.973069 0.841707,-0.93653 0.930503,0.106018 l 0.06585,0.773211 0.798791,-0.211425 c 1.263097,-0.334318 1.98768,-0.694794 1.98768,-0.988859 0,-0.149311 0.170227,-0.280143 0.378282,-0.290737 1.369522,-0.06974 1.996597,0.0067 2.595145,0.316183 0.373918,0.19336 0.772847,0.351564 0.88651,0.351564 0.213674,0 0.08688,-0.807819 -0.186605,-1.188889 -0.08532,-0.118888 -0.219037,-0.483661 -0.29714,-0.810606 -0.0781,-0.326944 -0.243165,-0.594444 -0.366805,-0.594444 -0.123641,0 -0.164683,0.09727 -0.09121,0.216162 0.07348,0.118888 -0.06669,0.216161 -0.311485,0.216161 -0.244794,0 -0.44508,-0.09941 -0.44508,-0.220922 0,-0.345082 -1.95337,-1.501353 -2.972223,-1.759368 -1.105031,-0.279839 -1.20275,-0.613649 -0.179638,-0.613649 0.624069,0 1.906771,0.48494 2.287051,0.864646 0.05953,0.05945 0.432623,0.335951 0.829085,0.614458 0.608408,0.427394 0.687392,0.443875 0.506386,0.105662 -0.300844,-0.562132 -0.895035,-1.035374 -1.699054,-1.353207 -0.457223,-0.180743 -0.647619,-0.377165 -0.567636,-0.585599 0.09922,-0.258556 -0.159563,-0.307007 -1.473628,-0.275904 -1.688346,0.03996 -3.863677,0.524974 -3.863677,0.861444 0,0.110453 0.168017,0.200823 0.37337,0.200823 0.301339,0 0.260205,0.113166 -0.213214,0.586584 -0.419325,0.419325 -0.653023,0.520145 -0.819589,0.353579 -0.166566,-0.166566 -0.132186,-0.333825 0.120573,-0.586584 0.194469,-0.194469 0.266314,-0.353579 0.159657,-0.353579 -0.106657,0 -0.390952,0.218864 -0.631767,0.486364 -0.556444,0.618103 -0.864056,1.14235 -0.560052,0.954465 0.394199,-0.243628 0.702198,0.401236 0.845228,1.769677 0.07639,0.730888 0.217639,1.328888 0.31388,1.328888 0.26495,0 1.448071,-1.800365 1.61179,-2.452674 0.162542,-0.647619 0.750144,-0.764763 1.188242,-0.236888 0.15369,0.185186 0.700622,0.583532 1.215403,0.885214 0.514781,0.301682 0.879122,0.640487 0.809647,0.7529 -0.130324,0.210868 -0.979131,0.03361 -1.170743,-0.244495 -0.05944,-0.08628 -0.413646,-0.313378 -0.787114,-0.504672 l -0.679033,-0.347807 -0.283402,0.684192 c -0.155871,0.376306 -0.575197,1.016529 -0.931837,1.422719 -0.545859,0.6217 -0.581682,0.725736 -0.226454,0.65767 0.23209,-0.04447 0.616526,-0.444196 0.854304,-0.888276 z m 1.999495,-2.261137 c -0.564722,-0.303275 -1.026767,-0.669374 -1.026767,-0.813555 0,-0.389453 1.305724,-0.369692 2.071878,0.03135 0.522447,0.273478 0.645699,0.459582 0.569245,0.859527 -0.120245,0.629019 -0.316593,0.619614 -1.614356,-0.07733 z M 77.99798,31.444785 c 0,-0.226383 0.859925,-1.089229 1.085541,-1.089229 0.397034,0 0.379337,0.347743 -0.04044,0.79457 -0.48056,0.511533 -1.045106,0.670702 -1.045106,0.294659 z m -2.560135,2.207748 c -0.07965,-1.182709 -0.249966,-1.146238 -0.249966,0.05353 0,0.57463 0.06829,0.976495 0.151747,0.893035 0.08346,-0.08346 0.12766,-0.509414 0.09822,-0.946563 z m 1.066404,-1.077594 c -0.176076,-0.302419 -0.223785,-0.175594 -0.228988,0.608732 -0.0036,0.544907 0.06638,1.064805 0.155548,1.155329 0.255017,0.258898 0.321498,-1.338007 0.07344,-1.764061 z m 11.356105,0.347536 c -0.0743,-0.371527 -0.135101,-0.893346 -0.135101,-1.159597 0,-0.53338 -0.862857,-1.567324 -1.775728,-2.127817 -0.958573,-0.588554 -1.121852,-0.411951 -0.350405,0.378998 1.056373,1.083078 1.229006,1.325712 1.384751,1.946248 0.07743,0.308523 0.227287,0.614408 0.333005,0.679746 0.105719,0.06534 0.192215,0.3076 0.192215,0.538361 0,0.230762 0.109432,0.419567 0.243182,0.419567 0.157078,0 0.195346,-0.239179 0.108081,-0.675506 z m -3.219907,-3.778324 c -0.07183,-0.07183 -0.258268,-0.07951 -0.41431,-0.01707 -0.172439,0.06901 -0.121218,0.120226 0.130598,0.130598 0.22787,0.0094 0.35554,-0.0417 0.283712,-0.113532 z M 57.87671,91.81453 c -0.01003,-4.139658 -0.09542,-8.061651 -0.189747,-8.71554 -0.252848,-1.75275 -0.695294,-3.757715 -0.873524,-3.958417 -0.08576,-0.09657 -0.680005,0.107287 -1.320542,0.453024 -0.640537,0.345737 -1.553704,0.747665 -2.02926,0.893174 -0.475555,0.145509 -1.059192,0.349747 -1.29697,0.453861 -3.718759,1.628307 -3.587995,1.637865 -5.075351,-0.370979 -1.416285,-1.912854 -1.478331,-1.93769 -2.16843,-0.867976 -0.323401,0.5013 -0.880273,1.18506 -1.237493,1.519465 l -0.64949,0.608011 -1.162901,-0.358683 c -1.98971,-0.613703 -2.858069,-0.976554 -3.86492,-1.614987 -0.535,-0.339238 -1.246827,-0.68452 -1.581837,-0.767294 l -0.609109,-0.150498 0.09317,9.268023 c 0.05124,5.097413 0.166454,9.535524 0.256026,9.862468 0.146172,0.533535 0.10742,0.594445 -0.3782,0.594445 -0.478326,0 -0.560094,-0.11905 -0.705227,-1.026768 -0.09029,-0.564722 -0.145979,-4.60243 -0.12375,-8.972683 l 0.04042,-7.945916 -0.495238,-0.194188 c -0.272381,-0.106803 -0.884329,-0.570474 -1.359885,-1.030379 -0.475555,-0.459905 -1.594192,-1.408614 -2.485858,-2.108242 -1.632464,-1.280878 -3.172561,-2.778496 -4.129727,-4.015822 -0.284762,-0.36811 -0.741461,-0.931414 -1.014889,-1.251788 -0.273428,-0.320373 -0.659173,-0.849997 -0.857212,-1.176942 -0.198039,-0.326944 -0.436371,-0.594444 -0.529627,-0.594444 -0.09325,0 -0.169555,-0.194545 -0.169555,-0.432323 0,-0.237778 0.103013,-0.432323 0.228918,-0.432323 0.125906,0 0.170317,-0.09482 0.09869,-0.210711 -0.161166,-0.260772 0.254326,-4.337288 0.650496,-6.382219 0.161228,-0.832222 0.359593,-1.947118 0.440809,-2.477546 0.08122,-0.530428 0.225099,-1.114064 0.319739,-1.296969 0.09464,-0.182906 0.390276,-0.964828 0.656968,-1.737606 0.266691,-0.772778 0.554418,-1.502323 0.639392,-1.621212 0.08497,-0.118889 0.226629,-0.459343 0.31479,-0.756566 0.08816,-0.297222 0.350278,-0.978131 0.582483,-1.513131 0.738591,-1.701718 0.960806,-2.23393 1.601715,-3.836165 0.443236,-1.108063 0.737302,-1.566674 1.004886,-1.567172 0.65481,-0.0012 0.534499,0.572455 -0.702526,3.349802 -0.74654,1.676121 -1.080808,2.481304 -1.080808,2.603452 0,0.07772 -0.13578,0.447831 -0.301734,0.822465 -0.165954,0.374635 -0.519419,1.26479 -0.785478,1.978123 -0.266058,0.713333 -0.564657,1.491515 -0.663552,1.729293 -0.5613,1.349557 -1.085529,4.213315 -1.523434,8.322222 -0.13304,1.248334 -0.342663,2.334233 -0.465829,2.413111 -0.132837,0.08507 0.303171,0.849991 1.071774,1.880287 1.612857,2.162002 2.70307,3.350852 4.202166,4.582357 0.642459,0.527779 1.216744,1.008235 1.276188,1.067679 0.05945,0.05944 0.643081,0.542168 1.29697,1.072718 0.653889,0.53055 1.266677,1.089868 1.361751,1.242929 0.299205,0.481693 0.799865,0.317629 0.799865,-0.262111 0,-0.396296 -0.115286,-0.540404 -0.432323,-0.540404 -0.411515,0 -0.432323,-0.144108 -0.432323,-2.994068 0,-2.801053 -0.03597,-3.062334 -0.557892,-4.05303 -0.531392,-1.008662 -1.182203,-1.726921 -2.152288,-2.375345 -0.375971,-0.251306 -0.605716,-0.241588 -1.568667,0.06635 -0.850625,0.272019 -1.189378,0.299583 -1.376921,0.11204 -0.341763,-0.341762 0.147649,-0.915545 0.780919,-0.915545 0.94049,0 1.629554,-1.164101 2.623019,-4.431313 0.881305,-2.898351 0.909593,-3.001207 1.045801,-3.802592 0.129239,-0.760378 0.293949,-0.984165 1.454653,-1.976384 0.318673,-0.272416 0.883651,-1.257034 1.273273,-2.219004 0.683892,-1.688516 0.702854,-1.824864 0.804155,-5.782323 l 0.103747,-4.05303 h -0.985981 c -0.542289,0 -1.041473,0.08979 -1.109298,0.19953 -0.06782,0.109742 -0.408386,0.262143 -0.756804,0.338669 -0.348418,0.07653 -1.027369,0.424463 -1.508781,0.773196 -0.955548,0.692195 -1.527521,0.811358 -1.527521,0.318237 0,-0.711035 2.277023,-2.108698 3.94133,-2.419234 0.38838,-0.07247 0.997963,-0.306204 1.354629,-0.519418 0.356667,-0.213213 1.123741,-0.507146 1.70461,-0.653182 0.580868,-0.146037 1.38745,-0.426681 1.792404,-0.623654 l 0.73628,-0.358132 -0.683558,-0.851744 c -1.4433,-1.798417 -1.60384,-2.429901 -1.590385,-6.255784 0.01205,-3.426057 0.01869,-3.472676 0.705839,-4.956793 0.381521,-0.824014 0.939926,-1.821059 1.2409,-2.215656 0.300974,-0.394597 0.445002,-0.717449 0.320063,-0.717449 -0.345717,0 -0.270998,-1.787746 0.113144,-2.707127 0.395706,-0.947058 0.697796,-1.28865 1.312039,-1.483603 0.270603,-0.08589 0.538937,-0.459925 0.688808,-0.96015 0.135033,-0.450701 0.466014,-1.021476 0.735514,-1.26839 0.714572,-0.654688 2.691671,-1.146387 4.609565,-1.146387 1.504944,0 1.809214,0.075 2.992994,0.737772 1.542073,0.86337 2.144703,1.4545 2.604396,2.5547 0.440537,1.054354 0.446181,2.32773 0.01032,2.32773 -0.225395,0 -0.324242,-0.226753 -0.324242,-0.743808 0,-0.409095 -0.08471,-0.796162 -0.188242,-0.860149 -0.103533,-0.06399 -0.24552,-0.402732 -0.315527,-0.752766 -0.08414,-0.42069 -0.471464,-0.899227 -1.142615,-1.411689 -0.558431,-0.426394 -1.072857,-0.717734 -1.143168,-0.647423 -0.07031,0.07031 0.115165,0.305516 0.41217,0.522678 1.115652,0.815733 1.44618,1.210484 1.57856,1.885281 0.0749,0.381779 0.04576,0.750025 -0.06475,0.818325 -0.384076,0.237372 0.244766,1.079019 1.4205,1.901212 1.252818,0.876098 2.473127,2.377419 3.549393,4.366745 0.771471,1.425957 1.404308,5.075891 1.105865,6.37816 -0.364239,1.589373 -2.123181,4.783255 -3.125686,5.675613 -0.234583,0.20881 -0.386602,0.411067 -0.337819,0.44946 0.04878,0.03839 0.769605,0.294887 1.601827,0.569984 0.832222,0.275098 1.707677,0.62203 1.945455,0.770961 0.237777,0.148931 0.659526,0.338751 0.937218,0.421821 0.448769,0.134247 2.566632,1.341874 2.84561,1.622596 0.05944,0.05982 0.302626,0.216283 0.540404,0.347704 1.656282,0.915439 3.080869,12.699796 1.592364,13.172229 -0.50424,0.160039 -2.575037,-1.884518 -4.940433,-4.877832 -0.890326,-1.126673 -1.724484,-2.160057 -1.853684,-2.296409 -0.174157,-0.183797 -0.458999,-0.03469 -1.101394,0.576548 -0.888667,0.845565 -2.175741,1.508739 -2.928134,1.508739 -0.233166,0 -0.391021,0.07295 -0.350788,0.162121 0.04023,0.08917 0.328756,0.697121 0.641165,1.35101 0.312409,0.653889 0.984688,2.11298 1.493954,3.242424 0.509266,1.129445 1.074882,2.296717 1.256925,2.59394 0.28384,0.463427 1.708688,1.92988 2.857653,2.941096 0.590689,0.519871 1.741565,0.362889 2.547472,-0.34748 0.400528,-0.353046 0.813937,-0.588933 0.918687,-0.524194 0.396886,0.24529 0.165878,0.944902 -0.458899,1.389783 -1.281202,0.912296 -2.809231,1.011686 -2.809231,0.182725 0,-0.347733 -0.06983,-0.377347 -0.432324,-0.183345 -0.415582,0.222413 -0.432323,0.452605 -0.432323,5.944445 0,5.366673 -0.0246,5.726235 -0.405661,5.930175 -0.427201,0.228631 -0.407307,0.551677 0.180594,2.932451 0.364592,1.476459 0.683196,8.422677 0.614714,13.40202 -0.06525,4.744616 -0.06652,4.755715 -0.551768,4.82463 L 57.89495,99.34118 Z M 49.799698,80.980572 c 0.112944,-0.09513 0.78899,-0.398029 1.502323,-0.673109 0.713333,-0.275079 1.584205,-0.610655 1.93527,-0.745723 0.828228,-0.31865 3.821633,-1.849243 4.171296,-2.132873 0.203597,-0.165149 0.270202,-1.602757 0.270202,-5.832072 V 65.983898 L 56.69672,64.868212 c -0.847319,-0.962604 -1.911226,-2.884707 -3.189976,-5.763161 -1.246196,-2.805174 -1.258226,-2.842279 -1.016084,-3.134043 0.189397,-0.228209 0.133754,-0.306483 -0.257334,-0.362 -0.349332,-0.04959 -0.486555,-0.20046 -0.457547,-0.503051 0.04823,-0.503047 -0.809103,-1.865646 -1.111827,-1.767089 -0.11316,0.03684 -0.317399,0.498167 -0.453864,1.025169 -0.547102,2.112814 -2.678678,6.919785 -3.616788,8.156314 -0.68223,0.899251 -0.567757,1.59003 0.249641,1.50644 0.476686,-0.04875 0.568171,0.02843 0.568171,0.47934 0,0.606723 -0.691356,0.885684 -0.997556,0.402512 -0.109672,-0.173058 -0.186058,0.555231 -0.188023,1.792671 -0.0033,2.058023 0.0036,2.085886 0.551127,2.223297 0.718549,0.180345 0.667105,1.061264 -0.06807,1.165676 -0.467089,0.06634 -0.486364,0.154146 -0.486364,2.215657 0,1.763965 0.05779,2.146582 0.324242,2.146582 0.178334,0 0.324243,0.148962 0.324243,0.331026 0,0.182065 -0.145909,0.387018 -0.324243,0.45545 -0.233112,0.08945 -0.324242,0.454205 -0.324242,1.297791 0,1.317039 0.212495,1.751821 1.728149,3.535935 0.353498,0.416111 0.644277,0.82952 0.646176,0.918687 0.0046,0.216392 0.943407,0.207932 1.20315,-0.01084 z m 0.04323,-8.69365 c -1.164109,-0.719041 0.273515,-2.030351 3.188384,-2.908242 1.437078,-0.432815 1.911124,-0.413518 2.372765,0.09659 0.351791,0.388724 0.356682,0.471888 0.05485,0.932545 -0.767035,1.170643 -4.656196,2.471952 -5.615997,1.879107 z m 3.289481,-1.468149 c 0.929821,-0.447568 1.090957,-0.59121 0.724291,-0.645653 -0.524178,-0.07783 -2.747423,0.865492 -2.998936,1.272449 -0.228239,0.369299 0.785728,0.08989 2.274645,-0.626796 z m -9.769168,9.307995 c 0.344459,-0.326944 0.934098,-1.061366 1.310311,-1.632049 l 0.684023,-1.037604 v -7.455492 c 0,-7.220757 0.01421,-7.474709 0.45126,-8.065854 l 0.45126,-0.610362 -1.121809,-2.245026 c -1.073169,-2.147686 -1.278139,-2.583289 -2.022656,-4.298562 -0.91797,-2.114889 -2.515094,-8.397101 -2.514176,-9.889394 5.34e-4,-0.868712 -0.302127,-1.192426 -0.722159,-0.772394 -0.08046,0.08046 -0.607355,0.299325 -1.170876,0.486364 l -1.024582,0.34007 -0.13016,4.107071 c -0.153892,4.855873 -0.384138,6.01487 -1.696233,8.538384 -0.349123,0.671458 -0.408351,1.583322 -0.526509,8.10606 -0.07323,4.042223 -0.194637,8.344466 -0.269805,9.560541 l -0.136669,2.211045 1.045361,0.448094 c 0.574948,0.246452 1.876717,0.855487 2.892819,1.353411 1.016102,0.497924 1.896095,0.914713 1.95554,0.926196 0.05944,0.01148 0.25399,0.07773 0.432323,0.147206 1.243685,0.484544 1.388602,0.469611 2.112737,-0.217705 z m -3.515047,-7.989136 c -0.474048,-0.0523 -0.960411,-0.17171 -1.080808,-0.265347 -0.120396,-0.09364 -0.510721,-0.239871 -0.867387,-0.324965 -0.863416,-0.205995 -2.055244,-1.132566 -2.046661,-1.591149 0.0038,-0.202005 0.142961,-0.546898 0.309289,-0.76643 0.376712,-0.49721 1.962676,-0.528109 3.367586,-0.06561 0.530049,0.174494 1.266717,0.379608 1.63704,0.455809 0.80958,0.166589 1.596382,0.851138 1.596382,1.388918 0,0.892065 -1.170488,1.361303 -2.915441,1.168774 z m 1.40231,-0.923023 c 0.540451,-0.341754 -0.134702,-0.773466 -1.837374,-1.174869 -2.079465,-0.490231 -2.136192,-0.493477 -2.212444,-0.126608 -0.07466,0.35919 0.653163,0.738344 2.259631,1.177145 1.330418,0.3634 1.404038,0.368513 1.790187,0.124332 z m -6.925633,-6.543396 c -0.0077,-4.978794 -0.03619,-5.394211 -0.324242,-4.730738 -0.17368,0.400038 -0.315782,0.907321 -0.315782,1.127294 0,0.219973 -0.134875,0.81676 -0.299723,1.326192 -0.164847,0.509433 -0.550812,1.725055 -0.857699,2.701383 -0.306887,0.976328 -0.682693,1.986083 -0.835125,2.243899 -0.211363,0.357489 -0.215925,0.491013 -0.01922,0.56252 0.259475,0.09432 1.885852,1.461025 2.319439,1.949106 0.128001,0.144089 0.257048,0.26568 0.28677,0.270202 0.02972,0.0045 0.05023,-2.447914 0.04558,-5.449858 z m 12.939968,-5.205792 c 0.04712,-0.242983 -0.0761,-0.36037 -0.378283,-0.36037 -0.493916,0 -0.508233,0.02429 -0.31346,0.531861 0.164602,0.428946 0.596037,0.321989 0.691743,-0.171491 z M 63.798605,58.186364 C 63.930545,57.38977 63.398788,52.311019 63.04607,50.998991 62.371947,48.49141 62.224178,48.194449 61.421367,47.733952 l -0.793119,-0.454938 -0.617237,1.751907 c -0.33948,0.963549 -0.702651,2.075156 -0.807045,2.470237 -0.104395,0.395082 -0.347701,0.892799 -0.54068,1.106039 -0.327749,0.362158 -0.289838,0.462693 0.575245,1.525508 0.509364,0.62579 1.069619,1.343981 1.245011,1.595982 0.467108,0.671132 2.865504,3.160202 3.04508,3.160202 0.08449,0 0.205985,-0.316136 0.269983,-0.702525 z M 47.152167,57.208977 c 0.0791,-0.999902 -0.103079,-1.48211 -0.473453,-1.253206 -0.259259,0.160231 -0.336039,2.11687 -0.09262,2.36029 0.264955,0.264956 0.492785,-0.180618 0.566073,-1.107084 z m -1.724764,-4.750896 0.105685,-4.377272 h -0.828881 c -1.216895,0 -1.547316,-0.440482 -1.484525,-1.979007 0.05152,-1.262309 0.04625,-1.274349 -0.73125,-1.67074 -0.777913,-0.396603 -0.783584,-0.396215 -0.849377,0.05807 -0.120785,0.833981 0.805176,5.638278 1.338008,6.942185 0.09717,0.237778 0.396557,1.064596 0.665313,1.837373 0.268756,0.772778 0.553326,1.502324 0.632378,1.621213 0.07905,0.118888 0.323125,0.700959 0.542384,1.293489 0.219258,0.59253 0.422485,0.981621 0.451615,0.864646 0.02913,-0.116974 0.100523,-2.182454 0.15865,-4.589954 z m 3.513383,2.846537 c 0.08313,-0.346984 0.226394,-0.728153 0.31836,-0.847042 0.09197,-0.118889 0.259688,-0.726122 0.372717,-1.349406 0.186485,-1.028355 0.158246,-1.197304 -0.305097,-1.82533 -0.691477,-0.937243 -0.655309,-1.455671 0.122021,-1.749081 0.62377,-0.235447 0.627916,-0.247895 0.296212,-0.889341 -0.465654,-0.900475 -0.883136,-1.275885 -1.258634,-1.131793 -0.266977,0.102449 -0.318687,0.867767 -0.318687,4.716568 0,4.05835 0.03627,4.542484 0.310979,4.15029 0.171039,-0.244192 0.378997,-0.727882 0.462129,-1.074865 z m -1.755793,-1.690013 c 0.06222,-1.278802 0.02712,-1.426726 -0.338595,-1.426726 -0.357519,0 -0.408013,0.171655 -0.408013,1.387037 0,0.914055 0.09214,1.419944 0.270202,1.483538 0.392746,0.140267 0.400466,0.116867 0.476406,-1.443849 z m 6.861165,0.6711 c 0.320387,-0.143248 1.022856,-0.676632 1.561044,-1.185296 l 0.978523,-0.924845 -0.740202,-0.969717 c -0.407111,-0.533345 -1.059353,-1.503301 -1.449425,-2.155459 -0.390073,-0.652157 -0.762091,-1.185741 -0.826708,-1.185741 -0.06462,0 -0.425317,0.281161 -0.801555,0.624801 -1.032128,0.942703 -1.925061,1.536815 -2.309789,1.536815 -0.189703,0 -0.344914,0.162568 -0.344914,0.361262 0,0.572901 0.661419,1.15187 1.315905,1.15187 0.678135,0 0.945474,0.499975 0.728848,1.363085 -0.07473,0.297726 -0.03064,0.599287 0.09935,0.679625 0.128522,0.07943 0.233677,0.333225 0.233677,0.563986 0,0.489624 0.643272,0.54737 1.555248,0.139614 z m 5.361924,-6.666741 c 0,-0.221541 0.09727,-0.402802 0.216161,-0.402802 0.481764,0 0.174987,-0.611952 -0.376117,-0.75027 -0.325754,-0.08176 -0.646726,-0.236748 -0.713271,-0.344421 -0.06655,-0.107673 -0.447477,-0.261066 -0.846513,-0.340873 l -0.725522,-0.145104 0.150637,2.519627 c 0.137181,2.294554 0.11752,2.519627 -0.2201,2.519627 -0.330339,0 -0.323033,0.053 0.06706,0.486364 0.240786,0.2675 0.508917,0.680909 0.595847,0.918687 0.121721,0.332943 0.352731,-0.08379 1.004938,-1.812856 0.465786,-1.234848 0.846884,-2.426439 0.846884,-2.647979 z M 47.206758,50.81274 c 0.214685,-0.855371 0.02415,-1.975366 -0.33605,-1.975366 -0.243106,0 -0.340465,0.311024 -0.38907,1.24293 -0.05216,1.000083 -1.74e-4,1.242929 0.266083,1.242929 0.182002,0 0.388568,-0.229722 0.459037,-0.510493 z m 9.068392,-5.665346 c -0.0053,-0.0568 -2.34678,-0.735128 -2.381886,-0.690028 -0.02431,0.03123 -0.100272,0.420255 -0.168813,0.864508 -0.08525,0.552521 -0.03418,0.859863 0.161615,0.972727 0.157429,0.09075 0.573439,0.699996 0.924465,1.353884 1.357725,2.529158 1.234646,2.538964 1.356538,-0.10808 0.06022,-1.307778 0.108858,-2.384633 0.108081,-2.393011 z m -4.193924,2.677137 c 0.649971,-0.710977 0.842007,-2.170815 0.842007,-6.40083 v -2.484809 l -0.530082,0.571968 c -1.005785,1.08526 -2.214176,0.576524 -3.363506,-1.416045 -0.994177,-1.723585 -1.726956,-2.710359 -1.72519,-2.323174 7.84e-4,0.171709 0.194688,0.604016 0.430899,0.960683 0.560699,0.846626 0.590855,2.269697 0.0481,2.269697 -0.454836,0 -1.257227,-0.533355 -1.943763,-1.292033 l -0.493486,-0.545341 0.482398,0.864647 c 0.265319,0.475555 0.569267,0.924938 0.67544,0.998629 0.289774,0.20112 0.09331,0.868445 -0.335111,1.138241 -0.27965,0.176109 -0.489821,0.16763 -0.810606,-0.0327 -0.238189,-0.148752 -0.433071,-0.178101 -0.433071,-0.06522 0,0.11288 0.09727,0.265354 0.216162,0.338831 0.118889,0.07348 0.216162,0.286572 0.216162,0.473543 0,0.269766 -0.172242,0.316844 -0.834322,0.228041 l -0.834321,-0.111906 0.893888,0.89405 c 0.491638,0.491728 1.018702,1.195482 1.171253,1.563898 0.177447,0.428542 0.780925,1.003323 1.675212,1.595553 1.45572,0.964031 3.33233,2.862641 3.33233,3.371396 0,0.42848 0.651537,0.133664 1.319609,-0.597115 z m -4.778195,-0.284126 c 0,-0.326415 -0.123342,-0.540404 -0.311485,-0.540404 -0.409235,0 -0.58672,0.309512 -0.422655,0.737058 0.210343,0.548145 0.73414,0.407834 0.73414,-0.196654 z M 45.435746,46.89192 c 0.08496,-0.221396 -0.01227,-0.324243 -0.306519,-0.324243 -0.305897,0 -0.468578,-0.18817 -0.56064,-0.648484 -0.195527,-0.977633 -0.50798,-0.778195 -0.50798,0.324242 0,0.928706 0.0283,0.972727 0.625358,0.972727 0.356467,0 0.678857,-0.139417 0.749781,-0.324242 z m -0.60159,-3.101502 c -0.186526,-0.360701 -0.921837,-1.226003 -1.634026,-1.922894 -1.480399,-1.448602 -1.932058,-2.581354 -1.114501,-2.79515 0.505015,-0.132064 0.597508,-0.393318 0.221517,-0.625694 -0.132181,-0.08169 -0.316909,-0.02462 -0.410507,0.126823 -0.34209,0.553513 -0.825373,0.0212 -1.021097,-1.12469 -0.107923,-0.631847 -0.146752,-1.24197 -0.08629,-1.35583 0.262026,-0.49341 0.197415,-1.293313 -0.123414,-1.527909 -0.277722,-0.203076 -0.319562,-0.488289 -0.20928,-1.426615 0.248156,-2.11142 1.175265,-3.489538 3.13927,-4.666428 0.937167,-0.561578 1.166065,-0.602333 3.382958,-0.602333 2.107744,0 2.498914,0.06137 3.444445,0.540404 1.402812,0.710704 2.81385,2.161188 3.273655,3.365171 0.431165,1.128991 0.310781,1.351966 -0.553743,1.025644 l -0.628234,-0.237131 0.508837,0.806049 c 0.687756,1.089476 0.811628,2.1736 0.248356,2.1736 -0.269734,0 -0.997357,-1.203964 -0.997357,-1.65028 0,-0.357037 -2.446396,-2.46532 -2.999871,-2.585263 -0.311738,-0.06756 -0.833533,-0.223682 -1.159546,-0.346945 -0.326013,-0.123262 -0.812377,-0.1707 -1.080808,-0.105416 -3.095072,0.752736 -3.560301,1.036417 -4.456149,2.717201 -0.785921,1.474537 -0.874589,2.186865 -0.272213,2.186865 0.223943,0 0.769186,0.400708 1.211649,0.890462 0.639435,0.707778 0.773018,0.785385 0.65113,0.378282 -0.08434,-0.281698 -0.290889,-0.730306 -0.458994,-0.996906 -0.168105,-0.2666 -0.365744,-0.923191 -0.439197,-1.459091 -0.139132,-1.015076 0.02336,-1.171979 0.875203,-0.845096 0.352948,0.135439 1.673284,1.867894 1.919558,2.518712 0.07873,0.208056 0.267788,0.376794 0.420131,0.374973 0.201973,-0.0024 0.208995,-0.04657 0.02593,-0.163047 -0.138082,-0.08786 -0.363192,-0.778117 -0.500244,-1.533916 -0.427649,-2.358342 0.04268,-2.592138 1.507869,-0.749549 1.088007,1.368251 1.347126,1.741169 2.252214,3.241327 0.713887,1.183247 1.383973,1.85178 1.675495,1.67161 0.108437,-0.06702 0.487294,-0.735924 0.841905,-1.486459 0.762051,-1.612884 1.093837,-1.935624 1.806101,-1.756857 0.680427,0.170776 0.878475,0.813365 0.486963,1.580004 -0.651183,1.275111 -1.1057,5.252722 -0.600223,5.252722 0.409936,0 1.506729,-1.530097 2.396884,-3.343807 l 0.928793,-1.892436 -0.132422,-1.867232 c -0.18513,-2.610467 -0.757408,-4.067258 -2.524225,-6.425671 -0.901191,-1.202944 -2.552753,-2.383289 -3.638616,-2.600461 -0.380471,-0.07609 -0.744118,-0.223062 -0.808105,-0.326595 -0.06399,-0.103533 -1.010371,-0.186826 -2.103077,-0.185096 -2.090593,0.0033 -3.090881,0.246024 -5.06087,1.227991 -1.59054,0.792826 -2.027643,1.25854 -3.24386,3.456186 l -0.815341,1.473283 v 3.566667 c 0,3.378048 0.02858,3.622648 0.540404,4.625247 0.297222,0.582219 0.938697,1.405105 1.4255,1.828636 0.805443,0.700754 3.989684,2.463391 4.1566,2.300887 0.03849,-0.03747 -0.08263,-0.363248 -0.269157,-0.723949 z m -0.557388,-4.638321 c 0,-0.03635 -0.243181,-0.395699 -0.540404,-0.798561 -0.297222,-0.402862 -0.540404,-0.661003 -0.540404,-0.573647 0,0.08736 0.212839,0.446709 0.472975,0.798562 0.432062,0.584395 0.607833,0.750281 0.607833,0.573646 z m 8.794128,-0.839091 c -0.069,-0.172439 -0.120225,-0.121219 -0.130598,0.130597 -0.0094,0.227871 0.0417,0.355541 0.113533,0.283712 0.07183,-0.07183 0.07951,-0.258268 0.01706,-0.414309 z m -1.904528,-7.251971 c -0.872687,-1.104072 -2.368424,-1.698522 -3.794942,-1.50822 -1.281731,0.170986 -2.47485,0.526708 -2.742804,0.817752 -0.189145,0.205445 -0.146892,0.223364 0.188551,0.07996 0.237777,-0.101648 1.18773,-0.220693 2.111006,-0.264543 1.739989,-0.08264 3.525275,0.361001 3.898219,0.968703 0.09508,0.15492 0.277212,0.281673 0.404751,0.281673 0.140204,0 0.114591,-0.148398 -0.06478,-0.375329 z M 40.749684,25.775632 c -0.069,-0.172439 -0.120225,-0.121218 -0.130598,0.130598 -0.0094,0.22787 0.0417,0.355541 0.113533,0.283712 0.07183,-0.07183 0.07951,-0.258268 0.01707,-0.41431 z m 2.7151,-0.347147 c -0.09336,-0.636066 -0.917308,-0.955346 -0.917308,-0.355454 0,0.170944 0.145909,0.310808 0.324242,0.310808 0.178333,0 0.324242,0.145909 0.324242,0.324243 0,0.178333 0.08043,0.324242 0.178724,0.324242 0.0983,0 0.138843,-0.271728 0.0901,-0.603839 z m 1.838752,-0.04169 c 0.148611,-0.0016 0.270202,-0.09717 0.270202,-0.212329 0,-0.115158 -0.145909,-0.153387 -0.324242,-0.08495 -0.196668,0.07547 -0.324243,6.66e-4 -0.324243,-0.190117 0,-0.63628 1.690769,-1.136764 3.840296,-1.136764 1.969771,0 2.005934,-0.0091 1.541017,-0.385813 C 49.3808,22.6266 45.620962,23.088717 45.273,23.995492 c -0.158379,0.412729 -0.78007,0.393681 -0.78007,-0.0239 0,-0.182296 0.350204,-0.681652 0.778232,-1.109679 l 0.778232,-0.778232 -0.616111,0.154163 c -0.338861,0.08479 -0.693899,0.292328 -0.788973,0.461195 -0.09507,0.168867 -0.362574,0.307031 -0.594444,0.307031 -0.505517,0 -0.531102,0.325289 -0.09184,1.167599 0.179895,0.344957 0.265494,0.821244 0.190219,1.058415 -0.117086,0.368905 -0.06302,0.411455 0.37411,0.294444 0.281037,-0.07523 0.632566,-0.138105 0.781177,-0.139728 z m 5.674243,-0.105482 c 0,-0.05639 -0.287107,-0.250998 -0.638015,-0.432459 -0.52856,-0.27333 -0.740685,-0.283553 -1.236495,-0.05959 l -0.598481,0.270339 0.858213,0.131446 c 1.212088,0.185648 1.614778,0.208158 1.614778,0.09027 z m -2.972223,-0.905276 c -0.148611,-0.05997 -0.391793,-0.05997 -0.540404,0 -0.148611,0.05997 -0.02702,0.109029 0.270202,0.109029 0.297223,0 0.418813,-0.04906 0.270202,-0.109029 z m 3.447778,-0.332396 c -0.138704,-0.138704 -0.323947,-0.18043 -0.411652,-0.09273 -0.0877,0.0877 -0.01919,0.246159 0.152258,0.352119 0.403702,0.249501 0.585995,0.06721 0.259394,-0.259394 z m -8.257374,-0.05209 c 0,-0.05243 -0.09727,-0.155442 -0.216161,-0.228919 -0.118889,-0.07348 -0.216162,-0.03058 -0.216162,0.09532 0,0.125905 0.09727,0.228918 0.216162,0.228918 0.118889,0 0.216161,-0.0429 0.216161,-0.09532 z m 5.458081,-1.786522 c -0.2675,-0.05152 -0.705227,-0.05152 -0.972727,0 -0.2675,0.05152 -0.04864,0.09368 0.486364,0.09368 0.535,0 0.753863,-0.04215 0.486363,-0.09368 z m 2.781893,76.596809 c -0.287296,-0.34617 -0.393591,-2.405859 -0.556593,-10.785166 -0.09934,-5.106862 -0.08582,-5.35 0.297538,-5.35 0.36,0 0.417294,0.263162 0.552968,2.539899 0.359305,6.029435 0.478218,13.345198 0.221531,13.629031 -0.207799,0.229774 -0.30184,0.223614 -0.515444,-0.03376 z M 78.750726,95.19201 c -0.200904,-0.632992 0.07107,-12.715541 0.350058,-15.551601 0.306539,-3.11611 0.340411,-3.242424 0.869474,-3.242424 0.406547,0 0.438257,0.09038 0.322306,0.918687 -0.07073,0.505278 -0.23039,3.788232 -0.354796,7.295455 -0.298374,8.411716 -0.4741,10.861228 -0.786596,10.96467 -0.138522,0.04585 -0.318723,-0.127301 -0.400446,-0.384787 z m -8.745344,-3.764309 c -0.184717,-0.22257 -0.230687,-0.918676 -0.153456,-2.323737 0.150312,-2.734628 1.112022,-7.734262 1.487732,-7.734262 0.09541,0 0.173474,-0.153239 0.173474,-0.340532 0,-0.359413 1.576007,-4.504761 2.079523,-5.469741 0.162575,-0.311572 0.296191,-0.677678 0.296923,-0.813569 0.0018,-0.339411 0.517537,-0.508678 0.875591,-0.287388 0.233853,0.144529 0.242514,0.285359 0.04197,0.682526 -0.413685,0.819295 -1.674882,4.036451 -2.399422,6.120624 -1.095474,3.151183 -1.504987,5.397109 -1.527293,8.376262 -0.01227,1.638397 -0.08207,2.107576 -0.313555,2.107576 -0.163776,0 -0.416447,-0.142992 -0.561491,-0.317759 z m 12.222917,-10.31657 c -0.07518,-0.630566 -0.247265,-1.953495 -0.382423,-2.939841 -0.213821,-1.560416 -0.201604,-1.837494 0.09405,-2.133153 0.186887,-0.186888 0.431791,-0.28294 0.54423,-0.213448 0.199299,0.123173 0.519371,3.057975 0.56891,5.21646 0.01929,0.840326 -0.05348,1.091856 -0.331691,1.146484 -0.282421,0.05546 -0.384769,-0.167992 -0.493081,-1.076502 z m 5.083379,-1.092444 c -0.10348,-0.2675 -0.450223,-1.191025 -0.770541,-2.052279 -0.320317,-0.861254 -0.671294,-1.620858 -0.779948,-1.68801 -0.365517,-0.225902 -0.21637,-0.961226 0.194967,-0.961226 0.637061,0 2.201067,3.263582 2.201311,4.593435 1.35e-4,0.735186 -0.574779,0.808653 -0.845789,0.10808 z M 77.571853,73.87771 c -1.545409,-0.334532 -2.383974,-0.78039 -2.383974,-1.267541 0,-0.414071 0.588737,-0.404465 1.405051,0.02293 0.44179,0.231304 1.68196,0.400353 3.890909,0.530375 5.026184,0.295848 5.373735,0.29752 5.876817,0.02828 1.043902,-0.55868 1.571185,-0.06192 0.713641,0.672333 -0.378928,0.324448 -0.927471,0.368694 -4.269192,0.344358 -2.372414,-0.01728 -4.367754,-0.143378 -5.233252,-0.33073 z M 68.270708,52.021243 c 0,-0.23735 0.390129,-0.586413 1.026767,-0.918686 0.564723,-0.29474 1.059192,-0.608844 1.098822,-0.698011 0.03963,-0.08917 0.258106,-0.162121 0.485503,-0.162121 0.513095,0 2.876178,-0.775765 3.815866,-1.252692 0.552549,-0.28044 0.754234,-0.299045 0.964321,-0.08896 0.42657,0.426571 -0.370397,0.983405 -2.203401,1.539499 -2.307627,0.700083 -3.242181,1.06951 -3.911812,1.54633 -0.731895,0.521155 -1.276066,0.535927 -1.276066,0.03464 z"
       id="path1" /></g></svg>
