<?xml version="1.0" encoding="UTF-8" standalone="no"?>
<!-- Created with Inkscape (http://www.inkscape.org/) -->

<svg
   width="120"
   height="120"
   viewBox="0 0 120 120"
   version="1.1"
   id="svg1"
   xml:space="preserve"
   xmlns:inkscape="http://www.inkscape.org/namespaces/inkscape"
   xmlns:sodipodi="http://sodipodi.sourceforge.net/DTD/sodipodi-0.dtd"
   xmlns="http://www.w3.org/2000/svg"
   xmlns:svg="http://www.w3.org/2000/svg"><sodipodi:namedview
     id="namedview1"
     pagecolor="#ffffff"
     bordercolor="#000000"
     borderopacity="0.25"
     inkscape:showpageshadow="2"
     inkscape:pageopacity="0.0"
     inkscape:pagecheckerboard="0"
     inkscape:deskcolor="#d1d1d1"
     inkscape:document-units="px"><inkscape:page
       x="0"
       y="0"
       width="120"
       height="120"
       id="page2"
       margin="0"
       bleed="0" /></sodipodi:namedview><defs
     id="defs1" /><g
     inkscape:label="Layer 1"
     inkscape:groupmode="layer"
     id="layer1"><path
       style="fill:#000000"
       d="m 70.165166,110.44768 c -0.294534,-0.13774 -1.167186,-0.46757 -1.939227,-0.73296 -1.228315,-0.42224 -1.478711,-0.58469 -2.003953,-1.30009 -1.536604,-2.09291 -1.722078,-3.56445 -0.71431,-5.66731 0.554538,-1.15713 0.60599,-1.40175 0.580905,-2.761801 -0.02488,-1.348767 0.02188,-1.5764 0.486287,-2.367701 0.494245,-0.842134 0.507985,-0.927096 0.360851,-2.231321 -0.203113,-1.800438 -0.152785,-5.347778 0.10389,-7.322654 0.118224,-0.909622 0.469112,-2.297507 0.818358,-3.236886 0.336268,-0.904469 0.611395,-1.750483 0.611395,-1.88003 0,-0.129547 -0.200819,-0.531464 -0.446264,-0.893148 -0.372614,-0.549077 -0.446264,-0.867277 -0.446264,-1.928042 0,-0.698739 0.07327,-1.525906 0.162818,-1.838148 0.337013,-1.175096 0.563708,-4.594817 0.636705,-9.604756 0.08357,-5.735936 0.139924,-6.978891 0.324772,-7.163739 0.372166,-0.372165 0.387557,0.04686 0.254113,6.918207 -0.07907,4.071564 -0.06302,4.389773 0.217739,4.316354 0.346454,-0.0906 0.6264,0.202632 0.776346,0.813192 0.07746,0.315384 0.01864,0.443558 -0.233844,0.509583 -0.310716,0.08125 -0.315845,0.120998 -0.06501,0.503814 0.21418,0.326882 0.228853,0.496806 0.06873,0.795994 -0.15247,0.284894 -0.152417,0.442039 2.12e-4,0.625946 0.112085,0.135054 0.177905,0.471312 0.146267,0.747238 -0.0644,0.561627 -0.683761,0.781583 -1.138385,0.404279 -0.206882,-0.171697 -0.257933,-0.156744 -0.257933,0.07555 0,0.173684 0.147607,0.289615 0.368747,0.289615 0.893256,0 1.594816,0.894501 1.594816,2.033417 0,0.342704 0.08033,0.672744 0.178505,0.733422 0.560828,0.346611 -0.240801,2.244439 -1.098013,2.599508 -0.625881,0.259248 -0.646751,0.45095 -0.06499,0.596962 0.552583,0.13869 0.747941,0.812181 0.446607,1.539667 -0.249984,0.603516 -0.928335,0.868459 -1.342822,0.524466 -0.223434,-0.185434 -0.250983,-0.175365 -0.161094,0.05888 0.05964,0.155413 0.276085,0.307348 0.480995,0.337633 0.204909,0.03029 0.409634,0.167485 0.454944,0.304888 0.06482,0.196565 -0.07236,0.22907 -0.64345,0.15247 -0.541496,-0.07263 -0.751537,-0.03037 -0.827049,0.166413 -0.18851,0.491251 -0.102595,0.561089 0.438841,0.356719 0.732199,-0.276374 1.114336,-0.0097 1.313738,0.916903 0.227879,1.058901 -0.112774,1.817038 -0.816447,1.817038 -0.465034,0 -0.510787,0.04648 -0.395376,0.401638 0.195442,0.601443 0.126051,6.219843 -0.08361,6.76939 -0.140148,0.367351 -0.122652,0.526322 0.07608,0.691253 0.324195,0.269058 0.331776,0.876079 0.01668,1.335673 -0.526201,0.76751 -0.532646,2.663754 -0.0084,2.462574 0.419487,-0.16098 1.120223,0.10308 1.334103,0.50271 0.173398,0.324 0.123194,0.45657 -0.353404,0.93316 -0.655328,0.65533 -1.055699,0.53327 -1.37226,-0.41835 -0.156605,-0.47077 -0.218823,-0.52449 -0.315548,-0.27242 -0.09263,0.24139 -0.255405,0.29207 -0.704172,0.21925 -0.508754,-0.0826 -0.62365,-0.0251 -0.894939,0.4476 -0.171187,0.29827 -0.278522,0.57504 -0.238522,0.61504 0.04,0.04 0.364577,-0.0665 0.721283,-0.23655 1.234024,-0.58846 2.346453,0.38124 1.652443,1.44043 -0.344795,0.52622 -0.913488,0.59517 -1.503058,0.18222 -0.351938,-0.24651 -0.39673,-0.24727 -0.39673,-0.007 0,0.55508 0.771331,2.30665 1.253317,2.84608 0.478245,0.53525 0.512915,0.54546 0.841705,0.24791 0.188604,-0.17068 0.501623,-0.31033 0.695599,-0.31033 0.289474,0 0.360045,-0.13597 0.39376,-0.75865 0.07479,-1.38132 0.09827,-1.40715 1.493009,-1.64211 0.574583,-0.0968 0.700023,-0.0518 0.959372,0.344 0.164098,0.25045 0.338973,0.81567 0.388611,1.25606 0.0831,0.73729 0.129987,0.8007 0.592018,0.8007 0.275971,0 0.551412,0.0803 0.612089,0.1785 0.179568,0.29055 1.089507,0.2038 1.520166,-0.14493 0.470861,-0.38128 0.682707,-1.40267 0.519839,-2.50635 -0.122518,-0.83024 -0.395467,-1.12706 -0.968971,-1.05373 -0.26028,0.0333 -0.372167,0.20283 -0.412947,0.62579 -0.06636,0.68827 -0.475325,0.77085 -1.070692,0.21618 -0.488953,-0.45553 -0.494913,-0.88341 -0.0207,-1.48627 0.317231,-0.4033 0.505957,-0.47034 1.323988,-0.47034 0.903597,0 0.987641,0.0401 1.590102,0.75865 l 0.63608,0.75865 0.0035,-0.82151 c 0.0041,-0.95416 -0.592707,-2.00281 -1.188912,-2.08918 -0.59138,-0.0857 -1.026607,-0.68965 -0.981339,-1.36181 0.02668,-0.396094 -0.05084,-0.629884 -0.231885,-0.699354 -0.31862,-0.12227 -0.373875,-1.191784 -0.07691,-1.488746 0.123323,-0.123322 0.136747,-0.316957 0.03651,-0.526592 -0.08719,-0.182352 -0.145038,-1.9381 -0.128542,-3.901663 0.03403,-4.050429 -0.06755,-4.487958 -0.994611,-4.284341 -0.489414,0.107494 -0.516037,0.07953 -0.626139,-0.657787 -0.142459,-0.95399 0.122997,-1.693331 0.702838,-1.957524 0.674072,-0.307128 1.417054,0.07784 1.803287,0.934352 0.17436,0.386662 0.340599,0.679441 0.369419,0.650621 0.02882,-0.02882 -0.155298,-0.716192 -0.409151,-1.527492 l -0.461552,-1.475091 -0.388934,0.365385 c -0.213914,0.200961 -0.51188,0.365384 -0.662148,0.365384 -0.676146,0 -1.14286,-1.256352 -0.649856,-1.749356 0.166605,-0.166605 0.143465,-0.214207 -0.104129,-0.214207 -0.176287,0 -0.284347,-0.09957 -0.242166,-0.223132 0.04231,-0.123948 0.366366,-0.223132 0.729016,-0.223132 0.359065,0 0.652793,-0.05515 0.652729,-0.12255 -6.5e-5,-0.0674 -0.420417,-0.348549 -0.934117,-0.62477 -1.118014,-0.601166 -1.396206,-1.159286 -0.986851,-1.979857 0.214752,-0.430481 0.233324,-0.692727 0.0877,-1.238315 -0.232288,-0.870266 0.111831,-1.717201 0.733645,-1.805631 0.462139,-0.06572 0.818344,0.301292 1.096697,1.129974 0.168949,0.502975 0.174619,0.492128 0.09331,-0.178506 -0.04761,-0.392712 -0.08745,-1.025086 -0.08853,-1.405276 -0.0017,-0.61479 -0.03372,-0.664899 -0.289039,-0.453002 -0.243911,0.202428 -0.324431,0.187164 -0.535517,-0.101514 -0.571766,-0.781936 -0.100642,-1.729135 0.49449,-0.994178 0.293269,0.362172 0.327812,0.369925 0.325368,0.07303 -0.0035,-0.429299 -0.199591,-0.689172 -0.51994,-0.689172 -0.140204,0 -0.317026,-0.232238 -0.392938,-0.516085 -0.312034,-1.166737 -0.07442,-11.165519 0.301189,-12.673985 0.08837,-0.35492 0.01955,-0.378211 -1.207856,-0.408771 -0.715864,-0.01782 -1.822113,-0.08644 -2.458331,-0.152489 -1.021065,-0.105995 -1.227097,-0.194659 -1.756348,-0.75583 -0.471072,-0.499481 -0.582949,-0.749117 -0.521959,-1.164667 0.05632,-0.383729 -0.07631,-0.757662 -0.483146,-1.362225 -1.501362,-2.231015 -2.259877,-10.112348 -1.702069,-17.68531 0.08316,-1.129048 0.238222,-3.538875 0.344575,-5.355171 0.280955,-4.798161 0.847981,-11.727549 0.976697,-11.935817 0.06096,-0.09864 0.233024,-1.11101 0.382358,-2.249712 0.289368,-2.206475 0.984984,-4.468125 1.914562,-6.224793 0.588906,-1.112885 2.600851,-3.108505 3.62289,-3.593494 1.338766,-0.635286 2.531352,-0.117024 2.915661,1.267059 0.452479,1.629597 0.125334,21.992715 -0.543083,33.804111 -0.14557,2.572319 -0.14359,4.575772 0.0076,7.675746 0.252296,5.173524 0.199349,5.931179 -0.517279,7.40219 -0.545218,1.119162 -0.55722,1.201011 -0.659824,4.499972 -0.06949,2.234119 -0.03379,3.778796 0.106518,4.609617 0.718873,4.256714 0.991066,8.235813 0.719906,10.524053 l -0.212455,1.792841 0.839295,2.490295 c 1.13209,3.359057 1.339072,5.167222 0.82291,7.188827 -0.479887,1.879535 -0.466292,2.482048 0.09758,4.324365 0.393805,1.286668 0.450178,1.730768 0.358793,2.826533 -0.102447,1.228412 -0.07714,1.355462 0.459457,2.306252 0.512121,0.90743 0.568893,1.1566 0.57823,2.53785 0.01931,2.85696 -0.549191,3.6376 -3.855723,5.29451 -1.257854,0.63031 -2.388564,1.14088 -2.512689,1.1346 -0.124124,-0.006 -0.466663,-0.1241 -0.761198,-0.26183 z m -0.08762,-1.06358 c -0.121323,-0.14618 -0.30039,-0.21647 -0.397926,-0.15619 -0.107722,0.0666 -0.08226,0.16984 0.06485,0.26306 0.385043,0.24398 0.573945,0.18337 0.333073,-0.10687 z m 2.105963,-0.18519 c -0.05496,-0.055 -0.154773,0.0441 -0.221807,0.22016 -0.09687,0.2544 -0.07637,0.27491 0.09993,0.0999 0.121994,-0.12108 0.176841,-0.26512 0.121881,-0.32008 z m -1.745588,-0.87467 c -0.100925,-0.26545 -0.192102,-0.97946 -0.202617,-1.58668 l -0.01912,-1.10404 -0.171328,0.7659 c -0.132886,0.59405 -0.10449,0.96712 0.126557,1.66274 0.163836,0.49326 0.332111,0.86261 0.373944,0.82078 0.04183,-0.0418 -0.0065,-0.29325 -0.10744,-0.5587 z m 1.166068,-0.63791 c 0.180185,0 0.253234,-0.20004 0.244437,-0.66939 -0.01677,-0.89458 -0.175746,-1.1965 -0.65685,-1.24744 -0.375511,-0.0397 -0.401638,0.0253 -0.401638,0.99977 0,0.57326 0.10041,1.31535 0.223132,1.64908 l 0.223132,0.60678 0.0554,-0.6694 c 0.03624,-0.43789 0.14428,-0.6694 0.312385,-0.6694 z m 1.694069,0.87564 c 0.182246,-0.34053 0.16289,-0.36245 -0.216852,-0.24558 -0.532273,0.16381 -0.566726,0.19865 -0.424298,0.4291 0.182314,0.29499 0.421735,0.22646 0.64115,-0.18352 z m -5.542717,-4.62426 c 0,-0.37743 -0.430271,-0.47475 -0.869318,-0.19662 -0.197459,0.12508 -0.180272,0.19226 0.08925,0.34885 0.50853,0.29544 0.780066,0.24245 0.780066,-0.15223 z m 6.375577,-0.50776 c -0.20456,-0.0899 -0.663395,0.33369 -0.663395,0.61249 0,0.15422 0.143045,0.0987 0.401638,-0.15573 0.220901,-0.21739 0.338692,-0.42294 0.261757,-0.45676 z m -5.036784,-1.4558 c -0.06068,-0.0982 -0.226073,-0.17851 -0.367546,-0.17851 -0.141473,0 -0.257224,0.0803 -0.257224,0.17851 0,0.0982 0.165396,0.17851 0.367546,0.17851 0.202151,0 0.317901,-0.0803 0.257224,-0.17851 z m -1.725249,-0.80687 c 0.05252,-0.44926 0.02534,-0.48298 -0.223132,-0.27676 -0.336111,0.27894 -0.383944,0.96804 -0.05981,0.86161 0.122723,-0.0403 0.250046,-0.30348 0.28294,-0.58485 z m 8.179109,-0.71813 c 0.144556,-0.3767 -0.09672,-0.580091 -0.302386,-0.25489 -0.218528,0.34555 -0.214146,0.53035 0.01258,0.53035 0.101259,0 0.231674,-0.12396 0.289811,-0.27546 z m -8.697727,-1.464971 c -0.01112,-0.434991 -0.03002,-0.450236 -0.16596,-0.13388 -0.209514,0.48757 -0.209514,0.62477 0,0.62477 0.09818,0 0.17286,-0.2209 0.16596,-0.49089 z m 8.93783,0.13388 c 0,-0.0982 -0.08507,-0.17851 -0.18904,-0.17851 -0.103972,0 -0.139396,0.0803 -0.07872,0.17851 0.06068,0.0982 0.145746,0.1785 0.18904,0.1785 0.0433,0 0.07872,-0.0803 0.07872,-0.1785 z m -8.508996,-1.174036 c -0.115675,-0.301446 -0.416288,-0.159053 -0.416288,0.197186 0,0.145411 0.108264,0.210077 0.256487,0.153198 0.141068,-0.05413 0.212979,-0.211806 0.159801,-0.350384 z m 8.007069,-1.260258 -0.342603,-1.046569 0.02063,0.820536 c 0.01135,0.451294 0.132484,0.955283 0.269197,1.119974 0.402257,0.484579 0.41781,0.221143 0.05278,-0.893941 z m -7.274825,-3.513144 c 0.04826,-1.247713 0.0155,-2.448239 -0.07281,-2.667836 -0.106016,-0.263628 -0.164405,0.535623 -0.171876,2.352697 -0.0062,1.51358 0.02654,2.714106 0.07281,2.667836 0.04627,-0.04627 0.123614,-1.104983 0.171876,-2.352697 z m 6.65319,-1.951441 c -0.04255,-0.220901 -0.07736,-0.04016 -0.07736,0.401638 0,0.441802 0.03481,0.622539 0.07736,0.401638 0.04255,-0.220901 0.04255,-0.582375 0,-0.803276 z m -0.474809,-2.617671 c -0.109587,-0.204765 -0.2805,-0.3723 -0.379807,-0.3723 -0.09931,0 -0.03624,0.192952 0.14016,0.428782 0.379147,0.506896 0.523012,0.472989 0.239647,-0.05648 z m -5.541858,-0.584923 c 0,-0.456383 -0.29428,-0.401602 -0.423008,0.07874 -0.196158,0.731962 -0.129898,0.975157 0.160926,0.590652 0.144145,-0.190576 0.262082,-0.491805 0.262082,-0.669396 z m 4.802281,-0.5014 c 0.09495,0 0.378685,0.07834 0.630522,0.174088 0.251836,0.09575 0.457885,0.14165 0.457885,0.102003 0,-0.173558 -0.583066,-0.633102 -0.803276,-0.633102 -0.341416,0 -0.805419,0.504249 -0.791961,0.860653 0.0081,0.21437 0.05725,0.185344 0.172754,-0.102004 0.08879,-0.220901 0.239125,-0.401638 0.334076,-0.401638 z m 0.183332,-5.95509 c 0.0112,-0.296563 -0.02221,-0.289234 -0.311799,0.06839 -0.274847,0.339422 -0.383202,0.369051 -0.710006,0.194151 -0.319507,-0.170995 -0.368405,-0.161435 -0.28507,0.05573 0.05532,0.144173 0.31458,0.33459 0.576126,0.42315 0.504257,0.170744 0.703947,-0.03186 0.730749,-0.741421 z m -3.970373,0.638179 c 0.116581,-0.07413 0.301793,-0.371045 0.411583,-0.659815 0.280325,-0.737311 -0.04589,-1.266234 -0.959741,-1.556135 -0.773162,-0.245268 -1.01669,-0.677515 -0.638471,-1.133241 0.118307,-0.142551 0.415922,-0.259183 0.661367,-0.259183 0.381205,0 0.41307,-0.04 0.218574,-0.27435 -0.275251,-0.331658 -0.929824,-0.274502 -1.097644,0.09584 -0.06673,0.147267 -0.126978,0.825116 -0.133879,1.506331 l -0.01255,1.238573 0.363965,-0.39067 c 0.382692,-0.410772 0.80865,-0.490446 1.22212,-0.228592 0.367167,0.23253 0.09594,1.060725 -0.425125,1.29814 -0.239659,0.109195 -0.393357,0.267119 -0.341552,0.35094 0.115612,0.187065 0.447596,0.192584 0.731349,0.01216 z M 73.76973,80.06597 c -0.04526,-0.17368 -0.08527,-0.0748 -0.0889,0.219735 -0.0036,0.294534 0.03339,0.436636 0.08229,0.315782 0.0489,-0.120854 0.05187,-0.361837 0.0066,-0.535517 z m -0.703846,-0.246516 c -0.171812,-0.09694 -0.312385,-0.292759 -0.312385,-0.435148 0,-0.142388 -0.08507,-0.258888 -0.189041,-0.258888 -0.103972,0 -0.16043,0.06025 -0.125462,0.133879 0.464276,0.977635 0.570414,1.109506 0.748235,0.929645 0.13605,-0.137611 0.101121,-0.243964 -0.121347,-0.369488 z m -3.996452,-4.710415 c -0.05651,-0.147267 -0.134319,-0.267758 -0.172904,-0.267758 -0.03858,0 -0.07015,0.120491 -0.07015,0.267758 0,0.147267 0.07781,0.267759 0.172904,0.267759 0.0951,0 0.126666,-0.120492 0.07015,-0.267759 z m 4.564514,-1.115661 c -0.01087,-0.602253 -0.03107,-0.630099 -0.201386,-0.277614 -0.104118,0.21548 -0.141366,0.516708 -0.08277,0.669396 0.180376,0.470052 0.296817,0.309511 0.28416,-0.391782 z m -4.629067,-0.04463 c 0,-0.09818 -0.08507,-0.178506 -0.18904,-0.178506 -0.103973,0 -0.139396,0.08033 -0.07872,0.178506 0.06068,0.09818 0.145745,0.178506 0.18904,0.178506 0.0433,0 0.07872,-0.08033 0.07872,-0.178506 z m 4.407185,-1.740431 c -0.0449,-0.171811 -0.08163,-0.03124 -0.08163,0.312385 0,0.343624 0.03673,0.484197 0.08163,0.312385 0.0449,-0.171811 0.0449,-0.452958 0,-0.62477 z m 0.290325,-11.513618 c 0.33966,-0.19438 0.171381,-0.238022 -1.305902,-0.338681 -0.932692,-0.06355 -2.114135,-0.173855 -2.625429,-0.245119 -1.12603,-0.156947 -1.62082,-0.02385 -1.308837,0.352063 0.286773,0.34554 0.671327,0.402251 2.919594,0.430559 1.259477,0.01586 2.06622,-0.05326 2.320574,-0.198822 z m -0.458,-0.792445 c -0.171811,-0.0449 -0.452958,-0.0449 -0.62477,0 -0.171811,0.0449 -0.03124,0.08163 0.312385,0.08163 0.343624,0 0.484197,-0.03674 0.312385,-0.08163 z m -0.535517,-0.529245 c 1.273105,-0.09911 1.472672,-0.159436 1.472672,-0.445195 0,-0.341683 -0.263086,-0.448436 -0.431918,-0.17526 -0.05279,0.08541 -0.98183,0.212708 -2.064539,0.282881 -1.113068,0.07214 -1.92468,0.19859 -1.867586,0.290971 0.118643,0.191968 0.868705,0.204058 2.891371,0.0466 z m -0.813709,-1.318078 c 0.656965,-0.09443 1.481853,-0.171693 1.833085,-0.171693 0.56996,0 0.628914,-0.04317 0.548463,-0.401638 -0.148339,-0.66095 -0.193269,-10.138281 -0.0658,-13.87882 0.06524,-1.914474 0.244165,-5.866985 0.397606,-8.783359 0.165451,-3.144669 0.284449,-8.643519 0.292416,-13.512492 0.01422,-8.68853 0.01136,-8.721914 -0.817234,-9.550507 -0.649041,-0.649042 -1.805506,-0.165248 -3.536455,1.479435 -1.012188,0.961743 -2.399216,3.597333 -2.838939,5.394468 -0.708595,2.896006 -1.359253,8.931539 -1.749202,16.225675 -0.0971,1.816296 -0.249719,4.185959 -0.339153,5.265919 -0.269297,3.251917 -0.222617,10.032626 0.08203,11.915177 0.529954,3.274856 0.850123,4.574779 1.336515,5.426421 l 0.494883,0.866506 1.583652,-0.0517 c 0.871009,-0.02844 2.121168,-0.128961 2.778132,-0.223393 z m 0.67983,-3.436089 c 0,-0.137978 -0.140573,-0.524274 -0.312385,-0.858437 -0.338376,-0.658121 -0.346843,-2.269837 -0.146151,-27.822883 0.07165,-9.12333 0.09623,-9.736288 0.399265,-9.957872 0.386773,-0.282815 0.51876,-0.03476 0.249353,0.46863 -0.242952,0.453961 -0.24797,2.391421 -0.0068,2.632573 0.248707,0.248708 0.248637,0.223046 0.02374,8.724171 -0.136559,5.161825 -0.1427,8.58154 -0.01972,10.978102 0.226806,4.419662 0.300284,10.71035 0.125101,10.710346 -0.07363,-2e-6 -0.14392,-0.803279 -0.156193,-1.78506 -0.01227,-0.981782 -0.04239,-1.865385 -0.06694,-1.963563 -0.02455,-0.09818 -0.06979,-1.001863 -0.100534,-2.008189 -0.03341,-1.09346 -0.100644,-0.03402 -0.167086,2.632959 -0.116449,4.674224 -0.06033,6.336953 0.213875,6.336953 0.09024,0 0.12258,-0.06713 0.07187,-0.149174 -0.05071,-0.08205 -0.02219,-0.383274 0.06338,-0.669396 0.116599,-0.389908 0.159413,-0.109246 0.170912,1.12042 0.0086,0.918772 -0.0632,1.689184 -0.163162,1.750966 -0.09818,0.06068 -0.178506,-0.0026 -0.178506,-0.140546 z M 52.950967,108.91825 c -0.239065,-0.0956 -0.817998,-0.53238 -1.286518,-0.97062 -0.613975,-0.5743 -1.000289,-0.79681 -1.383399,-0.79681 -0.761141,0 -1.274239,-0.23936 -1.953517,-0.91132 -1.358097,-1.34345 -1.808493,-3.28436 -1.196905,-5.15788 0.144221,-0.4418 0.303449,-1.00409 0.353838,-1.249541 0.05039,-0.24544 0.37459,-0.75196 0.720444,-1.12559 0.733612,-0.792535 0.780824,-1.240863 0.271725,-2.580317 -0.226402,-0.59567 -0.356922,-1.371275 -0.356922,-2.120991 0,-1.107216 0.03744,-1.217233 0.592373,-1.7406 0.580644,-0.547619 0.587313,-0.571006 0.336831,-1.181365 -0.488259,-1.18976 -0.542259,-2.471133 -0.206784,-4.906822 0.17579,-1.276316 0.405859,-2.561557 0.511262,-2.856092 0.214411,-0.599138 0.934004,-4.453773 0.929553,-4.979322 -0.0016,-0.185995 -0.248339,-0.643635 -0.548364,-1.016976 -0.73254,-0.911548 -0.923291,-1.47623 -0.786868,-2.329372 0.07784,-0.486754 0.268446,-0.828945 0.597096,-1.071927 l 0.482761,-0.356921 0.109147,-3.423257 c 0.06003,-1.882791 0.03538,-5.230627 -0.05478,-7.439635 -0.183704,-4.500879 -0.10286,-5.96887 0.319781,-5.806687 0.15582,0.05979 0.377438,-0.05501 0.531899,-0.275534 0.201762,-0.288055 0.397624,-0.358335 0.822883,-0.295271 0.441171,0.06542 0.734147,-0.05255 1.398396,-0.563119 1.014998,-0.780162 1.098536,-1.042803 0.186109,-0.585122 -0.843162,0.422938 -2.094318,0.589896 -2.702021,0.360566 -0.375282,-0.141621 -0.422842,-0.131963 -0.243323,0.04941 0.322017,0.325343 0.274171,0.690823 -0.08925,0.681774 -0.634171,-0.01579 -2.605504,-3.153803 -3.538612,-5.632844 -1.205147,-3.201781 -2.035674,-8.265359 -1.796064,-10.950289 0.05745,-0.643724 0.151485,-3.580235 0.208973,-6.525579 0.142002,-7.275314 0.44847,-10.264079 1.052481,-10.264079 0.413343,0 0.479099,0.510929 0.562843,4.37339 0.0447,2.061741 0.157174,4.672387 0.249939,5.801436 0.09276,1.129049 0.216194,3.378221 0.274287,4.99816 0.09418,2.626264 0.820995,8.827819 1.062969,9.069792 0.05143,0.05143 0.09215,-0.0203 0.09051,-0.159382 -0.07109,-6.004226 0.505796,-22.831872 0.818295,-23.86963 0.08628,-0.286535 0.236348,-0.394652 0.495524,-0.357011 0.565561,0.08214 0.676117,0.939662 0.554001,4.297078 -0.179456,4.933921 0.213869,12.670783 0.83179,16.361641 0.795102,4.749164 0.864415,4.58685 0.956117,-2.238988 0.09962,-7.415403 0.411337,-17.571125 0.554121,-18.053354 0.138213,-0.466793 0.30737,-0.50306 0.667352,-0.143078 0.306437,0.306437 0.433488,2.096851 0.570671,8.041956 0.16154,7.000653 0.635377,14.29027 0.965898,14.85961 0.172712,0.297505 0.141193,-3.505588 -0.06692,-8.073875 -0.06953,-1.526232 0.02152,-3.72241 0.43565,-10.509044 0.248691,-4.075417 0.360521,-4.934218 0.642518,-4.934218 0.127956,0 0.276566,0.07106 0.330245,0.157917 0.228504,0.369728 0.474877,2.864741 0.636595,6.446795 0.0953,2.11083 0.256872,5.163277 0.359054,6.783217 0.599025,9.496606 0.599694,14.426336 0.0021,15.797756 -0.345618,0.793215 -1.668837,2.503112 -3.131755,4.04693 -0.838887,0.885279 -0.949865,1.086913 -0.884231,1.606552 0.549668,4.351863 1.039681,9.267818 1.251369,12.554101 0.156475,2.429144 0.242452,3.304411 0.340112,3.462428 0.04876,0.0789 0.133508,0.688505 0.188326,1.354684 0.05482,0.666178 0.1381,1.273414 0.185069,1.349411 0.04697,0.076 -0.07459,0.511407 -0.270123,0.967576 l -0.355522,0.829398 0.449142,0.886338 c 0.476283,0.9399 0.97188,3.639374 0.973734,5.303854 6.95e-4,0.623605 0.134191,1.19948 0.393112,1.695804 0.528693,1.013452 0.656312,4.028089 0.225438,5.325329 -0.280515,0.844554 -0.277522,0.880849 0.118496,1.437005 0.470036,0.660105 0.650807,2.210391 0.37445,3.211274 -0.151342,0.548116 -0.103548,0.802246 0.334376,1.777923 0.281027,0.626118 0.763489,1.936587 1.072138,2.912167 0.448691,1.41822 0.542958,1.97471 0.470279,2.77622 -0.197725,2.18055 -1.118535,3.41815 -3.775148,5.07395 -1.571677,0.97958 -1.686036,1.02056 -2.235085,0.80102 z m 0.878195,-1.73334 c -0.0034,-0.59344 -0.257608,-1.04895 -0.429876,-0.77021 -0.166141,0.26882 0.07758,1.46998 0.273677,1.34879 0.08741,-0.054 0.157702,-0.31439 0.156199,-0.57858 z m 1.252273,0.0552 c 0,-0.14727 -0.08033,-0.26776 -0.178505,-0.26776 -0.09818,0 -0.178506,0.12049 -0.178506,0.26776 0,0.14727 0.08033,0.26776 0.178506,0.26776 0.09818,0 0.178505,-0.12049 0.178505,-0.26776 z m 0.964237,-0.41788 c 0.05103,-0.0826 -0.14505,-0.32595 -0.435729,-0.54086 -0.918353,-0.67897 -0.6283,-2.10129 0.398822,-1.95568 0.303593,0.043 0.426892,0.19345 0.470314,0.57376 0.0509,0.44578 0.0087,0.50231 -0.312385,0.41835 -0.473464,-0.12382 -0.483222,0.15401 -0.01422,0.40501 0.434389,0.23248 0.966601,-0.007 1.268119,-0.57023 0.273824,-0.51165 0.278309,-2.45157 0.0068,-2.95526 -0.247921,-0.45998 -0.652966,-0.52742 -0.803985,-0.13388 -0.07423,0.19345 0.01955,0.26776 0.337913,0.26776 0.519649,0 0.532091,0.0515 0.152374,0.63105 -0.569423,0.86905 -1.318263,0.38142 -1.318263,-0.85842 0,-0.47814 0.09702,-0.65206 0.454664,-0.81501 0.730454,-0.33282 1.272674,-0.24759 1.674448,0.26318 0.435718,0.55392 0.47735,0.43361 0.101475,-0.29325 -0.162685,-0.3146 -0.760329,-0.80646 -1.516564,-1.24812 -1.332727,-0.778361 -2.05311,-1.683888 -1.578758,-1.984521 0.48264,-0.305886 0.990846,-0.06707 2.071762,0.97357 l 0.760763,0.73242 -0.424585,-1.06565 c -0.896286,-2.249552 -0.868576,-2.220846 -1.719149,-1.780997 -0.462133,0.238978 -0.544821,0.23684 -0.802408,-0.02075 -0.249045,-0.249045 -0.254205,-0.336848 -0.03885,-0.661181 0.136579,-0.2057 0.521609,-0.444815 0.85562,-0.531366 0.777906,-0.201575 0.902962,-0.408745 0.775351,-1.284462 -0.105764,-0.72579 -0.837966,-1.620448 -1.1622,-1.420061 -0.292556,0.180809 -0.176811,0.43828 0.197027,0.43828 0.44938,0 0.644622,0.449976 0.349522,0.805549 -0.404553,0.487457 -1.047089,0.323853 -1.367576,-0.348215 -0.272766,-0.571996 -0.271863,-0.645432 0.01329,-1.080628 0.168268,-0.25681 0.418677,-0.510188 0.556463,-0.563062 0.201547,-0.07734 0.178598,-0.193414 -0.117393,-0.593765 -0.300571,-0.406543 -0.330844,-0.566898 -0.165389,-0.876053 0.111389,-0.208133 0.275408,-0.378423 0.364487,-0.378423 0.08908,0 0.186662,-0.341392 0.216852,-0.758649 0.04476,-0.618603 0.120794,-0.759877 0.411901,-0.765301 0.430275,-0.008 0.446264,-0.04615 0.446264,-1.064383 0,-0.957965 -0.551696,-1.695732 -0.993725,-1.32888 -0.404675,0.33585 -0.305067,0.70411 0.19045,0.70411 0.551214,0 0.621339,0.607764 0.102184,0.885608 -1.058184,0.566323 -1.761379,-1.247204 -0.824781,-2.127093 0.275013,-0.258361 0.570504,-0.376458 0.795028,-0.317744 0.336797,0.08808 0.341502,0.06928 0.08186,-0.326989 -0.151513,-0.231239 -0.429033,-0.469171 -0.616711,-0.528738 -0.476906,-0.151364 -0.751095,-0.744055 -0.604022,-1.305664 0.233518,-0.891705 0.164038,-1.893902 -0.16582,-2.391823 -0.178358,-0.269232 -0.273838,-0.620982 -0.212177,-0.781668 0.06166,-0.160685 0.01302,-0.566173 -0.108081,-0.901085 -0.17165,-0.474688 -0.173,-0.684497 -0.0061,-0.951706 0.117737,-0.188527 0.169102,-0.459953 0.114145,-0.60317 -0.05496,-0.143217 0.02889,-0.456988 0.186328,-0.697268 0.279413,-0.426439 0.275615,-0.434841 -0.158999,-0.351759 -0.540894,0.103398 -1.528169,-0.788509 -1.528169,-1.380553 0,-0.463179 1.053672,-1.779102 1.428045,-1.783475 0.222278,-0.0026 0.258937,-0.283606 0.215821,-1.654395 -0.08745,-2.780112 -1.010631,-12.769659 -1.197368,-12.956397 -0.08514,-0.08514 -0.394124,0.04809 -0.859319,0.370518 -0.274558,0.190298 -0.373525,0.163433 -0.653383,-0.17737 -0.392494,-0.477966 -0.897843,-0.528296 -0.896164,-0.08925 6.58e-4,0.171812 0.07955,2.240247 0.175328,4.596522 0.09577,2.356276 0.115317,5.678507 0.04343,7.382737 -0.117406,2.783409 -0.09904,3.146562 0.180508,3.570114 0.440232,0.667 0.396941,1.406042 -0.108747,1.856471 l -0.422309,0.37616 0.529301,0.964458 c 0.42178,0.768539 0.506998,1.097322 0.419506,1.618522 -0.135579,0.80766 -0.284454,2.298901 -0.284697,2.851734 -9.9e-5,0.226937 -0.120181,0.644668 -0.266848,0.92829 -0.146667,0.283623 -0.266668,0.708036 -0.266668,0.943141 0,0.235104 -0.163365,0.575307 -0.363035,0.756005 l -0.363035,0.328542 0.463422,0.369521 c 0.988489,0.788193 0.678462,2.754072 -0.401762,2.547574 -0.367351,-0.07022 -0.406624,-0.01 -0.406624,0.623567 0,0.607064 0.04545,0.686875 0.338202,0.593957 0.402484,-0.127743 0.911338,0.319869 0.911338,0.801657 0,0.184724 0.09419,0.542588 0.209313,0.795253 0.16842,0.369642 0.154661,0.573997 -0.07043,1.046011 -0.200952,0.421402 -0.229197,0.676934 -0.100285,0.907287 0.218689,0.390776 -0.05077,1.074257 -0.520646,1.320622 -0.467685,0.245215 -1.124506,-0.05677 -1.124506,-0.517009 0,-0.318453 0.07435,-0.363454 0.446264,-0.27011 0.523034,0.131274 0.644542,-0.316031 0.138589,-0.510183 -0.700678,-0.268876 -1.036879,1.353727 -0.496864,2.398001 0.146573,0.28344 0.215528,0.648164 0.153235,0.810498 -0.08769,0.228504 -0.01686,0.287058 0.313648,0.259307 0.715371,-0.06007 0.844574,-0.01064 0.965145,0.36925 0.13894,0.437761 -0.186519,0.883962 -0.644762,0.883962 -0.181813,0 -0.445953,0.220901 -0.586976,0.490891 -0.141024,0.26999 -0.50456,0.726816 -0.80786,1.015176 -0.303299,0.28836 -0.548908,0.69 -0.545798,0.892531 0.005,0.32441 0.05279,0.30488 0.401638,-0.164081 0.936635,-1.25913 1.116673,-1.401419 1.61493,-1.276364 0.931495,0.233794 0.481108,1.383985 -0.991051,2.530935 -0.816365,0.63602 -1.226869,1.28122 -1.468766,2.3085 l -0.125195,0.53167 0.451377,-0.48704 c 0.567298,-0.61213 1.253476,-0.63851 1.630758,-0.0627 0.227202,0.34676 0.239035,0.50994 0.06471,0.89253 -0.121591,0.26687 -0.359617,0.46819 -0.553537,0.46819 -0.500982,0 -0.345047,0.85894 0.234062,1.28928 0.370447,0.27529 0.581353,0.3117 1.070761,0.18489 0.777633,-0.20151 0.950487,-0.7572 0.219622,-0.70604 -0.446756,0.0313 -0.502154,-0.0239 -0.502154,-0.50037 0,-0.48547 0.05981,-0.54053 0.640049,-0.58917 0.737718,-0.0618 1.080348,0.24062 1.118004,0.98693 0.03511,0.69591 0.47838,1.01317 0.791326,0.56638 0.130737,-0.18665 0.373722,-0.34292 0.539966,-0.34726 0.168199,-0.004 0.002,-0.16634 -0.374636,-0.36512 -0.372295,-0.19648 -0.763783,-0.57449 -0.869975,-0.84002 -0.130955,-0.32744 -0.20711,-4.761531 -0.236696,-13.781451 -0.02399,-7.314271 -0.103506,-13.680232 -0.176701,-14.146578 -0.07958,-0.507016 -0.06529,-0.847902 0.03553,-0.847902 0.360584,0 0.569393,0.882759 0.654471,2.766839 0.101898,2.256549 0.112884,2.323765 0.264983,1.621278 0.06202,-0.286435 0.216648,-0.555354 0.343623,-0.597597 0.182891,-0.06085 0.206772,0.251383 0.114925,1.502573 -0.103915,1.41558 0.09232,7.404232 0.395389,12.066588 0.09746,1.499288 0.07493,1.740431 -0.162615,1.740431 -0.359029,0 -0.447519,-0.908348 -0.5959,-6.11684 -0.06887,-2.417507 -0.188903,-4.109219 -0.296273,-4.175577 -0.189766,-0.117282 -0.123682,2.864719 0.232047,10.470922 0.233381,4.990144 0.513701,6.972974 0.468971,3.317242 -0.02264,-1.850302 0.02652,-2.503168 0.192642,-2.558551 0.325987,-0.108677 0.371853,0.131692 0.587553,3.079182 0.29704,4.058971 0.420051,5.009771 0.690269,5.335361 0.217395,0.26195 0.17925,0.35899 -0.314335,0.79966 -0.308965,0.27585 -0.561755,0.56801 -0.561755,0.64924 0,0.0812 0.05073,0.097 0.112723,0.035 0.171136,-0.17114 0.779806,0.21059 0.779806,0.48905 0,0.15937 0.128473,0.21117 0.368199,0.14848 0.248074,-0.0649 0.455209,0.0279 0.634892,0.28447 0.280295,0.40018 0.519819,0.482 0.675168,0.23064 z M 51.255295,73.789228 c -0.146656,-0.237293 -0.172254,-13.504191 -0.02651,-13.740008 0.06881,-0.111331 0.190211,-0.20242 0.269787,-0.20242 0.14259,0 0.309018,2.772503 0.428615,7.140229 0.0336,1.227227 0.126449,3.295662 0.206324,4.596522 l 0.145226,2.365201 h -0.462425 c -0.254333,0 -0.50679,-0.07179 -0.561015,-0.159524 z m 2.398095,30.342412 c 0,-0.19265 -0.08205,-0.15622 -0.277881,0.12337 -0.366135,0.52273 -0.547017,0.50044 -0.764185,-0.0942 -0.15805,-0.43274 -0.180958,-0.44451 -0.193381,-0.0994 -0.0078,0.21554 0.166397,0.51794 0.387466,0.67278 0.368157,0.25787 0.420127,0.25587 0.62477,-0.024 0.122766,-0.16789 0.223211,-0.42827 0.223211,-0.57861 z m -1.304343,-1.21694 c -0.04526,-0.17368 -0.08526,-0.0748 -0.0889,0.21974 -0.0036,0.29453 0.03339,0.43663 0.08229,0.31578 0.0489,-0.12085 0.05187,-0.36184 0.0066,-0.53552 z m 0.613702,-1.03477 -0.166025,-0.70906 -0.01793,0.81816 c -0.0099,0.44998 0.04232,0.87891 0.115949,0.95316 0.214789,0.21662 0.247569,-0.29539 0.06801,-1.06226 z m -0.615465,0.23926 c -0.05698,-0.1424 -0.09928,-0.10011 -0.107847,0.10784 -0.0078,0.18818 0.03444,0.29361 0.09375,0.23429 0.05932,-0.0593 0.06566,-0.21327 0.01409,-0.34213 z m -2.723562,-2.381131 c 0.668455,-1.02019 0.209943,-0.74519 -0.818444,0.490881 l -0.774817,0.93129 0.656106,-0.49662 c 0.360859,-0.27314 0.782579,-0.689641 0.937155,-0.925551 z m 6.529409,-0.70855 c -0.230221,-0.24506 -0.463923,-0.40022 -0.51934,-0.3448 -0.05542,0.0554 0.09886,0.25413 0.34284,0.44159 0.609743,0.46849 0.674296,0.43309 0.1765,-0.0968 z m -0.692534,-7.813304 c -0.176295,-0.174983 -0.196799,-0.15448 -0.09993,0.09993 0.06703,0.176046 0.166847,0.275117 0.221807,0.220158 0.05496,-0.05496 1.13e-4,-0.198998 -0.121881,-0.320084 z m -5.612393,-0.878397 c -0.05698,-0.1424 -0.09928,-0.100102 -0.107847,0.107847 -0.0078,0.188175 0.03444,0.293605 0.09376,0.234289 0.05932,-0.05932 0.06566,-0.213277 0.01409,-0.342136 z m 6.304265,-0.502047 c 0,-0.196357 -0.08033,-0.357012 -0.178505,-0.357012 -0.09818,0 -0.178506,0.160655 -0.178506,0.357012 0,0.196356 0.08033,0.357011 0.178506,0.357011 0.09818,0 0.178505,-0.160655 0.178505,-0.357011 z m -6.156098,-3.178904 c -0.10675,-0.275272 -0.139635,-0.271335 -0.372108,0.04454 -0.333808,0.453573 -0.321672,0.595698 0.05738,0.671911 0.34868,0.07011 0.492659,-0.257645 0.314733,-0.716456 z m 5.26357,-2.801038 c 0,-0.245445 -0.07363,-0.446264 -0.16363,-0.446264 -0.209084,0 -0.343713,0.379868 -0.237241,0.669396 0.142088,0.386376 0.400871,0.242333 0.400871,-0.223132 z m -0.0027,-1.74043 c -0.0021,-0.313582 -0.03869,-0.344803 -0.166728,-0.142403 -0.0902,0.14258 -0.124389,0.323317 -0.07598,0.401638 0.15483,0.25052 0.245522,0.153654 0.242712,-0.259235 z m -0.311029,-1.94709 c -0.101641,-0.101641 -0.247582,-0.06656 -0.378287,0.09093 -0.168397,0.202906 -0.146331,0.323199 0.105744,0.576474 0.30618,0.307636 0.320866,0.304106 0.378286,-0.09093 0.03286,-0.226045 -0.01473,-0.485459 -0.105743,-0.576474 z m -0.403841,-1.136448 c -0.12419,-0.14964 -0.26256,-0.235312 -0.30749,-0.190382 -0.123793,0.123794 0.127728,0.462454 0.343462,0.462454 0.118366,0 0.104824,-0.102423 -0.03597,-0.272072 z m -4.727808,-2.942628 c -0.186236,-0.301336 0.09865,-0.925898 0.374125,-0.82019 0.138398,0.05311 0.251632,0.02735 0.251632,-0.05725 0,-0.388639 -0.55815,-0.337632 -0.742919,0.06789 -0.184371,0.404651 -0.111615,0.989646 0.123082,0.989646 0.05797,0 0.0553,-0.08105 -0.0059,-0.180103 z m 4.290949,-0.745655 c 0.07248,0.06736 0.03442,-0.06449 -0.08459,-0.293 -0.135192,-0.259594 -0.317179,-0.376801 -0.485044,-0.312385 -0.147767,0.0567 -0.302262,0.103098 -0.343321,0.103098 -0.04106,0 -0.07465,0.158667 -0.07465,0.352593 0,0.298308 0.06588,0.327545 0.42791,0.189902 0.23535,-0.08948 0.487213,-0.107574 0.559696,-0.04021 z M 51.811767,58.385285 c -0.05698,-0.1424 -0.09928,-0.100102 -0.107847,0.107847 -0.0078,0.188175 0.03444,0.293605 0.09375,0.234289 0.05932,-0.05932 0.06566,-0.213277 0.01409,-0.342136 z m 0.859842,-3.712716 c 0.294534,-0.193724 0.870505,-0.735406 1.279936,-1.203738 0.590591,-0.675555 0.790623,-0.806404 0.968014,-0.633222 0.175075,0.170922 0.177697,0.325863 0.01208,0.714023 -0.183253,0.429504 -0.126787,0.400342 0.422658,-0.21829 1.356369,-1.527164 1.5531,-2.048403 1.707808,-4.524853 0.132612,-2.122759 -0.08591,-11.800066 -0.29285,-12.968707 -0.07921,-0.447349 -0.60433,-9.602712 -0.613792,-10.701418 -0.002,-0.23141 -0.06267,-0.288419 -0.181006,-0.170077 -0.299623,0.299623 -0.751194,11.512789 -0.685677,17.026381 0.0554,4.661943 0.03534,5.088773 -0.241651,5.14314 -0.401454,0.0788 -0.775363,-0.687124 -0.94047,-1.926476 C 53.946576,44.007664 53.73946,39.785795 53.476152,32.35692 53.366538,29.264309 53.211186,26.211861 53.130925,25.573703 l -0.145928,-1.160287 -0.02178,1.517298 c -0.09561,6.660951 -0.219582,10.72248 -0.375954,12.316895 -0.106083,1.081651 -0.134289,3.247419 -0.0667,5.121144 0.103376,2.865669 0.08196,3.300503 -0.182416,3.703994 -0.636488,0.971403 -1.042472,0.414765 -1.511548,-2.072456 -0.209764,-1.112254 -0.458539,-2.705065 -0.552831,-3.539579 -0.239379,-2.118575 -0.449818,-8.083607 -0.454395,-12.880141 -0.0021,-2.22426 -0.0514,-4.014659 -0.109507,-3.978666 -0.205736,0.127442 -0.682702,12.908523 -0.691195,18.52172 -0.0064,4.206293 -0.09822,4.941798 -0.617144,4.941798 -0.293979,0 -0.817335,-1.052942 -0.817335,-1.6444 0,-0.236587 -0.153278,-1.549852 -0.340618,-2.918367 -0.216949,-1.584804 -0.448371,-5.210265 -0.637396,-9.985449 -0.453312,-11.451629 -0.617264,-11.157234 -0.994119,1.785057 -0.230184,7.905192 -0.135668,9.351374 0.817907,12.514672 0.570199,1.89152 1.815079,4.823802 1.978523,4.660358 0.03417,-0.03417 -0.01683,-0.337422 -0.113327,-0.673895 -0.0965,-0.336473 -0.175453,-0.959581 -0.175453,-1.384685 0,-0.638216 0.05411,-0.762497 0.310477,-0.713125 0.216588,0.04171 0.346553,0.302076 0.429777,0.860991 0.190656,1.280416 1.199215,3.701679 1.708909,4.102605 0.577296,0.4541 1.415419,0.455449 2.102733,0.0034 z m 17.901475,49.220521 c -0.174628,-0.30573 -0.240134,-2.17068 -0.27431,-7.809629 -0.04903,-8.090172 0.204395,-13.382351 0.647897,-13.529697 0.26119,-0.08678 0.218132,1.376339 -0.167024,5.675445 -0.09235,1.030871 -0.154911,2.436603 -0.139013,3.12385 0.02761,1.193685 0.03677,1.163762 0.204735,-0.669396 0.135794,-1.482008 0.235105,-1.918937 0.43616,-1.918937 0.263681,0 0.245157,1.168982 -0.06869,4.334841 -0.08053,0.812293 -0.05088,1.021672 0.139009,0.981782 0.181527,-0.03813 0.254324,0.268023 0.293639,1.234925 0.03983,0.979512 0.108623,1.264007 0.288925,1.194818 0.356252,-0.136706 0.421824,0.402204 0.241185,1.982196 -0.0898,0.785421 -0.120604,2.095012 -0.06846,2.910192 0.09848,1.53955 -0.01104,2.09511 -0.511724,2.59579 -0.405894,0.40589 -0.750263,0.37012 -1.022327,-0.10618 z m 0.550951,-2.49908 c -0.02202,-1.929891 -0.02978,-1.968131 -0.198934,-0.98067 -0.156211,0.91188 -0.05514,2.98886 0.145438,2.98886 0.04203,0 0.0661,-0.90369 0.0535,-2.00819 z m 0.510197,-4.012401 c -0.03864,-0.370358 -0.07091,-0.111085 -0.0717,0.576162 -7.92e-4,0.687247 0.03082,0.990268 0.07026,0.673378 0.03943,-0.316889 0.04008,-0.879182 0.0014,-1.24954 z m -0.534857,-1.695068 c -0.03771,-0.419852 -0.06909,-0.120747 -0.06974,0.664678 -6.48e-4,0.785426 0.0302,1.128941 0.06856,0.763368 0.03836,-0.365573 0.03889,-1.008193 0.0012,-1.428046 z m 2.123793,6.623869 c -0.2047,-0.29225 -0.220709,-0.47409 -0.07072,-0.80328 0.254183,-0.55787 0.897485,-0.55871 1.195662,-0.002 0.478305,0.89372 -0.548255,1.62817 -1.12494,0.80484 z M 70.615867,77.798295 c -0.118693,-0.312188 -0.111039,-0.598946 0.02389,-0.895086 0.295128,-0.647736 0.68823,-0.712486 1.202624,-0.198093 l 0.450193,0.450194 -0.36759,0.494163 c -0.503208,0.676478 -1.083425,0.742438 -1.309118,0.148822 z m 0.388276,-2.278693 c -0.353806,-0.353806 -0.242907,-0.851404 0.238651,-1.070817 0.370495,-0.168809 0.505367,-0.153827 0.741568,0.08237 0.265942,0.265943 0.265098,0.324746 -0.01071,0.745681 -0.326416,0.498173 -0.636465,0.575809 -0.96951,0.242763 z m -0.228289,-2.374126 c -0.01399,-0.09818 -0.01,-0.365651 0.009,-0.594385 0.01892,-0.228734 -0.08656,-0.50988 -0.234393,-0.62477 -0.204489,-0.158917 -0.314856,-0.913518 -0.461335,-3.154235 -0.105898,-1.619939 -0.24375,-3.407228 -0.306338,-3.971752 -0.09581,-0.864138 -0.06925,-1.026408 0.167997,-1.026408 0.287151,0 0.412919,0.539792 0.540679,2.320574 0.0317,0.441802 0.07289,-0.120491 0.09155,-1.24954 0.03177,-1.922523 0.197257,-2.746788 0.492255,-2.45179 0.06941,0.06941 0.152384,2.403672 0.184381,5.187244 0.04834,4.205068 0.0145,5.118757 -0.200073,5.402304 -0.142038,0.187695 -0.269697,0.260936 -0.283687,0.162758 z"
       id="path1" /></g></svg>
