<?xml version="1.0" encoding="UTF-8" standalone="no"?>
<!-- Created with Inkscape (http://www.inkscape.org/) -->

<svg
   width="120"
   height="120"
   viewBox="0 0 120 120"
   version="1.1"
   id="svg1"
   xml:space="preserve"
   inkscape:export-filename="glasses.svg"
   inkscape:export-xdpi="96"
   inkscape:export-ydpi="96"
   xmlns:inkscape="http://www.inkscape.org/namespaces/inkscape"
   xmlns:sodipodi="http://sodipodi.sourceforge.net/DTD/sodipodi-0.dtd"
   xmlns="http://www.w3.org/2000/svg"
   xmlns:svg="http://www.w3.org/2000/svg"><sodipodi:namedview
     id="namedview1"
     pagecolor="#ffffff"
     bordercolor="#000000"
     borderopacity="0.25"
     inkscape:showpageshadow="2"
     inkscape:pageopacity="0.0"
     inkscape:pagecheckerboard="0"
     inkscape:deskcolor="#d1d1d1"
     inkscape:document-units="px"><inkscape:page
       x="0"
       y="0"
       width="120"
       height="120"
       id="page2"
       margin="0"
       bleed="0" /></sodipodi:namedview><defs
     id="defs1" /><g
     inkscape:label="Layer 1"
     inkscape:groupmode="layer"
     id="layer1"><path
       style="fill:#000000"
       d="m 57.137271,112.22212 c -0.765841,-0.38791 -1.425271,-0.88398 -1.4654,-1.10238 -0.08414,-0.45791 1.42998,-1.26994 2.36795,-1.26994 0.963451,0 4.692847,-1.52049 4.90955,-2.00164 0.107702,-0.23913 0.244556,-3.34889 0.304121,-6.91057 0.08911,-5.328538 0.171917,-6.475776 0.467401,-6.475776 0.197506,0 0.367971,0.144262 0.378811,0.320583 0.01084,0.17632 0.155103,-0.118899 0.320584,-0.656043 0.26538,-0.861417 0.478033,-1.04843 1.802657,-1.585301 1.916034,-0.77657 3.860081,-2.829276 5.325759,-5.623434 0.877016,-1.671937 1.01309,-2.113165 0.771165,-2.500548 -0.248919,-0.398584 -0.213755,-0.470384 0.23037,-0.470384 0.288272,0 0.797627,0.179202 1.131902,0.398227 0.334274,0.219025 0.935365,0.363288 1.335756,0.320583 0.651349,-0.06947 0.744855,0.01685 0.888242,0.819989 l 0.160258,0.897633 0.03376,-0.802445 c 0.02144,-0.509715 -0.29744,-1.351737 -0.874148,-2.308198 -0.49935,-0.828165 -0.973501,-1.765427 -1.053669,-2.082804 -0.183126,-0.724977 -0.552857,-0.716272 -2.783052,0.06552 -3.529064,1.237115 -12.089485,1.510569 -15.644457,0.499746 -0.846339,-0.240648 -2.037524,-0.521365 -2.647077,-0.623815 -1.09735,-0.184437 -1.106628,-0.179693 -0.941019,0.481127 0.09199,0.36707 0.401231,1.211576 0.687199,1.876678 l 0.51994,1.209278 0.951169,-0.48525 c 0.523143,-0.266888 1.101842,-0.6668 1.285998,-0.888695 0.184156,-0.221894 0.493813,-0.403444 0.688126,-0.403444 0.424843,0 0.471216,0.666249 0.0639,0.917987 -0.193272,0.119449 -0.12938,0.272975 0.19235,0.462197 0.639288,0.375991 10.730565,0.509355 11.752804,0.155322 0.58811,-0.20368 0.839949,-0.177778 1.1344,0.116673 0.333654,0.333654 0.295308,0.410093 -0.323806,0.64548 -0.927881,0.352779 -10.402834,0.34659 -12.321252,-0.008 -1.102251,-0.203762 -1.675608,-0.197308 -2.212068,0.0249 l -0.72416,0.299956 0.649579,1.321548 c 0.836932,1.702711 2.931371,3.239646 5.728696,4.203815 1.872897,0.645542 2.429481,1.087791 1.832982,1.456447 -0.418176,0.258447 -4.264683,-1.212144 -5.676591,-2.170266 -1.786396,-1.212252 -2.310478,-1.800641 -3.302065,-3.707248 l -0.800299,-1.538799 -5.5e-4,5.931732 -5.5e-4,5.931731 0.705283,0.27824 c 0.387906,0.153031 1.774761,0.392238 3.0819,0.53157 1.307139,0.139332 2.490091,0.323462 2.628781,0.409177 0.416328,0.257305 0.284506,1.155155 -0.196651,1.339413 -0.246849,0.09453 -0.840004,0.437138 -1.318122,0.761348 -0.595819,0.40403 -1.2413,0.58949 -2.051732,0.58952 -0.650334,2e-5 -2.087006,0.17314 -3.192603,0.3847 -3.371576,0.64517 -5.809082,0.42571 -8.030458,-0.72301 -0.94133,-0.48678 -1.710762,-1.338718 -1.575515,-1.744459 0.106636,-0.319908 3.426358,-1.239294 4.503089,-1.247116 0.582852,-0.0042 3.268914,-1.389128 3.537657,-1.823963 0.262399,-0.424571 0.882505,-0.239305 0.882505,0.263661 0,0.289702 -0.239771,0.570436 -0.577049,0.675634 -0.317378,0.09899 -1.052762,0.519653 -1.634188,0.934804 -0.797066,0.569124 -1.510927,0.8118 -2.901703,0.986432 -1.014511,0.127387 -1.959477,0.302631 -2.099924,0.389432 -0.400171,0.24732 0.511847,0.806619 2.303308,1.412515 1.532647,0.51836 1.770849,0.53181 3.975231,0.22449 1.28969,-0.17979 3.112104,-0.39556 4.049809,-0.47948 2.44819,-0.219088 3.742348,-1.543891 1.521921,-1.557952 -1.394045,-0.0088 -3.778142,-0.584299 -4.347023,-1.04928 -0.493072,-0.403018 -0.548628,-0.566978 -0.295473,-0.872011 0.413455,-0.498183 0.09711,-2.9555 -0.380483,-2.9555 -0.264621,0 -0.35851,-1.120754 -0.435072,-5.193447 -0.0537,-2.856395 -0.05386,-5.285608 -3.59e-4,-5.39825 0.169467,-0.356812 0.821005,0.37338 0.821005,0.920117 0,0.288351 0.06564,0.458632 0.145873,0.378402 0.08023,-0.08023 0.02721,-0.787766 -0.117818,-1.572303 -0.208103,-1.12573 -0.187797,-1.572716 0.09633,-2.12036 0.261303,-0.503663 0.287542,-0.829347 0.09569,-1.187815 -0.213458,-0.398851 -0.149684,-0.575537 0.331433,-0.918226 0.834322,-0.594269 3.763053,-1.834907 4.3316,-1.834907 0.25983,0 0.543744,-0.11541 0.630922,-0.256467 0.08856,-0.143293 -0.108472,-0.256466 -0.446504,-0.256466 -0.332755,0 -0.749646,-0.144263 -0.926426,-0.320583 -0.220274,-0.219703 -1.26096,-0.320584 -3.307129,-0.320584 h -2.985711 l 1.332337,0.381377 c 0.777312,0.222502 1.332336,0.528764 1.332336,0.735181 0,0.254149 -0.198656,0.308308 -0.705283,0.192278 -1.914498,-0.438464 -5.25039,-0.928488 -7.317914,-1.074961 l -2.305549,-0.163335 0.165323,0.658702 c 0.09093,0.362286 0.275796,0.949265 0.410817,1.304397 l 0.245492,0.645694 3.817421,-0.08346 c 2.902425,-0.06345 4.02051,-0.184773 4.664726,-0.50615 1.101255,-0.549378 1.281434,-0.533314 1.281434,0.114251 0,0.321254 -0.206045,0.590825 -0.512933,0.671078 -0.399997,0.104602 -0.512933,0.349825 -0.512933,1.113755 0,2.172781 -2.629244,7.079988 -4.423196,8.255431 -0.759035,0.497339 -4.477127,1.989652 -4.95721,1.989652 -0.200927,0 -0.365321,-0.173115 -0.365321,-0.3847 0,-0.211585 0.03321,-0.3847 0.07379,-0.3847 0.510008,0 4.554116,-1.956039 5.074114,-2.454229 0.998079,-0.95622 2.479881,-3.190505 2.695104,-4.06372 0.157918,-0.640716 0.120813,-0.723119 -0.259837,-0.577049 -0.244235,0.09372 -0.679575,0.170402 -0.967423,0.170402 -0.442522,0 -0.472652,0.0611 -0.195067,0.39557 0.62223,0.749741 -0.0877,0.905309 -1.556911,0.341166 -1.249093,-0.479622 -1.666387,-0.514943 -3.837906,-0.324849 -3.346803,0.292979 -8.698334,0.228227 -9.553378,-0.115592 -1.519971,-0.611191 -0.713107,-0.806114 3.077598,-0.743489 4.95924,0.08193 12.077609,-0.245388 13.101878,-0.60245 0.697146,-0.243026 0.81143,-0.40613 0.81143,-1.158051 v -0.875185 l -5.193446,0.02036 c -5.267453,0.02066 -11.300599,-0.330928 -13.113345,-0.764184 l -0.995301,-0.237882 0.141262,1.583474 c 0.243627,2.730929 0.846263,4.203904 2.376149,5.807829 1.14798,1.203537 1.735307,1.580625 3.503777,2.249571 1.168536,0.442014 2.384284,0.876278 2.701661,0.965031 0.317377,0.08875 0.57705,0.326709 0.57705,0.528788 0,0.59185 -0.982901,0.435228 -3.581508,-0.570701 -2.663946,-1.031223 -4.525978,-2.48814 -5.42019,-4.240942 -0.642058,-1.258537 -1.248415,-3.871457 -1.253172,-5.400183 -0.0032,-1.03359 -0.07923,-1.218216 -0.501588,-1.218216 -1.266339,0 -0.428275,-1.169553 1.39893,-1.952264 1.868694,-0.800483 3.208956,-0.987626 7.771895,-1.085203 1.819853,-0.03892 1.871341,-0.0576 1.700813,-0.617181 -0.09672,-0.317377 -0.351243,-0.776852 -0.565611,-1.021055 -0.59925,-0.682652 -0.03086,-1.127848 1.670637,-1.308545 0.809981,-0.08602 1.963184,-0.232572 2.562674,-0.325675 0.895406,-0.139059 1.089983,-0.09665 1.089983,0.23757 0,0.411426 -0.314815,0.508658 -2.949365,0.910926 l -1.282332,0.195799 1.538799,0.334843 c 1.40838,0.306463 1.701822,0.287216 3.462298,-0.227102 1.057924,-0.30907 2.470361,-0.929369 3.138749,-1.378443 L 49.71194,70.738698 49.65079,65.27543 49.58964,59.812162 48.107267,59.209855 c -1.798769,-0.730863 -5.349015,-3.560674 -6.358726,-5.068381 -0.404787,-0.604431 -0.920263,-1.34933 -1.145502,-1.655332 -1.134256,-1.540964 -2.088773,-5.942724 -1.383229,-6.378774 0.405069,-0.250347 0.487497,-0.07832 0.756354,1.578467 0.134741,0.830322 0.378014,1.831735 0.540606,2.225362 0.274938,0.665609 0.370684,0.704429 1.368417,0.554809 0.590037,-0.08848 1.5645,-0.02847 2.165473,0.133353 0.816635,0.219897 7.352538,0.787745 7.635558,0.663387 0.02467,-0.01084 -0.157544,-0.759068 -0.404909,-1.662733 -0.351079,-1.282547 -0.585993,-1.695286 -1.070712,-1.881217 -0.341526,-0.131004 -2.352106,-0.291726 -4.467955,-0.357161 -4.852607,-0.150071 -5.081333,-0.193931 -4.858609,-0.931682 0.0944,-0.312678 0.262543,-0.66662 0.37366,-0.786538 0.228449,-0.246544 8.131271,-0.916634 10.948916,-0.928371 1.336556,-0.0056 2.501523,-0.219663 4.211937,-0.77406 3.265682,-1.058509 4.261942,-2.05752 5.112409,-5.126534 0.273521,-0.987032 0.49731,-2.418071 0.49731,-3.180086 0,-1.719699 -0.682368,-5.402779 -1.178858,-6.362886 -0.524307,-1.013897 -2.102506,-1.94668 -4.042556,-2.389323 -3.601201,-0.821652 -7.122192,-5.514446 -6.673769,-8.894831 0.09009,-0.679154 0.264347,-1.234825 0.387232,-1.234825 0.263478,0 0.266147,0.01304 0.341234,1.667032 0.03307,0.728472 0.31237,1.778573 0.646653,2.43126 2.030867,3.965271 5.607417,6.011664 10.520064,6.019259 2.352943,0.0036 2.511555,-0.03348 4.628687,-1.083262 2.442755,-1.21124 3.930819,-2.574354 4.96062,-4.544085 0.539733,-1.032363 0.669354,-1.635443 0.669354,-3.114276 0,-1.351854 0.0962,-1.8709 0.365948,-1.974411 0.728238,-0.279451 0.978153,0.499937 0.786277,2.452089 -0.341742,3.476889 -2.478293,6.264355 -6.13875,8.008959 -3.364519,1.603559 -3.989803,2.765433 -3.989803,7.413671 0,4.106087 0.562862,6.142337 2.138913,7.737883 1.335248,1.351766 3.650884,2.27815 5.087762,2.035391 0.536363,-0.09062 2.216999,-0.03293 3.734745,0.128197 1.517746,0.161127 4.548392,0.373047 6.734769,0.470933 l 3.975231,0.177975 -0.07889,1.538799 c -0.04339,0.84634 -0.370945,2.435332 -0.727903,3.531094 -1.090905,3.348785 -3.322718,5.80527 -7.386959,8.130594 l -1.373643,0.785918 -0.08917,5.573657 c -0.04904,3.065511 -0.170643,5.698676 -0.270225,5.851478 -0.09958,0.152802 -0.538521,0.225358 -0.97542,0.161235 l -0.794362,-0.116588 0.04503,-5.766442 0.04503,-5.766441 -1.116729,-0.499975 c -0.614201,-0.274985 -1.316147,-0.680445 -1.55988,-0.901021 -0.40551,-0.366981 -0.601964,-0.322862 -2.312811,0.519397 -1.028312,0.506244 -2.420354,1.113629 -3.093426,1.349745 -0.904659,0.317357 -1.190944,0.536695 -1.097891,0.841154 0.115948,0.37937 0.359786,6.274223 0.409556,9.901114 0.01554,1.132249 0.07967,1.393713 0.242743,0.989645 0.185284,-0.459104 0.529577,-0.584144 2.099592,-0.762529 1.032881,-0.117356 2.087543,-0.187627 2.343694,-0.156156 0.25615,0.03147 0.701327,-0.06887 0.989283,-0.22298 0.677289,-0.362474 1.214022,0.07566 0.761155,0.621334 -0.194132,0.233915 -1.119682,0.426855 -2.605089,0.543056 -1.267186,0.09913 -2.303975,0.265164 -2.303975,0.368964 0,0.334441 2.525758,0.847932 3.316512,0.674253 0.421196,-0.09251 1.347051,-0.4486 2.057456,-0.791311 1.298203,-0.626273 2.320027,-0.806685 2.320027,-0.409621 0,0.413158 -4.312066,2.09471 -5.371541,2.09471 -1.587693,0 -1.244591,0.363752 0.81926,0.86857 2.577405,0.630433 5.496276,0.801411 7.425166,0.434943 2.697087,-0.512418 2.77504,-0.569572 1.293849,-0.948636 -1.511671,-0.386865 -3.397335,-1.528026 -3.397335,-2.05599 0,-0.536197 0.453804,-0.42367 1.625106,0.402966 1.067028,0.753046 3.155272,1.294042 5.026009,1.302074 2.149324,0.0092 1.831404,0.877929 -0.51538,1.408251 -1.634809,0.369431 -1.621746,0.370901 1.686494,0.189748 5.926022,-0.324497 11.645491,0.05969 12.42008,0.83428 0.470779,0.470779 0.269856,0.668829 -0.940372,0.926926 -0.715376,0.152563 -0.576294,0.169702 0.538338,0.06634 l 1.502919,-0.139371 -0.177861,1.881364 c -0.478821,5.064844 -1.661641,8.070969 -3.815552,9.697188 -1.47546,1.113983 -2.921191,1.801671 -3.787666,1.801671 h -0.560018 l 0.182222,6.045445 c 0.100223,3.324996 0.245462,6.210244 0.322754,6.411664 0.08387,0.21857 -0.01702,0.36622 -0.250236,0.36622 -0.214922,0 -0.516927,-0.31738 -0.671123,-0.70528 l -0.280355,-0.70529 0.12132,0.81843 c 0.105249,0.71001 0.0081,0.88838 -0.733037,1.34645 -0.469898,0.29041 -1.071556,0.52772 -1.33702,0.52735 -0.265464,-3.7e-4 -1.232826,0.1681 -2.149694,0.37437 -0.916867,0.20627 -2.22136,0.44539 -2.898872,0.53136 l -1.23184,0.15632 1.103607,0.83091 c 1.825469,1.3744 2.582396,1.57146 5.97647,1.55593 3.192321,-0.0146 5.03602,-0.32621 7.116946,-1.20289 2.217237,-0.93411 1.271103,-1.46736 -2.613684,-1.47311 -1.662726,-0.002 -1.847565,0.0417 -1.43583,0.34273 0.688113,0.50316 0.198239,0.71576 -2.542746,1.10349 -2.719286,0.38466 -4.741729,0.42888 -5.238057,0.11451 -0.68809,-0.43583 0.01444,-0.79415 1.557037,-0.79415 1.996716,0 3.567637,-0.45288 3.478714,-1.00288 -0.05701,-0.35263 0.397227,-0.41738 3.363699,-0.47946 3.05777,-0.064 3.551333,-0.0129 4.552281,0.47169 2.330631,1.12824 0.988336,2.40462 -3.663519,3.48362 -1.408151,0.32662 -2.937607,0.45813 -5.106892,0.43912 -3.569516,-0.0313 -4.617165,-0.36641 -6.520778,-2.08585 -1.532538,-1.38426 -1.288571,-1.89187 1.051649,-2.18808 0.902687,-0.11426 2.357428,-0.37394 3.232757,-0.57705 0.875328,-0.20312 1.861782,-0.36931 2.19212,-0.36931 0.578932,0 0.597538,-0.0625 0.515442,-1.73115 -0.04684,-0.952132 -0.196575,-2.643927 -0.332737,-3.759544 -0.136163,-1.115617 -0.247568,-3.384133 -0.247568,-5.041147 V 89.12415 L 83.795251,88.943291 C 82.18486,88.721806 80.272452,87.886547 78.570352,86.661275 l -1.282332,-0.923098 -0.209982,1.733037 c -0.126941,1.047675 -0.104849,2.392295 0.05586,3.400069 0.146214,0.916867 0.34053,2.558338 0.431813,3.647712 0.100028,1.193735 0.307045,2.097763 0.521048,2.275369 0.439005,0.364342 3.648048,1.057356 3.971236,0.857615 0.483346,-0.298724 1.256984,0.17821 1.256984,0.774909 0,0.76929 -0.354329,0.888027 -3.176393,1.064418 -1.2857,0.08036 -2.698303,0.255303 -3.139118,0.388759 -0.922576,0.279305 -6.414557,0.346465 -7.084863,0.08664 -0.518815,-0.201106 -0.59872,-1.020805 -0.128234,-1.31547 0.176321,-0.11043 1.518804,-0.169705 2.983296,-0.131722 l 2.662712,0.06906 -0.116879,-6.31607 c -0.124227,-6.713117 -0.136702,-6.773998 -1.389932,-6.78309 -0.404572,-0.0029 -0.754697,0.400997 -1.385991,1.598989 -0.464571,0.881603 -1.086553,1.949145 -1.382182,2.372315 -0.295629,0.423169 -0.537508,1.057924 -0.537508,1.410566 0,0.558216 -0.334874,0.804399 -2.588446,1.902891 l -2.588446,1.261725 0.02378,7.521211 c 0.01308,4.13666 0.08149,7.52554 0.152015,7.53084 2.62541,0.19707 6.776386,0.20903 7.128599,0.0205 0.280307,-0.15001 0.612014,-0.15695 0.835681,-0.0175 0.885672,0.55228 -0.981007,1.91811 -3.855647,2.82114 -1.083491,0.34037 -2.957891,0.60604 -5.385797,0.76338 -5.416266,0.35099 -5.644638,0.33661 -7.204359,-0.4534 z m 10.533255,-0.81357 c 0.775811,-0.13098 1.872205,-0.44724 2.436431,-0.70281 l 1.025866,-0.46466 -3.334064,-0.1664 c -1.833736,-0.0915 -3.334065,-0.1795 -3.334065,-0.19551 0,-0.016 0.01766,-2.77015 0.03925,-6.12032 0.0311,-4.827171 -0.004,-5.558992 -0.169078,-3.52654 -0.114577,1.41057 -0.171477,3.66106 -0.126444,5.0011 0.04503,1.34003 -0.03821,2.78906 -0.184984,3.22005 -0.29336,0.86143 -0.638948,0.99534 -6.226868,2.41275 l -0.769399,0.19516 0.897632,0.43016 c 0.7596,0.36402 1.469484,0.40902 4.616398,0.29266 2.04532,-0.0756 4.353518,-0.24466 5.12933,-0.37564 z M 87.082302,99.398794 c -0.06451,-0.246849 -0.117288,-0.04488 -0.117288,0.448816 0,0.4937 0.05278,0.69567 0.117288,0.44882 0.06451,-0.24685 0.06451,-0.650787 0,-0.897636 z m -10.627799,-0.23397 c -0.17632,-0.07115 -0.464845,-0.07115 -0.641166,0 -0.176321,0.07115 -0.03206,0.129358 0.320583,0.129358 0.352642,0 0.496904,-0.05821 0.320583,-0.129358 z m 4.062605,-0.579745 c -0.198793,-0.125846 -0.51617,-0.169436 -0.705283,-0.09687 -0.542331,0.208112 -0.404426,0.33387 0.361443,0.329605 0.513289,-0.0029 0.60689,-0.06621 0.34384,-0.232738 z m -2.588436,-0.491625 c 2.82e-4,-0.04792 -0.24518,-0.286074 -0.545472,-0.529236 -0.387588,-0.31385 -0.583215,-0.829558 -0.674311,-1.777607 -0.195128,-2.030736 -0.462984,-1.788641 -0.540615,0.48862 l -0.06941,2.036029 0.914645,-0.06534 c 0.503054,-0.03594 0.914876,-0.104547 0.915159,-0.152465 z m 8.720375,-8.104668 c 0,-0.20326 -0.11541,-0.440891 -0.256467,-0.528069 -0.141056,-0.08718 -0.256466,0.07913 -0.256466,0.369564 0,0.290438 0.11541,0.528069 0.256466,0.528069 0.141057,0 0.256467,-0.166304 0.256467,-0.369564 z m 1.464862,-1.749856 c 0.636772,-0.08096 1.705933,-0.542678 2.604627,-1.124807 1.200729,-0.777771 1.674881,-1.28702 2.232767,-2.398037 0.930235,-1.85254 1.648206,-4.623037 1.648206,-6.360078 v -1.393671 l -1.731149,0.16675 c -0.952132,0.09171 -3.173773,0.264839 -4.93698,0.384723 -1.763208,0.119885 -3.221087,0.231407 -3.239732,0.247826 -0.01865,0.01642 -0.249465,0.721328 -0.512933,1.566461 -0.345322,1.107701 -0.604309,1.537219 -0.927849,1.538799 -0.585131,0.0029 -0.563638,-0.617569 0.06975,-2.01343 0.279015,-0.614894 0.507252,-1.134239 0.507192,-1.154099 -6e-5,-0.01986 -1.644651,-0.03907 -3.654648,-0.04268 -2.009996,-0.0036 -4.054867,-0.09233 -4.544157,-0.197158 -0.699529,-0.149864 -0.82283,-0.1238 -0.57705,0.121981 0.432062,0.432062 0.391752,0.979381 -0.07213,0.979381 -0.613334,0 -0.45508,0.779229 0.602332,2.965821 1.672291,3.458086 5.248133,6.090398 8.850445,6.515144 0.851326,0.10038 1.592196,0.315503 1.64638,0.478053 0.06285,0.188544 0.253516,0.216042 0.526642,0.07595 0.23547,-0.120776 0.9142,-0.281394 1.508289,-0.356929 z m -9.607674,-4.206754 c -0.581634,-0.232654 -0.335328,-0.512813 0.731978,-0.832586 0.578909,-0.173445 1.213663,-0.377176 1.410566,-0.452734 0.201758,-0.07742 0.358005,0.02001 0.358005,0.223238 0,0.291096 -0.700218,0.682304 -2.051732,1.146291 -0.07053,0.02421 -0.272496,-0.01368 -0.448817,-0.08421 z M 76.6482,81.928603 c -0.351901,-0.101404 -0.680044,-0.393242 -0.729208,-0.648528 -0.08017,-0.41631 0.02543,-0.441588 1.024519,-0.245221 2.052876,0.403486 13.960754,-0.02392 15.793499,-0.566865 0.406853,-0.12053 0.621395,-0.04635 0.736966,0.25483 0.08967,0.233672 0.08186,0.506438 -0.01735,0.606147 -0.368623,0.370467 -15.705036,0.917591 -16.808424,0.599637 z m -9.618841,-0.519257 c 2.366666,-0.227086 6.539896,-1.471153 6.539896,-1.949584 0,-0.816856 -0.708439,-0.913161 -6.574778,-0.893774 -7.019053,0.0232 -7.731977,0.105712 -8.111574,0.938838 -0.322284,0.707336 -1.107384,0.688548 -1.045218,-0.02501 0.03668,-0.421039 -0.101743,-0.454825 -1.282332,-0.312986 -0.727899,0.08745 -1.87165,0.160007 -2.541669,0.161234 -1.604149,0.0029 -1.562621,0.419661 0.06412,0.643395 0.837726,0.115217 1.282332,0.29971 1.282332,0.532113 0,0.902437 6.470046,1.404649 11.669226,0.905777 z m -26.239706,-4.410992 -0.417664,-1.306069 -1.033439,0.20846 c -0.568392,0.114653 -2.418358,0.227146 -4.111037,0.249984 -3.832291,0.05171 -3.77535,0.04078 -2.692899,0.516699 0.544386,0.239348 1.835153,0.421004 3.279952,0.461605 2.505155,0.0704 3.476067,0.441423 2.34167,0.89485 -0.490088,0.195891 -0.234632,0.251445 1.215278,0.264284 l 1.835804,0.01626 z m 17.24506,0.903051 c 0.424996,-0.424996 0.534722,-0.881398 0.210669,-0.87627 -0.325645,0.0052 -2.720028,0.694541 -3.398182,0.978399 -0.53861,0.22545 -0.367196,0.270977 1.071664,0.284633 1.232041,0.01169 1.825957,-0.09687 2.115849,-0.386762 z m -21.07117,-0.02167 c -0.173636,-0.07025 -0.519866,-0.07453 -0.7694,-0.0095 -0.249533,0.06503 -0.107468,0.122505 0.315702,0.127731 0.42317,0.0052 0.627334,-0.04797 0.453698,-0.118228 z M 73.077414,77.453533 C 72.737759,77.113879 62.990477,76.671865 60.810047,76.89724 c -1.165083,0.120426 -1.602916,0.268779 -1.602916,0.543122 0,0.324292 0.995557,0.370786 7.070015,0.33018 4.945394,-0.03306 6.988953,-0.128324 6.800268,-0.317009 z m -41.077105,-0.0087 c -0.316906,-0.267375 -1.773893,-0.619108 -1.773893,-0.428238 0,0.123376 0.201967,0.2771 0.448816,0.341608 0.565035,0.147659 1.467329,0.206649 1.325077,0.08663 z M 90.849602,76.60665 c 0.836379,-0.103408 1.134389,-0.226882 0.898882,-0.372433 -0.285283,-0.176315 -0.259403,-0.285672 0.136036,-0.574825 0.442518,-0.323577 0.339854,-0.373886 -1.094033,-0.536112 -1.388064,-0.157041 -10.144059,-0.0089 -12.604835,0.213259 -3.136044,0.283122 -4.147438,0.486454 -3.690798,0.742002 1.463172,0.818832 2.574313,0.919825 8.820128,0.80167 3.455887,-0.06538 6.846465,-0.188479 7.53462,-0.273561 z m -17.60093,-0.56768 c 0.761171,-0.797417 0.653363,-1.068611 -0.424806,-1.068611 -0.87559,0 -0.98495,0.06465 -0.867721,0.512933 0.10516,0.40213 0.003,0.518456 -0.472826,0.538498 l -0.606962,0.02556 0.641166,0.205338 c 1.001929,0.320873 1.250099,0.290235 1.731149,-0.213722 z m -5.32168,-0.519242 1.667032,-0.169687 -1.923498,-0.341226 c -2.884936,-0.511785 -3.077598,-0.574227 -3.077598,-0.997448 0,-0.300588 0.19184,-0.355611 0.833516,-0.239068 0.458434,0.08326 1.295156,0.215791 1.859382,0.294509 1.014014,0.141471 1.011513,0.138458 -0.216442,-0.260847 -1.111853,-0.361551 -1.226213,-0.468098 -1.089041,-1.014635 0.0843,-0.335865 0.03743,-0.682252 -0.104142,-0.76975 -0.141574,-0.0875 -0.257407,-0.03687 -0.257407,0.112516 0,0.149381 -0.173115,0.271602 -0.3847,0.271602 -0.211585,0 -0.3847,-0.138492 -0.3847,-0.30776 0,-0.239368 -0.06839,-0.239368 -0.30776,0 -0.452149,0.45215 -0.718106,0.376162 -0.718106,-0.205173 0,-0.701585 -0.457601,-0.650836 -0.559212,0.06202 -0.09754,0.684263 -2.82093,2.17023 -4.441885,2.423628 -0.564226,0.0882 -1.30273,0.339718 -1.641119,0.558922 l -0.615254,0.398553 0.821712,0.212927 c 0.687506,0.178151 0.896399,0.120693 1.279001,-0.351801 0.537506,-0.663791 1.067576,-0.464898 0.861473,0.323242 -0.143342,0.54814 -0.135903,0.548951 3.294025,0.359273 1.89073,-0.10456 4.187855,-0.266467 5.104723,-0.359795 z M 42.023875,74.57761 c 0,-0.425884 -0.571316,-0.741889 -1.051754,-0.581743 -0.201064,0.06702 -0.155747,0.243286 0.138092,0.537125 0.542818,0.542818 0.913662,0.560928 0.913662,0.04462 z m 29.167722,0.237801 c -0.08522,-0.08522 -0.306424,-0.09433 -0.491561,-0.02025 -0.204592,0.08187 -0.14382,0.142643 0.154949,0.154949 0.270358,0.01114 0.421834,-0.04948 0.336612,-0.134701 z M 54.940885,74.45233 c 0.686281,0.01394 1.49527,-0.136818 1.797752,-0.335012 0.302483,-0.198194 1.144331,-0.487821 1.870774,-0.643615 0.726443,-0.155794 1.841958,-0.59805 2.478923,-0.982791 0.939607,-0.567543 1.217309,-0.910939 1.471834,-1.820014 0.344191,-1.22933 0.198663,-5.410913 -0.325552,-9.354346 -0.163851,-1.232576 -0.214357,-2.324602 -0.112235,-2.426723 0.102121,-0.102122 0.403016,-0.04994 0.668655,0.11595 0.316219,0.197482 0.513256,0.210799 0.570666,0.03857 0.04823,-0.144681 1.181703,-0.748158 2.518837,-1.341061 1.337134,-0.592903 2.688083,-1.223124 3.00211,-1.400491 l 0.570957,-0.322486 -0.89154,-1.167981 c -0.846854,-1.109439 -1.165582,-2.154558 -0.657072,-2.154558 0.128957,0 0.58953,0.57705 1.023495,1.282333 0.433965,0.705283 0.947873,1.282332 1.142017,1.282332 0.620899,0 2.062006,-2.551691 2.355646,-4.171017 l 0.127269,-0.701846 h -1.800282 c -0.990154,0 -1.800281,-0.103063 -1.800281,-0.229028 0,-0.364435 0.70686,-0.540372 2.171043,-0.540372 1.529176,0 1.668996,-0.206347 1.477136,-2.179965 l -0.09973,-1.025866 h -6.50584 c -4.862612,0 -6.58686,0.08097 -6.826616,0.320583 -0.386778,0.386544 -0.98759,0.422375 -0.98759,0.0589 0,-0.169449 -0.700577,-0.204225 -1.987615,-0.09866 -2.529955,0.207502 -2.781711,0.410474 -0.446662,0.360108 2.431123,-0.05244 2.434277,-0.05194 2.434277,0.384942 0,0.418194 -0.131345,0.43629 -3.649369,0.502796 -1.231341,0.02328 -2.307761,0.111281 -2.392043,0.195563 -0.08428,0.08428 0.04396,0.856057 0.284984,1.715056 0.342876,1.222 0.546141,1.561816 0.934221,1.561816 0.734401,0 1.488142,0.47437 1.488142,0.936568 0,0.279108 -0.159702,0.363825 -0.512121,0.271666 -0.596023,-0.155864 -0.491054,0.08691 0.581175,1.344151 0.66627,0.781236 1.469745,0.932553 1.469745,0.276795 0,-0.145483 0.23082,-0.264515 0.512933,-0.264515 0.615542,0 0.64883,0.323575 0.116818,1.135528 -0.373104,0.569428 -0.357149,0.6352 0.27463,1.132158 0.368911,0.290185 1.32618,0.71011 2.127265,0.933166 2.514646,0.700185 3.092168,1.087659 2.326467,1.560888 -0.351765,0.217403 -2.731293,-0.493251 -4.504882,-1.345398 l -1.326734,-0.637449 -1.913243,1.291044 c -1.985808,1.340009 -3.090372,1.790555 -3.351983,1.367259 -0.08383,-0.135646 0.88456,-0.916373 2.151986,-1.734948 1.267426,-0.818576 2.301205,-1.611371 2.297287,-1.761768 -0.0039,-0.150396 -0.344759,-0.604671 -0.757423,-1.009499 -0.412664,-0.404827 -1.015361,-1.124332 -1.339325,-1.598899 -0.323965,-0.474567 -0.762141,-0.932232 -0.973726,-1.017034 -0.211585,-0.0848 -1.827324,-0.260316 -3.590531,-0.390033 -1.763208,-0.129716 -4.141991,-0.324663 -5.286186,-0.433216 l -2.080355,-0.197368 0.855985,1.288668 c 0.470792,0.708767 1.02302,1.529466 1.227175,1.823775 0.617922,0.890798 4.755591,3.867414 5.818673,4.185921 0.547325,0.163983 1.116491,0.524902 1.264812,0.802043 0.148321,0.27714 0.470373,0.503891 0.715672,0.503891 0.402774,0 0.453693,0.416326 0.525404,4.295814 0.04367,2.362698 0.09859,4.757454 0.122029,5.32168 0.03337,0.803112 -0.05036,1.026596 -0.385609,1.029226 -0.235527,0.0018 -0.676755,0.319307 -0.980506,0.705464 -0.667864,0.849051 -2.303457,1.825055 -3.786363,2.259428 -0.6004,0.175869 -1.02516,0.387828 -0.943911,0.47102 0.500275,0.512244 2.542973,0.761319 5.241378,0.639104 1.622151,-0.07347 3.510868,-0.122178 4.197149,-0.108241 z m 0.03455,-1.516764 c -0.282114,-0.130545 -0.8841,-0.245465 -1.337748,-0.25538 -0.648713,-0.01418 -2.176397,-0.527286 -2.861517,-0.961108 -0.05269,-0.03336 -0.02591,-0.24279 0.05951,-0.465391 0.140277,-0.365555 0.236433,-0.362687 0.993433,0.02963 1.272163,0.659294 2.576726,0.909412 2.404668,0.461036 -0.211604,-0.551431 0.822203,-0.691835 3.323542,-0.45138 1.67686,0.161197 2.307026,0.325783 2.514945,0.65685 0.200678,0.319537 0.197096,0.522097 -0.01295,0.732139 -0.368474,0.368474 -4.400943,0.569632 -5.083886,0.253608 z M 68.36592,52.628889 67.704588,51.830606 65.187009,52.001557 c -1.384669,0.09402 -3.556269,0.054 -4.825778,-0.08895 -5.110137,-0.575398 -6.940017,-0.856783 -7.256048,-1.115778 -0.719228,-0.589426 0.225745,-0.685392 2.908879,-0.295409 3.558799,0.517259 10.063577,0.77423 10.425931,0.411877 0.180843,-0.180844 0.04878,-0.545862 -0.419741,-1.160121 -0.504834,-0.661871 -0.600477,-0.947632 -0.365728,-1.092714 0.204424,-0.126341 0.694523,0.231568 1.373167,1.002793 l 1.055288,1.199254 h 1.992544 c 1.759188,0 1.982552,0.05256 1.907221,0.448816 -0.06592,0.346722 -0.390423,0.466428 -1.426565,0.526239 -1.331465,0.07686 -1.338451,0.08168 -0.958448,0.661639 0.210536,0.321319 0.305449,0.661561 0.210916,0.756094 -0.347735,0.347735 -0.797476,0.152465 -1.442727,-0.626408 z M 59.463597,49.50096 c 0,-0.184624 0.165346,-0.559707 0.367435,-0.833516 0.546281,-0.740153 1.044272,-0.155507 0.513278,0.602594 -0.441601,0.630474 -0.880713,0.745608 -0.880713,0.230922 z m 19.127753,5.938537 c 1.382717,-1.042137 2.798138,-2.492438 3.465719,-3.551123 0.761047,-1.20691 1.770846,-4.241889 1.770846,-5.322326 v -1.079747 l -3.654647,0.130989 c -4.982318,0.178575 -6.145581,0.303518 -6.38841,0.686159 -0.313493,0.49399 -0.256739,2.964565 0.07278,3.168219 0.15861,0.09803 1.912154,0.200873 3.896763,0.228548 2.375481,0.03313 3.640817,0.147631 3.703316,0.335128 0.157941,0.473825 -1.655617,0.653698 -4.855901,0.48162 -2.412195,-0.129702 -3.032562,-0.09433 -3.032562,0.172927 0,0.887277 -0.868173,3.079782 -1.696103,4.283381 -1.027672,1.493972 -1.032018,1.483596 0.926704,2.212605 0.634754,0.236247 1.256042,0.518178 1.380639,0.626513 0.274178,0.238394 2.622006,-1.024659 4.410856,-2.372893 z M 51.387604,45.989644 c 0.19345,0 0.431301,-0.128755 0.52856,-0.286122 0.127335,-0.206033 -0.388894,-0.243062 -1.844247,-0.132289 -1.111593,0.08461 -3.261736,0.227149 -4.778094,0.316757 -1.516358,0.08961 -2.757015,0.272344 -2.757015,0.406078 0,0.137231 1.033431,0.233919 2.372315,0.221954 1.304774,-0.01166 3.180185,0.0671 4.167581,0.175028 1.598208,0.174688 1.804261,0.146963 1.87722,-0.25259 0.04507,-0.246849 0.240231,-0.448816 0.43368,-0.448816 z m 7.850786,-1.001119 c -0.194392,-0.123126 -0.276454,-0.348432 -0.182359,-0.50068 0.114712,-0.185609 1.518604,-0.247314 4.260921,-0.187277 2.32034,0.0508 4.029382,-0.0083 3.950104,-0.136559 -0.07685,-0.124353 -0.290963,-0.226097 -0.475797,-0.226097 -0.623345,0 -2.916786,-2.050039 -3.230666,-2.887796 -1.00817,-2.690845 -0.995819,-2.666659 -1.013773,-1.985068 -0.02635,1.000191 -0.968546,2.855811 -1.975792,3.891234 -0.613697,0.630865 -1.412847,1.096633 -2.420207,1.410566 -0.827184,0.257783 -1.504957,0.555254 -1.506163,0.661047 -0.0012,0.105792 0.661415,0.190582 1.47249,0.188422 0.94023,-0.0025 1.346589,-0.08506 1.121242,-0.227792 z m 4.905721,0.04619 c -0.458434,-0.05689 -1.208598,-0.05689 -1.667032,0 -0.458434,0.05689 -0.08335,0.103438 0.833516,0.103438 0.916868,0 1.29195,-0.04655 0.833516,-0.103438 z m 10.83571,-0.07094 c 0.400889,-0.172268 0.282659,-0.224352 -0.541254,-0.238441 -0.579803,-0.0099 -1.58964,-0.09142 -2.244082,-0.181119 -0.99711,-0.136669 -1.189895,-0.09512 -1.189895,0.256467 0,0.348777 0.292055,0.416519 1.731149,0.401534 0.952132,-0.0099 1.961969,-0.117213 2.244082,-0.238441 z M 63.540356,28.438193 c 0.67983,-0.420158 0.174963,-0.669993 -1.266518,-0.62674 l -1.54969,0.0465 0.633765,0.666568 c 0.348571,0.366612 0.714363,0.992508 0.81287,1.390881 l 0.179105,0.724314 0.453648,-1.013257 c 0.249507,-0.557291 0.581076,-1.092011 0.73682,-1.188266 z M 37.535711,107.98915 c -1.410566,-0.13173 -3.084009,-0.37606 -3.718764,-0.54296 -1.02399,-0.26924 -1.162889,-0.39299 -1.232066,-1.09771 -0.11137,-1.13456 0.440278,-1.53839 2.386139,-1.74677 0.931092,-0.0997 2.465732,-0.40231 3.41031,-0.67243 2.008741,-0.57445 3.171572,-0.6408 2.989149,-0.17056 -0.142802,0.36812 -2.814561,1.12531 -5.218548,1.47898 -1.992495,0.29313 -2.591451,0.47167 -2.591451,0.7725 0,0.61762 6.702459,1.43402 9.695676,1.181 2.372845,-0.20058 4.922915,-0.70573 4.922915,-0.97519 0,-0.10841 -0.144262,-0.14699 -0.320583,-0.0857 -0.176321,0.0613 -1.301567,0.16715 -2.500548,0.23534 -1.198981,0.0682 -3.058056,0.20313 -4.131278,0.29986 -2.40978,0.21719 -4.332117,-0.031 -4.332117,-0.55936 0,-0.31637 0.36688,-0.35268 2.244082,-0.22208 1.772292,0.1233 2.624216,0.0534 4.052204,-0.3327 1.066517,-0.28834 2.01323,-0.40858 2.308199,-0.29317 0.275042,0.10761 1.279093,0.20377 2.231225,0.21369 1.646752,0.0171 1.731149,0.0477 1.731149,0.62779 0,0.80788 -0.440326,1.13442 -1.950831,1.44672 -3.922523,0.811 -5.352194,0.87447 -9.974862,0.44279 z m 3.37579,-5.76922 c -0.06423,-0.1058 -0.09176,-1.69268 -0.06118,-3.526419 0.04655,-2.791472 -0.0633,-4.889421 -0.441694,-8.435792 -0.07323,-0.686302 0.592481,-0.840544 0.765884,-0.177451 0.111713,0.427189 0.218477,0.482398 0.492723,0.254794 0.802913,-0.666358 1.005203,-0.112278 0.956757,2.620588 -0.04639,2.616613 -0.208079,3.161449 -0.637272,2.14733 -0.132442,-0.312941 -0.202326,0.68702 -0.179236,2.564665 0.05349,4.349405 0.01936,4.744635 -0.409639,4.744635 -0.20326,0 -0.422115,-0.0866 -0.486344,-0.19235 z m 0.77717,-11.023183 c -0.06502,-0.249534 -0.122504,-0.107468 -0.127731,0.315702 -0.0052,0.42317 0.04798,0.627333 0.118228,0.453697 0.07025,-0.173636 0.07453,-0.519866 0.0095,-0.769399 z m 0.842993,-14.05262 c -0.374732,-0.451525 -0.316162,-0.552893 0.389844,-0.674703 0.37057,-0.06394 0.535679,0.07166 0.594887,0.488551 0.09585,0.674869 -0.487596,0.785163 -0.984731,0.186152 z m 41.296251,-4.480989 c 0,-0.160141 0.108716,-0.494301 0.24159,-0.742579 0.221957,-0.414731 0.0917,-0.444486 -1.602916,-0.366162 -1.014478,0.04689 -2.070903,0.113351 -2.347611,0.147692 -0.305982,0.03797 -0.539447,-0.113414 -0.595855,-0.386377 -0.08165,-0.395129 0.147261,-0.452489 1.913672,-0.479512 1.996694,-0.03055 1.988083,-0.03327 -1.77646,-0.562095 -2.674465,-0.375695 -3.782881,-0.629715 -3.782881,-0.866938 0,-0.413211 1.240434,-0.425742 3.718764,-0.03757 0.987396,0.154653 2.591501,0.29971 3.564678,0.322347 l 1.769413,0.04116 0.02585,1.528643 c 0.02366,1.399195 -0.02301,1.535584 -0.551197,1.610598 -0.317377,0.04507 -0.57705,-0.04907 -0.57705,-0.20921 z M 69.687126,20.991772 c -0.06634,-0.06634 -2.31521,-0.176378 -4.997484,-0.244526 -2.682275,-0.06815 -5.936157,-0.259754 -7.230849,-0.425792 -1.821995,-0.233661 -2.709126,-0.232017 -3.925432,0.0073 -1.034687,0.203562 -1.657977,0.222631 -1.824782,0.05583 -0.874134,-0.874134 1.79858,-1.204458 6.611103,-0.817074 1.969191,0.15851 5.517295,0.335697 7.884675,0.393748 2.367381,0.05805 4.421511,0.177971 4.564734,0.266488 0.171469,0.105974 0.157836,0.28453 -0.03992,0.522807 -0.296574,0.35735 -0.807629,0.475665 -1.042048,0.241246 z M 50.586209,16.383905 c -0.08927,-0.23263 -0.115971,-0.4693 -0.05934,-0.525932 0.09232,-0.09232 5.399545,-0.344757 17.169067,-0.816644 2.832405,-0.113562 4.052453,-0.07657 4.178069,0.126681 0.214779,0.347519 -0.601524,0.5578 -2.023516,0.521261 -0.564226,-0.0145 -3.103245,0.10427 -5.642263,0.263929 -2.539019,0.15966 -6.305622,0.341625 -8.37023,0.404367 -2.064608,0.06274 -4.054353,0.189501 -4.421657,0.281689 -0.49019,0.123029 -0.710997,0.05511 -0.830132,-0.255351 z"
       id="path1" /></g></svg>
