<?xml version="1.0" encoding="UTF-8" standalone="no"?>
<!-- Created with Inkscape (http://www.inkscape.org/) -->

<svg
   width="120"
   height="120"
   viewBox="0 0 120 120"
   version="1.1"
   id="svg1"
   xml:space="preserve"
   inkscape:export-filename="candles.svg"
   inkscape:export-xdpi="96"
   inkscape:export-ydpi="96"
   xmlns:inkscape="http://www.inkscape.org/namespaces/inkscape"
   xmlns:sodipodi="http://sodipodi.sourceforge.net/DTD/sodipodi-0.dtd"
   xmlns="http://www.w3.org/2000/svg"
   xmlns:svg="http://www.w3.org/2000/svg"><sodipodi:namedview
     id="namedview1"
     pagecolor="#ffffff"
     bordercolor="#000000"
     borderopacity="0.25"
     inkscape:showpageshadow="2"
     inkscape:pageopacity="0.0"
     inkscape:pagecheckerboard="0"
     inkscape:deskcolor="#d1d1d1"
     inkscape:document-units="px"><inkscape:page
       x="0"
       y="0"
       width="120"
       height="120"
       id="page2"
       margin="0"
       bleed="0" /></sodipodi:namedview><defs
     id="defs1" /><g
     inkscape:label="Layer 1"
     inkscape:groupmode="layer"
     id="layer1"><path
       style="fill:#000000"
       d="m 38.93694,108.48411 c -0.263113,-0.42573 -0.0633,-0.52016 2.448491,-1.1572 l 2.33369,-0.59187 -2.141901,0.14821 c -1.878482,0.12998 -2.215882,0.0883 -2.743447,-0.3389 -0.343102,-0.27783 -0.523956,-0.61265 -0.42095,-0.77931 0.248484,-0.40206 0.653877,-0.36754 0.653877,0.0557 0,0.19134 0.212528,0.40347 0.472285,0.4714 0.882534,0.23079 6.46086,-0.42519 8.430505,-0.99137 0.34772,-0.1 0.439443,-0.0366 0.336276,0.23223 -0.169918,0.4428 0.887207,0.28365 4.466715,-0.67246 2.982455,-0.79664 3.646492,-1.06631 3.646492,-1.48087 0,-0.34652 0.200191,-0.44587 3.881193,-1.92618 2.644292,-1.0634 4.705394,-2.383728 4.511181,-2.889842 -0.09438,-0.24594 -0.0021,-0.383785 0.256856,-0.383785 0.687922,0 0.450317,0.932613 -0.413188,1.621781 l -0.817317,0.652306 1.462128,-0.659887 c 0.80417,-0.362939 1.539756,-0.576198 1.634634,-0.473909 0.09488,0.102288 0.05085,0.229898 -0.09784,0.283577 -0.148688,0.05368 -1.358504,0.719279 -2.688479,1.479109 -4.267819,2.43824 -9.972378,4.3454 -17.662721,5.90501 -2.417845,0.49034 -5.670805,1.26113 -6.957467,1.64858 -0.230412,0.0694 -0.49637,8.5e-4 -0.591018,-0.1523 z m -1.575796,-1.98444 c 0.157881,-1.6431 1.051298,-2.67496 2.532764,-2.92525 1.653374,-0.27934 5.299837,-2.28597 6.44933,-3.54903 l 1.021991,-1.122972 -0.269163,-1.80731 C 46.948027,96.101087 46.619089,94.552212 46.365095,93.653163 46.1111,92.754115 45.666338,90.779039 45.376736,89.264106 44.873814,86.63328 43.142705,80.867124 41.069687,74.917739 40.539543,73.396272 40.038123,71.909426 39.95542,71.613638 39.87272,71.31785 39.535138,70.784601 39.205245,70.42864 c -0.89203,-0.962516 -0.695223,-1.515683 0.550369,-1.546933 0.654128,-0.01641 1.388469,-0.268231 2.040504,-0.699727 1.231518,-0.81498 1.641706,-0.46787 0.481691,0.407616 -0.883875,0.667078 -2.554169,1.226537 -2.863721,0.959192 -0.104222,-0.09001 0.04526,0.14675 0.332186,0.526137 1.04262,1.378611 5.385495,14.42984 6.33952,19.051559 0.299789,1.452309 0.65677,3.093231 0.793291,3.646492 0.469045,1.900835 1.240975,6.247209 1.240975,6.987342 v 0.740822 l 1.445761,-0.18064 c 1.281302,-0.16009 2.829436,-0.70867 2.829436,-1.002613 0,-0.05855 -0.409295,0.06456 -0.909544,0.273581 -0.92954,0.388387 -1.761919,0.30269 -1.480635,-0.152438 0.08609,-0.139292 0.381798,-0.253258 0.657134,-0.253258 0.275336,0 0.837905,-0.174421 1.250153,-0.387603 0.683318,-0.353357 0.786719,-0.350425 1.17033,0.03319 0.393396,0.393396 0.373922,0.458158 -0.299154,0.99485 -0.933003,0.743951 -2.503529,1.174861 -3.915283,1.074241 -1.026791,-0.0732 -1.134433,-0.14467 -1.256342,-0.83448 l -0.133333,-0.754452 -0.496579,0.833882 c -0.781936,1.31307 -4.370338,3.48858 -6.737326,4.0846 -1.419536,0.35744 -1.985511,0.95788 -2.168203,2.30021 -0.0778,0.57161 -0.298715,1.09149 -0.490933,1.15529 -0.278387,0.0924 -0.324039,-0.14885 -0.224398,-1.18583 z m 11.436372,-7.474716 c -0.260489,-0.260488 0.06852,-0.593629 0.586264,-0.593629 0.371752,0 1.850764,-0.548883 2.467787,-0.915831 0.04676,-0.02781 -0.162974,-0.385983 -0.466073,-0.795945 -1.098551,-1.485871 -4.24974,-9.837017 -5.213746,-13.81725 -0.511622,-2.112406 -1.055478,-3.835104 -1.210743,-3.835104 -0.58591,0 -2.882867,-8.644639 -2.419957,-9.10755 0.174431,-0.17443 0.340958,0.09508 0.520189,0.841872 0.260445,1.085187 0.261985,1.080931 0.127648,-0.352848 -0.156816,-1.673714 0.555652,-4.24127 1.586115,-5.71596 l 0.615046,-0.880187 -0.770524,0.868211 c -0.743845,0.838149 -0.782897,0.851289 -1.127875,0.379505 -0.308963,-0.422532 -0.308515,-0.605587 0.0033,-1.351888 0.41472,-0.992564 0.815835,-1.530463 1.141276,-1.530463 0.124752,0 -0.05589,0.531076 -0.40143,1.180169 -0.660209,1.240199 -0.653716,1.823157 0.0098,0.875918 0.213471,-0.304772 1.266061,-1.262961 2.339089,-2.129308 1.073028,-0.866348 1.903631,-1.717165 1.845784,-1.890706 -0.05785,-0.173541 0.07992,-0.598017 0.306142,-0.94328 0.226225,-0.345262 0.335533,-0.750373 0.242906,-0.900246 -0.09263,-0.149872 -0.01245,-0.371277 0.17816,-0.49201 0.468828,-0.29695 0.788559,-0.283978 0.598054,0.02427 -0.377744,0.611203 0.428939,0.156077 1.617626,-0.912655 1.639965,-1.474469 2.040565,-2.424962 1.986591,-4.713536 -0.02397,-1.016502 -0.08498,-1.384261 -0.140922,-0.849476 -0.117269,1.12109 -0.571249,1.270982 -0.571249,0.188612 0,-0.736124 -0.537864,-1.056857 -0.870298,-0.518967 -0.08004,0.129514 -0.341349,0.237004 -0.580677,0.238868 -0.239328,0.0019 -1.000977,0.07944 -1.692553,0.172386 -1.794542,0.24119 -1.165981,-0.220943 1.068799,-0.785808 1.064545,-0.269075 1.823246,-0.59377 1.823246,-0.780281 0,-0.17569 -0.222889,-0.884911 -0.495309,-1.576046 -0.301667,-0.765334 -0.39929,-1.315954 -0.249706,-1.408402 0.135082,-0.08349 0.300622,-0.0032 0.367868,0.178501 0.06725,0.181661 0.341096,0.952711 0.608555,1.713444 0.378764,1.077318 0.490352,1.230235 0.504664,0.691576 0.02338,-0.880092 0.459835,-0.898451 0.678172,-0.02853 l 0.166415,0.663051 0.46149,-0.60018 c 0.287427,-0.373807 0.463599,-0.465805 0.467082,-0.243913 0.0031,0.195946 0.07162,0.290236 0.152326,0.209532 0.0807,-0.0807 -0.08905,-1.006164 -0.377223,-2.056577 -0.586618,-2.138241 -0.620206,-2.407196 -0.300619,-2.407196 0.122836,0 0.475336,1.019858 0.783334,2.266352 0.307997,1.246493 0.660163,2.328258 0.78259,2.403923 0.122427,0.07566 0.222595,0.08152 0.222595,0.01301 0,-0.244116 -1.243767,-5.256431 -1.324335,-5.336999 -0.287454,-0.287454 -11.579148,2.885922 -19.800172,5.564567 -2.282201,0.743607 -5.733794,1.807266 -7.670207,2.363687 -1.936413,0.556422 -4.822172,1.452424 -6.412797,1.991116 -1.590625,0.538692 -3.264299,1.060773 -3.719276,1.160178 -0.702796,0.153551 -0.802126,0.26252 -0.660335,0.724414 0.09179,0.299022 0.196067,0.577475 0.231721,0.618786 0.138869,0.160899 1.381586,-0.267957 1.381586,-0.476779 0,-0.121771 0.254625,-0.204407 0.565835,-0.183634 0.311209,0.02077 1.414587,-0.151304 2.451951,-0.382393 1.037364,-0.231089 4.375791,-0.58293 7.418726,-0.781869 5.539391,-0.362151 7.489023,-0.67142 13.447989,-2.133247 1.72547,-0.423285 3.281517,-0.769609 3.457881,-0.769609 0.548899,0 0.351045,0.487441 -0.245173,0.604016 -0.31121,0.06085 -2.037006,0.461527 -3.835104,0.890395 -5.381396,1.283529 -6.791992,1.496843 -12.574111,1.90149 -5.661625,0.396214 -9.389693,0.983084 -9.591868,1.509945 -0.250093,0.65173 2.413799,7.99894 2.852658,7.867841 0.11037,-0.03297 0.536478,0.163263 0.946907,0.436074 0.67466,0.448444 1.101617,0.488045 4.451456,0.412878 3.489025,-0.07829 7.502161,0.298535 7.502161,0.704436 0,0.384619 -0.314726,0.424055 -1.575525,0.19742 -0.724086,-0.130159 -3.24547,-0.219928 -5.603076,-0.199488 -3.97527,0.03447 -4.334268,-3.66e-4 -4.943569,-0.479643 -0.361358,-0.284244 -0.834906,-0.516807 -1.052331,-0.516807 -0.544604,0 -1.214572,-1.409486 -2.43876,-5.130684 -0.57325,-1.742526 -1.142456,-3.168229 -1.264901,-3.168229 -0.122446,0 -0.222613,0.141459 -0.222594,0.314353 4.5e-5,0.419244 1.01301,3.682227 1.887236,6.079201 0.622133,1.705782 0.807357,1.973737 1.590554,2.300977 0.643419,0.268838 0.810764,0.446031 0.610436,0.646359 -0.200328,0.200327 -0.537222,0.147039 -1.228911,-0.194383 -0.878963,-0.433863 -1.016522,-0.655578 -1.772338,-2.85661 -0.450679,-1.312432 -1.021083,-3.207861 -1.267566,-4.212066 -0.246483,-1.004204 -0.533026,-1.825944 -0.636763,-1.826087 -0.259517,-3.6e-4 -0.236341,0.344421 0.07888,1.173529 0.147123,0.386964 0.545273,1.772671 0.884777,3.079351 0.485513,1.868637 0.549197,2.418508 0.298338,2.575938 -0.510269,0.320227 0.530286,2.017146 1.567175,2.555721 0.765852,0.397794 1.206863,0.431615 3.39501,0.260366 4.042373,-0.316366 9.470687,-0.186821 10.992918,0.262341 1.288464,0.380186 2.977733,1.474827 2.703754,1.752025 -0.07417,0.07504 -0.727805,-0.157014 -1.452527,-0.515675 -1.71578,-0.849131 -5.099622,-1.187526 -9.47784,-0.947817 -4.499574,0.246354 -5.438161,0.213481 -6.493396,-0.227425 -1.165538,-0.486992 -1.765623,-1.487262 -2.420139,-4.034079 -0.287862,-1.120109 -0.918043,-3.252829 -1.400404,-4.739376 -0.96121,-2.962274 -1.058768,-3.582055 -0.532024,-3.379925 0.189747,0.07281 1.349709,-0.189801 2.577692,-0.583586 2.668224,-0.855636 2.568023,-0.965556 -0.190933,-0.209453 -1.745697,0.478415 -2.607058,0.505939 -2.170475,0.06936 0.07818,-0.07818 1.992586,-0.650703 4.25424,-1.272277 2.261654,-0.621575 5.58327,-1.616971 7.381367,-2.211993 3.971165,-1.314126 4.652421,-1.48536 4.652421,-1.169391 0,0.133883 -0.634175,0.443329 -1.409278,0.687659 -0.775103,0.24433 -1.297314,0.481557 -1.16047,0.527172 0.136845,0.04562 2.270483,-0.594228 4.741418,-1.421874 6.401323,-2.144138 13.462054,-4.202633 17.695426,-5.158947 l 3.646492,-0.82374 1.085913,4.172486 c 0.856938,3.292681 1.095561,4.667222 1.13167,6.518784 0.05501,2.820833 0.118173,2.742956 -4.009642,4.943753 -6.146579,3.277126 -8.746848,5.659403 -9.280151,8.502154 -0.0961,0.512248 -0.279195,0.931361 -0.406881,0.931361 -0.947873,0 2.987067,15.532267 5.593957,22.080855 0.952714,2.393248 1.859983,4.600004 2.016152,4.903903 0.422119,0.821423 1.525435,1.935696 1.916663,1.935696 0.188464,0 0.699312,0.184431 1.135218,0.409847 1.13521,0.587039 2.844177,0.487624 6.759213,-0.393203 1.88501,-0.4241 3.606869,-0.771091 3.826354,-0.771091 0.438769,0 2.176939,1.426367 2.176939,1.786427 0,0.434968 -0.672567,0.219263 -1.257411,-0.403275 -0.735935,-0.783367 -1.117467,-0.782297 -4.465879,0.01253 -4.262735,1.011858 -5.422302,1.0529 -7.308052,0.25866 l -1.588901,-0.669214 -1.597518,0.639108 c -1.692451,0.677087 -1.960761,0.73496 -2.217431,0.47829 z M 44.016653,74.493363 c -0.08028,-0.200616 -0.13987,-0.141026 -0.151937,0.151937 -0.01092,0.265104 0.04852,0.413636 0.132083,0.33007 0.08357,-0.08356 0.0925,-0.300469 0.01985,-0.482007 z m -0.508204,-2.279058 c -0.06976,-0.172894 -0.126844,-0.03144 -0.126844,0.314353 0,0.345788 0.05708,0.487247 0.126844,0.314353 0.06977,-0.172894 0.06977,-0.455812 0,-0.628706 z m 8.846432,-14.024042 c 1.11361,-0.7537 2.157201,-1.655279 2.319091,-2.003509 0.450588,-0.969233 0.590885,-3.581875 0.248115,-4.620478 -0.51445,-1.558799 -0.891752,-1.123721 -0.896315,1.033567 -0.005,2.375257 -0.661525,3.755501 -2.384961,5.014193 -2.169983,1.584823 -2.766305,2.229578 -2.766305,2.990982 v 0.721538 l 0.727815,-0.882965 c 0.400297,-0.485631 1.63895,-1.499628 2.75256,-2.253328 z m 3.749739,-1.179966 c 0.784418,-0.577861 0.817317,-0.67167 0.817317,-2.330489 0,-1.791496 -0.450653,-4.281584 -0.774876,-4.281584 -0.10204,0 -0.02736,0.594126 0.165948,1.320281 0.420632,1.580058 0.408868,1.446023 0.126921,1.446023 -0.126789,0 -0.344189,-0.311209 -0.483111,-0.691576 -0.211224,-0.578329 -0.255836,-0.391692 -0.272439,1.139747 -0.02912,2.68625 -0.391903,3.336067 -2.705742,4.846557 -1.078493,0.704048 -2.018749,1.341856 -2.089456,1.41735 -0.277454,0.29624 4.447073,-2.300274 5.215438,-2.866309 z m -39.560602,1.087809 c -0.09088,-0.36211 -0.256312,-0.658381 -0.367618,-0.658381 -0.111306,0 -0.07586,0.335182 0.07877,0.744849 0.336857,0.892434 0.520718,0.837393 0.288844,-0.08647 z m -0.3622,-1.664309 c 0,-0.276631 -0.113167,-0.502965 -0.251482,-0.502965 -0.138315,0 -0.251482,0.226334 -0.251482,0.502965 0,0.27663 0.113167,0.502964 0.251482,0.502964 0.138315,0 0.251482,-0.226334 0.251482,-0.502964 z m 39.286038,-5.829872 c -0.157462,-0.157462 -0.192512,0.0079 -0.09895,0.466807 0.107314,0.526342 0.170553,0.58958 0.243838,0.243838 0.05442,-0.256744 -0.01078,-0.576534 -0.144892,-0.710645 z m -7.263624,46.037823 c 0.08824,-0.329727 0.161987,-0.797546 0.163876,-1.039597 0.0019,-0.242052 0.123432,-0.440094 0.270097,-0.440094 0.39783,0 0.172715,1.826787 -0.241928,1.963216 -0.262814,0.08647 -0.311671,-0.03654 -0.192045,-0.483525 z m -0.707891,-3.53848 c -0.06446,-0.181661 -0.506538,-1.91463 -0.982391,-3.851043 -0.475854,-1.936413 -1.223083,-4.63439 -1.660509,-5.995505 -0.73952,-2.301122 -0.824348,-3.106712 -0.267264,-2.538125 0.306029,0.312348 1.877794,5.54089 2.377325,7.908273 0.218502,1.035522 0.557792,2.476595 0.753979,3.202384 0.207814,0.768805 0.260567,1.379032 0.126382,1.461962 -0.126676,0.07829 -0.283061,-0.0063 -0.347522,-0.187946 z m 35.202523,-5.106832 c -3.485178,-0.56126 -7.201901,-1.327144 -11.056808,-2.278414 -1.931789,-0.476705 -3.685877,-0.867367 -3.897975,-0.868138 -0.761323,-0.0028 -2.271748,-0.530573 -2.271748,-0.793842 0,-0.314374 2.119725,-0.09849 4.1151,0.419103 0.7101,0.184198 1.322247,0.303747 1.360328,0.265666 0.03808,-0.03808 -0.810519,-0.384832 -1.885778,-0.770557 -1.075259,-0.385725 -2.153058,-0.872081 -2.39511,-1.08079 -0.542978,-0.468183 -0.589042,-1.558929 -0.06583,-1.558929 0.237076,0 0.3523,0.204899 0.314352,0.559 -0.05177,0.483077 0.229693,0.673879 2.07236,1.40484 1.172747,0.465212 3.096586,1.106225 4.275198,1.424474 1.178613,0.318249 2.115975,0.700571 2.083027,0.849605 -0.07348,0.332388 0.970823,0.61804 4.693438,1.283807 3.445882,0.616276 3.539639,0.619564 3.539639,0.124136 0,-0.329665 0.242175,-0.361869 1.571764,-0.209014 2.126768,0.244502 6.138253,0.254591 7.281543,0.01831 0.671881,-0.138854 0.892248,-0.295124 0.790411,-0.560507 -0.07766,-0.202386 -0.01238,-0.367974 0.145076,-0.367974 0.407889,0 0.63816,0.738857 0.327187,1.04983 -0.143866,0.143866 -0.639853,0.351009 -1.102192,0.460318 -0.716994,0.169516 -0.608975,0.202529 0.734522,0.224485 l 1.575139,0.02574 -0.390353,-0.934245 C 94.297455,86.169511 93.984727,85.662957 93.817198,85.557671 93.649669,85.452384 92.437513,85.127972 91.123519,84.836755 86.030993,83.708111 85.344466,83.42822 83.819042,81.858789 82.52349,80.525861 82.335873,80.420058 81.178479,80.36969 79.526544,80.2978 78.549408,80.086032 78.549408,79.799905 c 0,-0.136033 0.711699,-0.167111 1.707488,-0.07456 l 1.707489,0.158695 -0.102986,-1.822602 c -0.172641,-3.055317 0.439163,-10.161867 1.200985,-13.950316 0.536002,-2.665473 0.643544,-3.651941 0.445506,-4.086586 -0.143579,-0.315122 -0.327764,-0.572554 -0.409298,-0.572071 -0.437933,0.0026 -1.518922,2.796723 -1.653647,4.274319 -0.1837,2.014745 -1.007137,6.122558 -1.656276,8.262532 -0.266648,0.879039 -0.484814,1.853081 -0.484814,2.164537 0,0.712212 -1.483146,5.946167 -1.793624,6.32962 -0.270979,0.33467 1.112857,0.946923 2.673811,1.182979 l 1.005929,0.152122 -0.813549,-0.306888 c -0.447451,-0.168789 -0.786952,-0.420056 -0.754446,-0.558371 0.03251,-0.138315 0.130641,-0.227636 0.218077,-0.198491 0.08744,0.02915 0.709855,0.100335 1.383152,0.158199 1.090782,0.09374 1.224177,0.170178 1.224177,0.701455 0,0.550071 -0.112923,0.602117 -1.458092,0.672029 -1.133122,0.05889 -1.763668,-0.06412 -2.829174,-0.551922 -0.754096,-0.345237 -1.371084,-0.68318 -1.371084,-0.750986 0,-0.06781 0.101613,-0.390545 0.225807,-0.717198 l 0.225806,-0.593916 -1.294606,0.640415 c -1.227605,0.607271 -1.507238,0.640415 -5.403189,0.640415 -4.529917,0 -4.026714,-0.158551 -5.359387,1.688653 -0.623812,0.86466 -0.86725,0.330037 -0.317376,-0.697003 0.931006,-1.738906 0.928187,-1.738066 5.846693,-1.742286 3.938254,-0.0034 4.541369,-0.05962 5.321806,-0.496234 0.484103,-0.270833 0.980831,-0.497167 1.10384,-0.502965 0.241853,-0.0114 0.751656,-1.699195 1.180576,-3.908515 0.147689,-0.760733 0.536741,-2.401655 0.864559,-3.646492 0.672554,-2.553919 1.248804,-5.376031 1.512414,-7.406854 l 0.177999,-1.371282 -0.596448,0.438846 c -0.328047,0.241366 -1.049116,0.630043 -1.602377,0.863727 -0.553261,0.233684 -1.571764,0.709863 -2.26334,1.058176 -1.255999,0.632585 -1.257498,0.634834 -1.335151,2.003381 -0.05915,1.042424 -0.254613,1.610593 -0.817317,2.375753 -0.406768,0.553118 -0.739577,1.136758 -0.739577,1.296979 0,0.16022 -0.665829,1.017944 -1.479619,1.906053 -0.81379,0.888108 -1.521084,1.828725 -1.571764,2.090259 -0.143087,0.738404 -0.644903,0.741151 -1.126483,0.0062 -0.417626,-0.637379 -0.41623,-0.707843 0.03046,-1.537294 0.257481,-0.478113 1.195421,-1.45767 2.084311,-2.176792 1.632123,-1.320407 2.063096,-1.965265 2.063096,-3.086983 0,-0.578402 0.479249,-1.851449 1.46023,-3.878862 0.34525,-0.713536 0.900517,-1.129564 2.932695,-2.197292 1.378745,-0.724408 2.819516,-1.629744 3.201714,-2.011858 l 0.694905,-0.694753 -2.195785,-0.02121 c -1.207682,-0.01167 -2.818204,-0.06674 -3.578937,-0.122385 -1.181186,-0.0864 -1.766531,0.0544 -4.00869,0.964269 -2.977243,1.208165 -3.346563,1.255604 -4.465171,0.573545 -1.35456,-0.825928 -1.675326,-1.551068 -1.473852,-3.331865 0.219085,-1.936454 0.674652,-2.836445 1.715927,-3.389886 0.924715,-0.491489 2.310332,-0.521626 7.994167,-0.173872 3.814314,0.233372 4.536635,0.453026 5.532008,1.68226 0.374606,0.462619 0.419284,0.317345 0.700881,-2.278992 0.211582,-1.950792 0.223262,-2.976968 0.03939,-3.46059 -0.191993,-0.50498 -0.178696,-0.79619 0.05009,-1.096986 0.171307,-0.225227 0.34466,-0.457826 0.385227,-0.516887 0.04057,-0.05906 0.228065,0.103642 0.41666,0.361561 0.277272,0.379192 0.661824,0.465943 2.009259,0.453266 1.596781,-0.01502 2.114501,0.198446 1.268568,0.523061 -0.601857,0.230954 -2.596865,0.18276 -3.076621,-0.07432 -0.381018,-0.204173 -0.423562,-0.02104 -0.423562,1.823246 0,1.12762 -0.04977,2.785802 -0.110599,3.684851 -0.109196,1.613905 -0.102132,1.635633 0.557064,1.713363 0.528676,0.06234 0.691047,-0.04236 0.779997,-0.502965 0.574097,-2.972799 1.056749,-4.82552 1.350262,-5.183156 0.310749,-0.378636 0.331692,-0.326335 0.181001,0.452007 -0.387532,2.001672 -0.363069,2.063621 0.198615,0.502965 0.608436,-1.690555 2.12885,-3.638501 3.582198,-4.58949 0.662646,-0.433598 0.475246,-0.437539 -0.565835,-0.0119 -0.468662,0.19161 -0.380295,-0.276593 0.188737,-1.000001 0.495638,-0.6301 3.082686,-1.691593 4.122717,-1.691593 0.872736,0 0.112939,0.411985 -1.823228,0.988611 -1.017414,0.303004 -1.809084,0.591675 -1.759267,0.641492 0.04982,0.04982 1.036527,-0.183409 2.192688,-0.518281 2.194997,-0.635761 3.697106,-0.792346 3.428279,-0.357376 -0.219919,0.355837 0.0512,0.311917 0.700424,-0.113465 0.306343,-0.200722 1.801824,-0.558735 3.323292,-0.795585 2.436007,-0.379218 2.846507,-0.516445 3.438037,-1.149301 0.93932,-1.004948 1.68928,-2.656265 2.02415,-4.456927 0.2157,-1.159857 0.38166,-1.518225 0.68079,-1.470079 0.2772,0.04462 0.41859,-0.173551 0.47253,-0.729161 0.0729,-0.750421 0.0215,-0.802201 -0.96,-0.968026 -0.57034,-0.09636 -1.07,-0.13567 -1.11035,-0.08736 -0.0403,0.04831 -0.13776,0.653673 -0.21647,1.345249 -0.0787,0.691577 -0.0784,1.087661 6.8e-4,0.880188 0.0791,-0.207473 0.24491,-0.650277 0.3685,-0.984009 0.14541,-0.392636 0.31094,-0.520566 0.46902,-0.362484 0.28847,0.288463 -0.55494,3.064466 -1.30152,4.283824 -0.62517,1.021083 -1.92258,2.161658 -2.8731,2.525799 -0.407428,0.156088 -1.617829,0.469628 -2.689772,0.696755 -1.071943,0.227128 -1.948988,0.518408 -1.948988,0.647289 0,0.12888 -0.113167,0.234328 -0.251482,0.234328 -0.509439,0 -0.231736,-0.774226 0.377224,-1.051687 0.345788,-0.157552 0.628705,-0.438043 0.628705,-0.623314 0,-0.316178 0.258164,-0.418457 0.691576,-0.273986 0.103737,0.03458 0.16032,0.147746 0.125741,0.251482 -0.08798,0.263942 0.135605,0.240397 1.777,-0.187132 0.793419,-0.206659 1.716586,-0.55528 2.051476,-0.774714 0.68924,-0.451608 2.0084,-2.42911 2.25223,-3.376222 0.15687,-0.609372 0.14972,-0.607439 -0.23259,0.06287 -0.43459,0.761963 -1.05312,0.969765 -0.74855,0.251482 0.58329,-1.375595 0.85229,-2.278003 0.86209,-2.892046 l 0.011,-0.691576 h -1.88611 c -1.089756,0 -1.886116,-0.106181 -1.886116,-0.251482 0,-0.145098 0.790711,-0.251482 1.869166,-0.251482 1.6483,0 1.88803,-0.05943 2.0288,-0.502964 0.20856,-0.657087 0.62871,-0.647879 0.62871,0.01378 0,0.459568 0.13217,0.508262 1.19454,0.440093 1.07367,-0.06889 1.19454,-0.138019 1.19454,-0.683145 0,-0.333572 0.15873,-0.659969 0.35273,-0.725326 0.27636,-0.0931 0.32062,0.07907 0.20443,0.795107 -0.0816,0.502666 -0.0436,0.913938 0.0844,0.913938 0.12798,0 0.30056,-0.424376 0.3835,-0.943058 0.0829,-0.518682 0.16915,-1.048349 0.19158,-1.177037 0.078,-0.44721 -12.255479,-2.589523 -20.329274,-3.531189 -1.798098,-0.209716 -4.91019,-0.656271 -6.915761,-0.992343 -2.005571,-0.336073 -4.801648,-0.73798 -6.213505,-0.893127 -1.411857,-0.155148 -3.222529,-0.389447 -4.023715,-0.520666 -1.799084,-0.294655 -2.404873,-0.303461 -2.237424,-0.03252 0.07103,0.114933 -0.09204,1.435525 -0.362382,2.93465 -0.270342,1.499125 -0.491531,2.895121 -0.491531,3.102214 0,0.84595 0.267442,0.0091 0.635436,-1.988283 0.488002,-2.648784 0.572716,-2.898508 0.879269,-2.591955 0.149071,0.149071 0.154115,0.543078 0.01324,1.034283 -0.125162,0.436412 -0.308536,1.549564 -0.4075,2.473669 -0.147,1.372666 -0.11641,1.659121 0.167128,1.565068 0.227239,-0.07538 0.447837,-0.874398 0.638953,-2.314327 0.387949,-2.922937 0.555625,-3.551624 0.864789,-3.242459 0.228965,0.228965 0.129967,1.316971 -0.41304,4.539391 l -0.137725,0.817318 h 2.353143 c 1.504422,0 3.980203,0.283242 6.864286,0.785309 4.096471,0.713123 5.135292,0.795939 11.301162,0.900945 4.015841,0.06839 6.892768,0.218115 7.041502,0.366463 0.167227,0.166793 -2.1498,0.212701 -6.915761,0.137025 -6.579505,-0.104473 -7.538445,-0.177839 -11.693923,-0.894673 -2.631866,-0.454006 -5.434611,-0.78322 -6.695714,-0.786486 l -2.169034,-0.0056 -0.157176,0.785882 c -0.275006,1.375028 -0.170544,2.468838 0.282917,2.962394 0.242052,0.263454 0.636952,0.764131 0.877557,1.112616 0.240604,0.348486 1.032773,0.862779 1.760375,1.142874 3.541079,1.363163 5.116908,2.123507 6.611728,3.190189 0.895736,0.639184 1.565751,1.26386 1.488923,1.388171 -0.139332,0.225443 -0.822311,-0.133999 -2.251058,-1.184701 -0.748449,-0.55041 -5.924167,-2.858888 -6.409764,-2.858888 -0.394709,0 -2.266372,-1.779163 -2.266372,-2.154365 0,-0.184505 -0.163964,-0.427223 -0.364364,-0.539372 -0.251072,-0.140507 -0.387911,-0.750393 -0.440094,-1.961484 -0.07359,-1.707819 -0.446167,-2.397901 -0.609486,-1.128869 -0.0445,0.345788 -0.140611,1.04445 -0.213577,1.552582 -0.105996,0.73816 -0.0063,1.07405 0.495946,1.670937 0.345736,0.410883 0.62861,0.8156 0.62861,0.89937 0,0.366726 -0.715114,0.100851 -1.244563,-0.462721 -0.523813,-0.557574 -0.566918,-0.792504 -0.461416,-2.514822 0.06401,-1.044886 0.02137,-1.899793 -0.09475,-1.899793 -0.116119,0 -0.211126,0.201184 -0.211126,0.447075 0,0.245891 -0.239832,0.652426 -0.532962,0.903411 -0.437225,0.374364 -0.508232,0.644153 -0.395294,1.501912 0.173911,1.320838 1.714559,2.753521 3.423129,3.183242 2.625277,0.660281 7.881663,3.255079 9.961717,4.917571 1.097694,0.877335 2.111762,2.485063 1.769568,2.805512 -0.116606,0.109197 -0.26768,0.02879 -0.335718,-0.178684 -0.06804,-0.207472 -0.707096,-0.943058 -1.420128,-1.634634 -1.505703,-1.460395 -6.067257,-3.903787 -9.562068,-5.121914 -2.001184,-0.697519 -3.100491,-1.376237 -4.102784,-2.533082 -0.456392,-0.526766 -0.38559,-2.881385 0.167877,-5.583008 0.265226,-1.294641 0.561606,-3.274333 0.658622,-4.399314 0.199431,-2.312582 0.422574,-2.904543 0.91083,-2.416286 0.171738,0.171738 0.544243,0.299123 0.82779,0.283078 0.424209,-0.024 0.437574,-0.04955 0.07544,-0.14418 -0.679306,-0.177522 -0.558269,-0.868192 0.125741,-0.717509 1.651716,0.363862 8.264369,1.423721 11.002347,1.763428 4.573598,0.567457 5.029645,0.652906 5.029645,0.942397 0,0.172501 -0.535837,0.201237 -1.570235,0.08421 -0.863629,-0.09771 -1.514339,-0.122278 -1.446023,-0.0546 0.119048,0.117938 4.249767,0.702905 7.417196,1.050377 3.370649,0.369765 12.791581,1.913961 16.039741,2.629092 1.9061,0.419657 3.53193,0.763012 3.61296,0.763012 0.081,0 0.0739,0.254626 -0.0159,0.565835 -0.0898,0.311209 -0.54332,2.376507 -1.00788,4.58955 -0.96197,4.582547 -1.64269,6.581347 -2.52303,7.408382 -0.54762,0.514455 -0.98059,0.59889 -4.08402,0.79642 -4.748527,0.30224 -6.933825,0.602602 -9.004064,1.237579 -1.46956,0.450739 -1.979342,0.764406 -3.085831,1.898704 -0.729,0.747322 -1.418851,1.358767 -1.533001,1.358767 -0.235318,0 -1.112992,2.886131 -1.635064,5.376723 l -0.348966,1.664778 h 0.750309 c 0.41267,0 1.445646,-0.182038 2.295502,-0.404529 2.107186,-0.551659 4.467919,-0.345023 6.235904,0.54583 2.23644,1.126899 2.667682,1.523645 2.853851,2.625565 0.148743,0.880404 0.0695,1.134426 -0.646709,2.073155 -1.263148,1.655593 -2.271816,2.438572 -3.1513,2.446198 -0.809377,0.007 -1.322716,-0.307504 -3.789587,-2.321886 -1.842584,-1.504605 -5.533676,-3.488245 -5.147247,-2.766196 0.385953,0.72116 1.957211,2.062048 3.859341,3.293502 1.619013,1.048163 1.732936,1.190376 2.9211,3.646492 0.68001,1.405686 1.429799,3.2014 1.666197,3.990475 0.309776,1.034006 0.701018,1.6797 1.400899,2.312 0.905385,0.817961 2.448793,1.380149 2.945771,1.072999 0.231773,-0.143243 1.013686,0.243722 0.814345,0.403016 -0.06515,0.05206 -0.633844,0.389502 -1.263759,0.749864 -1.143223,0.654017 -1.147132,0.654385 -2.155389,0.202975 C 92.674998,74.497943 90.999728,71.761175 90.706844,69.133709 90.412907,66.496802 90.485551,66.617 88.412704,65.337794 85.927435,63.80407 85.385308,63.383788 84.707977,62.465718 L 84.15452,61.715549 83.602571,64.4187 c -0.753364,3.68958 -1.43988,13.678458 -1.02405,14.900039 0.164791,0.484103 0.8891,1.451863 1.609576,2.150577 1.393778,1.351679 2.1528,1.646976 6.432451,2.50254 3.467028,0.693109 4.199594,1.131029 4.626397,2.765608 0.07223,0.27663 -0.02254,0.707205 -0.210603,0.956833 -0.303676,0.403091 -0.886347,0.465775 -5.208037,0.560281 -3.496374,0.07646 -5.503201,0.0038 -7.129447,-0.258081 z M 96.153163,74.791998 c 0.3127,-0.202082 0.291192,-0.2446 -0.125741,-0.248572 -0.27663,-0.0026 -0.842465,-0.214275 -1.257411,-0.470312 -1.49659,-0.923452 -2.130508,-1.826236 -2.832906,-4.034431 -0.523218,-1.644893 -0.70704,-1.995379 -0.768044,-1.464403 -0.106206,0.924415 0.838358,3.615454 1.638262,4.667365 0.687576,0.904194 1.981876,1.801747 2.591393,1.797044 0.207473,-0.0016 0.546974,-0.112612 0.754447,-0.246691 z M 71.602535,72.307699 c 1.469959,-1.543092 1.037942,-1.441633 -0.695205,0.163268 -0.723451,0.669918 -1.156923,1.284912 -1.152152,1.634634 0.0074,0.545176 0.01526,0.546768 0.283241,0.05769 0.151576,-0.27663 0.855429,-1.111647 1.564116,-1.855592 z m 2.901631,-4.934426 c -0.01187,-0.647747 -0.04439,-0.683314 -0.229956,-0.251483 -0.118872,0.276631 -0.222352,0.785882 -0.229956,1.13167 -0.01089,0.495513 0.03782,0.54879 0.229956,0.251483 0.134079,-0.207473 0.23756,-0.716725 0.229956,-1.13167 z m 15.093557,-2.535189 c -0.187032,-0.22536 -1.01281,-0.866602 -1.835062,-1.424982 -0.822252,-0.558381 -1.950895,-1.423525 -2.508096,-1.922543 l -1.013093,-0.907306 0.486107,0.832353 c 0.660613,1.131154 1.357023,1.751468 3.333008,2.968811 1.714712,1.056381 2.142006,1.182492 1.537136,0.453667 z M 77.552966,63.859038 c 2.199411,-0.902942 3.507347,-2.0219 4.619682,-3.952204 0.403058,-0.699451 0.311991,-0.644736 -0.569908,0.342413 -0.729185,0.81621 -1.681764,1.478556 -3.120276,2.169586 -1.13886,0.547084 -2.345007,1.291514 -2.680327,1.654288 -0.335319,0.362774 -0.557384,0.659588 -0.493477,0.659588 0.06391,0 1.073845,-0.393152 2.244306,-0.873671 z m 17.235522,-0.698092 c 1.991388,-2.182209 2.063546,-2.333947 0.587377,-1.235166 -1.836733,1.367165 -2.498921,1.361111 -4.689868,-0.04288 -1.959908,-1.255939 -2.831747,-1.74254 -2.831747,-1.580486 0,0.06274 0.409573,0.367208 0.910162,0.67659 0.50059,0.309381 1.5367,1.11078 2.302468,1.780886 1.738426,1.521256 2.613325,1.61554 3.721608,0.401058 z M 94.57108,61.903535 c 1.037614,-0.700518 1.002368,-1.371317 -0.105967,-2.016751 -0.941448,-0.548249 -2.83539,-0.83449 -6.862345,-1.037141 l -2.892046,-0.145538 2.011858,0.627041 c 1.106522,0.344873 2.917194,1.186948 4.023715,1.871278 1.106522,0.68433 2.231189,1.249346 2.499261,1.255591 0.268071,0.0062 0.864557,-0.243271 1.325524,-0.55448 z M 71.728838,59.650708 c 2.610377,-1.141713 3.550941,-1.257864 7.197793,-0.888865 1.702349,0.172249 1.689914,0.16618 -0.377223,-0.184119 -3.002082,-0.508736 -4.939433,-0.474022 -6.664279,0.119412 -2.169607,0.746455 -3.328354,0.670741 -4.49869,-0.29395 l -0.966796,-0.796914 0.173158,0.859785 c 0.200917,0.997618 1.414117,2.242937 2.185088,2.242937 0.292225,0 1.620151,-0.476228 2.950949,-1.058286 z m 24.404654,-0.314822 c -0.196654,-0.190191 -1.073154,-0.706117 -1.947778,-1.146502 -1.991594,-1.002796 -3.86266,-1.205879 -5.990541,-0.650205 -0.849856,0.221931 -1.972096,0.403511 -2.493865,0.403511 -2.196249,0 -0.434559,0.238554 3.464504,0.469136 4.452731,0.263324 5.608639,0.566067 6.436894,1.685884 0.413751,0.5594 0.4307,0.561442 0.656527,0.0791 0.16301,-0.348171 0.12569,-0.597758 -0.125741,-0.840924 z M 83.835578,58.565318 c 0.174961,-0.210815 0.273693,-0.408858 0.219404,-0.440094 -1.187508,-0.683259 -1.24227,-0.69564 -1.388731,-0.313971 -0.361374,0.941726 0.534249,1.519287 1.169327,0.754065 z M 71.831299,58.19185 c 1.664014,-0.584854 3.047584,-0.663295 6.731733,-0.381656 1.958033,0.149685 2.806107,0.121599 3.233398,-0.10708 0.801693,-0.429053 0.400052,-0.731232 -1.350632,-1.016163 -0.803843,-0.130829 -1.899173,-0.465982 -2.434068,-0.744784 -0.916459,-0.477686 -1.215377,-0.49435 -5.184202,-0.289009 -2.344074,0.121279 -4.508884,0.356267 -4.88193,0.529928 -0.9922,0.46189 -1.052007,1.138189 -0.166541,1.883259 0.92983,0.782401 2.081747,0.818078 4.052242,0.125505 z m 9.667786,0.353349 c -0.08357,-0.08357 -0.300469,-0.0925 -0.482008,-0.01985 -0.200615,0.08028 -0.141025,0.139871 0.151937,0.151938 0.265104,0.01092 0.413636,-0.04852 0.330071,-0.132084 z m -1.196036,-3.180202 c -1.090931,-0.802012 -1.163673,-0.817638 -3.884647,-0.834448 -1.525093,-0.0094 -3.437105,-0.161706 -4.248914,-0.338409 -1.722317,-0.374889 -3.242177,-0.206632 -4.379137,0.484794 -0.854182,0.519459 -1.142059,1.197615 -0.369031,0.869332 0.242051,-0.102792 2.574531,-0.281064 5.183287,-0.396159 4.1931,-0.184994 4.834745,-0.160932 5.532608,0.207472 0.656823,0.346739 1.678476,0.613379 3.039428,0.793258 0.130985,0.01731 -0.262132,-0.336315 -0.873594,-0.78584 z m 4.453723,-0.235764 c -0.08028,-0.200616 -0.13987,-0.141026 -0.151937,0.151937 -0.01092,0.265104 0.04852,0.413636 0.132083,0.33007 0.08357,-0.08357 0.0925,-0.300469 0.01985,-0.482007 z m 0.251482,-1.257411 c -0.08028,-0.200616 -0.13987,-0.141026 -0.151937,0.151937 -0.01092,0.265104 0.04852,0.413636 0.132083,0.33007 0.08357,-0.08357 0.0925,-0.300469 0.01985,-0.482007 z m 18.616226,-9.032328 c 0.53055,-0.195864 1.3068,-1.430968 1.70246,-2.708806 0.127,-0.410166 0.0977,-0.543411 -0.0935,-0.425252 -0.18182,0.112369 -0.28035,-0.116669 -0.28395,-0.660083 l -0.006,-0.832159 -0.51009,1.124518 c -0.63825,1.407064 -1.59367,2.673539 -2.31826,3.073033 -0.30558,0.168482 -1.51753,0.440545 -2.693208,0.604585 l -2.137599,0.298254 2.892047,-0.134498 c 1.59062,-0.07397 3.14204,-0.22679 3.4476,-0.339592 z m 2.58304,-6.029418 c 0.55649,-2.636672 0.6158,-3.217757 0.29189,-2.859505 -0.1188,0.131399 -0.34192,1.031077 -0.49582,1.999283 -0.15389,0.968207 -0.35586,2.15646 -0.44882,2.640563 -0.093,0.484104 -0.0966,0.81462 -0.008,0.734481 0.0885,-0.08014 0.38588,-1.211809 0.66089,-2.514822 z m -1.08593,0.46006 c -0.0698,-0.172894 -0.12684,-0.03144 -0.12684,0.314353 0,0.345788 0.0571,0.487246 0.12684,0.314352 0.0698,-0.172894 0.0698,-0.455811 0,-0.628705 z m 0.25148,-1.257411 c -0.0698,-0.172894 -0.12684,-0.03144 -0.12684,0.314353 0,0.345788 0.0571,0.487246 0.12684,0.314352 0.0698,-0.172894 0.0698,-0.455811 0,-0.628705 z M 67.217254,27.022952 c 0.0095,-0.223062 -0.07057,-0.271885 -0.2061,-0.125741 -0.121855,0.1314 -0.283715,1.087661 -0.35969,2.125025 l -0.138135,1.886116 0.344235,-1.760375 c 0.18933,-0.968206 0.35119,-1.924468 0.35969,-2.125025 z m 13.1554,0.826803 c -0.172894,-0.06976 -0.455812,-0.06976 -0.628706,0 -0.172894,0.06977 -0.03144,0.126844 0.314353,0.126844 0.345788,0 0.487247,-0.05708 0.314353,-0.126844 z M 71.32408,26.59394 c -0.170261,-0.06889 -0.509762,-0.07308 -0.754446,-0.0093 -0.244684,0.06376 -0.105379,0.120124 0.309566,0.125249 0.414946,0.0051 0.615142,-0.04704 0.44488,-0.11593 z m -1.325068,-0.183724 c 0,-0.05346 -0.339501,-0.147026 -0.754446,-0.207927 -0.414946,-0.0609 -0.754447,-0.01716 -0.754447,0.0972 0,0.11436 0.339501,0.207927 0.754447,0.207927 0.414945,0 0.754446,-0.04374 0.754446,-0.0972 z m 8.851861,51.462439 c 0.616356,-1.265027 0.83533,-1.571764 1.122054,-1.571764 0.427725,0 0.422641,0.110571 -0.04682,1.018417 -0.211025,0.408077 -0.559956,0.741959 -0.775404,0.741959 -0.215447,0 -0.350368,-0.08488 -0.299825,-0.188612 z m 1.157604,-3.717273 c -0.07812,-0.07812 -0.0488,-0.560965 0.06515,-1.072991 0.532535,-2.392901 1.494244,-7.685696 1.757046,-9.669963 0.28442,-2.147485 0.746944,-3.014413 0.737941,-1.383152 -0.0057,1.03851 -0.582943,4.780738 -1.115192,7.230113 -0.225419,1.037364 -0.534321,2.508535 -0.68645,3.269269 -0.281234,1.406332 -0.503085,1.882132 -0.758494,1.626724 z M 39.569664,67.825977 c 0,-0.24918 2.301792,-0.875303 2.497686,-0.679409 0.06014,0.06014 -0.01086,0.229558 -0.15779,0.376483 -0.357134,0.357133 -2.339896,0.613825 -2.339896,0.302926 z m -1.335025,-1.172418 c -0.06123,-0.15956 -0.691677,-0.4988 -1.400995,-0.753867 -1.54392,-0.555186 -2.029069,-1.076349 -0.766998,-0.823935 0.467713,0.09354 1.313208,0.394125 1.878878,0.667962 1.386233,0.671063 1.827148,0.631688 4.201833,-0.375245 0.308273,-0.130716 0.440094,-0.07179 0.440094,0.196718 0,0.721428 -4.100211,1.746636 -4.352812,1.088367 z m -2.940172,-0.411956 c -0.622419,-0.261175 -1.490208,-0.481186 -1.92842,-0.488914 -1.065373,-0.01879 -1.592332,-0.243331 -1.592332,-0.67851 0,-0.277168 0.111053,-0.299732 0.486432,-0.09883 0.267537,0.143181 0.861664,0.266484 1.320282,0.274006 1.035887,0.01699 3.019618,0.758236 3.160245,1.180864 0.136851,0.411279 -0.08577,0.382245 -1.446207,-0.188611 z m 11.568182,-6.161314 c 0,-0.207473 0.113167,-0.377224 0.251482,-0.377224 0.138315,0 0.251482,0.169751 0.251482,0.377224 0,0.207472 -0.113167,0.377223 -0.251482,0.377223 -0.138315,0 -0.251482,-0.169751 -0.251482,-0.377223 z m 0.754446,-1.257411 c 0,-0.207473 0.169751,-0.377224 0.377223,-0.377224 0.207473,0 0.377224,0.169751 0.377224,0.377224 0,0.207472 -0.169751,0.377223 -0.377224,0.377223 -0.207472,0 -0.377223,-0.169751 -0.377223,-0.377223 z m 2.892046,-2.137599 c -0.100381,-0.162419 -0.06934,-0.408474 0.06897,-0.546789 0.167655,-0.167655 0.312319,-0.153047 0.433992,0.04382 0.10038,0.162419 0.06934,0.408474 -0.06897,0.546789 -0.167654,0.167655 -0.312318,0.153047 -0.433991,-0.04382 z m 34.138711,-8.355366 c -0.70043,-0.147209 -1.0688,-0.358814 -1.0688,-0.613958 0,-0.269437 0.135525,-0.335734 0.440094,-0.215287 0.242052,0.09572 0.807887,0.235804 1.257411,0.311292 0.768407,0.129037 1.053457,0.420864 0.628706,0.643652 -0.103737,0.05441 -0.669572,-0.0022 -1.257411,-0.125699 z m -0.880188,-1.618037 c -0.518682,-0.215139 -0.943058,-0.516233 -0.943058,-0.669099 0,-0.152865 -0.473902,-0.760807 -1.053115,-1.350982 -0.579214,-0.590175 -0.964628,-1.160294 -0.856476,-1.26693 0.108152,-0.106636 0.785863,0.437903 1.506025,1.210088 1.388543,1.488849 2.387818,1.991037 3.961844,1.991037 0.532621,0 0.968401,0.113167 0.968401,0.251483 0,0.38894 -2.528354,0.272107 -3.583621,-0.165597 z m -3.179248,-1.980224 c -0.458192,-0.485772 -1.330745,-1.225627 -1.939007,-1.644122 -0.608261,-0.418495 -1.10593,-0.86863 -1.10593,-1.000301 0,-0.37064 0.179464,-0.30172 1.583844,0.608252 1.681091,1.089267 2.872054,2.341508 2.541401,2.672162 -0.161986,0.161986 -0.534475,-0.0573 -1.080308,-0.635991 z m 12.798443,-0.871966 c 0,-0.138315 0.113167,-0.251482 0.251482,-0.251482 0.138315,0 0.251482,0.113167 0.251482,0.251482 0,0.138315 -0.113167,0.251482 -0.251482,0.251482 -0.138315,0 -0.251482,-0.113167 -0.251482,-0.251482 z m 1.257411,-0.775403 c 0,-0.612874 0.587657,-0.526244 0.710016,0.104667 0.04813,0.248153 -0.08016,0.419254 -0.314353,0.419254 -0.233284,0 -0.395663,-0.215016 -0.395663,-0.523921 z M 47.960487,42.578991 c -0.156922,-0.194666 -0.368353,-0.750024 -0.469847,-1.234127 -0.267839,-1.277534 -0.580468,-1.760375 -1.139804,-1.760375 -0.271764,0 -0.494116,-0.169751 -0.494116,-0.377224 0,-0.207472 0.201153,-0.377223 0.447008,-0.377223 0.64055,0 1.564849,0.70991 1.564849,1.201886 0,0.337525 0.07337,0.314163 0.377641,-0.120238 0.351279,-0.50152 0.322514,-0.594286 -0.412043,-1.328843 -0.6143,-0.6143 -0.722352,-0.856065 -0.48651,-1.088562 0.234962,-0.231632 0.417262,-0.143276 0.810242,0.392699 0.352279,0.480464 0.730969,0.691576 1.240539,0.691576 0.929906,0 0.922314,0.182831 -0.04101,0.987614 -0.626937,0.523757 -0.806598,0.906087 -0.943058,2.006889 -0.132601,1.069678 -0.229459,1.284339 -0.453888,1.005928 z m 50.204534,-0.332982 c 0,-0.218999 0.179181,-0.39818 0.39818,-0.39818 0.218999,0 0.353385,0.134385 0.298635,0.298635 -0.155435,0.466304 -0.696815,0.543644 -0.696815,0.09954 z m -54.726596,-2.59865 c -0.279255,-0.883088 -0.952463,-2.459967 -1.181004,-2.766304 -0.128986,-0.172894 -0.503581,-0.314353 -0.832433,-0.314353 -0.809408,0 -0.73744,-0.277589 0.229092,-0.883624 0.675128,-0.42332 0.820444,-0.683792 0.885736,-1.587642 0.08757,-1.212205 0.535955,-1.313358 0.836719,-0.188759 0.273307,1.021932 0.947747,1.654096 1.764715,1.654096 0.876736,0 0.93559,0.431724 0.102055,0.748633 -0.83623,0.317934 -1.146961,0.996338 -1.146961,2.504103 0,1.242629 -0.377397,1.720944 -0.657919,0.83385 z m 0.193322,-3.853334 c -0.432713,-0.403133 -0.510966,-0.407321 -0.871636,-0.04665 -0.36067,0.36067 -0.346795,0.455952 0.154551,1.061318 l 0.550795,0.665074 0.320841,-0.618423 c 0.277815,-0.535488 0.257089,-0.677816 -0.154551,-1.061317 z m 57.457843,2.082715 c -0.18235,-0.295047 0.53475,-0.952332 0.7759,-0.711181 0.0922,0.09216 -0.0103,0.345481 -0.2278,0.562933 -0.23518,0.235184 -0.45725,0.295247 -0.5481,0.148248 z m 0.81253,-9.224948 c -0.0654,-0.06543 -0.004,-0.813554 0.13631,-1.662501 0.22339,-1.350715 0.2016,-1.58279 -0.17443,-1.857749 -0.51291,-0.375045 -0.56572,-0.887468 -0.0915,-0.887468 0.50278,0 1.17064,0.841308 1.17064,1.474673 0,0.47812 0.07,0.517407 0.50616,0.283991 0.4015,-0.214873 0.4535,-0.369293 0.25149,-0.746761 -0.14008,-0.26173 -0.25468,-0.775661 -0.25468,-1.142068 0,-0.877016 0.60123,-0.692166 0.70881,0.217924 0.0446,0.377552 0.35091,0.855115 0.69157,1.078329 0.77941,0.510686 0.78023,0.84577 0.002,0.84577 -0.77631,0 -2.05438,1.066219 -2.25997,1.885375 -0.14797,0.589537 -0.41149,0.785495 -0.6865,0.510485 z m -2.750252,-4.344847 c -0.01049,-0.103737 -0.0033,-0.941015 0.01605,-1.860618 0.03053,-1.453307 -0.03632,-1.722053 -0.511146,-2.05463 -0.646977,-0.453161 -0.451597,-0.925785 0.382714,-0.925785 0.984774,0 1.389914,-0.270121 1.770194,-1.18027 0.4892,-1.170807 0.90217,-0.840586 0.70923,0.567107 -0.12068,0.880447 -0.0561,1.233777 0.29677,1.623693 0.24805,0.2741 0.60322,0.498363 0.78926,0.498363 0.18603,0 0.33824,0.18295 0.33824,0.406554 0,0.292385 -0.15206,0.366789 -0.54149,0.26495 -0.79553,-0.208034 -1.84742,0.441341 -2.31664,1.430153 -0.226121,0.476521 -0.411132,0.990757 -0.411132,1.142748 0,0.305774 -0.491628,0.388397 -0.522046,0.08773 z M 101.1749,20.96 c 0.004,-0.0773 -0.13654,-0.338085 -0.31308,-0.579522 -0.38298,-0.523761 -1.293588,-0.295291 -1.076618,0.270124 0.07711,0.200937 0.140194,0.587701 0.140194,0.859476 0,0.47977 0.01805,0.481 0.620804,0.0423 0.34144,-0.248509 0.62436,-0.51508 0.6287,-0.592381 z"
       id="path1" /></g></svg>
