<?xml version="1.0" encoding="UTF-8" standalone="no"?>
<!-- Created with Inkscape (http://www.inkscape.org/) -->

<svg
   width="120"
   height="120"
   viewBox="0 0 120 120"
   version="1.1"
   id="svg1"
   xml:space="preserve"
   inkscape:export-filename="glass-stack.svg"
   inkscape:export-xdpi="96"
   inkscape:export-ydpi="96"
   xmlns:inkscape="http://www.inkscape.org/namespaces/inkscape"
   xmlns:sodipodi="http://sodipodi.sourceforge.net/DTD/sodipodi-0.dtd"
   xmlns="http://www.w3.org/2000/svg"
   xmlns:svg="http://www.w3.org/2000/svg"><sodipodi:namedview
     id="namedview1"
     pagecolor="#ffffff"
     bordercolor="#000000"
     borderopacity="0.25"
     inkscape:showpageshadow="2"
     inkscape:pageopacity="0.0"
     inkscape:pagecheckerboard="0"
     inkscape:deskcolor="#d1d1d1"
     inkscape:document-units="px"><inkscape:page
       x="0"
       y="0"
       width="120"
       height="120"
       id="page2"
       margin="0"
       bleed="0" /></sodipodi:namedview><defs
     id="defs1" /><g
     inkscape:label="Layer 1"
     inkscape:groupmode="layer"
     id="layer1"><path
       style="fill:#000000"
       d="M -4.5154457,61.663776 V -1.0435339 H 58.191864 120.89917 V 61.663776 124.37109 H 58.191864 -4.5154457 Z m 125.3101057,0 V -0.93902174 H 58.191864 -4.4109335 V 61.663776 124.26657 H 58.191864 120.79466 Z M 55.698663,107.06662 c -0.936313,-0.43773 -2.149816,-1.37887 -3.56114,-2.76187 -1.311098,-1.28479 -1.513884,-1.71881 -1.152171,-2.46601 0.122563,-0.25319 0.25392,-0.46105 0.291903,-0.46194 0.03798,-8.8e-4 0.135452,-0.0436 0.216596,-0.095 0.118226,-0.0748 0.08716,-0.14532 -0.156393,-0.35482 -0.16716,-0.14378 -0.327611,-0.23037 -0.356559,-0.19241 -0.02895,0.038 -0.15845,0.1586 -0.287784,0.2681 -0.43879,0.37151 -0.237844,-0.007 0.313536,-0.59108 0.786204,-0.832385 1.740246,-1.905341 2.19415,-2.46764 0.215223,-0.266619 0.501775,-0.602338 0.636783,-0.746042 0.135007,-0.143704 0.425961,-0.496433 0.646564,-0.783841 0.220603,-0.287409 0.549348,-0.663653 0.730546,-0.836098 0.181197,-0.172445 0.428431,-0.478945 0.549409,-0.681112 0.120979,-0.202166 0.340472,-0.48079 0.487763,-0.619163 0.147292,-0.138373 0.267803,-0.306618 0.267803,-0.373877 0,-0.06726 0.223395,-0.385459 0.496433,-0.707112 1.118544,-1.3177 1.292328,-1.543286 1.63978,-2.128568 0.401366,-0.676097 0.578664,-1.50449 0.521794,-2.43798 -0.01934,-0.317386 -0.06243,-1.016759 -0.09576,-1.554162 -0.03333,-0.537404 -0.107032,-1.219346 -0.163778,-1.515427 -0.05675,-0.296081 -0.149503,-0.773482 -0.206126,-1.06089 -0.05662,-0.287409 -0.174983,-0.992866 -0.263023,-1.567683 -0.08804,-0.574817 -0.183794,-1.154881 -0.212787,-1.289031 -0.103273,-0.477839 0.188842,-0.09938 0.582692,0.754923 0.482636,1.04689 0.670749,1.806735 0.895505,3.617217 0.323786,2.608209 0.209387,4.358186 -0.34844,5.330122 -0.365779,0.637318 -2.641956,3.469728 -3.410975,4.244519 -0.120535,0.121441 -0.477823,0.516038 -0.793972,0.876884 -0.696183,0.794606 -1.237554,1.366647 -2.728,2.882546 -0.626423,0.63712 -1.138951,1.189725 -1.138951,1.228015 0,0.0383 0.06145,0.0696 0.136567,0.0696 0.07511,0 1.023875,0.58788 2.108363,1.3064 1.084489,0.71852 2.050457,1.3064 2.146596,1.3064 0.09614,0 0.757075,-0.64666 1.468746,-1.43704 0.71167,-0.79037 1.558719,-1.71922 1.882332,-2.064114 0.323612,-0.34489 0.838572,-0.909256 1.144355,-1.254146 0.305783,-0.34489 0.582955,-0.650588 0.615937,-0.679329 0.03298,-0.02874 0.24482,-0.263893 0.47075,-0.522561 0.225929,-0.258667 0.867791,-0.964125 1.42636,-1.567683 1.075736,-1.162381 1.947272,-2.268333 2.29013,-2.906104 0.449524,-0.836188 0.607121,-1.304077 0.957278,-2.842066 0.120505,-0.52929 0.16213,-2.942135 0.09324,-5.404896 l -0.02402,-0.858617 -1.113716,-0.559491 c -0.819086,-0.41148 -1.404024,-0.622088 -2.211094,-0.796109 -1.118099,-0.241086 -2.537139,-0.833505 -3.030853,-1.265317 -0.143705,-0.125686 -0.438543,-0.319408 -0.655197,-0.430492 -0.362584,-0.185906 -0.383549,-0.220425 -0.263578,-0.433981 0.125594,-0.223563 0.131717,-0.2244 0.168187,-0.02299 0.02559,0.141319 0.30562,0.341844 0.864523,0.61907 0.454671,0.225525 0.826674,0.44892 0.826674,0.496433 0,0.04751 0.114801,0.08639 0.255113,0.08639 0.140312,0 0.280604,0.04125 0.31176,0.09166 0.07371,0.119268 0.819245,0.305135 1.533318,0.382268 0.310678,0.03356 0.658931,0.10187 0.773894,0.151803 0.114964,0.04993 0.514723,0.190588 0.888354,0.312566 0.373631,0.121979 0.843936,0.309973 1.045122,0.417765 0.201186,0.107792 0.577429,0.298346 0.836097,0.423453 0.258668,0.125107 0.728973,0.356642 1.045122,0.514524 0.316149,0.157881 0.74622,0.343232 0.955713,0.411891 0.653652,0.214227 2.022246,1.499416 2.351602,2.208289 0.750113,1.614471 2.954985,9.406598 2.96166,10.466655 9.66e-4,0.153373 0.03083,0.354635 0.06637,0.447248 0.05812,0.151451 0.07983,0.149683 0.215846,-0.01758 0.135168,-0.166218 0.144661,-0.13047 0.08938,0.336593 -0.08912,0.753035 -0.112632,0.875001 -0.18204,0.944409 -0.122995,0.122995 -0.914963,-2.137948 -1.50229,-4.288799 -0.329624,-1.207116 -0.661571,-2.406393 -0.737662,-2.665061 -1.440911,-4.898349 -1.479406,-4.993255 -2.370165,-5.843397 -0.642398,-0.613106 -1.156127,-0.956613 -2.240602,-1.49819 -0.717177,-0.358152 -0.755382,-0.36624 -0.709819,-0.150268 0.06691,0.317148 0.179033,1.534246 0.169268,1.837373 -0.0044,0.137751 0.03632,0.303935 0.09056,0.369298 0.05472,0.06593 0.05979,0.18168 0.01141,0.259973 -0.04797,0.07762 -0.05239,0.264167 -0.0098,0.414544 0.237416,0.838446 -0.17059,4.725048 -0.547102,5.211612 -0.0556,0.07185 -0.07086,0.13064 -0.03391,0.13064 0.06436,0 -0.14784,0.429173 -0.542598,1.097378 -0.312983,0.529785 -1.39095,2.092521 -1.622068,2.351524 -0.654691,0.73368 -3.480951,3.84068 -3.945353,4.337252 -0.322544,0.34489 -1.001359,1.09738 -1.508478,1.6722 -0.507119,0.57481 -1.152112,1.28424 -1.433317,1.57649 -0.448468,0.46608 -0.491352,0.5479 -0.349062,0.666 0.08922,0.074 0.16222,0.1035 0.16222,0.0654 0,-0.0803 0.146823,0.0336 0.830776,0.64453 0.273517,0.24429 0.542625,0.44417 0.598019,0.44417 0.05539,0 0.182318,0.25888 0.282054,0.57528 0.225076,0.71402 0.108585,1.02973 -0.508959,1.37936 -0.579883,0.32831 -1.386829,0.31736 -2.127408,-0.0289 z m 2.015431,-0.52233 c 0.419105,-0.4191 0.0752,-1.11801 -0.951634,-1.934 -0.63185,-0.50211 -0.851803,-0.61918 -1.164119,-0.61963 -0.211791,-3e-4 -0.507139,-0.0826 -0.656329,-0.1829 -0.149191,-0.10029 -0.525435,-0.35298 -0.836098,-0.56154 -0.310663,-0.20856 -0.951937,-0.71414 -1.425052,-1.12351 -0.473116,-0.40937 -0.88282,-0.7443 -0.910454,-0.7443 -0.02763,0 -0.102432,0.19381 -0.16622,0.4307 -0.08855,0.32883 -0.08494,0.50564 0.01524,0.7475 0.143688,0.34689 2.1199,2.35905 2.705483,2.75469 0.201186,0.13593 0.530481,0.35812 0.731766,0.49375 1.256985,0.84699 2.268331,1.12833 2.657415,0.73924 z m 21.589231,-4.2871 c -1.635874,-0.41998 -3.786465,-1.95906 -4.39652,-3.146386 l -0.268289,-0.522159 -0.610878,0.193467 c -0.586157,0.185639 -0.829193,0.183995 -0.622284,-0.0042 0.05365,-0.0488 0.490125,-0.213163 0.969945,-0.365251 0.47982,-0.152089 0.972347,-0.34653 1.094504,-0.432093 0.122158,-0.08556 0.325297,-0.155568 0.451421,-0.155568 0.126124,0 0.244994,-0.04567 0.264154,-0.10149 0.01916,-0.05582 0.129572,-0.115808 0.245359,-0.133308 0.115788,-0.0175 0.6278,-0.265771 1.137807,-0.551712 1.507468,-0.845179 1.943805,-1.482246 1.943805,-2.838022 0,-0.402564 -0.341673,-1.599693 -0.591193,-2.071382 -0.09122,-0.172445 -0.250148,-0.595719 -0.353167,-0.94061 -0.207631,-0.695111 -0.954863,-2.722143 -1.213591,-3.292133 -0.09132,-0.201186 -0.448189,-1.188826 -0.793038,-2.194756 -0.344849,-1.00593 -0.769829,-2.122472 -0.944399,-2.481205 -0.73527,-1.510937 -1.994319,-2.546437 -4.726867,-3.887591 -1.03467,-0.507823 -2.398554,-1.241094 -3.030853,-1.62949 -0.632299,-0.388397 -1.337756,-0.818909 -1.567683,-0.956694 -0.229927,-0.137785 -0.488594,-0.29346 -0.574817,-0.345944 -0.08622,-0.05248 -0.79168,-0.480537 -1.567683,-0.951229 -0.776003,-0.470691 -1.657101,-1.013735 -1.957995,-1.206763 -0.300895,-0.193029 -0.594835,-0.350961 -0.653201,-0.350961 -0.05837,0 -0.10612,-0.04703 -0.10612,-0.104512 0,-0.05748 0.06932,-0.104512 0.154047,-0.104512 0.175733,0 1.445487,0.499256 2.142486,0.842408 0.257164,0.126608 0.656923,0.316719 0.888354,0.422469 0.23143,0.105749 0.63242,0.312648 0.891088,0.459774 0.476269,0.270896 0.394561,0.189888 -0.474573,-0.470505 -0.264778,-0.201186 -0.579212,-0.448096 -0.698741,-0.548689 -0.11953,-0.100593 -0.263816,-0.182896 -0.320636,-0.182896 -0.05682,0 -0.676514,-0.583698 -1.377099,-1.297106 l -1.273789,-1.297106 -0.195232,0.259973 c -0.107377,0.142985 -0.338793,0.332905 -0.514257,0.422044 -0.175465,0.08914 -0.332695,0.173677 -0.349401,0.187863 -0.01671,0.01418 0.048,0.370381 0.143793,0.791545 0.115163,0.506331 0.153567,0.979933 0.113362,1.397959 -0.07375,0.766755 -0.464056,2.046122 -0.614448,2.014055 -0.05982,-0.01275 -0.154306,0.107553 -0.209967,0.267351 -0.05566,0.159797 -0.35548,0.674816 -0.666265,1.144486 -0.310785,0.46967 -0.566559,0.926807 -0.568387,1.015861 -0.0018,0.08905 -0.07237,0.253208 -0.156769,0.364787 -0.08439,0.11158 -0.153444,0.286496 -0.153444,0.388703 0,0.102207 -0.09457,0.367269 -0.210158,0.589028 -0.235993,0.452761 -0.265924,1.148868 -0.153704,3.574702 0.07004,1.514071 0.02746,1.750415 -0.436966,2.425482 -0.48683,0.707628 -1.311488,0.747493 -1.656619,0.08008 -0.259584,-0.50198 -0.552295,-2.28572 -0.831345,-5.066113 C 54.603249,78.48148 53.49722,76.135954 51.370155,73.976679 49.853283,72.436838 47.39632,70.12927 47.273659,70.12927 c -0.238841,0 0.699582,3.059255 1.378536,4.494023 0.56046,1.184369 1.190619,2.74023 1.133137,2.797712 -0.216147,0.216147 -1.410879,-1.433741 -1.836705,-2.536431 -0.133186,-0.34489 -0.277247,-0.674104 -0.320137,-0.731585 -0.138714,-0.18591 -0.61805,-1.641038 -0.946756,-2.874085 -0.297468,-1.115863 -0.32331,-1.355244 -0.361043,-3.34439 -0.04392,-2.315464 0.02666,-2.91656 0.533389,-4.542454 0.273671,-0.878103 0.562927,-1.431868 0.569705,-1.090672 0.0018,0.09202 -0.0415,0.303653 -0.09629,0.470305 -0.09454,0.287585 -0.166824,0.644222 -0.272971,1.346888 -0.02595,0.171764 -0.07182,0.389945 -0.101942,0.484847 -0.11493,0.362113 -0.143848,2.991466 -0.03893,3.54011 0.06045,0.316149 0.141928,0.805566 0.18105,1.087593 0.07034,0.507101 0.08009,0.518169 0.880971,1.000266 1.984933,1.19485 4.491341,3.526817 5.673538,5.278672 0.827252,1.225875 1.59,3.17628 1.81941,4.65237 0.067,0.431113 0.212302,1.536329 0.322889,2.456036 0.282299,2.347774 0.415935,3.203808 0.534828,3.425963 0.165699,0.30961 0.514512,0.175978 0.758534,-0.290597 0.203106,-0.388343 0.216555,-0.55965 0.189268,-2.410791 -0.02099,-1.42412 0.01202,-2.169674 0.115683,-2.612804 0.180907,-0.773298 0.736839,-1.889793 1.586745,-3.186709 0.75397,-1.150523 1.148767,-1.898674 1.237672,-2.345427 0.126677,-0.636552 0.166232,-1.619938 0.06516,-1.619938 -0.05599,0 -0.1018,0.07054 -0.1018,0.156768 0,0.190699 -0.144931,0.203734 -0.290521,0.02613 -0.118899,-0.145046 -0.317374,-0.82985 -0.374862,-1.2934 -0.02049,-0.165226 -0.098,-0.512048 -0.172244,-0.770716 -0.139478,-0.485944 -1.080245,-2.753504 -1.257443,-3.030853 -0.09401,-0.14715 -0.271863,-0.481097 -1.001872,-1.881219 -0.331636,-0.636061 -0.491495,-0.804627 -0.542519,-0.572065 -0.05576,0.254127 -0.21126,0.173961 -0.246675,-0.127168 -0.0282,-0.239766 -0.106796,-0.299902 -0.533596,-0.408264 -0.275289,-0.06989 -0.86317,-0.132339 -1.306402,-0.138765 -1.39166,-0.02018 -1.983278,-0.252835 -2.292651,-0.901598 -0.165358,-0.346758 -0.163101,-0.37311 0.05752,-0.671512 l 0.229629,-0.310591 -0.445308,-0.224468 C 51.201716,63.027727 49.484305,61.832447 48.936681,61.297992 48.64219,61.010584 48.176584,60.446218 47.902,60.043846 c -0.449925,-0.659313 -0.491771,-0.695449 -0.423602,-0.365793 0.12226,0.591231 0.58395,1.355228 1.251858,2.071553 0.750507,0.804912 1.567009,1.376569 2.499164,1.749736 1.101611,0.441005 0.824073,0.565046 -0.457914,0.204658 -0.258668,-0.07272 -0.49825,-0.12648 -0.532405,-0.119475 -0.03415,0.007 -0.397203,-0.187144 -0.806773,-0.431442 -0.409571,-0.244297 -0.789993,-0.444176 -0.845385,-0.444176 -0.05539,0 -0.280224,-0.223395 -0.499629,-0.496433 -0.219404,-0.273038 -0.429426,-0.519948 -0.466714,-0.548689 -0.168934,-0.130212 -0.713327,-1.260012 -0.87314,-1.812064 -0.171573,-0.592673 -0.170335,-0.625343 0.04315,-1.139052 l 0.219792,-0.528878 -0.423118,-0.402503 c -0.355159,-0.337854 -0.494664,-0.402503 -0.868561,-0.402503 -0.521726,0 -1.305795,0.444715 -1.600755,0.907929 -0.102952,0.161679 -0.218163,0.317477 -0.256026,0.346217 -0.188711,0.143248 -0.728536,1.211354 -0.957475,1.894473 -0.410452,1.224729 -0.535238,2.333476 -0.763072,6.780039 -0.03387,0.661039 -0.104392,1.484073 -0.156715,1.828963 -0.145176,0.95693 -0.11497,2.677879 0.06027,3.433474 0.179032,0.771971 0.629945,1.779935 1.032151,2.307255 0.150723,0.197608 0.274042,0.39093 0.274042,0.429605 0,0.03867 0.152849,0.262537 0.339665,0.497472 0.186815,0.234935 0.489823,0.664977 0.673351,0.955649 0.183528,0.290673 0.477469,0.72122 0.653201,0.956772 0.175733,0.235552 0.319515,0.476703 0.319515,0.535892 0,0.05919 0.06905,0.164921 0.153442,0.234961 0.153407,0.127317 0.684436,1.016276 0.68065,1.13943 -0.0037,0.1202 -0.72958,-0.76695 -0.72958,-0.891666 0,-0.06769 -0.03527,-0.13875 -0.07838,-0.15791 -0.121828,-0.05415 -1.06868,-1.325764 -1.197199,-1.607833 -0.06314,-0.138572 -0.20172,-0.279539 -0.30796,-0.313258 -0.106241,-0.03372 -0.193164,-0.105169 -0.193164,-0.158777 0,-0.05361 -0.0022,-0.132742 -0.0048,-0.175854 -0.0027,-0.04311 -0.136281,-0.219475 -0.296953,-0.39192 -0.160673,-0.172445 -0.387283,-0.454628 -0.503579,-0.627073 -0.411278,-0.609848 -1.180377,-2.147029 -1.180377,-2.359195 0,-0.118303 -0.05051,-0.309477 -0.112248,-0.424833 -0.107824,-0.201471 -0.14457,-4.230566 -0.04514,-4.949874 0.02384,-0.172445 0.06895,-1.371722 0.100263,-2.665061 0.06261,-2.586513 0.133053,-3.240724 0.471184,-4.376104 0.340025,-1.141742 0.832093,-1.974879 1.725599,-2.921672 0.740761,-0.784939 0.964314,-0.877442 2.294123,-0.949274 l 1.141643,-0.06167 -0.417113,-0.288405 c -0.487368,-0.33698 -1.310305,-1.262329 -1.773346,-1.994033 -0.196216,-0.310063 -0.354124,-0.467149 -0.398088,-0.396014 -0.04008,0.06485 -0.325347,0.117903 -0.633932,0.117903 -0.480606,0 -0.5919,-0.0392 -0.776101,-0.273375 -0.295296,-0.375408 -0.438326,-0.937917 -0.318575,-1.252888 0.08429,-0.221707 0.04093,-0.304347 -0.338081,-0.644306 -0.795108,-0.713183 -0.914474,-0.861613 -1.246447,-1.549938 -0.306464,-0.635433 -0.32577,-0.740633 -0.274143,-1.49385 0.0639,-0.932339 0.400401,-1.717413 0.934932,-2.18127 0.491427,-0.426452 0.627765,-0.567517 0.971875,-1.005571 0.638168,-0.81239 0.889509,-1.006238 1.626431,-1.254394 0.403731,-0.135955 0.763394,-0.276528 0.79925,-0.312384 0.03586,-0.03586 0.148056,-0.06519 0.249334,-0.06519 0.101277,0 0.254957,-0.07082 0.341511,-0.157371 0.196896,-0.196896 0.509313,-0.21597 1.111706,-0.06787 0.685586,0.168549 1.149634,0.154004 1.149634,-0.03604 0,-0.115879 0.121384,-0.156768 0.465387,-0.156768 0.682245,0 0.966137,0.164336 1.049252,0.607377 0.07463,0.397816 0.07165,0.40167 -0.897129,1.157772 -0.453373,0.353846 -1.413147,0.37408 -1.63859,0.03455 -0.08473,-0.127606 -0.202633,-0.232011 -0.262012,-0.232011 -0.05938,0 -0.03013,0.08601 0.065,0.191126 0.271926,0.300474 0.226076,0.574979 -0.08607,0.515308 -0.192358,-0.03677 -0.302336,0.01656 -0.427246,0.207202 -0.140019,0.213695 -0.23235,0.249037 -0.550932,0.210881 -0.403099,-0.04828 -0.799794,0.144135 -1.427845,0.69256 -0.349154,0.304887 -1.111172,0.691215 -1.363396,0.691215 -0.182158,0 -0.58599,0.81981 -0.614134,1.246738 -0.0097,0.147779 -0.07782,0.444471 -0.151275,0.659316 -0.104382,0.305282 -0.107369,0.516805 -0.01367,0.968146 0.06594,0.317635 0.16363,0.550487 0.217086,0.517449 0.05346,-0.03304 0.0649,-0.186521 0.02544,-0.341072 -0.07805,-0.305675 -0.07491,-0.640249 0.0068,-0.721938 0.04906,-0.04906 0.575867,0.467848 1.218013,1.195125 0.25731,0.291424 0.284208,0.380029 0.202186,0.666025 -0.05204,0.181435 -0.166783,0.440032 -0.254995,0.574662 -0.466502,0.711972 0.148119,1.278563 1.060359,0.977496 0.422468,-0.139427 0.545656,-0.07305 0.307123,0.16548 -0.23154,0.23154 -0.222971,0.262014 0.221748,0.788669 0.694045,0.821917 1.742439,1.765124 2.091206,1.881392 0.186816,0.06228 0.339665,0.157781 0.339665,0.212228 0,0.344185 1.702737,0.468519 2.412148,0.176134 0.539779,-0.222471 1.208298,-0.945874 1.35868,-1.470224 0.13812,-0.481597 0.118375,-1.286286 -0.03452,-1.406711 -0.239832,-0.188903 -0.66647,-0.235528 -0.860036,-0.09399 -0.296036,0.216467 -0.70461,-0.0093 -0.655516,-0.362299 0.03057,-0.219771 0.0015,-0.262799 -0.150646,-0.223011 -0.192935,0.05045 -0.711454,-0.225281 -0.711454,-0.378333 0,-0.04675 0.19988,-0.08094 0.444177,-0.07597 0.423124,0.0086 0.443218,-0.0048 0.423949,-0.282417 -0.01112,-0.160291 -0.142706,-0.436996 -0.292404,-0.614901 -0.35473,-0.421573 -0.607491,-0.925292 -0.878413,-1.750562 -0.246829,-0.751877 -0.271875,-1.11319 -0.106957,-1.542912 l 0.112913,-0.294212 0.226752,0.278351 c 0.197338,0.242243 0.244976,0.258393 0.367247,0.124501 0.09713,-0.106358 0.239083,-0.132197 0.459868,-0.0837 0.283193,0.0622 0.310027,0.0481 0.236882,-0.124501 -0.04537,-0.107056 -0.213395,-0.570891 -0.37339,-1.030744 -0.159996,-0.459854 -0.367844,-1.017545 -0.461885,-1.239315 -0.09404,-0.221769 -0.151893,-0.422307 -0.12856,-0.44564 0.109509,-0.109509 0.611007,0.442404 1.005755,1.106864 0.709087,1.19357 0.949772,1.962365 1.045455,3.339379 0.07994,1.150466 0.111324,1.271757 0.633797,2.449515 0.489696,1.103869 0.54896,1.314888 0.542984,1.933362 -0.0037,0.381837 -0.0758,0.859373 -0.160236,1.061192 -0.206553,0.493684 -0.919028,1.28778 -1.342808,1.49664 -0.197363,0.09727 -0.268281,0.17066 -0.166233,0.172024 0.383924,0.0051 0.703565,0.251166 0.870158,0.669774 0.121782,0.306009 0.701991,0.95732 2.01234,2.258947 1.956951,1.943924 2.426413,2.593505 2.426413,3.357349 0,0.216015 0.04384,0.419846 0.09742,0.45296 0.05358,0.03311 0.156125,0.322548 0.227881,0.643187 0.09662,0.431739 0.200136,0.62601 0.399017,0.748839 0.421832,0.260525 0.848575,0.676849 1.009468,0.984822 0.228067,0.436556 0.181853,0.442857 -0.289423,0.03946 -0.875991,-0.749816 -0.71403,-0.268135 0.366247,1.089234 0.239982,0.301538 1.169546,1.703602 1.343312,2.02612 0.241119,0.447531 0.817545,1.938732 0.817545,2.11497 0,0.204737 0.181103,0.178065 0.442126,-0.06512 0.123399,-0.114963 0.289958,-0.209024 0.370132,-0.209024 0.182223,0 0.160988,-0.04779 -0.289697,-0.651925 -0.201186,-0.269688 -0.418643,-0.472239 -0.483238,-0.450113 -0.06459,0.02213 -0.166177,-0.06183 -0.22574,-0.18658 C 59.529107,69.241421 59.292286,68.77175 59.077,68.38452 58.942964,68.143434 58.749221,67.679458 58.64646,67.353463 58.5437,67.027469 58.399377,66.737628 58.325743,66.709372 c -0.214636,-0.08236 -0.154131,-0.267711 0.0684,-0.209519 0.116946,0.03058 0.225782,-0.0084 0.258,-0.09232 0.07637,-0.199014 0.344423,-0.182768 0.462387,0.02802 0.08289,0.14811 0.220224,0.163736 0.946689,0.107715 0.467355,-0.03604 0.955157,-0.122549 1.084004,-0.192243 0.128847,-0.06969 0.345197,-0.139018 0.480778,-0.154053 0.135581,-0.01503 0.327406,-0.100545 0.426278,-0.190023 0.09887,-0.08948 0.234852,-0.162687 0.302178,-0.162687 0.06733,0 0.122411,-0.04329 0.122411,-0.09621 0,-0.05291 0.14588,-0.128249 0.324177,-0.16741 0.555168,-0.121935 2.206666,-1.909552 2.846185,-3.080772 0.658676,-1.206305 1.022184,-2.427824 1.22114,-4.103481 0.05981,-0.503722 0.154373,-1.035877 0.210144,-1.182565 0.05577,-0.146689 0.101402,-0.400669 0.101402,-0.564401 0,-0.272283 -0.02406,-0.291261 -0.281812,-0.222326 -0.325112,0.08695 -1.409801,-0.04055 -1.709492,-0.20094 -0.332727,-0.17807 -0.233012,-0.310022 0.240725,-0.318551 0.244297,-0.0044 0.538237,-0.03163 0.653201,-0.06052 0.114963,-0.02889 0.338358,-0.07766 0.496433,-0.108378 0.180575,-0.03509 0.287408,-0.12272 0.287408,-0.235736 0,-0.159505 -0.09662,-0.174285 -0.853089,-0.130494 -0.740681,0.04288 -0.871507,0.0242 -0.992866,-0.141771 -0.07688,-0.105135 -0.139776,-0.276228 -0.139776,-0.380204 0,-0.159003 0.08951,-0.189049 0.563204,-0.189049 0.388141,0 0.558979,-0.04061 0.549608,-0.130641 -0.02523,-0.242381 0.281189,-0.899222 0.447062,-0.958337 0.09052,-0.03226 0.370287,-0.175852 0.621711,-0.319095 0.251424,-0.143243 0.497796,-0.235312 0.547492,-0.204598 0.0497,0.03071 0.0642,-0.01231 0.03224,-0.09561 -0.04171,-0.108697 0.09105,-0.200999 0.470272,-0.326956 0.290615,-0.09653 0.553367,-0.215915 0.583893,-0.265307 0.07477,-0.12099 -0.394388,0.02668 -1.113724,0.350554 -1.024679,0.461347 -1.687089,0.615619 -2.033648,0.473628 -0.166275,-0.06813 -0.549733,-0.113818 -0.85213,-0.101539 -0.641381,0.02605 -1.220518,-0.245375 -1.540997,-0.722212 -0.111361,-0.165692 -0.22195,-0.281784 -0.245752,-0.257982 -0.08376,0.08376 0.332323,0.630908 0.922008,1.212452 0.517456,0.510313 0.611321,0.565444 0.711754,0.418049 0.0912,-0.133847 0.119246,-0.03705 0.132488,0.457287 0.0092,0.34489 0.02659,0.83871 0.03855,1.097378 0.01196,0.258667 -0.01147,0.681942 -0.05208,0.940609 -0.04061,0.258668 -0.129906,0.94061 -0.198443,1.515427 -0.06854,0.574817 -0.186574,1.186213 -0.262305,1.358658 -0.07573,0.172445 -0.240034,0.662783 -0.365118,1.08964 -0.335517,1.144964 -1.097232,2.185449 -1.986947,2.714123 -0.642999,0.382073 -0.872544,0.453242 -1.635148,0.506968 -1.051611,0.07409 -1.597472,-0.0717 -3.433692,-0.917053 -0.229927,-0.105853 -0.563393,-0.324853 -0.741035,-0.486666 -0.485895,-0.442601 -1.103037,-1.265399 -0.997867,-1.330398 0.05095,-0.03149 0.384588,0.13144 0.741413,0.362067 2.53338,1.637403 4.455316,2.052023 5.697625,1.229153 0.632891,-0.41921 1.353177,-1.389338 1.800263,-2.424712 0.688323,-1.594034 0.918171,-2.663322 1.12174,-5.218484 0.03093,-0.388286 0.0082,-0.491636 -0.09915,-0.450449 -0.500797,0.192174 -1.737665,-0.814 -2.073424,-1.686699 -0.336204,-0.873857 -0.124266,-1.696208 0.437151,-1.696208 0.246429,0 0.585216,0.37727 0.7315,0.814591 0.142813,0.426943 0.494252,0.929816 0.742762,1.062814 0.263463,0.141001 0.843224,0.232422 0.843224,0.132965 0,-0.04557 0.340971,-0.169681 0.757713,-0.275802 0.611146,-0.155625 0.889119,-0.300164 1.437043,-0.747228 0.373631,-0.304854 0.857988,-0.738355 1.07635,-0.963336 l 0.397021,-0.409056 -0.344765,0.02686 c -0.189621,0.01477 -0.956161,0.05407 -1.703423,0.08734 -2.334915,0.103933 -3.366796,0.160335 -6.113963,0.33419 -2.505858,0.158583 -4.617819,0.151106 -6.558139,-0.02322 -0.641837,-0.05766 -0.653202,-0.0641 -0.653202,-0.369809 0,-0.70126 0.260836,-0.840814 1.939487,-1.037677 l 1.051134,-0.123272 -0.04124,-0.280971 c -0.05165,-0.351877 0.37848,-0.892328 0.875419,-1.099963 L 57.455468,47.776318 57.3011,47.338794 c -0.0849,-0.240639 -0.154368,-0.75512 -0.154368,-1.143291 0,-0.678471 -0.01159,-0.710568 -0.299815,-0.829953 -0.378231,-0.156669 -0.908063,-0.700796 -1.050618,-1.078964 -0.162482,-0.431029 -0.02384,-1.464565 0.240712,-1.794438 0.254155,-0.316909 1.451794,-0.790208 1.999549,-0.790208 0.251256,0 0.342182,-0.04059 0.305437,-0.136348 -0.08641,-0.225187 0.402968,-0.842469 0.745875,-0.940814 l 0.317415,-0.09103 -0.17103,-0.696177 c -0.09407,-0.382897 -0.167209,-0.966601 -0.162539,-1.297119 0.0079,-0.559094 -0.0082,-0.600943 -0.230826,-0.600945 -0.356353,-4e-6 -1.020907,-0.373187 -1.258334,-0.706623 -0.28735,-0.403545 -0.384974,-1.001762 -0.22608,-1.385365 0.07103,-0.171487 0.167203,-0.311795 0.213713,-0.311795 0.04651,0 0.09959,-0.105819 0.117961,-0.235152 0.03079,-0.216826 0.09041,-0.23615 0.764982,-0.247955 0.402372,-0.007 0.855707,-0.06268 1.007411,-0.12365 0.151705,-0.06097 0.46916,-0.09708 0.705458,-0.08024 0.360122,0.02565 0.429631,-8.44e-4 0.429631,-0.163759 0,-0.316664 0.157214,-0.222532 0.329956,0.19756 0.09869,0.240016 0.150187,0.629988 0.132853,1.006143 -0.02355,0.510962 -0.09288,0.707978 -0.412405,1.171918 -0.211255,0.306733 -0.473625,0.586111 -0.583045,0.620839 -0.109419,0.03473 -0.206027,0.118761 -0.214684,0.18674 -0.06045,0.474696 -0.02922,2.89317 0.03736,2.89317 0.220862,0 0.03855,0.227394 -0.33516,0.418049 -0.754746,0.385043 -0.416689,0.703748 0.638893,0.60232 0.831226,-0.07987 0.864407,-0.219173 0.197205,-0.827927 -0.316149,-0.288454 -0.480756,-0.492244 -0.365793,-0.452866 0.114964,0.03938 0.256055,0.08033 0.313537,0.091 0.05748,0.01067 0.303825,0.132044 0.547431,0.26972 0.339046,0.191616 0.457873,0.330036 0.506686,0.590233 l 0.06377,0.339912 0.904228,-0.01474 c 1.093347,-0.01782 1.459993,0.139343 1.731935,0.742403 0.174705,0.387426 0.175907,0.450701 0.01883,0.991023 -0.10637,0.365897 -0.275364,0.66769 -0.461666,0.824454 l -0.293877,0.247281 0.102104,1.372657 c 0.09595,1.289904 0.116834,1.379368 0.346423,1.483976 0.188755,0.086 0.244318,0.195018 0.244318,0.479352 0,0.412798 -0.202167,0.486666 -0.589476,0.215384 -0.181095,-0.126843 -0.249563,-0.129524 -0.405014,-0.01586 -0.240698,0.176003 -0.106238,0.409263 0.182998,0.317463 0.174082,-0.05525 0.20264,-0.03365 0.147047,0.111221 -0.06278,0.163595 0.004,0.174244 0.741904,0.118225 0.445992,-0.03386 1.316472,-0.09144 1.934401,-0.127955 l 1.123506,-0.06639 v -0.293467 c 0,-0.327826 0.414669,-0.726687 0.755487,-0.726687 0.186676,0 0.19823,-0.0484 0.130971,-0.548689 -0.04057,-0.301779 -0.108599,-0.595719 -0.151173,-0.653201 -0.122242,-0.165044 -0.133834,-1.376781 -0.01529,-1.598282 0.0936,-0.174896 0.05693,-0.215325 -0.28947,-0.319108 -0.522427,-0.156523 -1.123948,-0.752814 -1.277955,-1.266844 -0.104337,-0.348243 -0.09684,-0.452539 0.04847,-0.674303 0.09454,-0.144287 0.171812,-0.275753 0.171715,-0.292145 -9.7e-5,-0.01639 -0.515792,-0.03508 -1.14599,-0.04153 -1.261799,-0.01291 -1.597298,-0.13213 -1.7173,-0.610253 -0.08115,-0.323333 0.161025,-0.838126 0.47277,-1.004968 0.12097,-0.06474 0.361128,-0.09699 0.533684,-0.07166 l 0.313739,0.04605 -0.07348,-0.939246 c -0.04041,-0.516585 -0.09797,-1.003066 -0.127898,-1.081068 -0.03567,-0.09295 -0.232425,-0.141823 -0.570992,-0.141823 -0.753198,0 -1.103681,-0.223662 -1.414557,-0.902707 -0.307894,-0.672528 -0.274822,-1.215897 0.124369,-2.043381 0.133274,-0.276263 0.199588,-0.528704 0.147365,-0.560979 -0.05222,-0.03228 -0.09495,-0.105776 -0.09495,-0.163333 0,-0.06737 0.362992,-0.08033 1.018994,-0.03638 0.752196,0.05039 1.093137,0.120455 1.302171,0.267586 0.155747,0.109625 0.410855,0.199317 0.566906,0.199317 h 0.283731 l -0.228198,-0.242906 c -0.279596,-0.297615 -0.207797,-0.384167 0.318683,-0.384167 0.709411,0 1.130573,0.756537 0.645347,1.159239 -0.07986,0.06628 -0.145195,0.233829 -0.145195,0.372341 0,0.401775 -0.29587,1.001124 -0.667028,1.351212 -0.188523,0.17782 -0.372757,0.401455 -0.409408,0.496966 -0.03665,0.09551 -0.142396,0.173656 -0.23499,0.173656 -0.133508,0 -0.15378,0.06635 -0.09794,0.320577 0.03873,0.176317 0.136234,0.446742 0.216684,0.600945 0.09007,0.172639 0.146522,0.60595 0.146918,1.127705 l 6.44e-4,0.847338 0.642505,0.06715 c 0.667324,0.06975 0.969573,0.218743 0.885928,0.43672 -0.03487,0.09087 0.186747,0.140706 0.777804,0.174922 0.571601,0.03309 0.885916,0.101561 1.018973,0.221975 0.105824,0.09577 0.261601,0.174126 0.346172,0.174126 0.297043,0 0.369293,0.196049 0.279947,0.759633 -0.04767,0.300723 -0.094,0.60846 -0.102947,0.68386 -0.0089,0.0754 -0.225392,0.321169 -0.480987,0.546153 l -0.464719,0.409061 -0.0143,1.392031 c -0.0116,1.129522 -0.04857,1.444315 -0.19603,1.669282 -0.103709,0.158216 -0.139322,0.303463 -0.08295,0.338303 0.05433,0.03358 0.07229,0.130093 0.03991,0.214475 -0.04218,0.10991 0.01593,0.153421 0.204879,0.153421 0.145064,0 0.280803,0.05115 0.301642,0.113666 0.02661,0.07983 0.541326,0.09111 1.729029,0.0379 1.686881,-0.07558 1.690757,-0.07632 1.538504,-0.293689 -0.256775,-0.366597 -0.191015,-0.848541 0.164257,-1.203813 0.312648,-0.312647 0.314749,-0.322032 0.156768,-0.700132 -0.187307,-0.44829 -0.213775,-1.620915 -0.0405,-1.794193 0.08983,-0.08983 0.04427,-0.137505 -0.182896,-0.191393 -0.411358,-0.09758 -0.948686,-0.513119 -1.138733,-0.880629 -0.192881,-0.372991 -0.210834,-1.346176 -0.02602,-1.410415 0.07185,-0.02497 0.570953,-0.06729 1.109114,-0.09404 0.791337,-0.03933 1.021204,-0.08865 1.201891,-0.257886 0.122878,-0.11509 0.352749,-0.258254 0.510823,-0.318142 0.388143,-0.147051 0.378828,-0.396971 -0.04951,-1.328462 -0.05603,-0.121845 -0.108962,-0.767196 -0.117627,-1.434112 -0.01565,-1.204656 -0.01755,-1.213327 -0.290885,-1.327612 -0.354838,-0.148364 -0.778755,-0.59475 -0.920111,-0.968879 -0.155293,-0.411017 -0.138552,-1.039292 0.03398,-1.275245 0.07983,-0.109171 0.123652,-0.254494 0.09739,-0.32294 -0.09521,-0.248105 0.194188,-0.260932 0.8633,-0.03827 0.696219,0.231686 1.114397,0.226949 1.742128,-0.01974 0.880887,-0.346172 -0.546852,-0.528709 -1.828963,-0.233834 -0.181403,0.04172 -0.287409,0.02306 -0.287409,-0.05059 0,-0.06418 0.07055,-0.116696 0.156768,-0.116696 0.08622,0 0.156769,-0.03948 0.156769,-0.08774 0,-0.324092 1.759661,-0.549888 2.445839,-0.313844 0.566544,0.19489 0.673556,0.401601 0.450288,0.869801 -0.101473,0.212789 -0.178811,0.623061 -0.178811,0.948575 0,0.526696 -0.03612,0.614014 -0.44166,1.067704 -0.242914,0.271754 -0.450242,0.509384 -0.460729,0.528068 -0.01049,0.01868 -0.08217,0.0466 -0.159284,0.06204 -0.07712,0.01544 -0.26955,0.06404 -0.427625,0.108 -0.339901,0.09453 -0.344234,0.144785 -0.166104,1.926826 0.11983,1.198796 0.257876,1.579346 0.572912,1.579346 0.152224,0 0.664442,0.747818 0.664442,0.97006 0,0.08039 -0.283934,0.219315 -0.679329,0.332389 -0.663361,0.189707 -0.67933,0.202557 -0.67933,0.546647 0,0.573326 -0.25772,1.038979 -0.749725,1.354615 -0.248691,0.159543 -0.48877,0.279534 -0.53351,0.266647 -0.04474,-0.01289 -0.07329,0.501075 -0.06344,1.142137 0.01507,0.981065 0.04863,1.196289 0.211986,1.359646 0.106743,0.106743 0.194078,0.288139 0.194078,0.403102 0,0.161643 -0.06968,0.209025 -0.307369,0.209025 -0.339663,0 -0.451796,0.09981 -0.331255,0.294846 0.148451,0.2402 0.50449,0.220461 0.750701,-0.04162 0.130842,-0.139276 0.279897,-0.253228 0.331232,-0.253228 0.128228,0 -0.0125,0.426703 -0.220519,0.668654 -0.166359,0.193493 -0.144945,0.196705 0.874588,0.131181 0.574817,-0.03694 1.386092,-0.06741 1.802835,-0.06771 l 0.757713,-5.41e-4 v -0.299442 c 0,-0.164694 0.09963,-0.426108 0.221411,-0.580921 0.217513,-0.276523 0.218231,-0.291589 0.04078,-0.855762 -0.123876,-0.393836 -0.167707,-0.803052 -0.139494,-1.302354 L 77.272402,44.206129 76.8981,44.10534 c -0.691495,-0.1862 -1.148189,-0.891137 -1.148189,-1.772301 0,-0.526199 0.400018,-0.84813 0.97875,-0.787689 0.23769,0.02482 0.780374,0.07122 1.205963,0.103091 0.877312,0.06571 1.630159,0.351851 1.726792,0.656316 0.157321,0.495675 -0.335241,1.161692 -1.141932,1.544059 l -0.522561,0.247691 -0.03546,1.055204 -0.03546,1.055204 0.335739,0.343376 c 0.321632,0.328947 0.662703,1.065425 0.565928,1.222011 -0.0254,0.0411 0.29403,0.108891 0.709846,0.15065 0.695879,0.06988 1.77209,0.456405 1.915106,0.687809 0.03032,0.04905 0.0043,0.184217 -0.0579,0.300369 -0.118468,0.221358 -0.465385,0.285608 -0.575973,0.106672 -0.03553,-0.05748 0.03224,-0.104513 0.1506,-0.104513 0.242039,0 0.280739,-0.13141 0.08455,-0.287112 -0.154446,-0.122575 -0.88864,-0.279633 -1.149634,-0.245929 -0.100593,0.01299 -0.182896,-0.02489 -0.182896,-0.08418 0,-0.05929 -0.05879,-0.08862 -0.130641,-0.06518 -0.07185,0.02344 -1.047734,0.09526 -2.168627,0.159591 -1.120893,0.06433 -2.22611,0.139908 -2.456037,0.167942 -0.229926,0.02803 -0.836084,0.06864 -1.347017,0.09023 -1.414996,0.05981 -2.672072,0.163133 -3.251519,0.267263 -0.597827,0.107433 -2.519527,0.278627 -4.128231,0.367763 -0.603558,0.03344 -1.685259,0.10475 -2.40378,0.158463 -0.718521,0.05371 -2.247012,0.167614 -3.396646,0.253113 -1.149634,0.0855 -2.559715,0.207154 -3.133514,0.270343 -0.573798,0.06319 -1.61811,0.110075 -2.320692,0.104191 -1.207893,-0.01012 -1.284006,0.0016 -1.398353,0.215262 -0.118081,0.220635 -0.108956,0.22441 0.387217,0.160205 0.953643,-0.123403 1.971031,-0.179031 5.106684,-0.279219 1.724451,-0.0551 4.14652,-0.169313 5.382377,-0.253808 2.620555,-0.179168 3.491334,-0.226821 6.741036,-0.368904 1.322079,-0.0578 2.709478,-0.127998 3.083109,-0.155987 1.628972,-0.122029 6.479756,-0.186183 6.479756,-0.0857 0,0.05891 -0.490858,0.135707 -1.123506,0.175784 -0.617929,0.03914 -1.45272,0.09157 -1.855092,0.116509 -0.909473,0.05636 -3.271559,0.251264 -3.971463,0.3277 -0.933284,0.101924 -1.134121,0.118561 -2.247012,0.186149 -0.603557,0.03665 -1.436288,0.118223 -1.850512,0.181263 l -0.753135,0.114619 0.633395,0.318941 c 0.758714,0.382046 0.946013,0.68271 0.69632,1.117775 -0.120574,0.210089 -0.135916,0.324307 -0.0545,0.405726 0.334574,0.334574 -1.380394,1.372091 -2.538521,1.535748 -0.746907,0.105546 -0.904873,0.16136 -1.180787,0.417202 -0.155311,0.144013 -0.282384,0.303584 -0.282384,0.354604 0,0.05102 0.270425,0.125465 0.600945,0.165434 0.806294,0.09751 0.896648,0.183776 0.809035,0.772477 -0.03899,0.261962 -0.11776,0.533262 -0.175055,0.602889 -0.07004,0.08511 -0.06007,0.25635 0.03041,0.522561 0.20304,0.597394 0.152079,2.133092 -0.106444,3.207677 -0.296145,1.230961 -0.697253,2.411275 -0.937762,2.759484 -0.106932,0.154818 -0.323917,0.511583 -0.482187,0.79281 -0.388,0.68943 -1.693406,2.034963 -2.316479,2.387685 -1.339254,0.758154 -2.802999,1.221497 -3.876088,1.226961 -0.244297,0.0012 -0.444177,0.02159 -0.444177,0.04522 0,0.243239 0.555093,1.385516 0.89331,1.838263 0.236173,0.31615 0.698896,0.942548 1.028273,1.391996 0.598955,0.817299 2.240247,2.508749 3.770637,3.88587 0.447156,0.402372 1.336371,1.225405 1.976035,1.828963 1.027847,0.969831 1.32794,1.184401 2.581912,1.846103 0.780388,0.411799 1.599011,0.823985 1.819162,0.91597 0.540417,0.225801 2.182321,1.170372 2.524465,1.4523 1.745043,1.437921 2.512874,2.61934 3.306294,5.087211 0.709648,2.207306 1.900616,5.759964 2.277335,6.793292 0.392818,1.077484 0.439495,1.305513 0.450953,2.202997 0.01265,0.991302 0.0089,1.006906 -0.379901,1.593348 -0.215975,0.325733 -0.556364,0.698269 -0.75642,0.827857 -0.200056,0.129588 -0.36432,0.277037 -0.365032,0.327665 -0.0021,0.151063 1.673533,1.736913 1.835274,1.736913 0.08204,0 0.149164,0.06788 0.149164,0.150842 0,0.08296 0.09613,0.218177 0.213632,0.300475 0.409522,0.286841 0.617666,0.873911 0.579699,1.635041 -0.0403,0.80794 -0.164679,1.09481 -0.561277,1.29454 -0.477052,0.24025 -0.781916,0.26467 -1.381688,0.11069 z m 1.018805,-0.83031 c 0.126069,-0.0883 0.282598,-0.33872 0.347841,-0.55648 0.105668,-0.35269 0.08917,-0.45406 -0.151018,-0.928054 -0.148303,-0.292663 -0.581793,-0.853521 -0.963311,-1.246351 -0.86226,-0.887827 -1.192927,-1.312075 -1.192927,-1.530534 0,-0.13634 -0.08689,-0.111424 -0.444176,0.127368 -0.244298,0.163276 -0.561753,0.33277 -0.705458,0.376655 -0.143704,0.04389 -0.498193,0.187693 -0.787752,0.319574 -0.28956,0.131881 -0.74419,0.294606 -1.01029,0.36161 l -0.483818,0.121827 1.019406,0.904266 c 1.951809,1.731359 3.6737,2.538879 4.371503,2.050119 z M 54.533938,64.758489 c 0,-0.02236 -0.364487,-0.220256 -0.80997,-0.439771 -0.445483,-0.219516 -0.845242,-0.416778 -0.888353,-0.438362 -0.132477,-0.06632 -0.08675,0.344835 0.06079,0.54661 0.07655,0.104685 0.323458,0.225842 0.548689,0.269237 0.45876,0.08839 1.088841,0.124432 1.088841,0.06229 z m 1.041137,-0.805065 c -0.06985,-0.168643 -0.367466,-0.505894 -0.66136,-0.749447 -0.293894,-0.243553 -0.628907,-0.537236 -0.744473,-0.652628 -0.115567,-0.115393 -0.421759,-0.392374 -0.680426,-0.615514 -0.258668,-0.22314 -0.781794,-0.704851 -1.162502,-1.070469 -0.720273,-0.691723 -1.136766,-0.855958 -1.136766,-0.448257 0,0.163746 -0.0573,0.209186 -0.235153,0.186474 -0.129333,-0.01652 -0.434941,0.08958 -0.679128,0.235771 l -0.443977,0.265802 0.234952,0.207649 c 0.479004,0.423342 2.531866,1.633803 3.997391,2.357044 0.402372,0.198572 0.919707,0.480942 1.149634,0.627489 0.473537,0.301815 0.585281,0.195598 0.361808,-0.343914 z m -5.387858,-3.528479 c 0.03032,-0.04906 6.92e-4,-0.23341 -0.06584,-0.40967 -0.141164,-0.373987 -0.01974,-0.591138 0.387738,-0.693408 0.184007,-0.04618 0.321974,0.0072 0.513524,0.19877 0.144055,0.144056 0.320493,0.26192 0.392084,0.26192 0.10124,0 0.102295,-0.02787 0.0048,-0.125415 -0.191578,-0.191578 -0.149589,-0.323335 0.08361,-0.262352 0.250942,0.06562 0.253753,0.04583 0.04957,-0.349009 -0.166259,-0.321508 -0.346971,-0.387191 -0.538453,-0.19571 -0.06195,0.06195 -0.281108,0.150633 -0.487018,0.197073 -0.327047,0.07376 -0.394732,0.05338 -0.535339,-0.161215 -0.09952,-0.151887 -0.160958,-0.48376 -0.160958,-0.869461 0,-0.602826 0.0097,-0.62492 0.287409,-0.656878 0.158075,-0.01819 -0.138744,-0.03307 -0.659597,-0.03307 h -0.947006 l 0.549013,0.715619 c 0.512859,0.668494 0.771086,1.25179 0.620732,1.402144 -0.03566,0.03565 -0.231774,0.0045 -0.435819,-0.06932 -0.426722,-0.154305 -0.507222,-0.115317 -0.407918,0.197564 0.135273,0.426208 0.681461,0.941619 0.997845,0.941619 0.163098,0 0.321349,-0.04014 0.351669,-0.0892 z m -1.699849,-1.773098 0.37287,-0.1901 -0.419299,-0.352023 c -0.230615,-0.193613 -0.573968,-0.430877 -0.763007,-0.527255 l -0.343707,-0.175232 0.386106,0.715581 c 0.212359,0.393569 0.387921,0.716379 0.390137,0.717355 0.0022,9.76e-4 0.171821,-0.08377 0.3769,-0.188326 z m 2.70218,-5.875753 c 0,-0.04131 -0.1271,-0.351215 -0.282445,-0.688681 -0.230056,-0.499768 -0.289081,-0.797735 -0.318227,-1.606441 -0.01968,-0.546076 -0.05858,-1.100653 -0.08644,-1.232394 -0.04564,-0.215804 -0.06662,-0.223568 -0.211799,-0.07838 -0.18901,0.18901 -0.252196,0.195147 -0.609715,0.05922 -0.147446,-0.05606 -0.268084,-0.06604 -0.268084,-0.02219 0,0.135502 0.679445,1.715228 0.974519,2.265778 0.281818,0.525819 0.36752,1.136065 0.176155,1.254335 -0.06522,0.0403 -0.05595,0.114819 0.02505,0.201536 0.09508,0.101789 0.18999,0.109583 0.364752,0.02996 0.129925,-0.0592 0.236227,-0.14143 0.236227,-0.182739 z m -7.733902,-0.904617 c 0,-0.131937 -0.558943,-0.658919 -0.698882,-0.658919 -0.205081,0 -0.168004,0.113194 0.143619,0.438458 0.260742,0.272156 0.555263,0.389093 0.555263,0.220461 z m 25.082924,-0.0841 c 0.07258,-0.08745 0.08389,-0.156769 0.02559,-0.156769 -0.05748,0 -0.16306,0.07055 -0.234618,0.156769 -0.07258,0.08745 -0.08389,0.156768 -0.02559,0.156768 0.05748,0 0.16306,-0.07055 0.234618,-0.156768 z m -7.420365,-2.886736 c 0.776003,-0.06578 1.428271,-0.134636 1.449485,-0.153011 0.02121,-0.01837 -0.03757,-0.109554 -0.130641,-0.20262 -0.338108,-0.338108 -0.158565,-1.022439 0.298338,-1.137114 0.291021,-0.07304 0.322738,-0.214744 0.146928,-0.656429 -0.06441,-0.161816 -0.132018,-0.411788 -0.150238,-0.555492 -0.01822,-0.143705 -0.06159,-0.413471 -0.09638,-0.599481 -0.03479,-0.18601 -0.01572,-0.427015 0.04238,-0.535568 0.09647,-0.180265 0.05213,-0.20342 -0.511773,-0.267219 -0.53795,-0.06086 -0.68447,-0.130152 -1.138592,-0.538447 -0.595573,-0.535471 -0.734071,-0.920727 -0.496297,-1.380531 l 0.158057,-0.305648 -0.77841,0.01061 -0.77841,0.01061 -0.01215,0.470305 c -0.01451,0.561911 -0.01533,0.567058 -0.173963,1.097378 -0.176669,0.590613 -0.501075,1.081546 -0.806699,1.220797 -0.255455,0.116393 -0.261521,0.145263 -0.261521,1.244746 0,1.071681 0.01076,1.127189 0.224668,1.158987 0.284459,0.04229 0.692761,0.568687 0.551032,0.710417 -0.0559,0.0559 -0.382634,0.111374 -0.726076,0.123278 -0.639159,0.02215 -1.14377,0.215798 -0.85305,0.327358 0.207023,0.07944 1.10433,-0.01616 1.341127,-0.142893 0.2715,-0.145303 0.45212,-0.02068 0.277344,0.191362 -0.121647,0.147583 -0.07613,0.157579 0.439102,0.09643 0.316149,-0.03752 1.209728,-0.122044 1.985731,-0.187826 z M 42.04498,48.024936 c 0.06533,-0.164977 0.05502,-0.18341 -0.04894,-0.08747 -0.07244,0.06685 -0.147713,0.349036 -0.167274,0.627073 -0.03528,0.501507 -0.0349,0.502202 0.04894,0.08747 0.04648,-0.229927 0.12175,-0.51211 0.167274,-0.627073 z m 3.920115,-2.458196 c 0.126334,-0.236058 0.05915,-0.415889 -0.155383,-0.415889 -0.07804,0 -0.159499,-0.05283 -0.18102,-0.117388 -0.04781,-0.143438 -0.81692,-0.03248 -1.073051,0.154806 -0.189158,0.138317 -0.184137,0.140096 0.563491,0.199601 0.319345,0.02542 0.569445,0.175679 0.313536,0.188375 -0.08744,0.0043 -0.06249,0.04412 0.06097,0.09717 0.309474,0.132986 0.347846,0.124304 0.471461,-0.106672 z m 3.134209,-0.934773 c 0,-0.0849 -0.322994,-0.317214 -0.441038,-0.317214 -0.0202,0 -0.03673,0.09406 -0.03673,0.209025 0,0.148059 0.06968,0.209024 0.238885,0.209024 0.131387,0 0.238885,-0.04538 0.238885,-0.100835 z m 8.413468,-0.0041 c 0.03566,-0.05769 0.171347,-0.07816 0.301535,-0.04549 0.203783,0.05115 0.282556,-0.02661 0.566354,-0.559073 0.344842,-0.646991 0.34305,-0.821972 -0.0065,-0.634897 -0.305817,0.163668 -0.682634,0.219802 -1.358055,0.202307 -0.6782,-0.01757 -0.723431,0.05151 -0.39087,0.596968 0.257909,0.423012 0.747946,0.666049 0.88754,0.440181 z m 5.727397,-0.751628 c 0.261618,-0.135224 0.594816,-0.710635 0.593362,-1.024695 -0.0015,-0.315161 -0.153545,-0.589147 -0.24494,-0.441266 -0.03522,0.05699 -0.275155,0.13527 -0.533189,0.173964 -0.258035,0.0387 -0.496541,0.114668 -0.530014,0.168828 -0.03347,0.05416 -0.384898,0.09847 -0.780945,0.09847 h -0.720084 l 0.162243,0.388301 c 0.184579,0.441762 0.371833,0.613138 0.819957,0.75043 0.332793,0.101958 0.920911,0.04759 1.23361,-0.114036 z m 5.785323,-0.675954 c 0.181584,-0.207185 0.352267,-0.492382 0.379295,-0.633772 0.05227,-0.273423 -5.06e-4,-0.278837 -0.657193,-0.06743 -0.143704,0.04626 -0.602251,0.08154 -1.018993,0.0784 -0.416743,-0.0031 -0.757714,0.0032 -0.757714,0.01406 0,0.01088 0.05317,0.17232 0.118167,0.358754 0.283759,0.813993 1.324381,0.948332 1.936438,0.249985 z m 4.78997,-0.262132 c 0.14424,-0.171419 0.262254,-0.398387 0.262254,-0.504373 0,-0.263977 -0.492571,-0.358363 -1.062505,-0.203595 -0.62522,0.169782 -0.718398,0.186195 -1.108807,0.195314 l -0.342348,0.008 0.160534,0.310439 c 0.17446,0.337368 0.453502,0.523944 0.942211,0.629991 0.42633,0.09251 0.834409,-0.0623 1.148661,-0.435772 z m 4.062052,0.382337 c 0.452517,-0.19024 1.183439,-0.733913 1.313562,-0.97705 0.102105,-0.190786 0.07686,-0.197671 -0.491001,-0.13392 -0.329252,0.03696 -0.984681,0.06721 -1.456508,0.06721 -0.733491,0 -0.881661,-0.03031 -1.021974,-0.209024 -0.155316,-0.19783 -0.161077,-0.1874 -0.107557,0.194733 0.05021,0.358534 0.370578,0.958671 0.5963,1.117048 0.159472,0.111893 0.84286,0.07735 1.167178,-0.05899 z M 58.719022,42.296943 c -0.09687,-0.04842 -0.300664,-0.02871 -0.478574,0.04629 l -0.309864,0.130626 0.27976,0.0383 c 0.153868,0.02106 0.341172,0.112293 0.41623,0.202733 0.121042,0.145847 0.143518,0.136285 0.198814,-0.08459 0.04272,-0.17063 0.0092,-0.275573 -0.106366,-0.333359 z m -1.207227,0.346813 c 0.03661,-0.05924 -0.0053,-0.07677 -0.09834,-0.04108 -0.181059,0.06948 -0.214186,0.14439 -0.06385,0.14439 0.05409,0 0.127077,-0.04649 0.162196,-0.103315 z m 8.405261,-1.397822 c -0.118693,-0.103482 -1.454461,-0.167271 -1.454461,-0.06946 0,0.06356 0.305813,0.107423 0.749004,0.107423 0.411952,0 0.729408,-0.01709 0.705457,-0.03797 z m 8.806893,-0.507239 c -0.07499,-0.07499 -0.123672,-0.08116 -0.123672,-0.01568 0,0.139501 0.123597,0.263098 0.193347,0.193348 0.0297,-0.0297 -0.0017,-0.109651 -0.06967,-0.177671 z m -9.944944,-3.398229 c 0.142124,-0.09955 0.258407,-0.160476 0.258407,-0.135396 0,0.02508 0.192776,-0.06275 0.42839,-0.19517 0.290171,-0.163085 0.500926,-0.390068 0.653202,-0.703497 0.291198,-0.599374 0.283679,-0.672174 -0.0626,-0.606064 -0.158075,0.03018 -0.619679,-0.0091 -1.025786,-0.08735 -0.631308,-0.121595 -0.758332,-0.120857 -0.87598,0.0051 -0.08748,0.09365 -0.246803,0.125464 -0.437385,0.08735 l -0.299782,-0.05996 v 0.728972 c 0,0.589623 0.03996,0.76893 0.209025,0.937997 0.259727,0.259728 0.802853,0.272936 1.152507,0.02803 z m -4.929757,-0.386162 c 0.375699,-0.194282 0.740192,-0.850766 0.744101,-1.34019 0.0028,-0.353512 -0.150981,-0.36564 -0.812904,-0.0641 -0.331632,0.151076 -0.718533,0.227141 -1.196096,0.235153 -0.786815,0.0132 -0.800914,0.03173 -0.533183,0.700859 0.279427,0.698357 0.993523,0.88433 1.798082,0.468277 z m 15.244721,-0.788689 c 0.308466,-0.188079 0.655942,-0.773407 0.655942,-1.104943 0,-0.107139 -0.06647,-0.102834 -0.313276,0.02029 -0.462653,0.230802 -1.400137,0.300091 -1.886862,0.139457 -0.227538,-0.07509 -0.432777,-0.117172 -0.456087,-0.09351 -0.09305,0.09447 0.25858,0.890519 0.469121,1.062021 0.309507,0.252118 1.099149,0.240094 1.531162,-0.02332 z m -8.54113,-1.309214 c -0.07156,-0.08622 -0.177137,-0.156768 -0.234619,-0.156768 -0.0583,0 -0.04698,0.06932 0.02559,0.156768 0.07156,0.08622 0.177137,0.156768 0.234619,0.156768 0.0583,0 0.04698,-0.06932 -0.02559,-0.156768 z M 50.945818,88.288254 c -0.226161,-0.227052 -0.231572,-0.278353 -0.157075,-1.489298 0.150635,-2.448563 0.236122,-2.713515 0.627283,-1.944144 l 0.174222,0.342676 0.07355,-0.610181 c 0.06601,-0.547618 0.29006,-1.289509 0.38943,-1.289509 0.02104,0 0.0352,0.489877 0.03146,1.088616 -0.0037,0.59874 0.02802,1.123446 0.07056,1.166015 0.04254,0.04257 0.197557,-0.05231 0.344481,-0.210845 0.231089,-0.249349 0.258042,-0.348884 0.199743,-0.737644 -0.03706,-0.247171 -0.03073,-0.559865 0.01408,-0.694875 0.07227,-0.217755 0.100348,-0.184155 0.248666,0.297549 0.127049,0.412625 0.259044,0.605351 0.549671,0.802576 l 0.382472,0.259552 -0.176643,-0.292316 c -0.09715,-0.160774 -0.350908,-0.579661 -0.5639,-0.93086 -0.212992,-0.351198 -0.440782,-0.839483 -0.5062,-1.085076 -0.06542,-0.245594 -0.203437,-0.658171 -0.306709,-0.916839 -0.103271,-0.258667 -0.266098,-0.69036 -0.361836,-0.959318 -0.09574,-0.268957 -0.341279,-0.708001 -0.545646,-0.975652 l -0.371576,-0.486639 -0.413195,0.417325 c -0.227257,0.229529 -0.539024,0.448906 -0.692816,0.487506 -0.373481,0.09374 -0.43971,0.229535 -0.30107,0.617322 0.138032,0.386086 0.156159,1.969774 0.04075,3.560538 -0.04571,0.63011 -0.05034,1.112883 -0.01029,1.072828 0.04005,-0.04005 0.171517,-0.364579 0.292139,-0.721166 0.120622,-0.356587 0.283035,-0.66856 0.36092,-0.693273 0.101953,-0.03235 0.12201,0.01681 0.07162,0.17556 -0.03849,0.121272 -0.09043,0.350231 -0.115427,0.508798 -0.025,0.158568 -0.09708,0.578293 -0.160187,0.932723 -0.154565,0.86808 -0.595724,1.326627 -0.910927,0.94683 -0.175305,-0.211229 -0.454114,-1.114193 -0.380706,-1.23297 0.120168,-0.194436 0.215325,-4.741429 0.100966,-4.824573 -0.05809,-0.04223 -0.246702,-0.07796 -0.419147,-0.0794 -0.373923,-0.0031 -1.296459,-0.414699 -1.511131,-0.674165 -0.08386,-0.101358 -0.260225,-0.225254 -0.391921,-0.275325 -0.47108,-0.179105 -0.207467,-0.538686 0.59665,-0.813861 0.201186,-0.06885 0.767903,-0.379919 1.259372,-0.69127 0.927477,-0.587566 1.44524,-0.833379 1.545079,-0.73354 0.101528,0.101529 -1.372704,1.513322 -1.899297,1.818855 l -0.50576,0.293445 0.429491,0.171848 c 0.921931,0.368884 1.856718,0.158549 3.059181,-0.688342 0.09784,-0.06891 0.21405,-0.08912 0.258254,-0.04491 0.0442,0.0442 0.01119,0.125737 -0.07337,0.181185 -0.161187,0.105698 -0.179924,0.08125 0.421076,0.549515 0.168942,0.131631 0.604027,0.842703 0.698231,1.14114 0.03175,0.100593 0.09928,0.182896 0.150056,0.182896 0.05078,0 0.09232,0.07282 0.09232,0.161817 0,0.089 0.09406,0.3565 0.209025,0.594447 0.114963,0.237947 0.209226,0.506101 0.209474,0.595897 2.47e-4,0.0898 0.187647,0.410176 0.416444,0.711955 0.228797,0.301779 0.384402,0.548689 0.345789,0.548689 -0.03861,0 0.05336,0.129333 0.204382,0.287408 0.421253,0.440923 0.904581,1.570945 0.973726,2.276572 0.06346,0.647648 -0.129894,1.459739 -0.347562,1.459739 -0.0606,0 -0.252143,-0.126483 -0.425644,-0.281073 l -0.315457,-0.281073 -0.106993,0.306919 c -0.230371,0.660845 -1.032747,0.641699 -1.315762,-0.0314 l -0.142428,-0.338735 -0.178164,0.445276 c -0.181023,0.452422 -0.58454,0.859412 -0.852077,0.859412 -0.08108,0 -0.252827,-0.105819 -0.381653,-0.235153 z m 0.758945,-2.055406 c 0.01006,-0.775673 -0.05805,-0.635787 -0.122982,0.252571 -0.0306,0.418624 -0.0173,0.642168 0.03108,0.522561 0.04651,-0.114963 0.08786,-0.463773 0.0919,-0.775132 z m 2.423884,-0.497303 c -0.123204,-0.211869 -0.152955,-0.144055 -0.0521,0.118761 0.03584,0.0934 0.08718,0.147807 0.114092,0.120898 0.02691,-0.02691 -9.86e-4,-0.134755 -0.06199,-0.239659 z m -3.485614,-7.171349 c -0.346938,-0.285973 -0.501967,-0.875222 -0.255183,-0.969922 0.09571,-0.03673 0.321626,0.05684 0.540693,0.22393 0.309787,0.236286 0.370726,0.34398 0.344779,0.609309 -0.03919,0.400796 -0.253491,0.447268 -0.630289,0.136683 z M 47.324967,54.977367 c -0.113734,-0.113735 -0.179195,-0.278209 -0.145586,-0.365793 0.08715,-0.227102 0.63178,-0.198954 0.894981,0.04626 0.182946,0.17044 0.197811,0.23269 0.08735,0.365793 -0.184884,0.222771 -0.590116,0.200369 -0.836741,-0.04626 z m 1.416887,-0.406921 c -0.03094,-0.05006 -0.198319,-0.119427 -0.37196,-0.154155 -0.196647,-0.03933 -0.315712,-0.127523 -0.315712,-0.233853 0,-0.129905 0.06246,-0.155036 0.261281,-0.105134 0.207481,0.05207 0.26128,0.02615 0.26128,-0.125885 0,-0.255165 0.530868,-0.75313 0.802891,-0.75313 0.268358,0 0.496738,0.257916 0.389258,0.439599 -0.17474,0.295377 -0.804375,1.023572 -0.885034,1.023572 -0.04716,0 -0.111067,-0.04096 -0.142004,-0.09101 z m -2.464597,-4.742675 c -0.464072,-0.316618 -0.568218,-0.626758 -0.314149,-0.935517 l 0.197691,-0.240245 0.313727,0.339665 c 0.17255,0.186815 0.365547,0.339664 0.428881,0.339664 0.137162,0 0.572449,-0.419346 0.657075,-0.633011 0.05149,-0.130009 0.07541,-0.129189 0.173247,0.0059 0.156502,0.216147 0.04597,0.602645 -0.287436,1.005054 -0.339923,0.410278 -0.689401,0.445689 -1.169036,0.118452 z m 3.24053,-4.206092 c -0.104497,-0.125911 -0.09637,-0.207072 0.04187,-0.418049 0.196428,-0.299786 0.35439,-0.334555 0.44517,-0.09798 0.06408,0.166991 -0.148858,0.672279 -0.283311,0.672279 -0.04073,0 -0.132407,-0.07031 -0.203727,-0.156245 z M 69.688204,41.545181 69.442744,41.2839 69.69579,41.014545 c 0.183873,-0.195724 0.331701,-0.257811 0.540779,-0.227125 0.158253,0.02323 0.287733,0.03072 0.287733,0.01666 0,-0.01406 -0.117577,-0.259657 -0.261281,-0.545766 -0.143704,-0.286108 -0.26128,-0.592895 -0.26128,-0.681748 0,-0.08885 -0.04095,-0.18686 -0.09101,-0.217795 -0.05005,-0.03093 -0.114687,-0.302697 -0.14363,-0.603916 -0.03576,-0.372171 -0.111557,-0.582187 -0.236532,-0.655381 -0.762893,-0.446803 -1.111232,-1.037332 -1.118956,-1.896939 -0.0071,-0.790699 0.407397,-1.696244 0.580298,-1.267751 0.03149,0.07804 0.05604,0.05701 0.06096,-0.05226 0.0045,-0.100593 0.07544,-0.182896 0.157554,-0.182896 0.08212,0 0.212421,-0.06312 0.289565,-0.140262 0.07714,-0.07715 0.24511,-0.196375 0.373258,-0.264958 0.128148,-0.06858 0.232996,-0.189406 0.232996,-0.268496 0,-0.186776 0.592822,-0.683876 0.974052,-0.816774 0.240726,-0.08392 0.283983,-0.146087 0.226552,-0.32561 -0.03904,-0.122038 -0.121375,-0.468798 -0.182964,-0.770577 -0.07235,-0.354506 -0.164976,-0.548689 -0.261725,-0.548689 -0.268485,0 -0.837832,-0.677592 -0.964449,-1.147812 -0.06751,-0.250721 -0.09653,-0.69467 -0.06449,-0.986553 0.03204,-0.291882 0.05795,-0.685414 0.05758,-0.874515 -6.29e-4,-0.315287 0.0469,-0.365604 0.572688,-0.606319 0.493163,-0.225777 0.6289,-0.247489 0.970291,-0.155204 0.535333,0.144711 0.867223,0.393344 0.867223,0.649673 0,0.310911 0.255125,0.178009 0.29435,-0.153335 0.04304,-0.36361 0.144295,-0.353654 0.314527,0.03093 0.243728,0.550618 0.188464,1.960687 -0.08614,2.198015 -0.03326,0.02874 -0.157683,0.20914 -0.276505,0.400887 -0.118823,0.191746 -0.328652,0.406134 -0.466287,0.476417 -0.153366,0.07832 -0.240928,0.206343 -0.226176,0.3307 0.01324,0.111601 0.0459,0.46809 0.07257,0.792199 0.03656,0.444201 0.114279,0.660263 0.315664,0.877561 0.205609,0.221856 0.240119,0.320859 0.149784,0.429706 -0.06456,0.07779 -0.183329,0.141432 -0.263936,0.141432 -0.08061,0 -0.190299,0.115047 -0.24376,0.255659 -0.06802,0.178905 -0.206267,0.276119 -0.460494,0.323812 -0.38735,0.07267 -0.390437,0.09226 -0.114564,0.726932 0.236999,0.545239 0.292206,1.420016 0.115951,1.837283 -0.08692,0.205762 -0.23129,0.434915 -0.320833,0.509229 -0.08954,0.07431 -0.162807,0.19442 -0.162807,0.2669 0,0.07248 -0.09786,0.157372 -0.217463,0.18865 -0.207693,0.05431 -0.214086,0.10064 -0.142293,1.031183 0.0628,0.813986 0.11706,1.024446 0.329729,1.278957 0.203756,0.243844 0.244878,0.388448 0.206051,0.724576 -0.0577,0.499529 -0.284263,0.695233 -0.804854,0.695233 -0.270048,0 -0.450812,-0.07553 -0.625316,-0.26128 z m 0.989775,-4.396053 c 0.289001,-0.311838 0.416618,-0.917049 0.317313,-1.50483 l -0.06994,-0.413994 -0.226651,0.260642 c -0.294307,0.338443 -0.900498,0.374606 -1.301403,0.07764 l -0.283907,-0.210304 0.03463,0.713845 c 0.02974,0.612987 0.07627,0.758421 0.32934,1.029336 0.381184,0.40806 0.849397,0.426649 1.200624,0.04767 z m -0.467214,-2.240471 c 0,-0.05748 -0.06777,-0.104512 -0.1506,-0.104512 -0.08283,0 -0.179667,0.04703 -0.215193,0.104512 -0.03552,0.05748 0.03225,0.104512 0.150601,0.104512 0.118355,0 0.215192,-0.04703 0.215192,-0.104512 z m 1.20189,-0.94061 c 0.03553,-0.05748 0.01479,-0.104512 -0.04609,-0.104512 -0.06087,0 -0.11068,0.04703 -0.11068,0.104512 0,0.05748 0.02074,0.104513 0.04609,0.104513 0.02535,0 0.07515,-0.04703 0.11068,-0.104513 z m -0.26128,-3.244613 c 0,-0.06717 0.133931,-0.08412 0.347729,-0.04401 0.305765,0.05736 0.387058,0.02044 0.673628,-0.305944 0.179244,-0.204148 0.375232,-0.548828 0.435529,-0.765956 0.173493,-0.624744 0.153009,-0.667412 -0.228868,-0.476745 -0.186816,0.09327 -0.424102,0.210395 -0.527302,0.260266 -0.200989,0.09713 -0.838276,0.01496 -1.155083,-0.148929 -0.179971,-0.0931 -0.188933,-0.05911 -0.131939,0.500424 0.06002,0.589258 0.282498,1.090146 0.484203,1.090146 0.05616,0 0.102103,-0.04916 0.102103,-0.109248 z m 0.235152,-2.154724 c -0.07185,-0.02899 -0.189428,-0.02899 -0.26128,0 -0.07185,0.02899 -0.01306,0.05271 0.13064,0.05271 0.143704,0 0.202492,-0.02372 0.13064,-0.05271 z m -9.902529,6.045408 c -0.872251,-0.07023 -1.19884,-0.888794 -0.566799,-1.420622 0.176856,-0.148814 0.385717,-0.27057 0.464137,-0.27057 0.239991,0 0.287745,-0.204919 0.156768,-0.672722 -0.097,-0.346456 -0.204324,-0.484913 -0.47646,-0.614686 -0.682363,-0.325396 -1.026332,-1.266815 -0.697238,-1.908287 0.186354,-0.36324 0.191742,-0.365566 0.375777,-0.162209 0.102691,0.113473 0.212177,0.396169 0.2433,0.628213 0.03112,0.232044 0.139766,0.497173 0.241427,0.589175 0.17098,0.154734 0.205583,0.146532 0.461513,-0.109398 0.22415,-0.22415 0.3056,-0.252668 0.429045,-0.150217 0.0838,0.06955 0.152371,0.217418 0.152371,0.328593 0,0.196944 0.0082,0.197286 0.320755,0.01333 0.387406,-0.228038 0.662693,-0.654866 0.829537,-1.286183 0.06836,-0.258668 0.168686,-0.52452 0.222947,-0.590782 0.06448,-0.07874 0.05225,-0.135944 -0.03529,-0.165124 -0.07367,-0.02456 -0.221167,0.06624 -0.327778,0.201777 -0.28123,0.357527 -0.92684,0.653801 -1.469416,0.674323 -0.640602,0.02423 -1.108665,-0.362086 -0.559754,-0.461993 0.129334,-0.02354 -0.03121,-0.03857 -0.356758,-0.0334 -0.654924,0.0104 -0.814031,-0.07071 -0.649701,-0.331229 0.181424,-0.287615 0.696827,-0.517726 1.486872,-0.66384 0.726106,-0.134289 0.747606,-0.147095 0.747606,-0.445305 0,-0.225193 0.11822,-0.419499 0.443498,-0.728928 0.243924,-0.23204 0.435128,-0.495183 0.424897,-0.584763 -0.132217,-1.157667 -0.126332,-1.144209 -0.556695,-1.273149 -0.735853,-0.220467 -1.452471,-1.159461 -1.312002,-1.719133 0.03301,-0.131546 0.212802,-0.400077 0.399525,-0.596737 0.374445,-0.394371 1.172617,-0.651292 1.796929,-0.578407 0.345914,0.04038 0.355997,0.03066 0.421547,-0.406455 0.05104,-0.340371 0.149507,-0.51064 0.410355,-0.709599 0.18876,-0.143974 0.397548,-0.261771 0.463975,-0.261771 0.144851,0 0.146693,-0.207817 0.0074,-0.836097 -0.05734,-0.258668 -0.110164,-0.529093 -0.117379,-0.600945 -0.0072,-0.07185 -0.134613,-0.131673 -0.283107,-0.132936 -0.403655,-0.0034 -1.11889,-0.362893 -1.313727,-0.660251 -0.09442,-0.144107 -0.175492,-0.396171 -0.180154,-0.560142 -0.0095,-0.33557 0.231781,-1.076579 0.350606,-1.076579 0.171371,0 0.40298,0.487061 0.40298,0.847444 0,0.332726 0.04657,0.404983 0.355459,0.551562 0.415527,0.19718 0.585151,0.213062 0.585151,0.05479 0,-0.06264 0.105818,-0.199652 0.235152,-0.304474 0.250252,-0.202824 0.496433,-0.115652 0.496433,0.175787 0,0.12389 0.05191,0.119214 0.299371,-0.02696 0.437186,-0.258252 0.686356,-0.743738 0.746718,-1.454914 l 0.05322,-0.627073 0.183966,0.409558 c 0.154222,0.343342 0.166739,0.502745 0.07742,0.985933 -0.0586,0.317006 -0.106549,0.583503 -0.106549,0.592216 0,0.08334 -0.990612,0.990891 -1.081583,0.990891 -0.06927,0 -0.120496,0.166268 -0.120751,0.39192 -2.44e-4,0.215557 -0.03256,0.568285 -0.07181,0.783842 -0.0615,0.337704 -0.04454,0.39192 0.122537,0.39192 0.303325,0 0.524538,0.113522 0.524538,0.269182 0,0.07827 0.06176,0.118609 0.137234,0.08965 0.07548,-0.02896 0.226494,0.04597 0.335588,0.166515 0.196503,0.217135 0.194807,0.222521 -0.181975,0.577994 -0.257632,0.243061 -0.55118,0.395459 -0.909928,0.472397 l -0.529601,0.113579 0.01115,0.732373 c 0.01268,0.83309 -0.263008,1.521043 -0.747908,1.866322 -0.258658,0.18418 -0.271878,0.231492 -0.195104,0.698225 0.04529,0.275362 0.08516,0.553567 0.08858,0.618234 0.0034,0.06467 0.135564,0.144079 0.293639,0.176471 0.30019,0.06151 0.600639,0.425698 0.493805,0.598558 -0.03408,0.05514 -0.273161,0.100261 -0.531291,0.100261 -0.477291,0 -1.08602,0.235826 -1.08602,0.420732 0,0.122241 -0.01347,0.122232 0.828545,5.27e-4 1.067135,-0.154243 1.054765,0.05777 -0.02683,0.459843 l -0.504686,0.187611 0.32179,0.195693 c 0.361154,0.219631 0.420158,0.407789 0.127878,0.407789 -0.161619,0 -0.204169,0.108777 -0.25551,0.653201 -0.06586,0.698356 -0.280026,1.22547 -0.668368,1.644999 -0.132478,0.143117 -0.240869,0.292229 -0.240869,0.33136 0,0.03913 -0.135251,0.100854 -0.300559,0.137162 -0.267721,0.0588 -0.306705,0.119657 -0.356809,0.556993 -0.03094,0.270039 -0.01552,0.505905 0.03427,0.524147 0.04978,0.01824 0.245622,0.1477 0.435193,0.287684 0.189571,0.139985 0.426978,0.283394 0.527571,0.318687 0.368787,0.129389 0.132607,0.578153 -0.473799,0.900259 -0.566805,0.30107 -0.766441,0.349254 -1.27678,0.308163 z m 0.862225,-0.873142 c 0.406973,-0.123022 0.424303,-0.215993 0.08206,-0.440238 -0.321732,-0.210806 -0.43478,-0.216642 -0.266396,-0.01375 0.106744,0.128618 0.08105,0.17314 -0.150775,0.261281 -0.153694,0.05843 -0.344152,0.106244 -0.42324,0.106244 -0.19449,0 -0.294535,0.180207 -0.130655,0.235344 0.141945,0.04776 0.358445,0.0115 0.889004,-0.148879 z M 63.2973,24.248414 c 0.133083,-0.38176 0.302409,-0.404403 0.390792,-0.05226 0.03607,0.143704 0.09931,0.261281 0.140542,0.261281 0.158494,0 0.539035,-0.50511 0.636457,-0.844801 0.135128,-0.471164 0.133442,-1.277201 -0.0025,-1.193187 -0.05748,0.03553 -0.104512,0.150296 -0.104512,0.255044 0,0.225576 -0.633682,0.737822 -0.912734,0.737822 -0.107303,0 -0.242095,0.047 -0.299538,0.104443 -0.05744,0.05744 -0.29756,0.112009 -0.533593,0.121258 -0.395257,0.01549 -0.421269,0.03406 -0.329359,0.235222 0.08972,0.196366 0.66577,0.665899 0.836982,0.682215 0.03749,0.0036 0.117345,-0.134596 0.177459,-0.307041 z m 2.724725,-2.535961 c 0.139165,-0.071 0.273895,-0.199645 0.299401,-0.285868 0.02931,-0.09908 -0.0098,-0.08366 -0.106406,0.04192 -0.128485,0.167095 -0.202286,0.181434 -0.46409,0.09017 -0.31608,-0.110186 -0.661262,-0.01276 -0.661262,0.186639 0,0.142141 0.633096,0.119827 0.932357,-0.03286 z m 0.45243,12.498645 c -0.274589,-0.191543 -0.310857,-0.631567 -0.08722,-1.05821 0.131768,-0.251381 0.233346,-0.350467 0.641639,-0.625899 0.06223,-0.04198 0.09179,-0.290558 0.06786,-0.570801 -0.03495,-0.409437 -0.07837,-0.496433 -0.247752,-0.496433 -0.310467,0 -0.616986,-0.191094 -1.09237,-0.681019 -0.470776,-0.485177 -0.658792,-1.142167 -0.469411,-1.640277 0.06837,-0.17983 0.064,-0.301712 -0.01362,-0.379324 -0.0828,-0.0828 -0.05907,-0.134019 0.08602,-0.185613 0.110205,-0.03919 0.303723,-0.164187 0.430039,-0.27777 0.248642,-0.223578 0.446147,-0.244085 1.310602,-0.136078 0.562465,0.07028 1.229305,0.38357 1.229305,0.577551 0,0.228991 -0.419216,0.328005 -0.967113,0.228422 -0.342104,-0.06218 -0.614852,-0.06247 -0.730112,-7.89e-4 -0.101197,0.05416 -0.183995,0.07165 -0.183995,0.03886 0,-0.03279 -0.09406,-0.0093 -0.209024,0.05226 -0.301968,0.161608 -0.285557,0.839979 0.02917,1.205874 0.345387,0.401536 1.061172,0.517831 1.505328,0.244574 0.432646,-0.266175 0.707249,-0.961154 0.634567,-1.60599 -0.06202,-0.550231 0.05462,-0.607315 0.294208,-0.143995 0.367775,0.711199 0.112908,1.962942 -0.482057,2.367556 -0.317202,0.215718 -0.351997,0.289162 -0.3564,0.752289 -0.0038,0.400733 0.03466,0.523587 0.175499,0.56047 0.231308,0.06058 0.497674,0.608529 0.323961,0.666433 -0.08721,0.02907 -0.08047,0.116811 0.02452,0.319182 0.170024,0.327722 0.03809,0.6139 -0.383377,0.831547 -0.349849,0.180666 -1.245832,0.155596 -1.530268,-0.04282 z m 1.589746,-0.571242 c 0.06262,-0.05747 0.017,-0.175623 -0.121132,-0.313759 -0.264287,-0.264288 -0.694745,-0.203722 -0.869227,0.122299 -0.09406,0.175746 -0.07351,0.22454 0.127624,0.303103 0.254034,0.09922 0.695159,0.04214 0.862735,-0.111643 z m 0.496563,-5.62795 c -0.776033,-0.352212 -0.985677,-1.393456 -0.376963,-1.872272 0.280079,-0.220309 0.298136,-0.575093 0.05262,-1.033843 -0.06375,-0.119109 -0.115901,-0.30627 -0.115901,-0.415914 0,-0.140717 -0.118294,-0.234794 -0.402186,-0.31985 -0.539595,-0.161667 -0.913502,-0.528756 -1.069742,-1.050239 -0.173288,-0.578385 -0.04714,-0.827502 0.697686,-1.377733 0.777776,-0.574577 1.322257,-0.656439 1.783682,-0.268176 0.654161,0.55044 0.714589,1.724434 0.11747,2.282227 -0.310364,0.289923 -0.319462,0.324656 -0.29971,1.144184 0.01333,0.552961 0.0757,0.929634 0.180411,1.089436 0.179625,0.274142 0.115782,0.462469 -0.156779,0.462469 -0.301171,0 -0.431757,0.20144 -0.307449,0.474267 0.186338,0.408967 1.042124,0.510068 1.2369,0.146125 0.140221,-0.262005 -0.02642,-0.51588 -0.338618,-0.51588 -0.247068,0 -0.195992,-0.246147 0.06143,-0.296062 0.25106,-0.04868 0.682003,0.25706 0.800083,0.567633 0.130914,0.344329 -0.111886,0.71775 -0.642787,0.988595 -0.493412,0.251721 -0.656047,0.251058 -1.220151,-0.005 z m -0.440243,-4.483057 c 0,-0.219249 0.47123,-0.578641 0.630025,-0.4805 0.05586,0.03452 0.101561,0.130537 0.101561,0.213368 0,0.08283 0.03948,0.1506 0.08774,0.1506 0.116752,0 0.330312,-0.479027 0.330312,-0.740909 0,-0.198079 -0.02378,-0.194577 -0.475239,0.07 -0.392586,0.230071 -0.565265,0.269859 -0.992866,0.228772 -0.284694,-0.02736 -0.517626,-0.01322 -0.517626,0.03141 0,0.154474 0.541748,0.724262 0.68862,0.724262 0.08111,0 0.147477,-0.08865 0.147477,-0.197004 z m 0.288627,-1.337974 c -0.09992,-0.02616 -0.288044,-0.02711 -0.418048,-0.0021 -0.130004,0.025 -0.04825,0.0464 0.181677,0.04756 0.229927,0.0012 0.336294,-0.01929 0.236371,-0.04545 z m -3.912006,-4.839326 c -0.36576,-0.08348 -0.960311,-0.508894 -0.969374,-0.693599 -0.0093,-0.189156 0.217152,-0.316096 0.813171,-0.455866 0.69194,-0.162265 1.417342,-0.08864 1.779662,0.180632 0.305585,0.227106 0.412352,0.665998 0.202369,0.831887 -0.178769,0.14123 -1.404332,0.233153 -1.825828,0.136946 z"
       id="path1" /></g></svg>
