<?xml version="1.0" encoding="UTF-8" standalone="no"?>
<!-- Created with Inkscape (http://www.inkscape.org/) -->

<svg
   width="120"
   height="120"
   viewBox="0 0 120 120"
   version="1.1"
   id="svg1"
   xml:space="preserve"
   inkscape:export-filename="man-with-glasses.svg"
   inkscape:export-xdpi="96"
   inkscape:export-ydpi="96"
   xmlns:inkscape="http://www.inkscape.org/namespaces/inkscape"
   xmlns:sodipodi="http://sodipodi.sourceforge.net/DTD/sodipodi-0.dtd"
   xmlns="http://www.w3.org/2000/svg"
   xmlns:svg="http://www.w3.org/2000/svg"><sodipodi:namedview
     id="namedview1"
     pagecolor="#ffffff"
     bordercolor="#000000"
     borderopacity="0.25"
     inkscape:showpageshadow="2"
     inkscape:pageopacity="0.0"
     inkscape:pagecheckerboard="0"
     inkscape:deskcolor="#d1d1d1"
     inkscape:document-units="px"><inkscape:page
       x="0"
       y="0"
       width="120"
       height="120"
       id="page2"
       margin="0"
       bleed="0" /></sodipodi:namedview><defs
     id="defs1" /><g
     inkscape:label="Layer 1"
     inkscape:groupmode="layer"
     id="layer1"><path
       style="fill:#000000"
       d="M 24.067323,87.66454 C 23.77785,87.62 23.481572,87.524122 23.408928,87.451478 c -0.102167,-0.102167 -0.175171,-0.09308 -0.322351,0.04011 -0.30054,0.271985 -0.97509,0.164897 -1.244568,-0.197581 -0.471177,-0.633785 -0.163351,-1.915423 1.050109,-4.372154 0.493826,-0.999783 1.050005,-1.922456 1.537666,-2.550909 1.041983,-1.342814 1.183781,-1.636098 1.005469,-2.079649 -0.07667,-0.190711 -0.265103,-0.74602 -0.418744,-1.23402 -0.153642,-0.488 -0.325897,-0.944438 -0.382789,-1.014307 -0.05689,-0.06987 -0.28882,-0.161789 -0.515397,-0.204267 -0.798322,-0.149666 -1.494649,-0.700276 -1.934404,-1.529601 -0.197879,-0.373178 -0.247977,-0.648246 -0.246868,-1.355462 0.0016,-0.993819 0.277276,-1.743711 0.846155,-2.301363 0.171127,-0.16775 0.27794,-0.305 0.237362,-0.305 -0.04058,0 0.02946,-0.112296 0.155646,-0.249546 0.126183,-0.13725 0.42186,-0.549111 0.65706,-0.915248 0.2352,-0.366136 0.577364,-0.859053 0.760364,-1.09537 1.242378,-1.604348 1.711422,-2.186697 2.154772,-2.675291 2.217695,-2.44401 5.493192,-3.583746 7.99341,-2.781371 0.519987,0.166875 0.46704,0.202661 -0.277273,0.187409 -0.430187,-0.0088 -0.421781,-0.0014 0.277273,0.245089 0.937391,0.330507 0.983498,0.274529 0.911269,-1.106347 -0.05119,-0.978647 -0.0381,-1.059827 0.238192,-1.477333 0.160796,-0.24298 0.292357,-0.486749 0.292357,-0.541709 0,-0.05496 0.225254,-0.284505 0.500564,-0.510101 0.391633,-0.320913 0.643374,-0.43036 1.156814,-0.502934 0.811015,-0.114636 1.558986,-0.02824 1.558986,0.180082 0,0.08347 0.06239,0.153329 0.138636,0.155246 0.30463,0.0077 0.748659,0.952832 0.748611,1.593519 -1.3e-5,0.189148 -0.14776,0.618405 -0.328326,0.953905 -0.367205,0.682284 -0.439386,0.99932 -0.17816,0.782522 0.126347,-0.104859 0.205954,-0.0849 0.388182,0.09733 0.274072,0.274073 0.280789,0.362387 0.06003,0.789293 -0.186699,0.361035 -0.284288,0.392203 -0.603613,0.192781 -0.280611,-0.175245 -0.387866,-0.0583 -0.225234,0.245577 0.19609,0.366398 0.25689,0.810976 0.09743,0.712425 -0.0846,-0.05229 -0.102492,-0.03401 -0.04994,0.05102 0.04881,0.07898 -0.03375,0.223454 -0.204396,0.357689 -0.231666,0.182228 -0.264693,0.265533 -0.173114,0.436651 0.08158,0.152427 0.0676,0.320536 -0.05008,0.602175 -0.08979,0.214893 -0.194033,0.390715 -0.231656,0.390715 -0.119149,0 -0.550054,-0.250644 -0.622965,-0.362359 -0.04032,-0.06178 -0.215752,3.87e-4 -0.413353,0.14648 -0.292017,0.215897 -0.385103,0.234767 -0.62313,0.126315 -0.178519,-0.08134 -0.280444,-0.218706 -0.281527,-0.379422 -0.0014,-0.203332 -0.02244,-0.219835 -0.109211,-0.08556 -0.366768,0.567533 0.164687,1.042684 2.424066,2.167255 1.508727,0.750945 1.929886,0.844781 2.487092,0.554132 0.306052,-0.159642 0.634297,-0.126933 0.634297,0.06321 0,0.05447 0.177962,0.09904 0.395473,0.09904 0.21751,0 0.490887,0.05106 0.607504,0.113476 0.174902,0.0936 0.199819,0.08165 0.142295,-0.06825 -0.05514,-0.143706 -0.02177,-0.166505 0.159525,-0.108964 0.126094,0.04002 0.257107,0.02771 0.291139,-0.02735 0.0879,-0.142222 -0.273958,-1.018048 -0.420488,-1.017735 -0.067,1.43e-4 -0.296494,0.149753 -0.509994,0.332467 -0.379296,0.324602 -0.812541,0.432464 -0.935825,0.232986 -0.05375,-0.08697 0.479615,-0.595852 1.099928,-1.049437 0.187613,-0.137186 0.189336,-0.169515 0.02501,-0.46953 -0.09706,-0.177211 -0.312982,-0.64661 -0.479827,-1.04311 -0.166844,-0.3965 -0.369326,-0.799703 -0.449958,-0.896006 -0.08063,-0.0963 -0.146605,-0.23457 -0.146605,-0.30726 0,-0.07269 -0.199636,-0.554357 -0.443636,-1.070371 -0.244,-0.516014 -0.444269,-0.976656 -0.445041,-1.023649 -7.73e-4,-0.04699 -0.142648,-0.363885 -0.315278,-0.704204 -0.17263,-0.340319 -0.402402,-0.945818 -0.510605,-1.345552 -0.167211,-0.617726 -0.175841,-0.791165 -0.05751,-1.155783 0.379384,-1.169007 1.235071,-1.624707 2.332454,-1.242157 0.766467,0.267192 2.700061,1.513217 4.303977,2.77352 1.364191,1.071936 2.333413,1.981324 3.198798,3.001323 1.128418,1.330027 0.814859,1.298479 -0.632249,-0.06361 -1.888278,-1.777339 -3.152926,-2.798467 -4.99091,-4.029862 -1.554694,-1.041599 -1.998552,-1.256388 -2.596301,-1.256388 -0.437627,0 -0.533305,0.04646 -0.790778,0.38403 -0.584237,0.765973 -0.461127,1.447494 0.782102,4.329606 0.289442,0.671 0.587425,1.369727 0.662184,1.552727 0.85247,2.08674 1.120976,2.682401 1.261843,2.799309 0.09112,0.07562 0.136252,0.166905 0.1003,0.202857 -0.03595,0.03595 0.0056,0.273535 0.09239,0.527964 l 0.157761,0.462598 0.585305,-0.0066 c 0.321917,-0.0036 0.646271,-0.04429 0.720785,-0.09034 0.383235,-0.236852 0.810881,0.273993 0.965879,1.153792 0.04869,0.276371 0.007,0.421691 -0.177421,0.617963 l -0.24108,0.256619 1.040786,1.080396 c 2.434668,2.527326 4.164028,4.105665 5.144423,4.69517 0.244,0.146716 0.468591,0.302056 0.499091,0.345201 0.0305,0.04314 0.105364,0.08957 0.166364,0.103157 0.176968,0.03943 0.401296,0.122899 1.078022,0.401116 0.744247,0.305975 1.267131,0.331514 1.626981,0.07946 0.253591,-0.177622 0.257889,-0.2112 0.209378,-1.635909 -0.05995,-1.760618 -0.04847,-1.729607 -1.723639,-4.654431 -1.275603,-2.227179 -2.389924,-4.459862 -2.324241,-4.65691 0.03198,-0.09594 0.584623,0.616535 0.932535,1.20223 2.616679,4.40506 3.294635,5.664668 3.525089,6.549441 0.208749,0.801443 0.226279,2.868585 0.0277,3.266014 -0.174747,0.349726 -0.79424,0.665717 -1.300004,0.663105 -0.605317,-0.0031 -2.275833,-0.786903 -3.320967,-1.558142 -0.974479,-0.7191 -3.278213,-2.951788 -4.569521,-4.4286 -0.400033,-0.4575 -0.872027,-0.996263 -1.048877,-1.19725 -0.292201,-0.332084 -0.394199,-0.371446 -1.117703,-0.43133 l -0.79616,-0.0659 -0.160855,0.384981 c -0.175478,0.419979 -0.63277,0.834149 -1.031487,0.934221 -0.139241,0.03495 -0.510621,0.0083 -0.825288,-0.05916 -0.536346,-0.115025 -0.61475,-0.101987 -1.253814,0.208503 -0.37493,0.182161 -0.856374,0.359787 -1.069874,0.394726 -0.2135,0.03494 -0.712591,0.142431 -1.109091,0.238872 -0.3965,0.09644 -1.070272,0.165884 -1.497272,0.154318 -0.84507,-0.02289 -2.233293,-0.296071 -2.334192,-0.459329 -0.137373,-0.222274 -2.165796,-1.056635 -2.93399,-1.206852 -0.574275,-0.112297 -1.109091,-0.03894 -1.109091,0.152118 0,0.181549 -0.666932,0.40569 -0.970455,0.326149 -0.183883,-0.04819 -0.249545,-0.01757 -0.249545,0.116381 0,0.09998 -0.199637,0.398357 -0.443637,0.663066 -0.244,0.264708 -0.443636,0.585898 -0.443636,0.713755 0,0.158589 -0.160205,0.326354 -0.504101,0.52789 -0.641365,0.375865 -0.579931,0.472803 0.07133,0.112547 1.465551,-0.810699 3.473079,-0.580204 5.238008,0.601402 0.65884,0.441088 2.003538,1.720175 2.460958,2.340882 0.214768,0.291434 0.99726,1.262293 1.134322,1.407383 0.07578,0.08022 0.187046,0.115412 0.247253,0.0782 0.296355,-0.183157 0.964797,0.6179 0.8233,0.986636 -0.04445,0.115842 0.03611,0.214515 0.25033,0.306618 0.173732,0.07469 0.452138,0.228276 0.618679,0.341293 0.490997,0.333197 1.874426,0.78002 2.432239,0.785571 0.71867,0.0072 1.27624,-0.39138 2.030686,-1.45146 1.006012,-1.413558 1.051641,-1.450541 1.274916,-1.033346 0.167352,0.3127 0.14013,0.751998 -0.09323,1.504564 -0.412984,1.331807 -1.021368,2.387875 -2.016541,3.500423 -0.529262,0.591685 -0.788364,0.983559 -0.879981,1.330909 -0.286233,1.085198 -0.642465,1.223259 -1.749238,0.677931 -1.368245,-0.674158 -2.864354,-1.48643 -3.063824,-1.663419 -0.336223,-0.298331 -1.620551,-2.036003 -1.620551,-2.192576 0,-0.25495 -0.178776,-0.267526 -1.388646,-0.09769 -1.683825,0.236367 -3.607451,1.091625 -4.618512,2.053425 -0.387087,0.368226 -0.434997,0.460547 -0.314409,0.605846 0.07825,0.09428 0.114539,0.199149 0.08065,0.233038 -0.03389,0.03389 -0.449107,-0.304204 -0.922708,-0.751317 -0.4736,-0.447113 -0.820639,-0.713115 -0.771198,-0.591115 0.143268,0.353524 0.09417,0.580362 -0.212683,0.982669 -0.292766,0.383837 -0.571958,1.206707 -0.686566,2.023533 -0.05274,0.375858 -0.02131,0.494958 0.180147,0.682639 0.395699,0.368651 0.855095,0.388401 1.911378,0.08217 1.058864,-0.306975 1.529819,-0.257425 1.529819,0.160956 0,0.275801 -0.32089,0.487277 -1.109091,0.730926 -0.3355,0.103709 -0.817781,0.255308 -1.071737,0.336885 -0.544241,0.174825 -3.0801,0.289161 -3.835487,0.172934 z M 22.74521,86.969907 c -0.08136,-0.05158 -0.247754,-0.09295 -0.369754,-0.09195 -0.213766,0.0018 -0.214381,0.0075 -0.01695,0.157048 0.112679,0.08537 0.279069,0.126747 0.369754,0.09195 0.134387,-0.05157 0.137521,-0.08062 0.01695,-0.157048 z m 5.323004,-0.04894 c 0.447016,-0.0868 0.896198,-0.211464 0.998182,-0.277024 0.151314,-0.09727 0.134418,-0.106712 -0.09185,-0.05131 -1.035102,0.25345 -1.70165,0.310912 -2.068351,0.178312 -0.272933,-0.09869 -0.42325,-0.104368 -0.525122,-0.01982 -0.0785,0.06515 -0.437924,0.191467 -0.798718,0.280706 l -0.655991,0.16225 1.164546,-0.05764 c 0.6405,-0.0317 1.530286,-0.128665 1.977303,-0.215467 z m -1.757183,-0.464145 c -9.34e-4,-0.04575 -0.05008,-0.158046 -0.109211,-0.249546 -0.09299,-0.143888 -0.107742,-0.141391 -0.109211,0.01848 -9.34e-4,0.101667 -0.06408,0.210022 -0.140334,0.240789 -0.07625,0.03077 -0.02634,0.05988 0.110909,0.0647 0.13725,0.0048 0.248781,-0.02868 0.247847,-0.07443 z m -3.66,-1.337455 c -0.0015,-0.161625 -0.01656,-0.164553 -0.109211,-0.02118 -0.140366,0.217201 -0.140366,0.364024 0,0.277273 0.061,-0.0377 0.110145,-0.152941 0.109211,-0.256091 z m 18.577918,-0.769818 c 0.09152,-0.590553 0.437458,-1.24073 0.93162,-1.75093 0.80006,-0.826028 1.612976,-2.230575 1.955455,-3.378616 0.14313,-0.479794 0.141674,-0.488561 -0.03766,-0.226753 -0.532601,0.777546 -1.158179,1.431381 -1.589258,1.661043 -0.443579,0.236322 -0.503644,0.322289 -0.740402,1.059697 -0.141713,0.441381 -0.497803,1.281329 -0.79131,1.866552 -0.540538,1.077775 -0.543092,1.158052 -0.03742,1.17616 0.199418,0.0071 0.256409,-0.06796 0.308973,-0.407153 z m -1.440765,-0.138637 c 0.0377,-0.061 0.01569,-0.110909 -0.04891,-0.110909 -0.0646,0 -0.117455,0.04991 -0.117455,0.110909 0,0.061 0.02201,0.11091 0.04891,0.11091 0.0269,0 0.07975,-0.04991 0.117455,-0.11091 z M 28.895303,82.8276 c 0.234582,-0.491923 0.808892,-0.904488 2.221334,-1.595732 1.131947,-0.553971 2.067808,-0.797895 3.680638,-0.959325 0.993699,-0.09946 1.763442,-0.288781 1.863238,-0.45827 0.04878,-0.08285 0.186031,-0.15063 0.305,-0.15063 0.118969,0 0.222546,-0.04991 0.230171,-0.110909 0.0076,-0.061 0.02144,-0.173296 0.03069,-0.249546 0.0093,-0.07625 0.123002,-0.127596 0.252768,-0.114102 0.285706,0.02971 0.38195,-0.178398 0.272233,-0.588645 -0.05541,-0.207168 -0.160596,-0.311417 -0.326567,-0.323645 -0.260513,-0.01919 -0.674041,-0.343482 -1.129203,-0.885524 -0.594468,-0.707937 -2.481271,-2.498778 -2.830836,-2.68686 -0.202442,-0.108923 -0.659219,-0.354367 -1.01506,-0.545431 -1.317136,-0.707217 -2.735729,-0.757253 -4.012403,-0.141524 -0.388683,0.187458 -0.909963,0.41255 -1.158399,0.500203 -0.61857,0.218244 -0.773639,0.02633 -0.227203,-0.281194 0.331927,-0.1868 0.428069,-0.309671 0.436938,-0.558412 0.008,-0.223396 -0.0503,-0.335041 -0.194548,-0.372762 -0.279277,-0.07303 -0.148487,-0.389227 0.19685,-0.475901 0.147344,-0.03698 0.340212,-0.0057 0.431403,0.06999 0.13643,0.113227 0.164924,0.09927 0.164924,-0.08077 0,-0.155579 -0.126514,-0.2594 -0.443637,-0.364059 -0.497424,-0.164165 -0.584259,-0.332728 -0.171405,-0.332728 0.149728,0 0.401785,-0.129553 0.560127,-0.287895 0.198502,-0.198502 0.363648,-0.269464 0.53186,-0.228537 0.13418,0.03265 0.361465,-0.0045 0.505077,-0.08265 0.248875,-0.135354 0.233281,-0.147631 -0.332728,-0.261957 -1.317012,-0.266019 -2.677583,-1.123437 -3.429243,-2.161073 L 25.00122,68.67715 24.4647,70.039034 c -0.5082,1.289996 -0.53652,1.417501 -0.53652,2.415521 0,1.021058 0.01391,1.079355 0.449924,1.885454 0.277493,0.513028 0.58402,0.916829 0.799819,1.053637 0.380759,0.241385 0.453395,0.388181 0.192075,0.388181 -0.0915,0 -0.166364,0.02206 -0.166364,0.04903 0,0.124729 0.819605,2.588896 0.942819,2.834612 0.07647,0.1525 0.197978,0.525914 0.270017,0.82981 0.07204,0.303895 0.250185,0.708824 0.395881,0.899841 0.145697,0.191018 0.298942,0.48293 0.340546,0.648693 0.0416,0.165764 0.146954,0.328753 0.23411,0.362198 0.08716,0.03345 0.134947,0.122098 0.106202,0.197006 -0.02875,0.07491 0.03077,0.258662 0.132263,0.408341 0.31016,0.457432 0.938301,1.201384 1.014365,1.201384 0.03949,0 0.15445,-0.17331 0.255462,-0.385134 z m 6.865032,-2.078897 c -0.07958,-0.07958 -0.131242,-0.08613 -0.131242,-0.01664 0,0.148039 0.131162,0.279201 0.205182,0.205182 0.03152,-0.03152 -0.0018,-0.116362 -0.07394,-0.188546 z M 25.421929,79.725626 c -0.0019,-0.06459 -0.0768,-0.02056 -0.166364,0.09785 -0.08956,0.118409 -0.161249,0.268136 -0.159309,0.332727 0.0019,0.06459 0.0768,0.02056 0.166364,-0.09785 0.08956,-0.118409 0.161249,-0.268137 0.159309,-0.332727 z m 12.685436,-0.23313 c -0.03612,-0.09413 -0.08946,-0.147361 -0.118534,-0.118288 -0.02907,0.02907 -0.01996,0.106088 0.02025,0.171147 0.109362,0.176951 0.173282,0.142574 0.09829,-0.05286 z m -13.68009,-3.87049 c 0,-0.0269 -0.04991,-0.07975 -0.11091,-0.117454 -0.061,-0.0377 -0.110909,-0.01569 -0.110909,0.04891 0,0.0646 0.04991,0.117454 0.110909,0.117454 0.061,0 0.11091,-0.02201 0.11091,-0.04891 z m 16.525454,-4.276545 c -0.0915,-0.05913 -0.216272,-0.107513 -0.277272,-0.107513 -0.061,0 -0.03605,0.04838 0.05545,0.107513 0.0915,0.05913 0.216273,0.107512 0.277273,0.107512 0.061,0 0.03605,-0.04838 -0.05546,-0.107512 z m 2.226577,-0.516655 0.268878,-0.294837 -0.360455,0.26024 c -0.374937,0.270695 -0.422878,0.329433 -0.268878,0.329433 0.05037,0 0.212571,-0.132676 0.360455,-0.294836 z m -5.886577,-0.536982 c -0.07594,-0.0915 -0.208959,-0.166363 -0.295602,-0.166363 -0.169134,0 -1.463132,-0.672848 -1.926873,-1.001927 -0.277463,-0.196894 -0.281874,-0.196081 -0.302719,0.05579 -0.03266,0.394666 1.450141,1.12651 2.566502,1.266708 0.05322,0.0067 0.03463,-0.06271 -0.04131,-0.154212 z m 4.99091,-0.277273 c 0,-0.061 -0.07781,-0.110909 -0.17291,-0.110909 -0.0951,0 -0.142063,0.04991 -0.104363,0.110909 0.0377,0.061 0.115509,0.11091 0.172909,0.11091 0.0574,0 0.104364,-0.04991 0.104364,-0.11091 z m 3.19739,-0.06349 c 0.369821,-0.04901 0.465259,-0.102357 0.415437,-0.232192 -0.03558,-0.09271 -0.09483,-0.288695 -0.131687,-0.435528 -0.05027,-0.200284 -0.140187,-0.265318 -0.359982,-0.260358 -0.410873,0.0093 -1.336405,0.168029 -1.410282,0.241907 -0.03385,0.03385 -0.02872,0.236506 0.0114,0.450351 0.08028,0.427907 0.05559,0.423961 1.475117,0.23582 z M 27.643638,69.570915 c -0.06529,-0.122 -0.204298,-0.220708 -0.308902,-0.219352 -0.15082,0.002 -0.132794,0.04736 0.08708,0.219352 0.348564,0.272651 0.367737,0.272651 0.221818,0 z m 9.536997,0.06264 c -0.214152,-0.07895 -0.699342,-0.300029 -1.078201,-0.491276 -0.378859,-0.191248 -0.727689,-0.344153 -0.775178,-0.33979 -0.160703,0.01476 1.893715,0.990311 2.06892,0.982434 0.0956,-0.0043 -0.0014,-0.07241 -0.215541,-0.151368 z m 5.480577,-0.463165 c 0.05019,-0.130803 0.02121,-0.160536 -0.108114,-0.110909 -0.09718,0.03729 -0.234997,0.06857 -0.306258,0.0695 -0.07433,9.74e-4 -0.05865,0.04753 0.0368,0.109211 0.231732,0.149757 0.298702,0.137731 0.377573,-0.0678 z m -8.160828,-0.264924 c 0.140264,0 0.112992,-0.06558 -0.115311,-0.277273 -0.368597,-0.341782 -0.419616,-0.344479 -0.419616,-0.02218 0,0.279009 0.248344,0.608057 0.312856,0.414523 0.0211,-0.06329 0.121027,-0.115068 0.222071,-0.115068 z m 2.182345,-0.554546 c -0.0377,-0.061 -0.152941,-0.107401 -0.256091,-0.103114 -0.152887,0.0064 -0.146554,0.02541 0.03427,0.103114 0.296783,0.127532 0.300637,0.127532 0.221818,0 z M 25.536365,68.018188 c 0,-0.061 -0.02201,-0.110909 -0.04891,-0.110909 -0.0269,0 -0.07975,0.04991 -0.117454,0.110909 -0.0377,0.061 -0.01569,0.110909 0.04891,0.110909 0.0646,0 0.117454,-0.04991 0.117454,-0.110909 z m 5.156488,-0.996912 c 0.03886,-0.06287 -0.0057,-0.08146 -0.104363,-0.04359 -0.192141,0.07373 -0.227296,0.153227 -0.06776,0.153227 0.0574,0 0.134856,-0.04934 0.172124,-0.109639 z m -4.21376,-0.223088 c 0.0377,-0.061 0.01569,-0.110909 -0.04891,-0.110909 -0.0646,0 -0.117455,0.04991 -0.117455,0.110909 0,0.061 0.02201,0.110909 0.04891,0.110909 0.0269,0 0.07976,-0.04991 0.117455,-0.110909 z m 9.891218,-1.684432 c -0.03541,-0.08848 -0.06169,-0.06219 -0.06701,0.06701 -0.0048,0.116916 0.0214,0.182422 0.05825,0.145568 0.03685,-0.03685 0.04079,-0.132514 0.0088,-0.212576 z m 0.752745,-0.28125 c 0.122761,-0.0687 0.10429,-0.111671 -0.08671,-0.201736 -0.223741,-0.1055 -0.244698,-0.08379 -0.268242,0.277852 -0.02015,0.309456 -0.0018,0.352055 0.08671,0.201736 0.06174,-0.104807 0.182449,-0.22984 0.268242,-0.277852 z m 1.991751,-0.09406 c 0.331951,-0.33195 0.120713,-1.156623 -0.296267,-1.156623 -0.06709,0 -0.213252,-0.0826 -0.324805,-0.183553 -0.249675,-0.225953 -0.276022,-0.814629 -0.03646,-0.814629 0.0915,0 0.166363,0.05347 0.166363,0.118831 0,0.321781 0.787455,0.646191 1.092245,0.449975 0.118981,-0.0766 0.09988,-0.142503 -0.09355,-0.322709 -0.259202,-0.241484 -0.258662,-0.378695 0.0059,-1.502209 0.07332,-0.311374 0.09053,-0.705634 0.04114,-0.942727 -0.04669,-0.224138 -0.07896,-0.437564 -0.0717,-0.47428 0.02944,-0.148954 -0.609027,0.05692 -0.938911,0.302748 -0.439128,0.327241 -0.514439,0.329694 -0.416043,0.01355 0.07495,-0.240818 0.07006,-0.242757 -0.139896,-0.05546 -0.389034,0.347062 -0.636075,0.22056 -0.298255,-0.152727 0.169589,-0.187393 0.156874,-0.194311 -0.239062,-0.130059 -0.301644,0.04895 -0.396094,0.03213 -0.338933,-0.06036 0.119839,-0.193904 -0.02716,-0.154737 -0.415818,0.110797 -0.487968,0.333379 -0.627121,0.531145 -0.627121,0.891273 0,0.347261 0.02898,0.363178 0.349245,0.19178 0.175468,-0.09391 0.269723,-0.07815 0.436778,0.07304 0.208361,0.188564 0.205584,0.19731 -0.126834,0.399465 -0.227674,0.138457 -0.322075,0.269941 -0.285985,0.398328 0.02963,0.105406 0.08652,0.353852 0.126419,0.552102 0.065,0.322979 0.38765,0.530679 0.38765,0.249545 0,-0.061 0.07529,-0.110909 0.167304,-0.110909 0.140184,0 0.144678,0.03714 0.02773,0.229117 -0.105555,0.173271 -0.227435,0.21925 -0.500031,0.188634 -0.19825,-0.02226 -0.360454,-0.0081 -0.360454,0.03152 0,0.0396 0.14242,0.266645 0.31649,0.504547 0.799722,1.092986 1.932379,1.661473 2.39286,1.200991 z m -0.174787,-2.5715 c -0.224717,-0.04775 -0.322702,-0.375946 -0.185459,-0.621187 0.146793,-0.262304 0.302091,-0.224498 0.426963,0.103941 0.127578,0.335555 0.01709,0.572192 -0.241504,0.517246 z m 24.438528,25.127242 c -0.0732,-0.0732 -0.133091,-0.219982 -0.133091,-0.326182 0,-0.1062 -0.04991,-0.223936 -0.110909,-0.261636 -0.061,-0.0377 -0.110909,-0.168364 -0.110909,-0.290364 0,-0.122 -0.04991,-0.190972 -0.110909,-0.153272 -0.166483,0.102892 -0.126753,-0.191544 0.05898,-0.437107 0.08956,-0.118409 0.162836,-0.349874 0.162836,-0.514366 0,-0.273877 0.207077,-0.798414 0.949833,-2.405985 0.148592,-0.321601 0.270167,-0.639896 0.270167,-0.707322 0,-0.365287 1.995105,-3.961581 3.239783,-5.839899 1.435158,-2.165766 3.232568,-4.026465 4.520451,-4.679622 0.272628,-0.138265 0.646946,-0.356919 0.831818,-0.485897 0.184872,-0.128979 0.356156,-0.246384 0.380633,-0.260901 0.02448,-0.01452 -0.187637,-0.274569 -0.471364,-0.577896 -0.58665,-0.627176 -0.649315,-0.977436 -0.308929,-1.726713 0.272435,-0.599696 1.258526,-1.767942 1.788087,-2.118389 0.428072,-0.283285 0.710706,-0.797874 0.598635,-1.089928 -0.143399,-0.373691 0.608747,-1.220667 1.454523,-1.637907 0.185804,-0.09166 0.538557,-0.148284 0.798858,-0.12823 0.256373,0.01975 0.49351,-0.0084 0.526972,-0.06253 0.03346,-0.05414 -0.04573,-0.07057 -0.17598,-0.03651 -0.349302,0.09134 -0.225211,-0.112661 0.364566,-0.599346 0.283929,-0.234298 0.954124,-0.797755 1.489322,-1.252127 1.018482,-0.864668 1.665876,-1.265986 1.854348,-1.149505 0.06387,0.03947 0.0773,0.01343 0.03139,-0.06086 -0.04414,-0.07142 -0.121587,-0.104311 -0.172103,-0.07309 -0.1019,0.06298 -1.595752,-0.235816 -1.944643,-0.388959 -0.122,-0.05355 -0.411118,-0.146196 -0.642485,-0.205877 -0.869279,-0.224233 -2.120038,-1.299814 -2.22861,-1.916476 -0.01435,-0.08151 -0.05966,-0.248016 -0.100695,-0.370017 -0.175054,-0.520493 -0.271761,-1.664225 -0.1477,-1.746818 0.178911,-0.11911 -0.127359,-0.298136 -0.54051,-0.315947 -1.221261,-0.05265 -1.455233,-0.22341 -2.006127,-1.46413 -0.127227,-0.286539 -0.32925,-0.493949 -0.631129,-0.647956 -0.244203,-0.124582 -0.499357,-0.271309 -0.567011,-0.326059 -0.06765,-0.05475 -0.447415,-0.362079 -0.843915,-0.682954 -0.3965,-0.320875 -0.811872,-0.695704 -0.92305,-0.832954 -0.111177,-0.13725 -0.262991,-0.249545 -0.337364,-0.249545 -0.26946,0 -1.933303,1.118149 -3.397768,2.283394 -0.8235,0.655242 -1.522227,1.221241 -1.552727,1.257775 -0.0305,0.03653 -0.329955,0.289644 -0.665455,0.562467 -0.3355,0.272823 -0.634954,0.52383 -0.665454,0.557793 -0.0305,0.03396 -0.978773,0.830486 -2.107273,1.77005 -1.1285,0.939565 -2.301364,1.920271 -2.606364,2.179346 -0.886625,0.753124 -2.747049,2.297143 -3.057118,2.537189 -0.156415,0.121092 -0.530733,0.43043 -0.831818,0.687418 -0.301085,0.256987 -1.296064,1.069228 -2.211064,1.804979 -0.915,0.735751 -1.952325,1.591092 -2.305166,1.900759 -0.634683,0.557021 -1.18847,1.427387 -1.18847,1.86787 0,0.124028 -0.04991,0.225506 -0.110909,0.225506 -0.061,0 -0.11091,-0.174682 -0.11091,-0.388182 0,-0.2135 0.04991,-0.388182 0.11091,-0.388182 0.061,0 0.110909,-0.05098 0.110909,-0.113287 0,-0.146169 0.544808,-0.97879 0.831004,-1.270011 0.121553,-0.123686 0.695507,-0.618131 1.275455,-1.098767 0.579947,-0.480636 1.129313,-0.957334 1.220813,-1.059328 0.0915,-0.101995 0.341046,-0.317079 0.554546,-0.477963 0.2135,-0.160885 0.635017,-0.523721 0.936705,-0.806302 0.301688,-0.282582 0.690918,-0.615179 0.864956,-0.739105 0.326389,-0.232409 0.902365,-0.732233 1.966356,-1.706373 0.337091,-0.308625 1.062074,-0.934795 1.611074,-1.391489 0.549,-0.456693 1.438203,-1.202364 1.976006,-1.657045 0.537804,-0.454682 1.167695,-0.976421 1.399758,-1.159421 0.232063,-0.183 1.206626,-0.997634 2.165696,-1.810296 2.868535,-2.43064 3.879918,-3.12989 5.316049,-3.675411 l 0.321145,-0.121989 -0.26569,-0.301607 c -0.14613,-0.165883 -0.274904,-0.319137 -0.286164,-0.340564 -0.01126,-0.02143 -0.260805,0.183265 -0.554545,0.454871 -0.472218,0.436634 -1.281412,1.102842 -3.912826,3.221421 -0.394314,0.317466 -0.918359,0.722453 -1.164545,0.899971 -0.246186,0.177518 -0.473458,0.361355 -0.505049,0.408528 -0.03159,0.04717 -0.780228,0.668126 -1.663637,1.379898 -2.082827,1.678155 -5.815239,4.671716 -6.356135,5.097905 -0.232254,0.183 -0.611203,0.482455 -0.842109,0.665455 -0.230906,0.183 -1.013612,0.795809 -1.739346,1.361798 -0.725735,0.565988 -1.411063,1.105623 -1.522951,1.199187 -0.819774,0.685514 -2.795947,1.575904 -3.168035,1.427398 -0.119046,-0.04751 0.02354,-0.135096 0.432378,-0.26558 0.3355,-0.107079 0.784682,-0.301836 0.998182,-0.432793 0.2135,-0.130956 0.463045,-0.272395 0.554545,-0.314306 0.270471,-0.12389 1.683489,-1.190739 2.156674,-1.628319 0.24067,-0.222562 0.467985,-0.404658 0.505144,-0.404658 0.03716,0 0.245931,-0.162205 0.463937,-0.360455 0.706744,-0.642698 1.024749,-0.906353 1.700299,-1.409704 0.36517,-0.272087 0.988355,-0.797209 1.384855,-1.166937 0.3965,-0.369728 1.469546,-1.269088 2.384546,-1.998578 0.915,-0.72949 1.966415,-1.576868 2.336478,-1.883063 0.370063,-0.306195 0.819245,-0.673736 0.998182,-0.816758 0.178937,-0.143022 1.040727,-0.84175 1.915089,-1.552728 0.874362,-0.710977 1.672908,-1.342595 1.774546,-1.403595 0.101638,-0.061 0.20975,-0.139612 0.24025,-0.174694 0.19498,-0.224268 1.861913,-1.460532 2.528286,-1.875078 0.439443,-0.273374 0.798987,-0.533121 0.798987,-0.577214 0,-0.04409 -0.315792,-0.56906 -0.701761,-1.166593 -0.766711,-1.186974 -1.395305,-2.568745 -1.679918,-3.692785 -0.100396,-0.3965 -0.226795,-0.895591 -0.280887,-1.109091 -0.434328,-1.714273 -0.416397,-4.574048 0.04172,-6.654546 0.378076,-1.716985 0.727954,-2.696333 1.452025,-4.064387 1.073096,-2.027501 1.556537,-2.456021 0.688249,-0.610061 -1.248683,2.654671 -1.861295,5.1166 -1.928417,7.749817 -0.05267,2.066203 0.142635,3.334906 0.815616,5.298268 0.496605,1.448802 0.905603,2.222203 1.818214,3.438182 2.232212,2.974235 5.57327,5.005845 9.60511,5.840615 0.988978,0.204763 1.574031,0.250472 3.257318,0.254489 2.592526,0.0062 3.307391,-0.07336 5.580391,-0.620919 L 88.879873,54.679579 88.4013,54.405617 c -0.263215,-0.150679 -0.578391,-0.319461 -0.700391,-0.375071 -0.218105,-0.09942 -0.485283,-0.2685 -1.118463,-0.707816 -0.660395,-0.458199 -5.612682,-5.148827 -7.844462,-7.429991 -2.224191,-2.273407 -4.952681,-5.61983 -6.421225,-7.875464 -1.783845,-2.739927 -2.860396,-5.074416 -2.860396,-6.202737 0,-0.376961 -0.04273,-0.507263 -0.166363,-0.507263 -0.0915,0 -0.166364,-0.07019 -0.166364,-0.15598 0,-0.234281 0.330217,-0.114475 1.866103,0.677038 3.311642,1.706642 6.639025,4.495183 9.502307,7.963488 0.302153,0.366 0.580588,0.690409 0.618742,0.720909 0.03815,0.0305 0.48845,0.607456 1.000656,1.282125 0.512206,0.674669 1.160845,1.523123 1.44142,1.885454 0.521908,0.673985 2.130918,2.953556 2.6785,3.794776 0.16775,0.257704 0.42641,0.655713 0.574801,0.884463 0.469154,0.72322 1.430959,2.492405 1.946662,3.580773 0.273555,0.577325 0.506428,1.066282 0.517496,1.086571 0.01875,0.03438 0.532154,-0.394007 0.894073,-0.746024 0.290573,-0.282622 0.921319,-0.673525 1.199388,-0.743315 0.150919,-0.03788 0.274398,-0.109403 0.274398,-0.158943 0,-0.154512 0.679805,-0.247809 0.928154,-0.127381 0.130015,0.06304 0.418487,0.144486 0.641049,0.180979 0.562796,0.09228 0.954015,0.435704 1.254065,1.100852 0.349421,0.774595 0.387355,0.9197 0.497735,1.90396 0.07696,0.686213 0.164669,0.954573 0.439392,1.344325 0.37855,0.537053 0.435883,0.930975 0.167872,1.153405 -0.131078,0.108785 -0.224622,0.114785 -0.370379,0.02376 -0.119371,-0.07455 -0.255686,-0.08337 -0.351448,-0.02275 -0.08604,0.05447 -0.262005,0.0998 -0.391028,0.10073 -0.25236,0.0018 -0.819048,-0.389147 -0.819048,-0.565084 0,-0.169564 0.89233,-0.01756 1.12314,0.191315 0.127301,0.115206 0.207769,0.137353 0.207769,0.05718 0,-0.07196 0.13725,-0.183246 0.305,-0.247293 0.280431,-0.10707 0.289365,-0.127935 0.110909,-0.259028 -0.10675,-0.07842 -0.194091,-0.195303 -0.194091,-0.259745 0,-0.06444 -0.05026,-0.133921 -0.111695,-0.154398 -0.142744,-0.04758 -0.491269,-1.060567 -0.663477,-1.92839 l -0.133286,-0.671683 -0.57168,0.01288 c -0.383854,0.0086 -0.762256,0.111147 -1.151729,0.311969 -0.319027,0.164498 -0.618481,0.292844 -0.665454,0.285212 -0.208652,-0.0339 -0.349422,0.03013 -0.622311,0.28303 -0.23604,0.218755 -0.279011,0.335695 -0.22415,0.61 0.04353,0.217661 0.02313,0.339363 -0.0569,0.339363 -0.06862,0 -0.124773,0.07486 -0.124773,0.166364 0,0.0915 -0.07486,0.166363 -0.166363,0.166363 -0.0915,0 -0.166364,-0.04991 -0.166364,-0.110909 0,-0.061 -0.04991,-0.110909 -0.110909,-0.110909 -0.167884,0 -0.132773,0.73116 0.05691,1.185137 0.0923,0.220906 0.143416,0.426052 0.11359,0.455878 -0.180236,0.180236 -0.835955,-0.872528 -0.835955,-1.342134 0,-0.499026 -0.602126,-0.790996 -1.082868,-0.525083 -0.330914,0.183039 -2.020762,0.574767 -3.40895,0.790238 -1.465663,0.227496 -4.363329,0.285388 -5.386449,0.107615 -1.091865,-0.189718 -1.427194,-0.208953 -1.402478,-0.08045 0.04092,0.212734 0.34187,0.689001 0.799836,1.265761 0.434739,0.547508 1.284115,1.072072 1.940909,1.198681 0.765929,0.147647 1.573792,0.179971 1.853209,0.07415 0.170235,-0.06447 0.445387,-0.146837 0.611449,-0.183034 0.166062,-0.0362 0.399942,-0.171015 0.519734,-0.299597 0.325775,-0.349678 2.593708,-1.092919 3.337427,-1.093733 0.797605,-8.73e-4 2.125203,0.257226 2.948092,0.57314 0.514712,0.197603 0.599836,0.260672 0.394237,0.292097 -0.260569,0.03983 -0.25991,0.04246 0.104938,0.418886 0.201935,0.208344 0.419751,0.378043 0.484035,0.377109 0.06428,-9.34e-4 0.0481,-0.04526 -0.03597,-0.09851 -0.08406,-0.05325 -0.118665,-0.152117 -0.07689,-0.219713 0.09465,-0.153152 0.716709,0.146323 0.929204,0.447346 0.07971,0.112916 0.215844,0.205302 0.302522,0.205302 0.08668,0 -0.0604,-0.200942 -0.326839,-0.446538 -0.486225,-0.448186 -0.686699,-0.829872 -0.497343,-0.9469 0.05584,-0.03451 0.188407,0.08989 0.294588,0.276461 0.106181,0.186566 0.255442,0.339526 0.331692,0.339912 0.07625,3.86e-4 0.138637,0.04861 0.138637,0.107158 0,0.168135 0.784399,0.357641 1.315883,0.317911 l 0.484065,-0.03619 0.02237,-0.473162 c 0.03935,-0.832392 0.422808,-0.928271 0.549282,-0.137343 0.09584,0.599361 -0.0041,0.940659 -0.325953,1.112899 -0.195541,0.10465 -0.250472,0.206638 -0.206233,0.3829 0.08047,0.320603 -0.201564,0.546481 -0.56762,0.454607 -0.156097,-0.03918 -0.343027,-0.03464 -0.415399,0.01009 -0.139346,0.08612 -0.451717,0.149418 -0.773213,0.156681 -0.131279,0.003 -0.194091,0.09304 -0.194091,0.278327 0,0.458859 -0.287562,0.996138 -0.680634,1.271689 -0.205151,0.143816 -0.750945,0.58794 -1.212874,0.986942 -0.461929,0.399003 -1.097174,0.941084 -1.411655,1.204625 -0.825675,0.69193 -1.88272,1.777335 -2.252521,2.312952 -0.441393,0.639311 -1.374694,2.501043 -1.33857,2.670155 0.01629,0.07625 -0.02763,0.138636 -0.09759,0.138636 -0.06996,0 -0.363431,0.212114 -0.652155,0.471364 -0.576433,0.517589 -0.738692,0.607975 -1.869857,1.041601 -0.23705,0.09087 -0.198126,0.137281 0.554545,0.661184 2.353344,1.638062 4.273194,3.346296 4.6435,4.131668 0.133577,0.283301 0.366526,1.063762 0.517663,1.734358 0.326909,1.450499 0.755401,2.575414 1.424755,3.740398 0.270512,0.470815 0.502952,0.990294 0.516533,1.154399 0.03182,0.384449 0.683544,0.689265 1.661854,0.777259 0.680132,0.06117 0.704013,0.05409 1.041305,-0.308901 0.52613,-0.566215 1.18312,-1.949603 1.414234,-2.977875 0.134949,-0.600413 0.872023,-0.657767 1.017246,-0.07916 0.117394,0.467735 -1.00106,4.439231 -1.548083,5.497057 -0.324223,0.626979 -0.83021,1.095826 -1.457319,1.350351 -0.43402,0.176156 -0.581572,0.284917 -0.498812,0.367677 0.173205,0.173205 0.142855,0.690433 -0.0499,0.850406 -0.104843,0.08701 -0.336396,0.116286 -0.619468,0.07832 -0.554233,-0.07434 -2.129606,-0.818716 -2.633125,-1.244175 -0.275631,-0.2329 -1.277712,-1.410666 -1.631101,-1.917067 -0.0123,-0.01762 -0.389083,0.06958 -0.837298,0.193788 -1.06353,0.294719 -2.710935,0.324344 -3.469228,0.06239 -0.297205,-0.102672 -1.168942,-0.506765 -1.937193,-0.897985 -1.175715,-0.598714 -3.607135,-1.507477 -4.689783,-1.752844 -0.160041,-0.03627 -0.509405,-0.16346 -0.776364,-0.282643 -0.480208,-0.214388 -0.481243,-0.216041 -0.0972,-0.15514 0.892951,0.141599 4.222382,1.154829 5.005844,1.523404 0.465714,0.219092 0.898259,0.398349 0.961212,0.398349 0.06295,0 0.131096,0.03743 0.151429,0.08318 0.06116,0.137617 0.771696,0.449844 1.471614,0.646667 1.307151,0.367582 2.931614,0.171206 4.300677,-0.519894 0.349595,-0.176475 0.680429,-0.320864 0.735187,-0.320864 0.05476,0 0.505364,-0.229912 1.001345,-0.510917 1.06901,-0.605662 1.106416,-0.731386 0.509809,-1.713508 -0.649744,-1.069595 -1.023565,-2.005875 -1.331225,-3.334221 -0.574029,-2.478416 -0.656236,-2.607979 -2.748833,-4.332311 -0.681882,-0.561882 -1.514286,-1.28088 -1.849786,-1.597774 -1.149543,-1.085792 -1.330174,-1.208722 -1.562696,-1.06351 -0.295882,0.184782 -1.226398,0.162073 -1.510416,-0.03686 -0.267896,-0.187642 -0.278381,-0.587281 -0.02364,-0.901081 0.110435,-0.136038 0.114679,-0.168366 0.01417,-0.107922 -0.204407,0.122923 -0.466506,-0.133193 -0.466506,-0.455858 0,-0.183314 0.07554,-0.293829 0.228091,-0.333723 0.132578,-0.03467 0.204216,-0.121865 0.171076,-0.208226 -0.08491,-0.22128 0.219989,-0.468987 0.684552,-0.55614 0.397354,-0.07454 0.582519,-0.02849 1.661522,0.413209 0.325059,0.133067 0.381647,0.126068 0.572773,-0.07084 0.395034,-0.40699 0.916556,-1.50998 0.846304,-1.789885 -0.05178,-0.20631 -0.0094,-0.283596 0.198907,-0.362797 0.145588,-0.05535 0.296213,-0.182751 0.334724,-0.283109 0.05593,-0.145757 0.01134,-0.136309 -0.221649,0.04696 -0.160417,0.126184 -0.359801,0.229426 -0.443075,0.229426 -0.176169,0 -0.202081,0.177409 -0.0405,0.277273 0.186969,0.115553 0.122976,0.306555 -0.08318,0.248274 -0.469434,-0.132709 -0.525458,-0.130959 -0.494367,0.01544 0.02373,0.111743 -0.03588,0.131532 -0.221819,0.07364 -0.139848,-0.04354 -0.395124,-0.07381 -0.56728,-0.06725 -0.190018,0.0072 -0.285106,-0.03324 -0.241993,-0.102995 0.10152,-0.164263 -0.833553,-1.008719 -1.008532,-0.910795 -0.403313,0.225704 -2.271351,1.912346 -2.653807,2.396107 -0.658331,0.832709 -1.06399,1.508393 -0.983643,1.638398 0.08274,0.13388 -0.173117,0.979184 -0.296383,0.979184 -0.04552,0 -0.05667,0.09982 -0.02477,0.221818 0.0319,0.122 0.0038,0.221818 -0.06236,0.221818 -0.0662,0 -0.09163,0.07486 -0.05652,0.166364 0.03511,0.0915 0.0086,0.166364 -0.05894,0.166364 -0.06753,0 -0.122775,0.05468 -0.122775,0.121515 0,0.06683 -0.112296,0.278738 -0.249546,0.470899 -0.69499,0.973042 -0.894706,1.937588 -0.841845,4.065768 0.076,3.059898 0.04733,3.563869 -0.233493,4.103636 -0.264953,0.509266 -0.614346,0.887273 -0.820109,0.887273 -0.06308,0 0.0204,-0.141007 0.185518,-0.313349 0.5994,-0.625638 0.774234,-1.851599 0.518379,-3.634935 -0.07088,-0.494057 -0.11252,-1.326194 -0.09253,-1.849194 l 0.03635,-0.950909 -0.720909,0.682243 c -2.106499,1.993518 -3.302024,3.702983 -4.128537,5.90334 -0.206955,0.550957 -0.679429,1.485191 -1.049942,2.076074 -0.370513,0.590883 -0.763414,1.373966 -0.873114,1.740184 -0.159791,0.533443 -0.22905,0.641287 -0.348287,0.542329 -0.113751,-0.09441 -0.135154,-0.08714 -0.0908,0.0308 0.06217,0.165322 -0.394697,0.431597 -0.740525,0.431597 -0.109839,0 -0.199707,0.04991 -0.199707,0.110909 0,0.061 -0.03743,0.100047 -0.08318,0.08677 -0.139401,-0.04045 -0.752059,0.209939 -0.921709,0.376698 -0.08781,0.08631 -0.334337,0.207579 -0.547837,0.269476 -0.285896,0.08288 0.327816,0.109233 2.329091,0.09999 2.233814,-0.01032 2.796205,-0.04467 3.16091,-0.193109 l 0.443636,-0.180562 -0.836045,-0.0078 c -0.949389,-0.0089 -1.65461,-0.289791 -2.033671,-0.810091 -0.283223,-0.388752 -0.1658,-0.509672 0.208796,-0.215014 0.419723,0.330154 1.403488,0.502368 2.396659,0.419549 0.668568,-0.05575 0.872816,-0.03673 0.978968,0.09118 0.214587,0.25856 0.0899,0.646317 -0.289913,0.901621 -0.770292,0.51777 -2.453441,0.658843 -5.337936,0.447401 -1.326816,-0.09726 -1.368617,-0.09347 -1.531289,0.138776 -0.148196,0.211579 -0.271336,0.238765 -1.081495,0.238765 -0.563209,0 -0.965359,-0.0511 -1.047347,-0.133091 z m 1.92351,-0.35103 c 0.08606,-0.122873 0.139006,-0.240878 0.11765,-0.262234 -0.0387,-0.03871 -1.862586,0.407851 -1.935178,0.473806 -0.02101,0.01909 0.344131,0.02956 0.811424,0.02327 0.718214,-0.0097 0.873828,-0.04599 1.006104,-0.234842 z M 91.910721,86.54767 c 0.116641,-0.188729 -0.160468,-0.246485 -0.336763,-0.07019 -0.157308,0.157307 -0.15268,0.173434 0.04976,0.173434 0.122758,0 0.251909,-0.04646 0.287004,-0.103245 z M 63.526169,86.323753 c -0.08027,-0.129874 0.288937,-0.338292 0.59927,-0.338292 0.269951,0 0.304715,-0.169074 0.05451,-0.265088 -0.09603,-0.03685 -0.249325,0.0077 -0.34065,0.09904 -0.09132,0.09132 -0.237343,0.166045 -0.324486,0.166045 -0.08714,0 -0.158442,0.09982 -0.158442,0.221818 0,0.122 0.05286,0.221818 0.117455,0.221818 0.0646,0 0.08816,-0.0474 0.05235,-0.105344 z m 28.26167,-0.840935 c -0.08798,-0.229262 -0.149654,-0.202245 -0.149654,0.06555 0,0.1256 0.04773,0.198865 0.106065,0.162812 0.05834,-0.03605 0.07795,-0.138817 0.04359,-0.228364 z m 1.426791,-0.260754 c 0.170702,-0.149897 0.429187,-0.605978 0.59715,-1.053636 0.162889,-0.434132 0.364329,-0.946601 0.447647,-1.13882 0.173464,-0.400194 0.19238,-0.593238 0.05813,-0.593238 -0.05134,0 -0.153099,0.199412 -0.226121,0.443138 -0.135136,0.451044 -0.643618,1.033458 -0.811619,0.929627 -0.05089,-0.03145 -0.06381,-0.103644 -0.02872,-0.160429 0.03509,-0.05679 0.01985,-0.103245 -0.03387,-0.103245 -0.134279,0 -0.580861,1.012106 -0.580861,1.316426 0,0.136024 -0.07582,0.39393 -0.168481,0.573123 l -0.168481,0.325807 0.307117,-0.137224 c 0.168915,-0.07547 0.442563,-0.25616 0.608109,-0.401529 z m -27.8619,0.09794 c 0,-0.061 -0.02201,-0.110909 -0.04891,-0.110909 -0.0269,0 -0.07976,0.04991 -0.117455,0.110909 -0.0377,0.061 -0.01569,0.110909 0.04891,0.110909 0.0646,0 0.117455,-0.04991 0.117455,-0.110909 z m 2.550909,-0.24542 c 0,-0.115733 -0.128544,-0.107822 -0.331329,0.02039 -0.129649,0.08197 -0.111841,0.100299 0.08318,0.08561 0.136481,-0.01028 0.248147,-0.05798 0.248147,-0.106 z m 22.265001,-1.46595 c 0,-0.236615 -0.02564,-0.253557 -0.209831,-0.138637 -0.196301,0.122477 -0.197616,0.139858 -0.02039,0.269555 0.242167,0.177225 0.230224,0.184017 0.230224,-0.130918 z m -0.194091,-0.836056 c 0,-0.05908 -0.07486,-0.0787 -0.166364,-0.04359 -0.0915,0.03511 -0.166364,0.08345 -0.166364,0.107428 0,0.02397 0.07486,0.04359 0.166364,0.04359 0.0915,0 0.166364,-0.04834 0.166364,-0.107428 z M 70.983558,73.391591 c 0.135101,-0.09463 0.301709,-0.276822 0.37024,-0.404874 l 0.124603,-0.232822 -0.327686,0.233333 c -0.385943,0.274815 -0.654156,0.576414 -0.512607,0.576414 0.0549,0 0.210349,-0.07742 0.34545,-0.172051 z m 5.007437,-1.311074 -0.009,-0.346875 -0.152353,0.332728 c -0.214356,0.468135 -0.212664,0.67891 0.004,0.499091 0.0915,-0.07594 0.16231,-0.294163 0.157356,-0.484944 z m 0.08477,-1.421306 c -0.0354,-0.08848 -0.06168,-0.0622 -0.06701,0.06701 -0.0048,0.116917 0.0214,0.182423 0.05825,0.145568 0.03686,-0.03685 0.0408,-0.132513 0.0088,-0.212575 z m 7.244237,-0.958376 c 0.442896,-0.203243 0.47108,-0.222339 0.998182,-0.676342 0.215401,-0.185529 0.31802,-0.335795 0.230551,-0.3376 -0.0867,-0.0018 -0.2436,-0.08105 -0.348675,-0.176143 -0.173724,-0.157219 -0.229668,-0.152192 -0.61709,0.05545 -0.528015,0.282999 -0.554114,0.282731 -1.096429,-0.01126 -0.526461,-0.285395 -1.200748,-0.429561 -1.404595,-0.300311 -0.116898,0.07412 -0.112883,0.09581 0.01987,0.107374 0.0915,0.008 0.216273,0.02609 0.277273,0.04026 0.061,0.01417 0.210727,0.03356 0.332727,0.04308 0.122,0.0095 0.3965,0.124835 0.61,0.256259 l 0.388182,0.238951 -0.310057,0.128709 -0.310058,0.128709 0.308949,0.140767 c 0.2914,0.13277 0.297357,0.149244 0.104861,0.29 -0.112249,0.08208 -0.169937,0.204494 -0.128195,0.272034 0.08231,0.133183 0.33526,0.07964 0.9445,-0.19994 z m -9.498074,-0.850829 c -0.03511,-0.0915 -0.01393,-0.166364 0.04707,-0.166364 0.061,0 0.139637,-0.07486 0.174749,-0.166363 0.03511,-0.0915 0.01725,-0.166364 -0.03969,-0.166364 -0.145808,0 -0.357156,0.425973 -0.276278,0.556838 0.10324,0.167046 0.165704,0.128732 0.09415,-0.05775 z m 11.16171,-0.712987 c 0,-0.05664 -0.07486,-0.177851 -0.166363,-0.269351 -0.0915,-0.0915 -0.166364,-0.225948 -0.166364,-0.298775 0,-0.100094 -0.0406,-0.09871 -0.166364,0.0057 -0.210993,0.175109 -0.2094,0.273846 0.0079,0.491169 0.191024,0.191025 0.491168,0.234594 0.491168,0.0713 z M 81.56062,65.15809 c -0.08001,-0.02667 -0.198212,0.0042 -0.262662,0.06869 -0.0823,0.0823 -0.039,0.09674 0.145481,0.04849 0.149972,-0.03922 0.200246,-0.08949 0.117181,-0.11718 z m 1.91642,-0.981953 c 0.06082,-0.158494 0.04442,-0.162555 -0.126771,-0.03138 -0.108146,0.08287 -0.217425,0.16479 -0.242842,0.182051 -0.02542,0.01726 0.03163,0.03138 0.126771,0.03138 0.09514,0 0.204419,-0.08192 0.242842,-0.182051 z m 6.955292,-2.45204 c 0.137957,-0.175908 0.134034,-0.179831 -0.04187,-0.04187 -0.10675,0.08372 -0.194091,0.17106 -0.194091,0.194091 0,0.09128 0.09108,0.03253 0.235965,-0.152216 z m 1.375577,-2.002246 c -0.07452,-0.07452 -0.391542,0.202101 -0.391542,0.341652 0,0.06299 0.100124,0.02391 0.222498,-0.08684 0.122374,-0.110747 0.198444,-0.225412 0.169044,-0.254812 z m -11.48664,0.139471 c -0.07824,-0.09428 -0.209126,-0.145751 -0.290853,-0.11439 -0.08173,0.03136 -0.148595,0.0145 -0.148595,-0.03747 0,-0.05197 -0.09982,-0.120595 -0.221818,-0.152499 -0.122,-0.0319 -0.221818,-0.01277 -0.221818,0.04252 0,0.05529 0.01248,0.101277 0.02773,0.102196 0.01525,9.18e-4 0.227364,0.07359 0.471364,0.161495 0.560952,0.20209 0.553278,0.202127 0.383993,-0.0018 z M 92.19273,59.589097 c -0.08797,-0.05437 -0.184894,-0.07389 -0.215394,-0.04339 -0.0305,0.0305 0.01652,0.09994 0.104485,0.154303 0.08797,0.05437 0.184895,0.07389 0.215395,0.04339 0.0305,-0.0305 -0.01652,-0.09994 -0.104486,-0.154303 z M 90.448023,59.18362 c -0.07509,-0.03038 -0.224816,-0.03223 -0.332727,-0.0041 -0.107911,0.02812 -0.04648,0.05298 0.136525,0.05524 0.183,0.0023 0.271291,-0.02075 0.196202,-0.05113 z M 88.83542,58.967544 c -0.03685,-0.03685 -0.132513,-0.04079 -0.212576,-0.0088 -0.08848,0.03541 -0.0622,0.06169 0.06701,0.06701 0.116916,0.0048 0.182422,-0.0214 0.145568,-0.05825 z M 76.601773,56.224915 c -0.03903,-0.1017 -0.139411,-0.184909 -0.223077,-0.184909 -0.122446,0 -0.127208,0.05467 -0.02442,0.280281 0.137502,0.301783 0.366092,0.213696 0.247492,-0.09537 z m 0.729139,-0.82064 c -0.1525,-0.02804 -0.339659,-0.102216 -0.415909,-0.16484 -0.08267,-0.0679 -0.138636,-0.07107 -0.138636,-0.0079 0,0.186449 0.139131,0.25427 0.489848,0.238779 0.303017,-0.01338 0.310386,-0.02091 0.0647,-0.06608 z m -2.227424,-0.517159 c -0.09377,-0.08887 -0.878031,-0.38664 -0.878031,-0.33337 0,0.06306 0.668972,0.366269 0.822576,0.372828 0.05592,0.0024 0.08087,-0.01537 0.05545,-0.03946 z m 13.80671,-1.952565 c -0.846438,-1.753485 -1.162107,-2.347976 -1.696324,-3.194642 -0.929166,-1.472607 -1.702421,-2.626473 -1.835518,-2.738994 -0.07215,-0.061 -0.160008,-0.187944 -0.19523,-0.282098 -0.07247,-0.193741 -1.760139,-2.442519 -2.057415,-2.741466 C 83.019072,43.870113 82.15823,42.787333 81.21273,41.571173 78.567973,38.169326 75.792402,35.50403 72.795526,33.488387 71.444199,32.57951 69.746862,31.534358 69.69934,31.581881 c -0.225607,0.225606 1.78313,4.218887 3.153506,6.269033 1.468059,2.196287 3.380719,4.590475 5.360457,6.710001 2.529982,2.708623 7.741429,7.897419 8.490453,8.453553 0.182436,0.135454 0.556293,0.412115 0.830793,0.614801 0.2745,0.202686 0.773052,0.504676 1.107893,0.671088 l 0.608802,0.302568 0.08378,-0.307369 c 0.06648,-0.2439 -0.02124,-0.524933 -0.424826,-1.361005 z M 47.58648,66.500606 c 0.08006,-0.03204 0.175721,-0.0281 0.212575,0.0088 0.03685,0.03685 -0.02865,0.06307 -0.145568,0.05825 -0.129203,-0.0053 -0.155483,-0.0316 -0.06701,-0.06701 z M 94.100367,55.24146 c -0.153195,-0.153195 -0.176863,-0.49222 -0.04026,-0.576647 0.05106,-0.03156 0.199851,0.01758 0.330649,0.109196 0.201907,0.141421 0.217354,0.199335 0.102305,0.383557 -0.15789,0.252822 -0.212173,0.264418 -0.392697,0.08389 z"
       id="path1" /></g></svg>
