<svg width="100" height="100" viewBox="0 0 100 100" fill="none" xmlns="http://www.w3.org/2000/svg">
<path d="M57.3602 92.3114C56.2815 92.1787 54.4576 91.9748 53.307 91.8582C50.579 91.5818 47.6879 91.135 44.2594 90.4598C39.6824 89.5585 41.0019 89.5988 47.0311 90.5445C48.1817 90.7249 50.2998 90.9929 51.738 91.14C53.1763 91.2871 55.0296 91.4902 55.8566 91.5913C58.7813 91.9491 59.9883 91.9851 60.5509 91.7314C61.0879 91.4893 61.8947 90.605 61.4006 90.8001C60.4671 91.1688 59.7838 91.1909 58.179 90.9044C57.2972 90.7469 55.5755 90.4977 54.353 90.3506C53.1305 90.2035 51.0712 89.9104 49.7768 89.6994C46.6739 89.1935 45.0062 88.99 40.6898 88.5906C38.7122 88.4076 36.9738 88.231 36.8267 88.1982C36.6795 88.1654 35.1835 88.0479 33.5022 87.9371C31.821 87.8263 30.088 87.6816 29.6512 87.6157C29.2144 87.5497 28.4158 87.458 27.8765 87.4118C27.3371 87.3656 26.706 87.2688 26.474 87.1968C25.9015 87.0192 25 85.9813 25 85.4998C25 84.7968 26.1887 84.4197 26.2842 85.0924C26.3117 85.2862 26.4814 85.4536 26.7745 85.5761C27.0815 85.7043 27.2227 85.8491 27.2227 86.0356C27.2227 86.3828 26.8871 86.5153 26.5968 86.2829C26.4736 86.1842 26.2405 86.0295 26.0787 85.939C25.6472 85.6977 25.6855 86.054 26.1464 86.5699C26.4951 86.9602 26.5629 86.9794 27.9969 87.0947C28.8156 87.1605 30.0501 87.3069 30.7402 87.4201C31.4304 87.5334 33.1968 87.6799 34.6657 87.7458C36.1346 87.8117 37.429 87.8931 37.5422 87.9265C37.6553 87.9601 39.5131 88.1393 41.6704 88.3248C46.3954 88.7313 48.2769 88.949 50.692 89.3689C53.8577 89.9193 58.2908 90.4148 60.066 90.4166L61.7257 90.418L62.1909 89.9671C62.556 89.6132 62.6902 89.5505 62.815 89.6753C63.0254 89.8857 62.6669 90.5584 61.875 91.4392C60.8845 92.541 60.2405 92.6656 57.3602 92.3114ZM59.1253 89.6095C58.8736 89.5832 57.4909 89.4477 56.0527 89.3084C54.6145 89.1691 52.4081 88.8537 51.1497 88.6075C49.8912 88.3613 48.2438 88.051 47.4887 87.918C46.7336 87.785 46.2394 87.6578 46.3904 87.6352C46.7658 87.5791 52.3619 88.3532 53.8945 88.6732C56.151 89.1444 61.2411 89.3447 61.871 88.9871L62.1979 88.8015L61.5982 88.5345C61.2684 88.3877 60.2976 88.1508 59.4409 88.0081C58.5842 87.8653 56.9124 87.5679 55.7259 87.3472C54.5394 87.1265 52.8626 86.86 51.9996 86.7551C51.1366 86.6502 50.0187 86.5074 49.5153 86.4378C48.6406 86.3169 48.6597 86.314 49.9473 86.372C50.6883 86.4054 52.4828 86.6075 53.9351 86.8211C55.3875 87.0348 57.6989 87.3519 59.0718 87.5258C61.6301 87.85 62.4971 88.107 62.7664 88.6209C62.9505 88.9723 62.7211 89.3892 62.254 89.552C61.8616 89.6888 60.1806 89.7197 59.1253 89.6095ZM63.44 89.1108C63.44 88.9931 63.5607 88.9147 63.7419 88.9147C64.3919 88.9147 64.4565 88.7387 64.9424 85.646C65.1966 84.0279 65.6367 81.5274 65.9205 80.0892C66.6476 76.4042 69.2465 60.611 69.7825 56.6198C70.4357 51.756 71.625 45.1401 71.944 44.5953C72.2165 44.13 72.0375 46.3126 71.4835 50.2101C71.1612 52.477 70.7494 55.6556 70.5682 57.2736C70.3871 58.8916 70.032 61.4804 69.7792 63.0265C69.5263 64.5726 69.2301 66.4259 69.1209 67.1451C68.6508 70.2409 67.7212 75.5738 67.2407 77.9318C66.955 79.3341 66.3935 82.0895 65.9931 84.055C65.2926 87.4931 65.0919 88.2201 64.7217 88.6592C64.2461 89.2234 63.44 89.5074 63.44 89.1108ZM26.8335 88.701C26.5099 88.4287 26.4326 88.2716 26.4639 87.9503C26.5145 87.4321 26.861 87.3485 27.0686 87.8043C27.1533 87.9902 27.3988 88.2425 27.6141 88.365C27.8294 88.4875 28.0059 88.6907 28.0064 88.8166C28.0077 89.1756 27.3166 89.1075 26.8335 88.701ZM26.6447 84.3326C26.2476 84.2138 25.1305 83.2091 25.1311 82.9711C25.1312 82.8962 25.373 82.2759 25.6684 81.5928C27.2215 78.0005 28.1618 74.0463 29.1197 67.0797C29.8598 61.6976 30.4693 58.4104 30.7804 58.1234C30.8793 58.0322 30.8989 58.059 30.8454 58.2118C30.8031 58.3323 30.6457 59.4502 30.4956 60.696C29.6102 68.0423 29.279 70.6714 29.1069 71.7213C28.4867 75.5049 27.6848 78.6005 26.6186 81.3273C25.9796 82.9615 25.9491 83.4379 26.4541 83.8956C26.6949 84.1138 26.99 84.1471 29.0037 84.1835C30.3728 84.2083 31.2508 84.2734 31.2053 84.3469C31.1105 84.5004 27.1644 84.4879 26.6447 84.3326ZM40.1014 82.655C38.5894 82.0993 36.8911 81.0674 36.4918 80.4618C36.1475 79.9396 36.1727 78.8649 36.5774 76.8109C37.2969 73.1588 38.1628 70.1482 39.7708 65.7068C40.8581 62.7035 42.1987 58.712 44.0961 52.8281C44.8265 50.5629 45.9814 47.121 46.6624 45.1793C48.0566 41.2044 49.4499 36.4578 49.4499 35.6832C49.4499 35.4003 49.3291 34.8103 49.1815 34.372C49.0339 33.9338 48.9309 33.4508 48.9527 33.2988C48.9985 32.9795 49.4499 32.8292 49.4499 33.1332C49.4499 33.2421 49.5151 33.3714 49.5947 33.4206C49.6953 33.4828 49.7121 33.3857 49.6497 33.1019C49.5233 32.5262 49.7925 31.8084 50.2126 31.6011C50.4466 31.4857 51.0438 31.4355 52.0279 31.4485C53.6209 31.4695 54.0261 31.63 54.0261 32.2395C54.0261 32.5845 53.8299 32.7694 53.3314 32.8946C52.8815 33.0075 52.6231 33.3848 52.3896 34.2699C52.2913 34.6429 52.0897 35.0769 51.9417 35.2344C51.7937 35.392 51.6726 35.6185 51.6726 35.7378C51.6726 35.8571 51.4938 36.405 51.2752 36.9554C51.0566 37.5057 50.8982 37.9764 50.9232 38.0014C50.9481 38.0264 51.4925 37.3423 52.1328 36.4812C53.0109 35.3002 53.3683 34.9156 53.5873 34.9156C53.9728 34.9156 54.0844 35.3094 53.8532 35.8539C53.7517 36.0929 53.285 36.8599 52.8161 37.5583C50.8382 40.5042 49.3026 44.2909 48.4798 48.2519C48.2628 49.2967 45.5519 63.5111 45.2132 65.38C44.9195 67.0009 44.655 69.3363 44.3542 72.9634C43.8331 79.248 43.7534 79.818 43.1816 81.3464C42.7949 82.38 42.3081 82.8025 41.4445 82.854C41.0067 82.8802 40.5167 82.8076 40.1014 82.655ZM41.8277 81.2141C42.5701 80.0253 42.9598 78.2152 43.7019 72.5088C44.1603 68.9833 44.3103 68.0563 45.0033 64.4647C45.6099 61.3213 45.8974 59.4968 46.4459 55.3123C46.8203 52.4552 47.5547 47.3003 47.6939 46.5522C47.8344 45.7969 47.1743 47.5281 46.4301 49.8666C44.236 56.7616 43.4276 58.9523 41.6836 62.7294C39.1706 68.1718 37.8655 72.2206 37.2673 76.4304C36.9595 78.5963 36.9969 79.1566 37.4881 79.7403C37.8054 80.1175 39.2005 80.9207 40.1325 81.263C40.8753 81.5357 41.6406 81.5136 41.8277 81.2141ZM38.9996 78.8948C38.6774 78.4852 38.6641 78.3275 38.9231 77.9895C39.1139 77.7404 39.122 77.7413 39.3555 78.0391L39.5935 78.3425L40.1335 77.7567C41.2846 76.5079 41.7268 75.0815 41.7414 72.5711C41.7466 71.6722 41.7995 70.7014 41.859 70.4138C41.9609 69.9214 41.9696 69.9443 42.0081 70.806C42.0837 72.4943 42.08 72.8899 41.9725 74.7109C41.8444 76.879 41.6767 77.3404 40.6102 78.4585C39.7718 79.3376 39.4223 79.4322 38.9996 78.8948ZM40.8678 72.3535C40.972 70.5285 41.2396 68.6222 41.6773 66.5858C42.0877 64.677 43.6609 58.9571 43.8191 58.7989C44.0083 58.6097 44.3507 58.8045 44.3507 59.101C44.3507 59.2477 44.0905 60.2939 43.7725 61.4259C42.1677 67.1382 41.6017 69.8891 41.5468 72.2443L41.5102 73.8132L41.1448 73.8566L40.7795 73.9L40.8678 72.3535ZM56.9479 80.5344C55.9668 80.3705 54.8514 79.9209 54.3639 79.4928C53.4527 78.6928 53.1891 76.6308 53.5627 73.2244C53.8002 71.0589 54.22 68.7283 54.4326 68.3946C54.5188 68.2594 54.5272 69.3097 54.4576 71.5251C54.3094 76.2481 54.3108 76.2794 54.7327 77.432C55.0948 78.4211 55.1101 78.4397 55.7726 78.6998C57.295 79.2977 58.8273 79.4176 59.9234 79.0248C60.6827 78.7527 61.1825 78.8593 61.2977 79.318C61.4143 79.7826 60.994 80.3104 60.3535 80.5037C59.7644 80.6816 57.9278 80.6981 56.9479 80.5344ZM62.5521 77.7106C62.4857 77.5806 62.4269 77.0917 62.4214 76.6243C62.4159 76.142 62.316 75.5483 62.1906 75.2515C62.0692 74.9638 61.9394 74.2455 61.9023 73.6552C61.8354 72.5908 61.8377 72.5807 62.1853 72.4223C62.7468 72.1665 62.9951 72.54 63.3736 74.2095C63.9972 76.9598 63.93 77.8244 63.0861 77.9068C62.7915 77.9355 62.6382 77.8792 62.5521 77.7106ZM59.4445 75.3168C59.5226 74.859 59.7267 69.2539 59.8697 63.6379C59.936 61.0325 59.9172 60.5678 59.7212 59.977C59.5169 59.3613 59.5124 59.1465 59.6705 57.6004C59.8321 56.0209 59.8644 55.8979 60.1274 55.8604C60.4945 55.8081 60.5265 55.9292 60.6917 57.9927C61.0857 62.9154 60.9563 70.2635 60.4302 72.8454C60.1662 74.1406 59.7484 75.3949 59.498 75.6437C59.4098 75.7313 59.3922 75.6236 59.4445 75.3168ZM57.9823 71.5578C58.0188 71.3601 58.3056 69.139 58.6197 66.6221C59.1749 62.1722 59.1918 62.082 59.2324 63.3534C59.2779 64.7822 59.0868 67.5992 58.7844 69.9561C58.5448 71.8242 58.5163 71.9174 58.1849 71.9174C57.9625 71.9174 57.9274 71.8551 57.9823 71.5578ZM61.7927 70.8009C61.6758 70.3352 61.8269 60.9608 62.0062 57.5485C62.1587 54.6483 62.3654 52.5553 62.9118 48.3827C63.6067 43.0749 64.0527 38.773 64.5518 32.5621C64.6587 31.2318 64.8057 29.6138 64.8786 28.9666C65.1771 26.3128 65.4024 23.3533 65.4705 21.1915C65.5102 19.9306 65.6039 17.6341 65.6788 16.0881C65.7537 14.5421 65.7738 12.8123 65.7235 12.244C65.6409 11.311 65.5908 11.1696 65.2076 10.7863L64.7831 10.3619L64.2457 12.0808C63.0834 15.7978 62.541 18.1063 61.9831 21.71C61.7305 23.3416 61.6899 24.1161 61.6917 27.2668C61.6931 29.2804 61.7484 31.2784 61.8151 31.7069C61.9277 32.4305 61.9644 32.4918 62.3286 32.5668C62.9329 32.6911 63.2995 32.9321 63.5773 33.3877C63.9226 33.954 63.904 34.093 63.3634 34.9887C62.7501 36.0047 62.3289 37.0539 62.0662 38.2201C61.819 39.3176 60.5061 44.5379 59.8555 47.0098C59.435 48.6075 58.9453 51.165 58.6037 53.5472C58.3945 55.0059 58.2268 55.5996 58.0542 55.4929C57.9558 55.4321 57.9338 54.9053 57.9846 53.8219C58.0542 52.3356 58.0467 52.267 57.8621 52.6901C57.7541 52.9377 57.4418 53.9379 57.1682 54.9128C56.8946 55.8876 56.5758 57.0088 56.4597 57.4043L56.2487 58.1234L56.3197 56.9467C56.4047 55.5391 56.6788 53.8617 57.0141 52.6974C57.1487 52.23 57.477 51.087 57.7436 50.1575C58.4878 47.5634 59.1694 44.4299 60.0493 39.5572C60.9418 34.6149 60.9608 34.2107 60.3739 32.6552C59.9467 31.5229 59.8204 30.1167 59.9344 27.7628C60.0521 25.3329 60.2869 23.6857 61.2308 18.6667C62.0756 14.1752 62.3705 13.0117 63.1856 10.9539C63.8688 9.2294 64.249 8.59144 64.7944 8.25433C65.5479 7.78865 65.9791 7.95188 66.319 8.83156C66.5182 9.34689 66.5757 15.8354 66.411 19.2004C66.343 20.5887 66.3125 21.7497 66.3433 21.7804C66.374 21.8111 67.1013 21.9258 67.9595 22.0354C69.7741 22.267 74.5759 23.1696 74.4837 23.2617C74.2551 23.4904 70.5726 23.0391 68.2203 22.4942C67.2899 22.2786 66.4867 22.1023 66.4355 22.1023C66.3842 22.1023 66.3036 22.7936 66.2563 23.6386C66.1276 25.9362 65.8421 28.0143 65.3183 30.4638C64.8507 32.6508 64.8496 32.6642 65.1054 32.9201C65.3318 33.1464 65.3497 33.2701 65.2544 33.9484C65.1948 34.3725 64.9959 36.7199 64.8124 39.1649C64.4348 44.1941 64.2771 45.9023 63.6354 51.9129C63.3859 54.25 63.063 58.045 62.9179 60.3461C62.3253 69.7419 62.2399 70.8019 62.0611 70.9899C61.9126 71.146 61.8722 71.1176 61.7927 70.8009ZM34.6046 41.6195C35.462 38.2649 37.1842 33.0082 37.5436 32.6488C37.6754 32.517 37.3843 34.1512 37.0171 35.6046C36.6657 36.9955 34.3415 43.5302 34.1192 43.7525C34.075 43.7967 34.2935 42.8368 34.6046 41.6195ZM54.0362 33.8786C53.8834 33.7819 53.9302 33.628 54.2977 33.0184C54.5438 32.6101 55.0592 31.9138 55.443 31.4711C56.2816 30.5038 57.0462 29.2516 57.4906 28.1175C57.8919 27.0936 57.8955 26.9692 57.525 26.9164C57.1002 26.8557 57.0901 26.4764 57.4937 25.7349C57.6888 25.3765 57.9302 24.7803 58.0301 24.41C58.3377 23.2704 58.8638 19.3645 58.8638 18.2208C58.8638 16.8771 58.401 13.5551 58.1412 13.0344C57.884 12.5188 57.8967 12.2674 58.1774 12.3193C58.4113 12.3625 58.7615 12.9806 59.2753 14.2574C59.5395 14.9139 59.5692 15.2494 59.6166 18.1144C59.6663 21.1132 59.6504 21.3713 59.2587 23.9328C58.6141 28.1484 58.2272 29.5329 57.3085 30.9104C56.6556 31.8895 55.1128 33.5785 54.6537 33.817C54.24 34.0318 54.2731 34.0285 54.0362 33.8786ZM73.7794 31.4973C73.7739 30.9476 73.8299 29.8886 73.9043 29.1439C74.0638 27.5461 74.6692 23.9522 74.8262 23.6713C75.1176 23.1496 74.2446 31.1965 73.9041 32.1699C73.8192 32.4126 73.7871 32.2395 73.7794 31.4973ZM49.3192 30.9126C49.3192 30.0228 49.5762 28.9347 50.0454 27.8385C50.6679 26.3841 51.2142 24.5716 51.6986 22.3533C52.0987 20.521 52.1106 20.3729 52.1203 17.0965C52.1312 13.4161 52.1398 13.3759 52.8644 13.6285C53.1406 13.7247 53.2498 13.8619 53.2962 14.1708C53.4813 15.4015 53.658 18.9029 53.6273 20.7294C53.608 21.88 53.6065 23.3215 53.6239 23.9328L53.6556 25.0441L53.8446 24.2624C54.1036 23.191 54.34 22.9895 54.2313 23.9328C54.0661 25.3668 53.8663 26.2647 53.6237 26.6636C53.3463 27.1197 53.2179 27.1612 52.978 26.8721C52.8432 26.7097 52.8554 26.627 53.0448 26.4177C53.2574 26.1827 53.2642 26.0347 53.1282 24.6018C53.0467 23.7438 52.9742 21.6095 52.967 19.859C52.9597 18.0601 52.9085 16.8183 52.8493 17.0031C52.7917 17.1829 52.7388 17.8389 52.7316 18.461C52.7054 20.7368 52.11 23.3269 50.8031 26.8506C50.4018 27.9325 49.9653 29.3457 49.8331 29.9909C49.5623 31.313 49.3192 31.749 49.3192 30.9126ZM54.8152 26.8178C54.5769 26.3726 54.6566 26.1536 55.0883 26.0672C55.4273 25.9995 55.555 25.8611 55.8395 25.2533C56.1538 24.5817 56.1877 24.3427 56.2482 22.3638C56.2845 21.1772 56.3565 20.2713 56.4081 20.3506C56.6299 20.6913 56.8003 22.5175 56.7325 23.8271C56.6813 24.8161 56.5833 25.3986 56.3975 25.8184C55.9175 26.9036 55.128 27.4023 54.8152 26.8178ZM39.6478 25.4128C39.6361 24.9606 40.4599 21.7619 40.8203 20.8602C41.0733 20.2271 41.2742 19.4417 41.3294 18.8706C41.4336 17.7913 41.7287 17.3549 42.5124 17.1216C43.0775 16.9534 45.0588 17.3202 46.9003 17.9339C48.0252 18.3088 48.7373 18.6817 48.0117 18.5159C47.8319 18.4748 46.6294 18.2946 45.3395 18.1154C42.7013 17.7489 42.4978 17.7815 42.3183 18.5987C42.2666 18.834 42.0884 19.3508 41.9223 19.7472C41.7562 20.1436 41.2272 21.527 40.7468 22.8214C39.8627 25.2038 39.655 25.6934 39.6478 25.4128ZM55.2029 18.8728C55.2029 17.2961 55.2425 16.7289 55.3455 16.8319C55.5136 17.0001 55.5248 17.1966 55.4905 19.3892C55.4747 20.396 55.4126 21.0563 55.3336 21.0563C55.2517 21.0563 55.2029 20.2413 55.2029 18.8728ZM57.6998 19.568C57.6186 19.4701 57.5192 18.9265 57.4791 18.36C57.4389 17.7935 57.3635 16.7122 57.3116 15.9571C57.2237 14.6781 57.2056 14.6111 57.0474 14.9765C56.954 15.1922 56.8455 15.7092 56.8062 16.1252C56.7188 17.0499 56.4635 17.0612 56.4016 16.143C56.3454 15.3092 56.6292 13.6342 56.8669 13.3965C56.9687 13.2947 57.164 13.2114 57.3008 13.2114C57.7999 13.2114 57.913 13.7804 58.0062 16.7618C58.0927 19.5277 58.0431 19.9817 57.6998 19.568ZM54.2393 16.0552C53.9832 15.0995 54.2817 13.4366 54.741 13.2603C55.1703 13.0956 55.2891 13.4171 55.2393 14.6084C55.2131 15.2365 55.1711 15.771 55.1459 15.7961C55.1208 15.8213 55.0568 15.4118 55.0037 14.8862C54.8908 13.7681 54.7511 13.9561 54.6069 15.4205C54.5141 16.3623 54.3825 16.5895 54.2393 16.0552Z" fill="black"/>
</svg>
