<?xml version="1.0" encoding="UTF-8" standalone="no"?>
<!-- Created with Inkscape (http://www.inkscape.org/) -->

<svg
   width="120"
   height="120"
   viewBox="0 0 120 120"
   version="1.1"
   id="svg1"
   xml:space="preserve"
   xmlns:inkscape="http://www.inkscape.org/namespaces/inkscape"
   xmlns:sodipodi="http://sodipodi.sourceforge.net/DTD/sodipodi-0.dtd"
   xmlns="http://www.w3.org/2000/svg"
   xmlns:svg="http://www.w3.org/2000/svg"><sodipodi:namedview
     id="namedview1"
     pagecolor="#ffffff"
     bordercolor="#000000"
     borderopacity="0.25"
     inkscape:showpageshadow="2"
     inkscape:pageopacity="0.0"
     inkscape:pagecheckerboard="0"
     inkscape:deskcolor="#d1d1d1"
     inkscape:document-units="px"><inkscape:page
       x="0"
       y="0"
       width="120"
       height="120"
       id="page2"
       margin="0"
       bleed="0" /></sodipodi:namedview><defs
     id="defs1" /><g
     inkscape:label="Layer 1"
     inkscape:groupmode="layer"
     id="layer1"><path
       style="fill:#000000"
       d="m 44.850977,94.815442 c -0.258585,-0.140558 -0.742172,-0.296771 -1.074639,-0.347139 -0.332466,-0.05037 -0.664933,-0.137422 -0.738814,-0.193452 -0.07388,-0.05603 -0.325558,-0.142733 -0.559282,-0.192671 -0.233724,-0.04994 -0.763586,-0.387128 -1.177472,-0.74931 -0.847382,-0.741526 -0.823849,-0.741832 -2.01761,0.02626 -0.990872,0.63755 -1.766697,0.683726 -3.093952,0.184149 -0.978455,-0.36829 -1.94295,-0.560515 -3.401931,-0.678008 -1.275088,-0.102684 -1.529949,-0.209761 -2.503788,-1.051937 -1.079561,-0.933604 -1.464028,-1.163958 -1.942683,-1.163958 -0.421469,0 -1.313965,0.452621 -1.580193,0.801379 -0.08752,0.114655 -0.385521,0.213969 -0.671649,0.223842 -0.282879,0.0098 -0.758627,0.06137 -1.057218,0.114678 -0.631713,0.112789 -0.823024,-0.03921 -0.943577,-0.749712 -0.06714,-0.39569 -0.05366,-0.427227 0.09995,-0.23391 0.09765,0.122892 0.240234,0.327561 0.316847,0.454819 0.131489,0.218408 0.16414,0.218531 0.582479,0.0022 0.245697,-0.127055 0.666115,-0.213082 0.943473,-0.193056 0.336532,0.0243 0.663752,-0.0649 0.999672,-0.272513 0.548476,-0.338977 1.363148,-0.496542 1.887223,-0.365008 0.185339,0.04652 0.778362,0.437987 1.31783,0.869932 0.539468,0.431946 1.104356,0.850154 1.255307,0.929352 0.15095,0.0792 0.876332,0.184026 1.611958,0.232951 0.818715,0.05445 1.899453,0.244286 2.786282,0.489418 0.796829,0.220255 1.618657,0.405294 1.826285,0.411197 0.342279,0.0097 1.186086,-0.358136 1.364025,-0.594663 0.131425,-0.174698 1.056197,-0.508947 1.408112,-0.508947 0.428078,0 0.986015,0.279458 1.340943,0.671649 0.378084,0.417779 0.810005,0.607917 1.813453,0.798311 0.48023,0.09112 1.05949,0.279922 1.287245,0.419562 0.315334,0.193336 0.509711,0.226471 0.814966,0.138925 0.254679,-0.07304 0.740495,-0.04928 1.332188,0.06516 1.080283,0.208937 2.191663,0.238396 2.465067,0.06534 0.149059,-0.09435 0.09231,-0.180221 -0.261118,-0.395156 -0.355143,-0.215976 -0.405295,-0.292366 -0.23488,-0.357761 0.253692,-0.09735 0.849612,0.257696 0.973234,0.579848 0.152816,0.398232 -0.305551,0.566608 -1.532918,0.563103 -0.632341,-0.0018 -1.408399,-0.06296 -1.724571,-0.135896 -0.662719,-0.15288 -1.238594,-0.05017 -1.238594,0.220907 0,0.242041 -0.101634,0.229953 -0.67165,-0.07989 z m 8.973566,-0.215297 c -0.629288,-0.200614 -1.316762,-0.830945 -1.316762,-1.207312 0,-0.272344 -0.48894,-0.236853 -0.697615,0.05064 -0.261661,0.36049 -0.802881,0.698482 -1.118466,0.698482 -0.15327,0 -0.517623,-0.246438 -0.809672,-0.54764 -0.29205,-0.301202 -0.824307,-0.764249 -1.182794,-1.028992 -0.636276,-0.469891 -0.64972,-0.494431 -0.564636,-1.030736 0.04794,-0.302161 0.232387,-1.002748 0.40989,-1.556858 1.037995,-3.240312 2.194638,-7.995522 2.483223,-10.209072 0.326836,-2.506945 0.79126,-3.560968 0.626906,-1.422779 -0.191016,2.485042 -1.639397,8.769501 -2.715346,11.781757 -0.253763,0.71044 -0.461387,1.415779 -0.461387,1.56742 0,0.17571 0.182706,0.384524 0.503737,0.575721 0.277056,0.165006 0.755907,0.562851 1.064114,0.8841 0.308207,0.321249 0.599605,0.58409 0.64755,0.58409 0.04794,0 0.373926,-0.241794 0.724402,-0.53732 0.846292,-0.713604 1.147935,-0.701943 1.517466,0.05866 0.236512,0.486813 0.411715,0.646751 0.956477,0.873144 0.899073,0.373638 1.328075,0.349796 2.264041,-0.125828 0.436167,-0.221644 0.900567,-0.402989 1.031999,-0.402989 0.131432,0 0.353597,-0.08382 0.493698,-0.186264 0.247381,-0.180889 0.245126,-0.199299 -0.07817,-0.638067 -0.526833,-0.715007 -1.011546,-1.816169 -1.470164,-3.339896 -0.233491,-0.775755 -0.482332,-1.554964 -0.55298,-1.731575 -0.215367,-0.538384 -0.926146,-3.359849 -1.205034,-4.783424 -0.301182,-1.537378 -0.544759,-3.2207 -0.855251,-5.910515 -0.119396,-1.034341 -0.251544,-2.077076 -0.293662,-2.317191 -0.05905,-0.336634 -0.02924,-0.436572 0.130201,-0.436572 0.15058,0 0.226712,0.191668 0.280125,0.705232 0.04034,0.387877 0.164309,1.581734 0.275486,2.653015 0.379373,3.655574 0.844328,6.18627 1.702912,9.268762 0.659516,2.367796 1.356029,4.043825 2.251743,5.418401 0.510244,0.783029 0.570477,0.948583 0.445176,1.22359 -0.09302,0.204159 -0.304311,0.349298 -0.590084,0.405341 -0.244847,0.04802 -0.75548,0.238655 -1.13474,0.423641 -0.853189,0.416147 -1.92086,0.509306 -2.762385,0.241032 z m 4.918305,-0.538203 c -0.143249,-0.763584 0.01635,-2.180996 0.278144,-2.470279 0.126281,-0.139539 0.19403,-0.311264 0.150553,-0.381611 -0.04348,-0.07035 -0.02494,-0.417545 0.0412,-0.771552 0.09362,-0.50112 0.07563,-0.711735 -0.08122,-0.951119 -0.159039,-0.242724 -0.186763,-0.598267 -0.131659,-1.688433 0.03839,-0.759529 0.124695,-1.532083 0.191785,-1.716787 0.191113,-0.526146 0.202748,-2.280114 0.01661,-2.504393 -0.168696,-0.203266 -0.203906,-0.387262 -0.33113,-1.730343 -0.100242,-1.058233 0.07184,-1.220426 1.497108,-1.411088 0.586561,-0.07847 2.023096,-0.297767 3.192299,-0.487337 2.105485,-0.341375 2.136387,-0.342456 3.229806,-0.112995 0.60719,0.127422 1.222229,0.206692 1.366753,0.176154 0.222921,-0.0471 0.196564,-0.09067 -0.173801,-0.287292 -0.527552,-0.280069 -0.559467,-0.577625 -0.08514,-0.793745 0.337568,-0.153807 0.348214,-0.192127 0.269752,-0.971012 -0.09527,-0.945723 0.118627,-5.368427 0.30233,-6.251247 0.476117,-2.288079 0.624394,-2.855829 0.661929,-2.534508 0.03848,0.329395 -0.287667,2.854949 -0.466077,3.609147 -0.110213,0.465908 -0.138361,10.482573 -0.03039,10.813556 0.0482,0.147763 0.0027,0.434893 -0.10113,0.638067 -0.164884,0.32266 -0.267519,0.369407 -0.811046,0.369407 -0.589571,0 -3.755341,-0.536765 -4.725162,-0.801164 -0.300484,-0.08192 -0.530024,-0.07387 -0.686893,0.0241 -0.182957,0.114259 -0.377009,0.07868 -0.868452,-0.159222 -0.468893,-0.226988 -0.672015,-0.267194 -0.784018,-0.155191 -0.08314,0.08314 -0.313376,0.151168 -0.511632,0.151168 -0.277822,0 -0.375182,0.07699 -0.42466,0.335825 -0.118677,0.620818 0.03262,1.007474 0.394211,1.007474 0.42214,0 0.3775,0.450542 -0.05071,0.511801 -0.393132,0.05624 -0.531688,0.256925 -0.642884,0.931151 -0.08467,0.513367 -0.06289,0.58319 0.219889,0.704911 0.172626,0.07431 0.404537,0.187279 0.51536,0.25105 0.659296,0.379379 4.072727,1.24901 4.220111,1.075146 0.02268,-0.02676 0.01172,-0.579211 -0.02436,-1.227679 -0.05606,-1.007557 -0.09731,-1.169525 -0.283639,-1.113668 -0.119922,0.03595 -0.822525,0.159034 -1.561339,0.273522 -0.738815,0.114488 -1.509533,0.242639 -1.712706,0.28478 -0.275759,0.0572 -0.369408,0.02438 -0.369408,-0.12946 0,-0.222273 0.128996,-0.252819 2.072726,-0.490812 1.601334,-0.196069 1.688511,-0.251595 1.688511,-1.075468 0,-0.655564 0.179003,-0.893588 0.324764,-0.431846 0.125035,0.396084 0.342094,2.733587 0.344558,3.71052 0.0021,0.837065 -0.01803,0.906276 -0.215961,0.742011 -0.120059,-0.09964 -0.377655,-0.164447 -0.572435,-0.144016 -0.194781,0.02043 -1.16215,-0.210941 -2.149708,-0.51416 -0.987558,-0.30322 -1.984267,-0.532944 -2.214909,-0.510499 -0.368718,0.03588 -0.424599,0.09576 -0.462829,0.495968 -0.06834,0.715416 0.06141,1.04604 0.405586,1.033469 0.184915,-0.0068 0.319541,0.07974 0.348783,0.224077 0.02809,0.138658 -0.03317,0.235078 -0.149349,0.235078 -0.239903,0 -0.360046,0.284249 -0.360046,0.851847 0,0.392326 0.03534,0.426779 0.436572,0.425585 0.347452,-0.001 0.436572,0.05354 0.436572,0.267361 0,0.213447 -0.103442,0.277223 -0.503337,0.310328 -0.33248,0.02752 -0.550969,0.130667 -0.643656,0.303853 -0.198888,0.371626 -0.213169,1.840626 -0.01977,2.034021 0.122838,0.122838 0.159293,0.122402 0.159293,-0.0019 0,-0.08866 0.120897,-0.161196 0.26866,-0.161196 0.147763,0 0.26866,0.07858 0.26866,0.174629 0,0.284213 -0.296475,0.497021 -0.692429,0.497021 -0.31842,0 -0.382676,-0.06737 -0.460648,-0.483002 z m 9.457048,-10.850926 0.04268,-0.520372 -1.014061,0.09502 c -0.98152,0.09198 -1.825908,0.01182 -1.82427,-0.173176 4.38e-4,-0.04954 0.616036,-0.104487 1.367994,-0.122104 0.923738,-0.02164 1.402089,-0.087 1.474774,-0.201494 0.05917,-0.09321 0.108503,-0.547269 0.109635,-1.009028 l 0.0021,-0.839561 -0.436572,-6.8e-5 c -0.240115,-3.7e-5 -0.769039,-0.127246 -1.175387,-0.282685 -0.846557,-0.323832 -1.575167,-0.294563 -3.40364,0.136729 -0.603026,0.142239 -1.549775,0.297879 -2.103885,0.345866 -1.128422,0.09773 -1.880619,0.293074 -1.880619,0.488404 0,0.156901 1.314059,0.78622 1.645541,0.78807 0.129293,7.22e-4 0.235078,0.06176 0.235078,0.135642 0,0.189106 -0.386625,0.167092 -1.154038,-0.06571 -0.881863,-0.267522 -0.884098,-0.266897 -0.835839,0.233624 0.04104,0.425671 0.06133,0.43864 0.812704,0.519389 0.423835,0.04555 0.846975,0.142999 0.940309,0.216555 0.261135,0.205798 0.82482,0.314675 2.721967,0.525756 2.873318,0.319691 3.088363,0.345328 3.118652,0.371795 0.01599,0.01397 0.318227,-0.0078 0.671649,-0.04844 0.634493,-0.07291 0.643122,-0.08039 0.685268,-0.594213 z m -5.843108,-0.936862 c -0.906552,-0.24978 -0.86248,-0.40065 0.08673,-0.296917 0.924892,0.101076 1.079309,0.151381 1.079309,0.351615 0,0.162469 -0.455384,0.141107 -1.166044,-0.0547 z m 6.293888,11.498393 c -0.06626,-0.129293 -0.161883,-0.416423 -0.212494,-0.638067 -0.05061,-0.221644 -0.219816,-0.716962 -0.376011,-1.100707 -0.269612,-0.662391 -0.298012,-0.687896 -0.560936,-0.503737 -0.336564,0.235739 -0.910998,0.252396 -1.13061,0.03278 -0.125374,-0.125374 -0.197017,-0.125374 -0.322391,0 -0.274231,0.27423 -0.742005,0.180458 -1.03864,-0.208211 l -0.281935,-0.369407 0.09629,0.402989 c 0.05296,0.221645 0.09923,0.554111 0.102818,0.738815 0.0057,0.29549 -0.04994,0.335825 -0.463624,0.335825 -0.455379,0 -0.471433,-0.01755 -0.510845,-0.558307 -0.03318,-0.455237 0.01574,-0.597829 0.264966,-0.772396 l 0.305657,-0.214091 h -0.407747 c -0.279019,0 -0.531435,0.129103 -0.799533,0.408937 -0.473584,0.494315 -1.043575,0.508482 -1.111866,0.02763 -0.05469,-0.385065 -0.47014,-0.397927 -1.068543,-0.03308 -0.519325,0.316632 -0.567656,0.324335 -0.567656,0.09047 0,-0.228163 1.064719,-0.762625 1.51925,-0.762625 0.19141,0 0.40377,0.09962 0.471911,0.221383 0.110618,0.197664 0.173861,0.183271 0.590257,-0.134329 0.2565,-0.195643 0.567263,-0.355714 0.690584,-0.355714 0.123321,0 0.340567,-0.07266 0.482768,-0.161465 0.32599,-0.203584 0.946776,0.08612 0.946776,0.441838 0,0.129235 0.03582,0.328318 0.0796,0.442405 0.07133,0.185886 0.113827,0.185004 0.409132,-0.0085 0.283259,-0.185599 0.402645,-0.191789 0.850187,-0.04409 0.474787,0.156694 0.553024,0.146368 0.888109,-0.11721 0.219448,-0.172617 0.467167,-0.257393 0.615008,-0.21047 0.231621,0.07351 0.248414,-0.03656 0.260943,-1.710353 0.01311,-1.751298 0.134435,-2.686442 0.293094,-2.259078 0.07264,0.195653 0.288745,5.101822 0.254431,5.776186 -0.0094,0.184703 0.01241,0.470199 0.04847,0.634436 0.05791,0.263767 0.10397,0.28111 0.394735,0.148629 0.214839,-0.09789 0.319249,-0.246646 0.300595,-0.428272 -0.02335,-0.227307 0.08216,-0.303753 0.575902,-0.417289 0.332467,-0.07645 0.755606,-0.241402 0.940309,-0.366561 0.184704,-0.125159 0.601526,-0.286942 0.926271,-0.359519 0.658545,-0.147178 0.86388,-0.356863 0.740528,-0.756218 -0.04564,-0.147763 -0.13529,-0.812696 -0.19922,-1.477629 -0.390571,-4.062274 -0.421524,-4.587206 -0.297039,-5.037371 0.0832,-0.300867 0.08557,-1.950687 0.0066,-4.581986 -0.103463,-3.446856 -0.09025,-4.350429 0.08169,-5.587184 0.187351,-1.347606 1.017625,-4.462793 1.279788,-4.801762 0.06005,-0.07765 0.142486,-0.277189 0.183181,-0.443422 0.06889,-0.281428 0.02629,-0.304235 -0.618666,-0.331176 -0.380961,-0.01591 -0.919338,-0.01958 -1.196393,-0.0082 -0.277055,0.01143 -0.503737,-0.036 -0.503737,-0.105397 0,-0.135233 0.293262,-0.16001 1.511211,-0.127679 0.69824,0.01853 0.772397,-0.0062 0.772397,-0.257658 0,-0.152989 0.0624,-0.278162 0.138659,-0.278162 0.236872,0 0.366057,0.576971 0.235253,1.050703 -0.06866,0.248665 -0.103367,0.473588 -0.07713,0.499828 0.103984,0.103984 1.181637,-0.249559 1.193301,-0.391484 0.0069,-0.08337 0.0028,-0.400449 -0.009,-0.704631 -0.02603,-0.669359 0.189841,-0.7967 0.959609,-0.566072 0.446394,0.133744 0.590502,0.124751 0.896379,-0.05594 0.20046,-0.118415 0.755717,-0.252932 1.233904,-0.298927 0.478187,-0.046 1.066757,-0.113868 1.307934,-0.150829 l 0.438504,-0.0672 -0.08759,0.745264 c -0.07314,0.622333 -0.05312,0.745263 0.121412,0.745263 0.522561,0 0.633965,-0.153068 0.633965,-0.871068 0,-0.450768 0.06994,-0.766041 0.192511,-0.867764 0.163628,-0.135799 0.184391,-0.06269 0.138387,0.487289 -0.02977,0.355882 -0.09589,3.021224 -0.146946,5.922982 l -0.09282,5.275922 0.290259,0.270418 c 0.347633,0.323869 0.359754,0.438042 0.07187,0.676964 -0.184757,0.153335 -0.205115,0.367911 -0.132188,1.393329 0.04741,0.666645 0.118172,1.907239 0.157245,2.756876 0.12099,2.630857 0.242143,2.892598 0.866854,1.872762 0.261956,-0.427642 0.399079,-0.533025 0.636037,-0.488813 0.166146,0.031 0.40794,-0.02399 0.53732,-0.122201 0.129379,-0.09821 0.336587,-0.180487 0.460463,-0.182837 0.123875,-0.0024 0.25037,-0.110057 0.2811,-0.239349 0.04327,-0.182066 0.09193,-0.147186 0.215756,0.154677 0.229488,0.559434 0.137077,0.681685 -0.531656,0.703332 -0.873549,0.02828 -0.957548,0.06781 -1.328806,0.625401 -0.431152,0.647545 -0.89684,0.786677 -1.235059,0.368995 -0.191027,-0.235908 -0.245996,-0.535829 -0.245996,-1.342192 0,-0.57112 -0.03966,-1.954738 -0.08814,-3.074706 -0.08229,-1.901132 -0.105572,-2.036306 -0.350774,-2.036306 -0.231682,0 -0.250873,0.05937 -0.162824,0.503737 0.0549,0.277055 0.118166,0.775755 0.140598,1.108222 0.06618,0.980791 0.05631,4.613826 -0.01271,4.682851 -0.171674,0.171674 -0.260695,-0.245708 -0.30902,-1.448866 l -0.05301,-1.319799 -0.538893,-0.161457 c -0.306543,-0.09184 -0.5894,-0.11095 -0.656034,-0.04432 -0.06443,0.06443 -0.128521,0.598005 -0.14243,1.185729 -0.02016,0.851709 0.06279,1.379527 0.408711,2.600607 0.2387,0.84261 0.401616,1.616411 0.362035,1.719558 -0.110989,0.289232 -1.15112,0.693823 -2.033541,0.791007 -0.585283,0.06446 -0.876247,0.171513 -1.101596,0.405305 -0.303873,0.315259 -0.914943,0.554886 -1.055803,0.414026 -0.04037,-0.04037 0.0986,-0.162334 0.308815,-0.27104 0.210214,-0.108706 0.497218,-0.324733 0.637787,-0.48006 0.182865,-0.202063 0.41697,-0.282412 0.82284,-0.282412 0.661248,0 1.498669,-0.31559 1.863225,-0.702175 0.242303,-0.256945 0.244481,-0.303651 0.04162,-0.892699 -0.511042,-1.483936 -0.627317,-2.562987 -0.451612,-4.191043 0.09113,-0.844355 0.183676,-3.286388 0.20567,-5.42674 0.04077,-3.967273 0.06729,-4.356409 0.545119,-7.996517 0.150322,-1.145162 0.274066,-2.177624 0.274988,-2.294359 0.0018,-0.234045 -0.243663,-0.242172 -1.729077,-0.05724 l -0.857608,0.106773 0.320289,0.24628 c 0.176158,0.135455 0.395848,0.247625 0.4882,0.249268 0.09235,0.0016 0.167913,0.06343 0.167913,0.137317 0,0.230048 -0.515031,0.148114 -1.177859,-0.187381 -0.349577,-0.17694 -0.802764,-0.359672 -1.007082,-0.406071 -0.369513,-0.08391 -0.37106,-0.08131 -0.291043,0.489623 0.04424,0.315691 0.10376,0.649616 0.132256,0.742057 0.0285,0.09244 0.08487,2.147687 0.125287,4.567216 0.04041,2.419528 0.104241,4.919315 0.141843,5.555081 0.04838,0.818068 0.0063,1.387388 -0.143807,1.947784 -0.116695,0.435514 -0.247828,1.230096 -0.291407,1.765736 -0.06036,0.741906 -0.127333,0.973892 -0.281157,0.973892 -0.170725,0 -0.188363,-0.17642 -0.114158,-1.141804 0.08321,-1.082529 0.07378,-1.141804 -0.181677,-1.141804 -0.174328,0 -0.269444,-0.08931 -0.269444,-0.252993 0,-0.144241 -0.12157,-0.284784 -0.282812,-0.32695 -0.155547,-0.04068 -0.256659,-0.153511 -0.224693,-0.250744 0.07986,-0.242931 1.053087,-0.312313 1.197008,-0.08534 0.08245,0.130032 0.114807,0.105685 0.121544,-0.09145 0.03982,-1.165416 -0.03251,-11.017942 -0.08147,-11.097165 -0.03447,-0.05577 -0.368803,0.0027 -0.742964,0.129832 -0.642667,0.218449 -0.694669,0.271816 -0.940242,0.964905 -0.216995,0.612435 -0.461901,1.54497 -0.862126,3.282738 -0.107274,0.465782 -0.333521,2.895593 -0.333521,3.581897 0,0.613015 0.01928,0.651826 0.259829,0.523087 0.447397,-0.23944 1.251927,-0.15102 1.822284,0.200273 0.420966,0.259279 0.475423,0.331093 0.251483,0.331632 -0.157211,3.78e-4 -0.514561,-0.09488 -0.794112,-0.211683 -0.486828,-0.203409 -1.319289,-0.174944 -1.452319,0.04966 -0.03112,0.05255 -0.01813,0.756681 0.02887,1.564737 l 0.08546,1.469193 0.662029,0.344261 c 0.524894,0.272949 0.698167,0.450977 0.836493,0.859445 0.332401,0.981563 0.617219,3.588048 0.545527,4.992341 -0.08547,1.674121 -0.01488,2.171263 0.320742,2.25903 0.402038,0.105136 0.166985,0.518658 -0.266255,0.468416 l -0.352247,-0.04085 -0.03696,-2.192815 -0.03696,-2.192816 -0.884253,-0.400939 c -0.486339,-0.220517 -0.912064,-0.373128 -0.946055,-0.339137 -0.03399,0.03399 0.0084,0.789537 0.09417,1.678989 0.08579,0.889452 0.175755,1.998606 0.199932,2.464787 0.02418,0.466181 0.08648,1.19518 0.138442,1.619998 0.09435,0.771264 0.09396,0.772397 -0.264646,0.772397 -0.39976,0 -1.037495,0.294208 -1.569652,0.724131 -0.192897,0.155839 -0.487434,0.374016 -0.654527,0.484838 -0.167093,0.110822 -0.374915,0.269217 -0.461827,0.351988 -0.206211,0.196388 -0.966309,0.588321 -1.140962,0.588321 -0.07495,0 -0.190487,-0.105784 -0.256748,-0.235077 z M 68.453714,91.28901 c -0.03213,-0.167094 -0.05964,-0.06201 -0.06113,0.233511 -0.0015,0.295526 0.0248,0.43224 0.05842,0.303809 0.03362,-0.128431 0.03484,-0.370225 0.0027,-0.53732 z m 5.732249,-5.939166 c -0.08343,-0.217404 -0.960889,-0.551919 -1.095261,-0.417547 -0.04723,0.04723 0.04749,0.120758 0.210495,0.163385 0.163007,0.04263 0.296376,0.12647 0.296376,0.186317 0,0.09384 0.22534,0.192159 0.566686,0.24726 0.05309,0.0086 0.06286,-0.07217 0.0217,-0.179415 z m -1.353939,-0.699377 c -0.07241,-0.188687 -0.01531,-0.210963 0.373624,-0.145758 0.252499,0.04233 0.554787,0.11493 0.671749,0.161329 0.171599,0.06807 0.20144,0.0079 0.15455,-0.311561 -0.05146,-0.35062 -0.118766,-0.401709 -0.588203,-0.446477 -0.644732,-0.06149 -0.750798,-0.0039 -0.787595,0.427872 -0.03908,0.458547 -0.01984,0.53732 0.131229,0.53732 0.07156,0 0.09165,-0.100226 0.04465,-0.222725 z m 0.731967,-1.521729 c 0.415881,-0.0025 0.378509,-0.225791 -0.114954,-0.686755 -0.59258,-0.553552 -0.755385,-0.505094 -0.770124,0.229227 -0.01156,0.575878 0.0083,0.613393 0.285206,0.539153 0.163696,-0.04389 0.433639,-0.08062 0.599872,-0.08163 z m 6.556511,-1.294199 c -0.04412,-0.175777 -0.17186,-0.319594 -0.283874,-0.319594 -0.361755,0 -0.865859,0.424113 -0.865859,0.728464 0,0.237156 0.111282,0.319243 0.570902,0.421123 0.541059,0.119932 0.573206,0.109899 0.614973,-0.191927 0.02424,-0.17516 0.008,-0.46229 -0.03614,-0.638066 z m -0.392607,-0.998206 0.371626,-0.141292 -0.396397,-0.316076 c -0.218019,-0.173842 -0.441764,-0.288039 -0.497211,-0.25377 -0.19127,0.118211 -0.0928,0.85243 0.114324,0.85243 0.01982,0 0.203264,-0.06358 0.407658,-0.141292 z m -0.15978,-1.840074 c -0.386933,-0.741747 -0.138471,-1.219601 0.32667,-0.628269 0.150634,0.1915 0.310948,0.464971 0.356253,0.607715 0.104873,0.330427 0.377613,0.177093 0.288838,-0.162385 -0.03644,-0.139351 -0.01148,-0.287217 0.05546,-0.328592 0.151832,-0.09384 0.162603,-1.939989 0.01132,-1.939989 -0.06072,0 -0.393187,0.09635 -0.738815,0.214122 l -0.628413,0.214122 v 1.117983 c 0,1.061716 0.0541,1.22129 0.428606,1.264096 0.05103,0.0058 0.0061,-0.155629 -0.09992,-0.358803 z m 0.645205,-2.647372 0.503737,-0.08498 v -2.256624 c 0,-1.241144 0.03923,-2.897844 0.08719,-3.681556 l 0.08719,-1.424932 -0.474339,0.145579 c -0.43166,0.13248 -0.482372,0.201399 -0.563611,0.765968 -0.253664,1.762825 -0.463677,3.743217 -0.548,5.167549 -0.08936,1.509464 -0.08134,1.588331 0.154931,1.522941 0.137046,-0.03793 0.475856,-0.107204 0.752911,-0.153943 z M 20.805927,91.992875 c -0.55411,-0.05815 -1.16047,-0.166124 -1.347466,-0.239947 -0.186995,-0.07382 -0.821704,-0.209817 -1.410463,-0.302207 -1.687231,-0.264766 -1.769648,-0.357742 -1.207956,-1.362718 0.182968,-0.327366 0.35095,-0.712783 0.373293,-0.856481 0.02234,-0.143697 0.07926,-0.323054 0.126494,-0.398571 0.117867,-0.188462 0.498564,-4.184322 0.524435,-5.504553 0.01158,-0.591051 0.08122,-1.190482 0.154751,-1.332069 0.07353,-0.141587 0.213862,-1.018089 0.311847,-1.947783 0.12156,-1.153386 0.313161,-2.095738 0.603152,-2.966488 0.47621,-1.429906 1.020559,-3.34194 1.606216,-5.641855 0.435971,-1.712086 0.620557,-2.149278 0.907443,-2.149278 0.139172,0 0.169738,0.09411 0.109072,0.335825 -0.04938,0.196754 -0.02651,0.335824 0.05523,0.335824 0.07673,0 0.111232,0.136009 0.07666,0.302243 -0.172188,0.827994 -1.210888,4.601535 -1.543244,5.606521 -0.614713,1.858788 -0.936746,2.965722 -1.15336,3.964483 -0.112166,0.51717 -0.264695,1.182103 -0.338955,1.477629 -0.07426,0.295526 -0.256651,1.564943 -0.405316,2.820928 -0.533802,4.509809 -0.632215,5.051695 -1.068666,5.88432 -0.225075,0.429381 -0.379737,0.82841 -0.343692,0.886731 0.03604,0.05832 0.613693,0.144949 1.283664,0.192504 0.669971,0.04756 1.393145,0.17697 1.607054,0.287587 0.532074,0.275146 2.55138,0.42308 2.93953,0.215349 0.163393,-0.08745 0.269599,-0.203454 0.236013,-0.257797 -0.03359,-0.05434 0.05733,-0.09881 0.202039,-0.09881 0.372432,0 0.263594,0.37241 -0.169503,0.579988 -0.518756,0.248633 -1.001392,0.286872 -2.128274,0.16862 z m 46.329561,-2.342834 c -0.03247,-0.03247 -0.394808,-0.07261 -0.805208,-0.08922 -1.356784,-0.05489 -1.281259,0.08683 -1.316201,-2.469841 -0.01684,-1.232064 -0.06114,-2.319651 -0.09844,-2.416861 -0.0373,-0.09721 -0.01024,-0.212333 0.06014,-0.25583 0.165892,-0.102527 0.427674,0.94207 0.427674,1.706561 0,0.554753 0.02764,0.600902 0.405103,0.676394 0.484715,0.09694 1.841051,0.723595 1.950915,0.901357 0.09723,0.157325 -0.532207,0.165711 -0.846629,0.01128 -0.991542,-0.487004 -1.23576,-0.576012 -1.363624,-0.496987 -0.08039,0.04968 -0.145765,0.478144 -0.145765,0.955304 v 0.865216 h 0.447751 c 0.421025,0 1.799035,0.219245 2.235082,0.355608 0.174087,0.05444 0.174087,0.07679 0,0.186881 -0.202912,0.128324 -0.845225,0.175703 -0.950795,0.07013 z m 3.775488,-1.861895 c 0,-0.21838 -0.0916,-0.355305 -0.26866,-0.401608 -0.240044,-0.06277 -0.270182,-0.189635 -0.28295,-1.191054 -0.01214,-0.95258 -0.0362,-1.065354 -0.160261,-0.75139 -0.181335,0.458902 -0.362769,0.477977 -0.362769,0.03814 0,-0.446391 0.409997,-1.280691 0.629365,-1.280691 0.134534,0 0.176615,0.330597 0.176615,1.387547 0,1.352545 0.0076,1.387278 0.302242,1.376881 0.263806,-0.0093 0.302242,0.05624 0.302242,0.51546 0,0.301496 -0.07169,0.550022 -0.167912,0.582096 -0.104076,0.03469 -0.167912,-0.07 -0.167912,-0.275381 z m 14.037473,-3.989593 c -0.0469,-0.147763 -0.192418,-0.26866 -0.323376,-0.26866 -0.158503,0 -0.289051,-0.16841 -0.390487,-0.503737 -0.253988,-0.839629 -0.455018,-2.052874 -0.374795,-2.261932 0.04158,-0.108352 -0.0088,-0.573138 -0.112014,-1.032858 -0.321468,-1.432212 -0.366529,-2.379451 -0.212301,-4.462761 0.12955,-1.749955 0.488179,-4.029372 0.961627,-6.11201 0.222902,-0.980522 0.428164,-2.418731 0.355563,-2.491332 -0.120942,-0.120943 -0.508702,0.0976 -0.508702,0.286701 0,0.101511 -0.166233,0.220989 -0.369407,0.265508 -0.203174,0.04452 -0.458635,0.109467 -0.567692,0.144328 -0.397267,0.126992 -1.883828,-0.109812 -1.883828,-0.300087 0,-0.146739 0.06694,-0.152467 0.33808,-0.02893 0.278088,0.126706 0.367476,0.115015 0.503737,-0.06588 0.171242,-0.227335 2.432773,-0.698797 2.664637,-0.555497 0.06625,0.04094 0.122363,0.297558 0.124698,0.570253 l 0.0042,0.495809 0.333499,-0.379129 c 0.183424,-0.208521 0.298843,-0.435202 0.256487,-0.503737 -0.04236,-0.06853 0.08612,-0.124608 0.285514,-0.124608 0.199389,0 0.431759,-0.09468 0.516378,-0.210405 0.08462,-0.115722 0.423749,-0.241596 0.753623,-0.279719 0.897571,-0.103731 1.064476,-0.184689 0.683203,-0.331386 -0.214264,-0.08244 -0.381665,-0.07141 -0.508044,0.03348 -0.273591,0.227061 -2.030032,0.174847 -2.631393,-0.07822 -0.376964,-0.158638 -0.503737,-0.290622 -0.503737,-0.524447 0,-0.328629 0.45028,-0.624244 0.950846,-0.624244 0.146605,0 0.30035,-0.08807 0.341655,-0.195706 0.05237,-0.136472 0.192769,-0.172173 0.46387,-0.117953 0.471131,0.09423 0.64126,-0.202385 0.408764,-0.712659 -0.132051,-0.289819 -0.212263,-0.324693 -0.56741,-0.24669 -0.35438,0.07784 -0.40687,0.05526 -0.366504,-0.157635 0.03235,-0.170618 0.18632,-0.261876 0.49136,-0.291228 0.627836,-0.06041 0.829687,0.162914 0.829687,0.917968 0,0.445708 0.06135,0.664372 0.201495,0.71815 0.388479,0.149074 0.196422,0.293864 -0.323968,0.244236 -0.567766,-0.05415 -2.026805,0.310287 -2.026805,0.506246 0,0.25891 0.823603,0.296224 1.463043,0.06629 0.603621,-0.217059 0.677254,-0.217852 1.090412,-0.01174 0.564112,0.281416 0.556868,0.283261 0.456583,-0.116307 -0.06566,-0.261603 -0.04044,-0.320372 0.112312,-0.261755 0.157589,0.06047 0.186334,-0.03087 0.143745,-0.456749 -0.05024,-0.502372 -0.02973,-0.5375 0.364361,-0.624056 0.437692,-0.09613 0.508142,-0.188036 0.565757,-0.738035 0.03199,-0.30538 -0.01962,-0.341913 -0.569306,-0.402989 -0.332466,-0.03694 -0.600186,-0.127614 -0.594932,-0.201495 0.01478,-0.207783 0.385586,-0.23205 1.003472,-0.06567 0.560625,0.150961 0.562736,0.153914 0.479979,0.671444 -0.04814,0.301081 -0.02555,0.555396 0.05369,0.60437 0.218339,0.134941 0.01206,0.33465 -0.345652,0.33465 -0.292993,0 -0.327897,0.0572 -0.327897,0.53732 0,0.295526 -0.04758,0.53732 -0.105744,0.53732 -0.130308,0 -0.182274,0.531991 -0.05382,0.550973 0.05082,0.0075 0.391147,0.03185 0.756283,0.05408 0.415279,0.02529 0.722641,0.120781 0.820789,0.255006 0.221713,0.303212 0.32878,0.266676 0.32878,-0.112194 0,-0.345799 0.01223,-0.352195 1.176948,-0.61558 0.89511,-0.202417 1.10666,-0.121517 1.10666,0.423206 0,0.57169 0.08016,0.452431 0.170231,-0.25325 0.06385,-0.500234 0.04066,-0.570902 -0.187327,-0.570902 -0.143106,0 -0.454708,-0.0797 -0.69245,-0.177112 -0.251782,-0.103164 -0.572471,-0.136797 -0.768082,-0.08056 -0.214766,0.06175 -0.251084,0.101384 -0.100748,0.109947 0.349604,0.01991 0.284957,0.283417 -0.06717,0.273767 -0.166233,-0.0046 -0.694913,-0.08315 -1.174843,-0.174646 -0.659594,-0.125753 -0.884156,-0.226357 -0.919933,-0.412134 -0.04137,-0.214809 0.01476,-0.234122 0.445569,-0.153302 0.271094,0.05086 0.594391,0.124208 0.718437,0.163 0.160668,0.05025 0.13943,-0.0058 -0.07384,-0.195003 -0.404998,-0.359213 -0.57417,-1.627183 -0.252696,-1.893983 0.130674,-0.10845 0.371124,-0.149185 0.604773,-0.102455 l 0.387855,0.07757 0.05237,-0.92678 c 0.04731,-0.837237 0.154063,-1.217589 0.298732,-1.064337 0.02906,0.03078 0.08203,0.611959 0.117712,1.291499 0.04854,0.924368 0.122846,1.293499 0.295056,1.465709 0.145999,0.145999 0.209711,0.369637 0.174212,0.611507 -0.05543,0.377655 0.18647,0.540165 0.367658,0.246998 0.04566,-0.07388 0.287362,-0.13433 0.537113,-0.13433 h 0.454093 l 0.09266,-0.94031 0.09266,-0.940309 h 0.471571 c 0.291582,0 0.539682,0.08973 0.65002,0.235078 0.158398,0.208662 0.17893,0.21051 0.182722,0.01645 0.0065,-0.33345 -0.351845,-0.561075 -0.732798,-0.465462 -0.245088,0.06151 -0.337569,0.03099 -0.337569,-0.111401 0,-0.10787 0.05101,-0.22765 0.113347,-0.266179 0.183693,-0.113529 1.115048,0.07989 1.163255,0.241582 0.02434,0.08164 0.08068,0.314673 0.125201,0.517847 0.06124,0.2795 0.16043,0.369407 0.407535,0.369407 0.588158,0 0.622479,0.487576 0.141239,2.006517 -0.05375,0.169648 0.0427,0.206197 0.502668,0.190492 0.9796,-0.03345 0.955954,-0.02598 0.77442,-0.244709 -0.08991,-0.108338 -0.137345,-0.274572 -0.105405,-0.369408 0.03194,-0.09484 -0.02007,-0.232877 -0.115571,-0.306758 -0.0955,-0.07388 -0.214099,-0.449561 -0.263547,-0.834842 -0.08489,-0.661415 -0.07061,-0.709303 0.255779,-0.858016 0.277114,-0.126261 0.353696,-0.267084 0.386086,-0.709951 0.03768,-0.515239 0.06981,-0.555284 0.476977,-0.594542 0.499167,-0.04813 0.59116,-0.388613 0.20841,-0.771363 -0.126366,-0.126367 -0.271254,-0.565155 -0.324747,-0.983487 -0.05312,-0.415429 -0.139351,-0.951782 -0.191619,-1.191897 -0.08117,-0.372878 -0.05774,-0.436572 0.160564,-0.436572 0.140578,0 0.359112,-0.120897 0.485631,-0.26866 0.373396,-0.436095 1.284118,-0.276656 1.580239,0.276652 0.188731,0.352648 -0.0067,0.608684 -0.36089,0.472773 -0.191128,-0.07334 -0.203103,-0.115243 -0.05848,-0.204626 0.259711,-0.16051 -0.441089,-0.606146 -0.759259,-0.48281 -0.207069,0.08027 -0.211328,0.111004 -0.03462,0.249847 0.110822,0.08708 0.184824,0.30944 0.164449,0.494144 -0.02037,0.184703 0.05,0.667336 0.156396,1.072518 0.2052,0.781473 0.183462,0.94243 -0.127278,0.94243 -0.238915,0 -0.250149,0.45624 -0.03138,1.274206 0.115851,0.433153 0.23099,0.606412 0.40299,0.606412 0.199022,0 0.240799,0.115151 0.240799,0.663722 0,0.365047 0.05976,0.700653 0.132791,0.745791 0.07314,0.0452 0.100279,-0.0027 0.06042,-0.106532 -0.09064,-0.236212 0.506595,-0.642262 0.9922,-0.674579 0.19924,-0.01326 0.40235,-0.128674 0.4558,-0.258994 0.11066,-0.269796 0.62056,-0.317882 0.71222,-0.06717 0.0338,0.09235 0.0817,0.308892 0.10648,0.481201 0.0539,0.374451 0.33943,0.58134 0.66326,0.480572 0.15163,-0.04718 0.23508,-0.0019 0.23508,0.127546 0,0.110384 -0.0866,0.220242 -0.19248,0.24413 -0.16631,0.03753 -0.1666,0.07849 -0.002,0.301262 0.17834,0.241573 0.20597,0.243691 0.43814,0.03358 0.13628,-0.123337 0.31859,-0.224248 0.40512,-0.224248 0.0865,0 0.15734,-0.06425 0.15734,-0.142774 0,-0.07852 -0.13452,-0.123862 -0.29893,-0.100747 -0.19893,0.02797 -0.31457,-0.03662 -0.34568,-0.193051 -0.0371,-0.186719 0.0451,-0.234199 0.39968,-0.230805 0.76298,0.0073 0.9658,0.277861 1.13377,1.512435 0.37331,2.743923 0.62635,4.268422 0.86701,5.223638 0.3616,1.435187 0.2624,1.641108 -0.98345,2.041455 -0.28603,0.09191 -0.31718,-0.124441 -0.0336,-0.233265 0.11083,-0.04253 0.2015,-0.173964 0.2015,-0.292084 0,-0.153808 0.0764,-0.190502 0.26932,-0.129283 0.43408,0.13777 0.46231,-0.236386 0.13498,-1.788682 -0.16648,-0.789495 -0.41111,-2.273584 -0.54362,-3.297976 -0.13251,-1.024391 -0.29952,-1.921124 -0.37114,-1.992738 -0.21705,-0.217049 -0.75724,-0.05953 -0.89828,0.261944 -0.0729,0.166233 -0.17871,0.302242 -0.23507,0.302242 -0.0564,0 -0.10248,0.930333 -0.10248,2.067407 0,1.781301 0.0474,2.249681 0.34221,3.384513 0.18822,0.724408 0.32423,1.469566 0.30224,1.655908 -0.0409,0.3465 -0.84222,1.011635 -1.05807,0.87823 -0.18852,-0.116511 0.029,-0.477221 0.36477,-0.604879 0.41886,-0.159247 0.41397,-0.652545 -0.0211,-2.135414 -0.2979,-1.015236 -0.33301,-1.379968 -0.33301,-3.458995 0,-1.278249 -0.0529,-2.324089 -0.11754,-2.324089 -0.13469,0 -0.28545,0.652564 -0.28545,1.235609 0,0.301005 -0.055,0.385456 -0.22919,0.351911 -0.12605,-0.02428 -0.26373,-0.19046 -0.30594,-0.369298 -0.0422,-0.178838 -0.14549,-0.348069 -0.22949,-0.376069 -0.25302,-0.08434 -0.35913,1.622157 -0.21465,3.452017 0.0731,0.92593 0.10531,1.75907 0.0716,1.851422 -0.10381,0.284122 -0.54168,0.186653 -0.900655,-0.200485 -0.405827,-0.437667 -0.375566,-0.639077 0.09602,-0.639077 0.189839,0 0.386375,-0.04088 0.436755,-0.09085 0.0504,-0.04997 0.0145,-0.635822 -0.0798,-1.301902 -0.146985,-1.038531 -0.141378,-1.379609 0.0394,-2.394254 0.11592,-0.650761 0.16364,-1.234193 0.10605,-1.296516 -0.0576,-0.06232 -0.358892,0.11632 -0.669556,0.396986 l -0.564842,0.5103 0.0664,3.297087 c 0.04844,2.40529 0.124117,3.515088 0.279786,4.103065 0.293231,1.107568 0.279108,1.230104 -0.151826,1.317287 -0.496207,0.100387 -0.967176,0.56334 -1.063609,1.045505 -0.05667,0.28334 -0.178124,0.417968 -0.431159,0.47792 -0.193747,0.04591 -0.464215,0.180964 -0.60104,0.300131 -0.23423,0.204001 -0.246009,0.197057 -0.201495,-0.118789 0.03596,-0.255157 0.139228,-0.34597 0.431408,-0.379381 0.357158,-0.04084 0.377302,-0.07385 0.286887,-0.470155 -0.05348,-0.234426 -0.135833,-2.451252 -0.182999,-4.92628 -0.04717,-2.475028 -0.134359,-4.57539 -0.193763,-4.667471 -0.08517,-0.132013 -0.187142,-0.126498 -0.482188,0.02608 l -0.374181,0.193497 -0.08835,1.842198 c -0.149355,3.114209 -0.09956,5.675728 0.128988,6.635596 0.114345,0.48023 0.240114,1.284251 0.279486,1.786714 0.06809,0.868892 0.05276,0.932876 -0.313367,1.308325 -0.380732,0.390428 -1.284599,0.748695 -1.520714,0.602768 -0.06715,-0.0415 -0.141314,0.08831 -0.164813,0.288467 -0.03397,0.289344 -0.139072,0.38864 -0.512879,0.484542 -0.258585,0.06634 -0.550322,0.186843 -0.648305,0.267784 -0.129613,0.10707 -0.203937,0.105441 -0.272798,-0.006 -0.05206,-0.08423 -0.232296,-0.142776 -0.400531,-0.130103 -0.264774,0.01995 -0.300444,0.08682 -0.26542,0.497607 l 0.04046,0.474565 h -0.580705 c -0.397968,0 -0.634836,0.07397 -0.752724,0.235077 -0.199345,0.27242 -0.479595,0.312028 -0.475239,0.06717 0.0016,-0.09235 0.113474,-0.311593 0.248515,-0.487203 0.200243,-0.260401 0.337838,-0.308514 0.746024,-0.26086 l 0.500497,0.05843 -0.09055,-0.780196 c -0.06175,-0.532052 -0.04363,-0.780197 0.05697,-0.780197 0.08114,0 0.14752,0.147554 0.14752,0.327897 0,0.385294 0.206643,0.564789 0.317533,0.275816 0.04236,-0.110398 0.166847,-0.200723 0.276629,-0.200723 0.109783,0 0.353981,-0.154375 0.542662,-0.343057 0.188681,-0.188681 0.407914,-0.302972 0.487185,-0.25398 0.08704,0.05379 -0.03314,0.243325 -0.303368,0.478472 l -0.447497,0.389395 0.40299,-0.08559 c 0.221644,-0.04708 0.449064,-0.126886 0.505377,-0.177355 0.05631,-0.05047 0.03348,-1.024951 -0.05075,-2.165517 -0.15935,-2.157921 -0.07766,-8.44136 0.126937,-9.764143 l 0.109081,-0.705231 h -0.50282 c -0.448969,0 -0.517835,0.04676 -0.643026,0.436572 -0.07711,0.240114 -0.175965,1.49442 -0.219668,2.787345 -0.08257,2.442637 -0.259791,4.612699 -0.329116,4.029897 -0.02197,-0.184704 -0.03536,-1.605243 -0.02977,-3.156753 l 0.01018,-2.820927 -0.250725,1.410463 c -0.292656,1.646352 -0.335074,3.891604 -0.121684,6.440981 0.100153,1.196529 0.104469,1.82225 0.0132,1.913521 -0.218221,0.218221 -0.358636,-1.906864 -0.361193,-5.466409 -0.0019,-2.671403 0.03797,-3.365369 0.232762,-4.049287 0.129293,-0.453953 0.235078,-0.922428 0.235078,-1.041056 0,-0.269328 -0.38716,-0.278993 -0.758445,-0.01893 -0.154496,0.108213 -0.319068,0.158587 -0.365714,0.111941 -0.04665,-0.04665 -0.08988,0.151946 -0.09608,0.441315 -0.02125,0.992203 -0.12665,1.870203 -0.321156,2.675403 -0.4083,1.69024 -0.510974,2.780351 -0.537024,5.701692 -0.01798,2.016476 -0.07492,3.031105 -0.171921,3.063438 -0.07977,0.02659 -0.176073,-0.06078 -0.214008,-0.194165 -0.118118,-0.415314 0.05712,2.002325 0.198921,2.744396 0.149867,0.784276 0.0907,0.975824 -0.30144,0.975824 -0.418373,0 -1.018607,0.364371 -1.097556,0.66627 -0.100388,0.383886 -0.703721,0.36606 -0.954574,-0.0282 -0.245586,-0.385983 -0.286762,-0.987028 -0.260219,-3.798369 0.01325,-1.403386 0.10128,-2.707228 0.227817,-3.374277 0.148915,-0.785016 0.203334,-1.909367 0.195829,-4.045995 -0.0057,-1.627383 0.02328,-3.01337 0.06445,-3.079972 0.04116,-0.0666 0.01931,-0.208881 -0.04857,-0.316176 -0.08765,-0.138554 -0.124006,-0.04664 -0.125467,0.317203 -0.0011,0.281757 -0.155168,1.248932 -0.342303,2.149279 -0.433604,2.086151 -0.715296,4.408337 -0.87481,7.211684 -0.105704,1.85767 -0.09401,2.292546 0.07222,2.686598 0.289272,0.685695 0.733969,2.881536 0.649206,3.205671 -0.08948,0.34216 -0.483191,0.48304 -0.830493,0.29717 -0.31051,-0.16618 -0.441984,-0.03579 -0.700752,0.694968 -0.133971,0.378333 -0.253009,0.503737 -0.478165,0.503737 -0.181811,0 -0.333343,-0.105727 -0.385056,-0.26866 z m -0.957236,-5.75067 c -0.0465,-0.420381 -0.145064,-0.824778 -0.219035,-0.89866 -0.08976,-0.08965 -0.106784,0.111392 -0.05118,0.604485 0.04582,0.406348 0.08384,0.848167 0.08448,0.981819 6.42e-4,0.133653 0.06172,0.205584 0.135723,0.159846 0.08098,-0.05005 0.100893,-0.387495 0.05001,-0.84749 z m 2.464873,-1.939716 c -0.0298,-0.240115 -0.05418,-0.04366 -0.05418,0.436572 0,0.480229 0.02438,0.676687 0.05418,0.436572 0.0298,-0.240115 0.0298,-0.63303 0,-0.873144 z m 9.35305,0.257847 c 0.728631,0.118241 0.790411,-0.162948 0.403435,-1.836223 -0.313474,-1.355455 -0.324692,-1.571622 -0.287633,-5.542643 0.03388,-3.630098 0.01408,-4.122163 -0.162933,-4.04974 -0.110822,0.04534 -0.364756,0.141583 -0.564297,0.213868 -0.40469,0.146603 -0.438905,0.291586 -0.580674,2.460525 -0.04346,0.664933 -0.120978,1.511212 -0.172257,1.880619 -0.149436,1.076499 -0.107662,4.328678 0.0723,5.628651 0.103893,0.75049 0.251794,1.29108 0.397181,1.451731 0.227525,0.251412 0.233419,0.251179 0.331172,-0.01307 0.0817,-0.220869 0.182636,-0.255554 0.563707,-0.193715 z m -5.860473,-1.332486 c -0.0298,-0.240115 -0.05418,-0.04366 -0.05418,0.436572 0,0.480229 0.02438,0.676687 0.05418,0.436572 0.0298,-0.240115 0.0298,-0.63303 0,-0.873144 z m -5.873358,0.152057 c 0,-0.41356 -0.05162,-0.639748 -0.13433,-0.588629 -0.07388,0.04566 -0.13433,0.385262 -0.13433,0.754669 0,0.41356 0.05162,0.639748 0.13433,0.588629 0.07388,-0.04566 0.13433,-0.385262 0.13433,-0.754669 z m 0.09176,-1.88995 c -0.04288,-0.10716 -0.07471,-0.07533 -0.08116,0.08116 -0.0058,0.141606 0.02592,0.220945 0.07055,0.176308 0.04464,-0.04464 0.04941,-0.160496 0.0106,-0.257465 z m 14.559426,-0.109143 h 0.492819 l -0.191513,-0.772397 c -0.124022,-0.500201 -0.224356,-1.987452 -0.284713,-4.220303 -0.05126,-1.896349 -0.130106,-3.484812 -0.175212,-3.529918 -0.04511,-0.04511 -0.231987,-0.02499 -0.415291,0.0447 -0.319878,0.121617 -0.336808,0.187941 -0.421009,1.649299 -0.04825,0.837423 -0.088,2.621836 -0.08834,3.965363 -6.15e-4,2.460502 0.124337,3.329358 0.434237,3.019459 0.08591,-0.08591 0.377972,-0.156204 0.649022,-0.156203 z m -14.423769,-1.17283 c -0.03406,-0.130699 -0.06417,-0.05629 -0.0669,0.165356 -0.0027,0.221644 0.02513,0.328579 0.06192,0.237633 0.0368,-0.09095 0.03904,-0.272291 0.005,-0.402989 z m 5.641363,-1.077196 c -0.03379,-0.129292 -0.06143,-0.02351 -0.06143,0.235077 0,0.258585 0.02764,0.36437 0.06143,0.235078 0.03379,-0.129293 0.03379,-0.340862 0,-0.470155 z m 0.835698,-4.399304 c 0.0056,-0.567099 -0.03069,-0.746259 -0.122316,-0.604484 -0.07162,0.110822 -0.123575,0.745531 -0.115459,1.410464 0.01276,1.045674 0.02928,1.127321 0.122316,0.604484 0.05916,-0.332466 0.111114,-0.967175 0.115459,-1.410464 z m 4.251557,-1.97633 c 0.05258,-0.358217 -0.522957,-0.757713 -0.965318,-0.670059 l -0.386132,0.07651 0.335824,0.08165 c 0.184704,0.04491 0.416311,0.248723 0.514684,0.452923 0.188592,0.391476 0.447665,0.421976 0.500942,0.05897 z m 6.05515,-1.13981 c -0.0985,-0.23768 -0.1973,-0.28022 -0.50697,-0.218286 -0.22178,0.04436 -0.38463,0.01903 -0.38463,-0.05982 0,-0.210841 -0.400096,-0.315416 -0.649613,-0.169792 -0.188,0.109722 -0.170151,0.131788 0.112293,0.138816 0.184703,0.0046 0.45355,0.09739 0.59744,0.20621 0.14389,0.108819 0.37057,0.163272 0.50374,0.121006 0.21292,-0.06758 0.24455,0.01739 0.2623,0.704602 l 0.0202,0.781449 0.0838,-0.604485 c 0.0461,-0.332466 0.0288,-0.73733 -0.0385,-0.899697 z m -7.003611,1.034027 c -0.04566,-0.07388 -0.170125,-0.13433 -0.276587,-0.13433 -0.106462,0 -0.193567,0.06045 -0.193567,0.13433 0,0.07388 0.124464,0.13433 0.276587,0.13433 0.152123,0 0.239228,-0.06045 0.193567,-0.13433 z m -3.425412,-0.13433 c 0,-0.07388 -0.02666,-0.13433 -0.05924,-0.13433 -0.03258,0 -0.0966,0.06045 -0.142258,0.13433 -0.04566,0.07388 -0.019,0.13433 0.05924,0.13433 0.07824,0 0.142258,-0.06045 0.142258,-0.13433 z m 8.274721,-0.214928 c -0.04781,-0.124583 -0.117146,-0.19629 -0.154087,-0.159349 -0.03694,0.03694 -0.02805,0.169096 0.01976,0.293679 0.04781,0.124583 0.117146,0.196291 0.154087,0.15935 0.03694,-0.03694 0.02805,-0.169097 -0.01976,-0.29368 z m -0.691089,-0.03481 c 0.08865,-0.279317 -0.03076,-0.690573 -0.200517,-0.690573 -0.06084,0 -0.129932,0.131274 -0.153541,0.29172 -0.02361,0.160447 -0.128118,0.319816 -0.232243,0.354154 -0.133152,0.04391 -0.162912,-0.0064 -0.100311,-0.169512 0.145374,-0.378841 -0.03966,-0.492915 -0.342259,-0.211002 -0.23388,0.217892 -0.252753,0.297744 -0.110799,0.468788 0.249527,0.300662 1.040007,0.270438 1.13967,-0.04358 z M 93.2769,63.963833 c 0.26206,-0.208754 0.26041,-0.211994 -0.06717,-0.131892 -0.184704,0.04516 -0.414953,0.08294 -0.511665,0.08395 -0.09671,10e-4 -0.138481,0.06228 -0.09282,0.136164 0.118222,0.191287 0.360757,0.159428 0.67165,-0.08822 z m -1.947783,-0.306838 c 0,-0.217284 -0.06045,-0.432421 -0.13433,-0.478082 -0.07994,-0.04941 -0.13433,0.110547 -0.13433,0.395062 0,0.262945 0.06045,0.478082 0.13433,0.478082 0.07388,0 0.13433,-0.177778 0.13433,-0.395062 z m 8.059793,0.260732 c 0,-0.07388 -0.06402,-0.134329 -0.142258,-0.134329 -0.07824,0 -0.104898,0.06045 -0.05924,0.134329 0.04566,0.07388 0.109677,0.13433 0.142258,0.13433 0.03258,0 0.05924,-0.06045 0.05924,-0.13433 z m -8.731443,-0.660662 c 0,-0.699633 -0.110412,-0.951296 -0.417361,-0.951296 -0.218675,0 -0.254288,0.103472 -0.254288,0.738814 0,0.698516 0.01832,0.738815 0.335824,0.738815 0.301074,0 0.335825,-0.05447 0.335825,-0.526333 z m 3.471428,0.06521 c 0.09252,-0.477226 -0.116967,-1.15084 -0.357895,-1.15084 -0.191184,0 -0.224422,0.101532 -0.186892,0.570902 0.02511,0.313996 0.07207,0.651489 0.104368,0.749985 0.07938,0.242102 0.383264,0.124773 0.440419,-0.170047 z m 1.282171,-0.101388 c 0.09544,-0.477194 -0.05989,-0.723746 -0.378848,-0.60135 -0.253219,0.09717 -0.286962,0.841965 -0.04261,0.940563 0.301062,0.121481 0.334743,0.09437 0.42146,-0.339213 z m 1.962895,-0.176308 c 0,-0.110822 -0.02376,-0.201495 -0.05279,-0.201495 -0.02904,0 -0.08759,0.09067 -0.130114,0.201495 -0.04253,0.110822 -0.01877,0.201495 0.05279,0.201495 0.07156,0 0.130114,-0.09067 0.130114,-0.201495 z m 1.158449,-0.414296 c 0.0092,-0.289307 -0.01351,-0.577803 -0.05037,-0.641102 -0.121618,-0.208853 -0.297945,0.240342 -0.300038,0.76435 -0.0028,0.699998 0.328044,0.583633 0.350412,-0.123248 z m -1.695768,0.153564 c 0,-0.180343 -0.06045,-0.365256 -0.13433,-0.410917 -0.07837,-0.04844 -0.13433,0.08816 -0.13433,0.327897 0,0.226004 0.06045,0.410917 0.13433,0.410917 0.07388,0 0.13433,-0.147553 0.13433,-0.327897 z m 3.626908,-0.209422 c 0,-0.07388 -0.13601,-0.130082 -0.30224,-0.124889 -0.288396,0.009 -0.289935,0.01473 -0.0336,0.124889 0.14776,0.0635 0.28377,0.119695 0.30224,0.124888 0.0185,0.0052 0.0336,-0.05101 0.0336,-0.124888 z m 0.58032,-0.216041 c -0.0568,-0.148038 -0.1179,-0.157679 -0.2587,-0.04083 -0.22341,0.185411 -0.11875,0.408013 0.14436,0.307049 0.10379,-0.03983 0.15524,-0.159628 0.11434,-0.266222 z m -3.154151,-0.126105 c 0.262512,-0.57615 0.200158,-1.226903 -0.125724,-1.312123 -0.497717,-0.130156 -0.658693,0.03143 -0.658693,0.661166 0,0.566816 0.159715,0.77414 0.325248,0.422201 0.04344,-0.09235 0.05686,-0.0017 0.02982,0.201494 -0.06275,0.471541 0.218775,0.489417 0.429347,0.02726 z m 0.218947,-3.318344 c -0.05219,-0.313996 -0.181751,-0.621118 -0.287916,-0.682493 -0.147303,-0.08516 -0.156703,-0.155357 -0.03968,-0.296358 0.178482,-0.215057 0.06477,-0.465195 -0.211479,-0.465195 -0.153517,0 -0.176342,0.166548 -0.115059,0.839562 0.100387,1.102468 0.129194,1.175386 0.464343,1.175386 0.260253,0 0.27654,-0.04899 0.189794,-0.570902 z m -0.466045,0.167913 c 0,-0.07388 0.06045,-0.13433 0.13433,-0.13433 0.07388,0 0.13433,0.06045 0.13433,0.13433 0,0.07388 -0.06045,0.134329 -0.13433,0.134329 -0.07388,0 -0.13433,-0.06045 -0.13433,-0.134329 z M 82.599571,74.7949 c 0.116239,-0.217196 0.08838,-0.352669 -0.137842,-0.670373 -0.155937,-0.218993 -0.316358,-0.600516 -0.356491,-0.84783 -0.08299,-0.51141 0.140351,-1.735623 0.412256,-2.25972 0.178482,-0.344025 0.173377,-0.351328 -0.233214,-0.333659 -0.297028,0.01291 -0.429468,-0.049 -0.46396,-0.216871 -0.05167,-0.251473 0.560718,-1.649732 0.848608,-1.937621 0.09538,-0.09538 0.200764,-0.250059 0.234186,-0.34373 0.03342,-0.09367 0.103226,-0.131091 0.155119,-0.08316 0.05189,0.04793 -0.08307,0.440849 -0.299916,0.873144 -0.216846,0.432294 -0.440753,0.935564 -0.49757,1.118377 l -0.103303,0.332388 0.479812,-0.36597 c 0.263897,-0.201284 0.514069,-0.36597 0.55594,-0.36597 0.160506,0 0.06138,0.4016 -0.335276,1.358406 -0.554942,1.338604 -0.644962,2.128138 -0.299452,2.626392 0.145281,0.209508 0.303992,0.491087 0.35269,0.625731 0.09756,0.269739 -0.111162,0.762666 -0.322937,0.762666 -0.08582,0 -0.08172,-0.0983 0.01135,-0.272204 z m -29.6888,-1.399177 c 0,-0.215664 0.01858,-0.221342 2.888092,-0.882665 1.03434,-0.23838 2.303758,-0.541853 2.820928,-0.674385 0.51717,-0.132533 1.242551,-0.281039 1.611959,-0.330013 0.369407,-0.04898 1.155237,-0.202205 1.746288,-0.340513 2.180705,-0.510291 5.449118,-1.107262 5.54381,-1.01257 0.201314,0.201314 -0.419261,0.454493 -1.486006,0.606252 -0.984497,0.140058 -2.736765,0.533711 -7.013061,1.575507 -0.738815,0.179991 -2.008232,0.441592 -2.820928,0.581334 -0.812696,0.139743 -1.719423,0.314208 -2.014948,0.3877 -1.161575,0.288864 -1.276134,0.296885 -1.276134,0.08935 z m -2.66975,-0.111785 c -0.09993,-0.09993 -0.872816,-0.160801 -6.263188,-0.49326 C 39.232848,72.498026 33.75163,71.83565 32.828452,71.443336 32.51915,71.311895 31.354968,71.12762 28.597061,70.773561 c -2.908309,-0.373367 -5.798603,-1.038172 -6.147917,-1.4141 -0.145344,-0.156419 0.876151,0.02358 1.79069,0.315534 0.438617,0.140024 1.432194,0.354809 2.207949,0.477301 0.775755,0.122493 1.606921,0.254442 1.847036,0.293221 0.374078,0.06042 0.436572,0.0309 0.436572,-0.206217 0,-0.205054 -0.08632,-0.276726 -0.333266,-0.276726 -0.241386,0 -0.355974,-0.09048 -0.415636,-0.32819 -0.164306,-0.654649 0.330343,-0.838915 0.765828,-0.285286 0.141398,0.179758 0.387156,0.345991 0.546131,0.369407 0.471328,0.06942 0.459453,0.378399 -0.01454,0.378399 -0.282383,0 -0.414184,0.06546 -0.414184,0.205711 0,0.281799 0.04359,0.290878 2.552268,0.531556 1.219043,0.116954 2.428012,0.300396 2.686597,0.407651 0.55685,0.230969 2.458878,0.535546 4.970206,0.795894 2.744466,0.284518 8.684868,0.682594 9.671752,0.64812 1.083742,-0.03786 3.223917,0.33599 3.223917,0.563155 0,0.18507 -1.548036,0.216351 -1.72944,0.03495 z m 50.315839,-0.326189 c -0.30576,-0.07878 -0.23192,-0.335584 0.14555,-0.506231 0.19524,-0.08826 0.2697,-0.218669 0.23008,-0.402989 -0.13152,-0.61186 -0.12689,-1.211715 0.009,-1.187771 0.0903,0.0159 0.13041,-0.278311 0.10975,-0.805979 -0.0179,-0.45706 -0.002,-0.69501 0.035,-0.528777 0.0397,0.177818 0.16802,0.302243 0.31166,0.302243 0.20788,0 0.25332,0.144724 0.30576,0.973891 0.0339,0.535641 0.0123,1.064565 -0.0479,1.175387 -0.0602,0.110822 -0.11561,0.141046 -0.12305,0.06716 -0.007,-0.07388 -0.0621,-0.01343 -0.12154,0.13433 -0.0594,0.147762 -0.053,0.374444 0.0142,0.503737 0.0894,0.172097 0.0699,0.235077 -0.073,0.235077 -0.10738,0 -0.27574,0.02304 -0.37414,0.0512 -0.0984,0.02816 -0.28802,0.02308 -0.42141,-0.01128 z M 49.085278,71.93365 C 48.92666,71.691568 48.7897,71.634444 48.477697,71.680237 c -0.344331,0.05054 -0.402802,0.01582 -0.402802,-0.239159 0,-0.192072 0.06322,-0.274018 0.177552,-0.230145 0.09765,0.03747 0.253509,-0.05349 0.346343,-0.202142 0.148754,-0.238192 0.118627,-0.312343 -0.253796,-0.624664 -0.32574,-0.273171 -0.438432,-0.49292 -0.491732,-0.958872 -0.108513,-0.948624 -0.102153,-0.943867 -0.793744,-0.59374 -0.347153,0.175752 -0.68385,0.287001 -0.748215,0.247222 -0.06436,-0.03978 -0.117027,0.02341 -0.117027,0.14042 0,0.339925 -0.614366,0.500538 -1.254887,0.328063 -1.138177,-0.306479 -2.23769,-1.094396 -2.23769,-1.60354 0,-0.259898 0.34613,-0.45004 0.568765,-0.312444 0.228499,0.14122 0.908864,0.187186 0.908864,0.0614 0,-0.06347 -0.179341,-0.189695 -0.398536,-0.280489 -0.219195,-0.09079 -0.469602,-0.250709 -0.556462,-0.355368 -0.305742,-0.368397 0.03674,-0.373691 0.682743,-0.01055 l 0.653214,0.367189 0.08391,-0.382048 c 0.04615,-0.210126 0.02236,-0.649078 -0.05287,-0.975448 -0.176574,-0.766053 -0.180301,-1.562179 -0.0078,-1.668783 0.19134,-0.118255 0.621329,0.03952 0.647993,0.237767 0.01228,0.09128 0.06068,0.704886 0.107564,1.363567 0.07289,1.024133 0.05299,1.221181 -0.137393,1.360396 -0.20209,0.147772 -0.196476,0.169635 0.06084,0.236924 0.185581,0.04853 0.266503,0.158597 0.234333,0.318728 -0.0566,0.28171 0.419889,0.714918 0.785775,0.714407 0.13611,-1.9e-4 0.586785,-0.204957 1.001502,-0.455038 0.514183,-0.310061 0.86242,-0.433972 1.094788,-0.389552 0.314645,0.06015 0.340759,0.02742 0.340759,-0.427062 0,-0.270711 0.04128,-0.533508 0.09172,-0.583994 0.05045,-0.05048 0.494744,-0.09179 0.987324,-0.09179 h 0.8956 v 0.759748 c 0,0.417861 0.03023,0.79003 0.06716,0.827043 0.03694,0.03701 0.308959,0.0839 0.604485,0.104199 0.736313,0.05057 1.007474,0.208821 1.007474,0.587968 0,0.285185 0.04195,0.310586 0.369407,0.223672 0.203174,-0.05393 0.641425,-0.07956 0.973892,-0.05696 0.332466,0.0226 1.09946,0.05251 1.70443,0.06648 0.60497,0.01397 1.072568,0.06969 1.039106,0.123834 -0.03346,0.05414 0.07605,0.141332 0.243353,0.193755 0.167306,0.05242 0.448354,0.207896 0.624551,0.345496 0.176197,0.1376 0.448215,0.248271 0.604484,0.245936 0.268673,-0.004 0.264818,-0.02045 -0.07086,-0.302242 -1.01534,-0.852334 -1.45853,-1.143679 -2.163697,-1.422374 -0.266717,-0.105412 -0.369407,-0.240153 -0.369407,-0.484702 0,-0.275062 -0.06552,-0.338705 -0.348682,-0.338705 -0.191774,0 -0.526729,-0.105175 -0.744344,-0.233723 -0.36983,-0.218465 -0.442325,-0.35562 -0.550975,-1.04241 -0.02938,-0.185708 -0.145053,-0.26783 -0.374637,-0.265973 -0.239239,0.0019 -0.336734,-0.07321 -0.348576,-0.268659 -0.009,-0.149242 -0.08914,-0.78516 -0.178003,-1.413152 -0.165175,-1.167341 -0.10859,-2.066568 0.149618,-2.377691 0.08819,-0.106267 0.447854,-0.174577 0.919171,-0.174577 0.770209,0 0.774639,-0.0023 0.841512,-0.436572 0.04063,-0.263836 -0.0045,-0.518256 -0.113994,-0.64302 -0.10112,-0.115197 -0.146697,-0.338471 -0.103113,-0.505136 0.0638,-0.243961 0.002,-0.325204 -0.337038,-0.443409 -0.498927,-0.173926 -0.649119,-0.716219 -0.470382,-1.698388 0.09894,-0.543696 0.16637,-0.645048 0.45131,-0.678367 0.184243,-0.02154 0.470906,-0.10727 0.637028,-0.190503 0.368798,-0.18478 0.42751,-0.132998 0.524106,0.462251 0.06625,0.408235 0.03578,0.478085 -0.240822,0.55213 -0.174165,0.04662 -0.482897,0.08559 -0.686071,0.0866 -0.295916,0.0015 -0.369407,0.06361 -0.369407,0.312329 0,0.346069 0.448623,0.898474 0.729675,0.898474 0.237244,0 0.346732,0.300046 0.247691,0.678781 -0.05193,0.198567 -0.0011,0.358626 0.148826,0.468218 0.201418,0.147281 0.207815,0.230302 0.05538,0.718727 -0.09479,0.303717 -0.233187,0.552232 -0.30755,0.552255 -0.08306,2.7e-5 -0.130233,0.551795 -0.122312,1.430721 0.01121,1.243919 0.04628,1.454668 0.268659,1.614466 0.887784,0.637944 0.885152,0.789853 -0.01602,0.924993 -0.509288,0.07637 -0.601354,0.136892 -0.601354,0.395302 0,0.298596 0.491219,0.739011 0.824259,0.739011 0.08913,0 0.271099,-0.09868 0.404368,-0.219285 0.226596,-0.205067 0.268144,-0.191625 0.640806,0.20731 0.374251,0.400637 0.406833,0.411021 0.535473,0.170656 0.160118,-0.299183 -0.20466,-0.71678 -0.834613,-0.955461 -0.523059,-0.198181 -0.320701,-0.462548 0.279501,-0.365148 1.306141,0.211957 1.516908,1.625594 0.308991,2.072431 -0.319433,0.118167 -0.318613,0.120332 0.193387,0.51081 0.777698,0.593112 1.812055,1.555889 1.812055,1.686656 0,0.06377 -0.120897,0.115948 -0.26866,0.115948 -0.228678,0 -0.26866,0.08955 -0.26866,0.601755 0,0.568492 -0.03021,0.617165 -0.546506,0.880561 -0.873965,0.445863 -1.698909,0.478591 -3.164569,0.125547 -0.70922,-0.170835 -1.487148,-0.444743 -1.728729,-0.608684 -0.350707,-0.237996 -0.564249,-0.283985 -1.059459,-0.228167 -0.341121,0.03845 -0.620221,0.114753 -0.620221,0.169563 0,0.05481 0.313633,0.186906 0.696962,0.293544 0.695702,0.193537 1.03428,0.51217 0.544231,0.51217 -0.417377,0 -1.693205,-0.480097 -2.3092,-0.868958 -0.313134,-0.197673 -0.601341,-0.327398 -0.64046,-0.288279 -0.03912,0.03912 0.05726,0.288732 0.214186,0.554695 0.156922,0.265963 0.285312,0.570786 0.285312,0.677385 0,0.301852 -0.374422,0.227963 -0.601575,-0.118716 z m 7.97251,-0.507576 c 0.522437,-0.182123 0.744095,-0.537297 0.515741,-0.826402 -0.123536,-0.156402 -0.55078,-0.223431 -1.774666,-0.278421 -1.98064,-0.08899 -2.216443,-0.151389 -2.216443,-0.586512 0,-0.301867 -0.03822,-0.323073 -0.436572,-0.242223 -0.240115,0.04873 -0.543965,0.213341 -0.675223,0.365792 -0.20776,0.241307 -0.214712,0.31381 -0.05371,0.560133 0.55426,0.84799 3.354647,1.456014 4.640873,1.007633 z m -6.322713,-1.051469 c -0.209368,-0.423169 -0.231008,-0.585013 -0.108765,-0.813426 0.08393,-0.156832 0.12859,-0.357197 0.09924,-0.445256 -0.08374,-0.251226 -0.384107,0.411782 -0.397335,0.877056 -0.008,0.280716 0.08751,0.497038 0.292764,0.663247 0.167535,0.135662 0.320553,0.246658 0.34004,0.246658 0.01949,0 -0.08219,-0.237726 -0.225941,-0.528279 z m 1.101057,0.125289 c 0,-0.07388 -0.02666,-0.13433 -0.05924,-0.13433 -0.03258,0 -0.0966,0.06045 -0.142257,0.13433 -0.04566,0.07388 -0.019,0.13433 0.05924,0.13433 0.07824,0 0.142258,-0.06045 0.142257,-0.13433 z m -2.933607,-1.074884 0.04551,-0.806224 -0.489591,2.45e-4 -0.48959,2.45e-4 0.116978,0.503737 c 0.06434,0.277055 0.118421,0.544755 0.120184,0.594889 0.0046,0.131427 0.405018,0.513332 0.538188,0.513332 0.06204,0 0.133285,-0.362801 0.158317,-0.806224 z m 2.96731,0.276717 c 0.330146,-0.590962 0.256871,-0.851724 -0.269592,-0.959397 -0.485696,-0.09934 -0.51502,-0.01607 -0.34872,0.990229 0.09829,0.594764 0.273704,0.586017 0.618312,-0.03083 z m -2.048652,0.342384 c 0,-0.02904 -0.09067,-0.08759 -0.201495,-0.130114 -0.110822,-0.04253 -0.201494,-0.01877 -0.201494,0.05279 0,0.07156 0.09067,0.130114 0.201494,0.130114 0.110823,0 0.201495,-0.02376 0.201495,-0.05279 z m 5.776185,-0.142615 c 0,-0.357664 -1.460712,-0.466311 -1.575596,-0.117191 -0.05645,0.171542 0.286828,0.265797 1.071859,0.294306 0.359623,0.01306 0.503737,-0.03761 0.503737,-0.177115 z M 45.63473,69.140015 c -0.0986,-0.0625 -0.315103,-0.114562 -0.481123,-0.115693 -0.166021,-0.0011 -0.535973,-0.213567 -0.822116,-0.47208 -0.286142,-0.258513 -0.724568,-0.509015 -0.974278,-0.55667 l -0.454019,-0.08665 0.323158,0.352514 c 0.555596,0.606067 1.838295,1.184285 2.341213,1.055377 0.191673,-0.04913 0.206597,-0.08842 0.06716,-0.176802 z m 4.094385,0.08988 c 0.368529,0.134716 0.519243,-0.189837 0.593889,-1.278904 l 0.07598,-1.108457 -0.591141,0.09789 c -0.325127,0.05384 -0.641375,0.127732 -0.702772,0.164211 -0.167685,0.09963 0.02754,0.751684 0.283545,0.947074 0.176876,0.134993 0.192501,0.222282 0.07381,0.412339 -0.08281,0.132602 -0.116637,0.418233 -0.07517,0.634735 0.04147,0.216502 0.09952,0.321475 0.129013,0.233274 0.02949,-0.0882 0.12527,-0.134173 0.212849,-0.102159 z m 6.539903,-1.618094 c 0,-0.110822 -0.09807,-0.201494 -0.217943,-0.201494 -0.178496,0 -0.187676,0.03647 -0.05072,0.201494 0.09197,0.110823 0.190049,0.201495 0.217943,0.201495 0.02789,0 0.05072,-0.09067 0.05072,-0.201495 z m -2.533609,-2.613794 c -0.03966,-0.549233 -0.02511,-0.575511 0.285617,-0.516112 0.323153,0.06178 0.32766,0.04894 0.347397,-0.989633 0.011,-0.578722 0.0351,-1.127768 0.05357,-1.220103 0.02151,-0.107581 -0.159429,-0.180472 -0.503747,-0.202931 -0.890864,-0.05811 -0.912338,-0.0088 -0.763655,1.752558 0.07214,0.854658 0.173235,1.621984 0.224646,1.705169 0.201117,0.325414 0.39687,0.03471 0.356173,-0.528948 z m -16.052344,5.543012 c -0.04725,-0.04725 -0.0859,-0.287396 -0.0859,-0.533668 0,-0.358213 -0.05373,-0.447766 -0.268659,-0.447766 -0.376604,0 -0.365527,-0.610355 0.01477,-0.813884 0.277376,-0.148447 0.274763,-0.156957 -0.122336,-0.398448 -0.223171,-0.135718 -0.44546,-0.371828 -0.493976,-0.524688 -0.07751,-0.244216 -0.196284,-0.277929 -0.979169,-0.277929 -0.956127,0 -0.978062,0.12603 -0.06702,0.385081 0.719177,0.204495 0.966346,0.597895 0.6177,0.983145 -0.465018,0.513839 -0.970942,0.67783 -1.924867,0.623928 -0.753298,-0.04256 -0.869815,-0.02149 -0.718402,0.12992 0.287507,0.287507 0.21227,0.430194 -0.226836,0.430194 -0.48257,0 -2.620778,-1.379775 -2.249125,-1.451349 0.123567,-0.0238 0.35391,0.0259 0.511872,0.11044 0.157963,0.08454 0.322327,0.118585 0.365253,0.07566 0.04293,-0.04293 0.0075,-0.07805 -0.07867,-0.07805 -0.0862,0 -0.156718,-0.07893 -0.156718,-0.175407 0,-0.137576 -0.45743,-0.17204 -2.120904,-0.159793 -1.166498,0.0086 -2.185327,0.05543 -2.264067,0.104092 -0.211676,0.130824 -3.343044,0.499768 -4.241713,0.499768 -0.759529,0 -0.910259,-0.08108 -0.644608,-0.346728 0.08604,-0.08604 0.08639,-0.526805 0.001,-1.269417 -0.07193,-0.62569 -0.13124,-1.724373 -0.1318,-2.441518 l -0.001,-1.3039 1.981366,0.0207 c 1.252956,0.01309 2.63177,-0.06655 3.750545,-0.216619 0.973048,-0.130526 1.970447,-0.218018 2.216443,-0.194428 0.439267,0.04212 0.449065,0.0573 0.547958,0.84887 0.05538,0.443289 0.06453,1.486025 0.02033,2.317191 l -0.08036,1.511211 0.584154,-0.01041 c 0.756118,-0.01348 1.933805,-0.430962 1.907176,-0.676088 -0.01115,-0.102655 -0.11333,-0.549336 -0.227062,-0.992624 -0.113732,-0.443289 -0.225505,-1.350016 -0.248384,-2.014949 l -0.0416,-1.208969 1.208969,-0.102608 c 0.726668,-0.06167 1.466155,-0.04828 1.853648,0.03358 0.960955,0.203006 1.613235,0.166448 2.302608,-0.129052 0.829606,-0.355611 2.246447,-0.502433 2.451471,-0.254037 0.08783,0.106403 0.162931,0.804063 0.178823,1.661084 0.03592,1.936851 0.02351,2.114282 -0.140783,2.012747 -0.07584,-0.04687 -0.129127,-0.156225 -0.118414,-0.243005 0.01071,-0.08678 0.01232,-0.275658 0.0036,-0.419726 -0.01238,-0.203734 -0.05174,-0.226122 -0.177112,-0.100748 -0.08866,0.08866 -0.334425,0.161196 -0.54615,0.161196 -0.211726,0 -0.499963,0.06155 -0.640528,0.136779 -0.209306,0.112017 -0.232026,0.198713 -0.125499,0.478899 0.145756,0.383369 0.15227,1.693716 0.01094,2.200765 -0.06567,0.235613 -0.219009,0.357243 -0.530746,0.421 -0.589643,0.120595 -0.615428,0.161658 -0.575375,0.916283 0.03232,0.609012 -0.09909,0.924989 -0.300801,0.723275 z m -2.01025,-1.588921 0.349024,-0.22869 -0.429755,-0.272101 c -0.770891,-0.488094 -3.099456,-0.451932 -3.099456,0.04813 0,0.126422 0.766824,0.488479 1.410464,0.665952 0.559991,0.154408 1.354723,0.05862 1.769723,-0.213294 z m -9.829517,-0.702884 c 0.640403,-0.12701 1.819976,-0.217433 2.919186,-0.223777 1.783327,-0.01029 1.841504,-0.01956 1.752891,-0.279306 -0.05041,-0.147763 -0.07998,-0.389556 -0.0657,-0.537319 0.115767,-1.198502 0.151576,-3.390916 0.05764,-3.528998 -0.09033,-0.132779 -0.323116,-0.140839 -1.046788,-0.03624 -0.511845,0.07398 -1.414215,0.140012 -2.005266,0.146739 l -1.074639,0.01223 0.873144,0.25912 c 0.636523,0.188899 1.082463,0.237336 1.645541,0.178735 0.720433,-0.07498 0.772397,-0.06142 0.772397,0.201465 0,0.253697 -0.07746,0.281849 -0.775477,0.281849 -0.426513,0 -1.348352,-0.143103 -2.048531,-0.318006 -0.700179,-0.174904 -1.93182,-0.356221 -2.736979,-0.402928 l -1.463926,-0.08492 0.07906,1.175324 c 0.04349,0.646429 0.138765,1.35667 0.211731,1.578314 0.07297,0.221644 0.172048,0.754316 0.220181,1.183715 l 0.08751,0.780725 0.761691,-0.08679 c 0.418929,-0.04774 1.245278,-0.182702 1.836329,-0.299925 z M 38.553725,67.45147 c -0.01541,-1.054827 -0.196663,-1.28647 -0.956562,-1.222529 -0.465091,0.03913 -0.470585,0.04698 -0.5102,0.728735 -0.04805,0.82694 0.178237,1.12428 0.85562,1.12428 0.340303,0 0.46056,0.05846 0.46056,0.223883 0,0.123136 0.03689,0.186996 0.08197,0.141911 0.04508,-0.04508 0.07596,-0.49341 0.06861,-0.99628 z m -3.282978,-0.254278 c 1.215859,-0.09678 1.380495,-0.17815 1.38405,-0.684017 0.0034,-0.484875 0.357125,-0.714827 1.099562,-0.714827 0.583214,0 0.728831,-0.05728 1.06762,-0.419954 0.368143,-0.394098 0.433489,-0.414489 1.061369,-0.331198 l 0.669073,0.08876 v -1.072591 c 0,-1.47684 0.0029,-1.475531 -2.014948,-0.918218 -1.308341,0.361358 -1.446713,0.503927 -0.489093,0.503927 0.953278,0 0.888625,0.175669 -0.145415,0.395107 -0.693178,0.147103 -0.863335,0.13574 -1.582308,-0.10566 -0.443084,-0.148768 -1.228746,-0.308096 -1.745916,-0.354063 -0.51717,-0.04597 -1.055349,-0.117691 -1.195954,-0.159389 -0.23958,-0.07105 -0.250928,-0.01345 -0.180586,0.916636 0.104366,1.379956 0.515834,3.092576 0.723834,3.012759 0.09025,-0.03463 0.697176,-0.105405 1.348712,-0.157268 z m 24.457265,3.34405 c -0.129292,-0.03358 -0.235077,-0.147288 -0.235077,-0.252692 0,-0.211589 0.220156,-0.263441 0.291048,-0.06855 0.0248,0.06817 0.284529,0.03773 0.582096,-0.06822 0.295526,-0.105226 0.669624,-0.160397 0.83133,-0.122604 0.161705,0.03779 0.327271,0.0149 0.367923,-0.05088 0.04065,-0.06578 0.301263,-0.159127 0.579135,-0.207444 0.567696,-0.09871 1.244035,-0.342184 1.244035,-0.447832 0,-0.0383 -0.105785,-0.149943 -0.235077,-0.24809 -0.211454,-0.160516 -0.192649,-0.178879 0.187123,-0.182722 1.053347,-0.01066 0.429014,0.962575 -0.728885,1.136213 -0.330809,0.04961 -0.742924,0.154647 -0.915812,0.23342 -0.229316,0.104483 -0.36607,0.100292 -0.505583,-0.01549 -0.147861,-0.122714 -0.233283,-0.119576 -0.376583,0.01383 -0.101938,0.0949 -0.244352,0.183182 -0.316474,0.196179 -0.07212,0.013 -0.221804,0.05115 -0.332626,0.08478 -0.110823,0.03363 -0.30728,0.03368 -0.436573,1.02e-4 z m 0.363542,-0.904592 c -0.178267,-0.272069 -0.289762,-0.313559 -0.674746,-0.251084 -0.404494,0.06564 -0.461192,0.03965 -0.461192,-0.211395 0,-0.19129 0.08435,-0.286236 0.254288,-0.286236 0.416792,0 0.479417,-0.431324 0.10716,-0.73806 -0.454665,-0.374638 -0.630108,-0.765109 -0.630108,-1.402387 0,-0.401477 -0.05463,-0.54615 -0.206221,-0.54615 -0.40501,0 0.05752,-0.522229 0.608819,-0.687403 0.452944,-0.135705 0.521439,-0.203802 0.458247,-0.45558 -0.09308,-0.370863 0.251768,-0.737636 0.693543,-0.737636 0.407389,0 0.406271,-0.01549 -0.03764,-0.521374 -0.380278,-0.433372 -0.705252,-1.310925 -0.708734,-1.913849 -0.0022,-0.384647 0.305696,-0.56264 1.241456,-0.717631 0.455509,-0.07545 0.517676,-0.04941 0.638067,0.267243 0.316925,0.833575 0.06784,1.765656 -0.52462,1.963143 -0.09888,0.03296 -0.122993,0.207805 -0.06717,0.486945 0.08321,0.416059 0.232261,0.508348 0.712001,0.440863 0.152211,-0.02141 0.1725,0.142976 0.105802,0.857228 l -0.08252,0.883721 h 0.798366 c 0.753087,0 0.80347,0.02034 0.888371,0.358609 0.0495,0.197235 0.09599,0.575038 0.103307,0.839562 0.01164,0.420947 -0.04536,0.510255 -0.456854,0.715821 l -0.470154,0.234868 0.436572,2.09e-4 c 0.240115,1.15e-4 0.436572,0.05332 0.436572,0.118242 0,0.18948 -0.693471,0.415318 -1.276134,0.415589 -1.383564,6.44e-4 -1.298659,0.04413 -1.199874,-0.614614 0.08092,-0.53962 0.06404,-0.590658 -0.195337,-0.590658 -0.156152,0 -0.290002,0.04534 -0.297444,0.100748 -0.135877,1.011698 -0.104201,1.350262 0.147654,1.578188 0.314057,0.284218 0.357424,0.739002 0.07047,0.739002 -0.109119,0 -0.294498,-0.146666 -0.411952,-0.325924 z m 1.577525,-1.44723 c -0.198514,-0.198515 -0.211333,-1.106083 -0.02065,-1.46237 0.0773,-0.144433 0.09482,-0.336584 0.03894,-0.427003 -0.09625,-0.155729 -0.209374,0.160879 -0.403194,1.128416 -0.07843,0.391522 0.145775,0.922153 0.389636,0.922153 0.116447,0 0.115238,-0.04123 -0.0047,-0.161196 z m -1.799423,-1.283992 c -0.03665,-0.57082 -0.07575,-0.639556 -0.376721,-0.662271 -0.632919,-0.04777 -0.679406,0.02404 -0.468734,0.724048 0.370677,1.231668 0.9259,1.191098 0.845455,-0.06178 z m 3.115856,0.162054 c 0,-0.501052 -0.04165,-0.578813 -0.351675,-0.656625 -0.466335,-0.117042 -0.514745,-0.04473 -0.46892,0.70047 0.04951,0.805161 0.08803,0.858294 0.489568,0.675342 0.275894,-0.125706 0.331027,-0.245489 0.331027,-0.719187 z m -1.902956,-0.377283 c 0.06611,-0.08417 0.155109,-0.591288 0.197781,-1.126928 l 0.07758,-0.973892 H 60.90657 c -0.248244,0 -0.546969,0.03669 -0.663834,0.08154 -0.2887,0.110784 -0.276539,0.84948 0.01752,1.064504 0.193635,0.14159 0.201884,0.202071 0.05217,0.382472 -0.101186,0.121921 -0.143296,0.351928 -0.0977,0.533614 0.06384,0.254368 0.148038,0.306349 0.413888,0.255529 0.183558,-0.03509 0.38783,-0.132666 0.453938,-0.216836 z m -0.330988,-3.880691 c 0.04455,-0.166233 0.08182,-0.50253 0.08283,-0.747325 0.0017,-0.421535 -0.02126,-0.442856 -0.434738,-0.40299 -0.42024,0.04052 -0.435144,0.06219 -0.398381,0.579413 0.05264,0.740593 0.115198,0.873144 0.41208,0.873144 0.153183,0 0.289968,-0.12224 0.338207,-0.302242 z m 0.619929,-0.604485 c 0.0041,-0.338331 -0.208875,-0.156439 -0.235977,0.201495 -0.02142,0.282852 0.0027,0.322196 0.102974,0.167913 0.07202,-0.110823 0.131871,-0.277056 0.133003,-0.369408 z m 7.947269,6.423831 c 0.293694,-0.188201 3.671376,-1.084218 4.087139,-1.084218 0.728273,0 0.234413,0.22603 -1.386708,0.634668 -1.945675,0.490449 -3.051545,0.674547 -2.700431,0.44955 z m -1.430213,-0.171266 c -0.295526,-0.07194 -0.960459,-0.170769 -1.477629,-0.21963 -0.926071,-0.08749 -0.940309,-0.0947 -0.940309,-0.475881 0,-0.303946 0.09985,-0.440593 0.465051,-0.636454 0.306266,-0.164253 0.510366,-0.204096 0.597768,-0.116693 0.073,0.07299 0.273875,0.132717 0.446402,0.132717 0.275491,0 0.295584,-0.03382 0.165024,-0.277776 -0.111836,-0.208967 -0.254428,-0.2672 -0.575629,-0.235078 -0.387603,0.03876 -0.426478,0.0086 -0.421671,-0.326708 0.0048,-0.335363 -0.03914,-0.369407 -0.476871,-0.369407 -0.265192,0 -0.554705,-0.07254 -0.643363,-0.161196 -0.194679,-0.194679 -0.215819,-0.913443 -0.02687,-0.913443 0.07388,0 0.134329,0.06045 0.134329,0.13433 0,0.07388 0.117618,0.251947 0.261373,0.395702 0.215887,0.215887 0.337674,0.23949 0.699815,0.135629 0.547199,-0.156934 0.78757,0.02475 0.545522,0.412331 -0.147661,0.236441 -0.130707,0.265307 0.155826,0.265307 0.347478,0 0.821957,0.573115 0.711907,0.8599 -0.04289,0.111765 0.20782,0.221889 0.76219,0.334793 0.799255,0.162779 1.434252,0.454417 1.427118,0.655439 -0.004,0.113283 -0.964868,0.575285 -1.148764,0.552358 -0.06815,-0.0085 -0.365698,-0.0743 -0.661224,-0.14624 z m 1.032079,-0.351491 c 0.157512,-0.06361 -0.0055,-0.15775 -0.53732,-0.310341 -1.507387,-0.432489 -1.929078,-0.497488 -2.32718,-0.358709 -0.92252,0.321593 -0.05305,0.754498 1.213986,0.604436 0.348215,-0.04124 0.720487,-0.01971 0.827271,0.04785 0.223667,0.141508 0.500383,0.147142 0.823243,0.01676 z M 46.062889,67.888201 c -0.170667,-0.448889 -0.04609,-2.112124 0.168902,-2.254997 0.119953,-0.07972 0.08283,-0.177138 -0.138262,-0.362854 -0.166233,-0.139634 -0.302242,-0.347132 -0.302242,-0.461105 0,-0.487272 -0.314944,-0.888025 -0.764101,-0.972287 -0.600432,-0.112642 -0.959985,-0.772188 -0.669961,-1.228945 0.06865,-0.108119 0.03204,-0.167912 -0.102804,-0.167912 -0.115183,0 -0.209423,0.05929 -0.209423,0.13176 0,0.07857 -0.240183,0.09884 -0.594959,0.05021 -0.327228,-0.04485 -0.750367,-0.04254 -0.94031,0.0051 -0.317166,0.0796 -0.345349,0.145422 -0.345349,0.806527 0,0.395918 0.0878,0.929989 0.195114,1.186826 0.182952,0.437865 0.269427,1.058453 0.226512,1.625559 -0.03702,0.489155 -0.356631,0.119273 -0.454606,-0.526105 -0.327787,-2.159166 -0.366694,-2.556499 -0.29024,-2.964033 0.08417,-0.448643 0.08714,-0.450205 0.85577,-0.450205 h 0.771311 l -0.05346,-0.705232 c -0.0821,-1.082904 -0.176836,-1.578376 -0.301803,-1.578376 -0.16449,0 -0.304791,-0.429023 -0.180601,-0.552255 0.172524,-0.171194 1.930638,-0.406758 2.349383,-0.314786 l 0.388103,0.08524 -0.09328,1.474162 -0.09328,1.474161 0.724896,-0.06478 c 0.398693,-0.03563 1.24601,-0.161084 1.882926,-0.27879 1.192679,-0.220414 2.129425,-0.154716 2.233205,0.156624 0.03677,0.110316 -0.183872,0.153913 -0.728941,0.144032 -1.004836,-0.01822 -2.068831,0.155556 -2.122605,0.346666 -0.02308,0.08203 -0.11344,0.583663 -0.200794,1.114727 -0.149322,0.907802 -0.182294,0.970726 -0.551102,1.05173 -0.215752,0.04739 -0.392277,0.110118 -0.392277,0.139403 0,0.02929 0.120671,0.251164 0.268158,0.493064 0.345738,0.567063 0.340621,1.018088 -0.01586,1.397541 -0.220475,0.234686 -0.266153,0.403953 -0.201708,0.747472 0.09814,0.523141 0.08929,0.619397 -0.06656,0.723663 -0.06419,0.04295 -0.17658,-0.07938 -0.249752,-0.271839 z m 0.58814,-3.818774 c 0.02727,-0.04649 0.0913,-0.33678 0.142295,-0.645082 l 0.09272,-0.56055 -0.513795,0.042 c -0.282588,0.0231 -0.61293,-0.01035 -0.734094,-0.07433 -0.177413,-0.09368 -0.23205,-0.03626 -0.280669,0.295003 -0.04888,0.333051 -0.0028,0.43324 0.242386,0.526442 0.166517,0.06331 0.340257,0.233258 0.38609,0.377664 0.05761,0.181518 0.165459,0.241081 0.349412,0.192976 0.146345,-0.03827 0.28839,-0.107622 0.315657,-0.154115 z m -1.518767,-2.368141 c 0.04743,-0.295525 0.122054,-0.901183 0.165837,-1.345905 l 0.0796,-0.808586 -0.858959,0.07208 c -0.472427,0.03964 -0.89808,0.111198 -0.945895,0.159014 -0.04782,0.04781 -0.01554,0.220352 0.07173,0.383414 0.09236,0.172575 0.129702,0.565925 0.08936,0.941227 -0.07061,0.656849 0.06383,0.91438 0.579721,1.11043 0.489289,0.185943 0.73088,0.03493 0.818604,-0.511671 z m 25.165384,5.641949 c -0.04927,-0.262641 -0.203447,-0.538465 -0.342612,-0.612944 -0.139165,-0.07448 -0.253027,-0.223962 -0.253027,-0.332185 0,-0.108223 -0.06477,-0.196768 -0.143944,-0.196768 -0.07917,0 -0.124505,0.148333 -0.100747,0.329629 0.02376,0.181296 0.01297,0.344173 -0.02397,0.361949 -0.120984,0.05822 -0.940309,-0.351276 -0.940309,-0.46996 0,-0.06368 -0.151122,-0.23466 -0.335825,-0.379948 -0.298757,-0.235002 -0.335825,-0.363909 -0.335825,-1.167853 0,-1.013164 0.127169,-1.226125 0.732098,-1.226002 0.40723,8.3e-5 0.40943,-0.0039 0.364045,-0.658517 l -0.04566,-0.6586 0.784476,-0.05375 c 1.03605,-0.07098 1.119937,-0.0302 1.122358,0.54559 0.0026,0.609063 0.152823,0.860419 0.446904,0.74757 0.124293,-0.0477 0.51113,-0.04396 0.859638,0.0083 0.513027,0.07693 0.59582,0.124539 0.434922,0.250082 -0.154059,0.120207 -0.190039,0.416857 -0.160071,1.319784 0.03601,1.084936 0.0192,1.170901 -0.245421,1.254887 -0.229137,0.07273 -0.278446,0.185201 -0.254958,0.581565 0.01602,0.270271 0.01975,0.582074 0.0083,0.692896 -0.03484,0.336993 -0.280876,-0.136475 -0.283322,-0.545227 -0.0011,-0.189053 -0.09081,-0.461071 -0.19928,-0.604485 -0.312666,-0.413382 -0.246947,-0.596576 0.214014,-0.596576 0.398512,0 0.415527,-0.02127 0.335825,-0.419781 -0.04618,-0.23088 -0.08396,-0.688073 -0.08396,-1.015985 0,-0.591068 -0.0037,-0.595842 -0.434074,-0.554111 l -0.434074,0.04209 0.04272,1.108222 c 0.04,1.037735 0.02539,1.108222 -0.229648,1.108222 -0.311905,0 -0.493391,0.209021 -0.290409,0.33447 0.172516,0.106621 0.179914,1.100484 0.009,1.206129 -0.07015,0.04335 -0.167856,-0.136062 -0.217127,-0.398702 z m -0.253998,-1.619243 0.543137,-0.0829 -0.09523,-0.760935 c -0.05238,-0.418515 -0.10033,-1.07829 -0.106564,-1.466168 l -0.01134,-0.705232 h -0.529392 c -0.291165,0 -0.567085,0.06099 -0.613155,0.135532 -0.132185,0.213881 0.06506,0.670448 0.289649,0.670448 0.112,0 0.17877,0.07556 0.148377,0.167912 -0.03039,0.09235 -0.367897,0.221751 -0.750009,0.287552 l -0.694748,0.11964 0.0018,0.619175 c 10e-4,0.340546 0.0397,0.760597 0.08598,0.933446 0.09011,0.336577 0.06739,0.335507 1.731458,0.08153 z m 5.098719,1.229327 c -1.076314,-0.234952 -1.306599,-0.344504 -1.216689,-0.578807 0.04119,-0.107331 0.07488,-0.270161 0.07488,-0.361845 0,-0.207061 1.065012,-0.751639 1.469954,-0.751639 0.456693,0 0.260406,0.291051 -0.335401,0.497325 -1.3783,0.477179 -0.919416,0.908832 0.931642,0.876354 0.656179,-0.01151 1.223515,-0.0514 1.260748,-0.08863 0.03723,-0.03723 -0.03117,-0.218577 -0.151995,-0.402987 -0.12083,-0.18441 -0.21969,-0.42809 -0.21969,-0.541512 0,-0.123696 -0.120951,-0.207044 -0.302243,-0.208278 -0.529563,-0.0036 -0.661307,-0.206642 -0.811772,-1.251075 -0.131429,-0.912292 -0.12194,-1.046668 0.09049,-1.281401 0.130524,-0.144228 0.383989,-0.299044 0.563255,-0.344037 0.266941,-0.067 0.325939,-0.166445 0.325939,-0.549401 0,-0.257178 0.04534,-0.469063 0.100747,-0.470856 0.190161,-0.0062 1.578374,-0.163584 1.595271,-0.18091 0.0093,-0.0095 0.0571,-0.148282 0.106237,-0.308341 0.07776,-0.253304 0.04296,-0.285924 -0.268617,-0.251722 -0.591226,0.0649 -0.826494,-0.299551 -0.785366,-1.216601 0.03111,-0.693562 0.08002,-0.820231 0.390361,-1.010799 l 0.3548,-0.217871 -0.641211,-0.54809 c -0.637941,-0.545296 -0.716672,-0.798278 -0.197114,-0.633377 0.302011,0.09586 1.22551,0.970355 1.22551,1.160487 0,0.06649 0.147554,0.120897 0.327897,0.120897 0.180343,0 0.363359,0.05738 0.406702,0.127509 0.04334,0.07013 0.03822,0.614166 -0.01139,1.208969 -0.06821,0.817854 -0.138036,1.08146 -0.286481,1.08146 -0.193054,0 -0.189072,0.514173 0.0099,1.276134 0.03858,0.147763 0.07477,0.335476 0.08043,0.41714 0.0057,0.08166 0.206735,0.206119 0.44685,0.276567 l 0.436572,0.128088 -0.03583,0.988513 c -0.03903,1.07682 -0.168061,1.346444 -0.644338,1.346444 -0.171297,0 -0.348808,0.06045 -0.394469,0.13433 -0.163646,0.264785 -0.335825,0.127042 -0.335825,-0.26866 0,-0.268659 0.06717,-0.402989 0.201495,-0.402989 0.110822,0 0.201495,0.06045 0.201495,0.13433 0,0.229294 0.386493,0.147491 0.524884,-0.111095 0.07224,-0.134983 0.171634,-0.549125 0.220875,-0.920314 0.07604,-0.573219 0.05352,-0.688706 -0.149464,-0.7666 -0.139711,-0.05361 -0.283287,-0.02007 -0.34562,0.08075 -0.171532,0.277436 -0.478886,-0.139127 -0.616101,-0.835012 -0.109535,-0.555509 -0.119043,-0.517417 -0.117352,0.470154 0.0012,0.681792 -0.06763,1.197404 -0.188205,1.410464 -0.104524,0.184704 -0.172448,0.449934 -0.150942,0.589402 0.0215,0.139467 -0.04167,0.304774 -0.140389,0.36735 -0.135256,0.08573 -0.117695,0.11428 0.07125,0.11583 0.19855,0.0016 0.230842,0.06497 0.155133,0.3043 -0.05259,0.166233 -0.165545,0.544036 -0.251018,0.839561 -0.122328,0.42295 -0.226829,0.545118 -0.490958,0.573958 -1.251868,0.136687 -1.773729,0.131758 -2.484829,-0.02347 z m 2.806556,-0.695803 c 0.151099,-0.393757 0.08308,-0.832821 -0.142421,-0.919355 -0.283279,-0.108704 -0.513974,0.110328 -0.366251,0.347735 0.06147,0.09879 0.09419,0.315626 0.07271,0.481859 -0.04541,0.351493 0.307629,0.424182 0.435958,0.08976 z m -0.518628,-1.435381 c 0.680991,-0.748199 0.782051,-1.102023 0.74751,-2.617112 -0.01347,-0.590676 -0.183735,-0.703147 -0.740843,-0.489365 -0.230086,0.08829 -0.298713,0.724443 -0.07815,0.724443 0.07388,0 0.13433,0.06045 0.13433,0.13433 0,0.07388 -0.122838,0.134329 -0.272974,0.134329 -0.150136,0 -0.489588,0.09051 -0.754339,0.201127 l -0.481364,0.201127 0.09501,0.772765 c 0.146288,1.189786 0.744041,1.605019 1.350818,0.938356 z m 1.725727,-5.144979 c 0.04835,-0.411399 0.05311,-0.804314 0.01057,-0.873145 -0.120747,-0.195372 -0.33015,-0.146947 -0.33015,0.07635 0,0.110822 -0.120897,0.322391 -0.26866,0.470154 l -0.26866,0.26866 h 0.26866 c 0.149256,0 0.26866,0.08955 0.26866,0.201495 0,0.110822 0,0.246831 0,0.302242 0,0.222671 -0.241104,0.157093 -0.581175,-0.158074 L 77.89613,59.632001 v 0.307023 c 0,0.416523 0.09673,0.486128 0.675543,0.486128 h 0.496436 z m 1.946948,6.334658 c -0.823594,-0.234809 -0.923232,-0.307668 -0.923232,-0.6751 0,-0.37565 0.228537,-0.584831 0.753698,-0.689863 l 0.392267,-0.07845 -0.05035,-0.996983 -0.05035,-0.996983 h 0.628219 c 0.536618,0 0.617553,-0.03428 0.555069,-0.235078 -0.120268,-0.386491 0.110395,-0.59465 0.606452,-0.547284 0.441348,0.04214 0.458256,0.06525 0.523855,0.715818 0.04681,0.464233 0.165706,0.770191 0.384209,0.988694 0.271013,0.271013 0.302952,0.396226 0.222559,0.872522 -0.109562,0.649116 -0.130336,0.735104 -0.264163,1.09342 -0.05519,0.147763 -0.122911,0.34433 -0.150497,0.436816 -0.02875,0.09639 -0.238229,0.159169 -0.49085,0.147098 -0.242382,-0.01158 -0.682488,0.01576 -0.978014,0.06076 -0.303257,0.04618 -0.808079,0.0046 -1.158881,-0.09539 z m 0.879235,-0.295003 c 0.287858,-0.110461 0.268245,-0.416486 -0.03717,-0.579938 -0.22878,-0.12244 -0.762853,-0.09562 -1.204378,0.06049 -0.251953,0.08908 0.09604,0.42239 0.525507,0.50333 0.178219,0.03359 0.364428,0.0693 0.413797,0.07936 0.04937,0.01006 0.185377,-0.0184 0.302242,-0.06324 z m 0.925464,-0.128633 c 0.119574,-0.04588 0.170216,-0.180699 0.128213,-0.341318 -0.0885,-0.338421 -0.357715,-0.256845 -0.413966,0.125438 -0.04604,0.312901 -0.01945,0.332995 0.285753,0.21588 z m 0.764646,-0.117727 c 0,-0.03258 -0.06045,-0.0966 -0.13433,-0.142258 -0.07388,-0.04566 -0.13433,-0.019 -0.13433,0.05924 0,0.07824 0.06045,0.142258 0.13433,0.142258 0.07388,0 0.13433,-0.02666 0.13433,-0.05924 z m 0.04455,-0.96922 c 0.09388,-0.578524 0.03156,-0.717831 -0.321136,-0.717831 -0.213709,0 -0.260732,0.09488 -0.260732,0.526125 0,0.463127 0.105415,0.632255 0.418996,0.672239 0.04574,0.0058 0.119037,-0.210407 0.162872,-0.480533 z m -0.877406,-0.684249 -0.04029,-0.772397 -0.638067,-0.04094 c -0.628051,-0.0403 -0.638067,-0.03464 -0.638067,0.360662 0,0.220883 0.06136,0.562986 0.136349,0.76023 0.111263,0.292644 0.196249,0.343591 0.461922,0.276912 0.179065,-0.04494 0.363069,-0.02104 0.408898,0.05311 0.214638,0.347291 0.346445,0.07555 0.309251,-0.637574 z m 0.23934,-1.598237 c -0.166117,-0.432894 -0.314717,-0.02484 -0.166265,0.456565 0.151881,0.492523 0.156258,0.495226 0.198898,0.122851 0.02398,-0.209415 0.0093,-0.470152 -0.03263,-0.579416 z M 63.48529,65.706538 c -0.105471,-0.179515 -0.431851,-2.497795 -0.406726,-2.888979 0.01922,-0.299234 -0.03874,-0.368514 -0.337163,-0.40299 -0.280653,-0.03242 -0.362411,-0.115923 -0.369585,-0.377458 -0.0051,-0.184704 -0.04581,-0.426497 -0.09054,-0.53732 -0.13035,-0.322952 -0.208147,-2.111443 -0.09949,-2.287251 0.06154,-0.09958 0.334474,-0.141642 0.720077,-0.110973 0.341534,0.02716 0.62097,4.8e-5 0.62097,-0.06026 0,-0.0603 0.06997,-0.0664 0.15549,-0.01355 0.106155,0.06561 0.131865,0.0058 0.08103,-0.188628 -0.0943,-0.360609 0.101624,-0.516722 0.737369,-0.587537 0.487067,-0.05425 0.503738,-0.04215 0.503738,0.365722 0,0.232008 0.09002,0.718569 0.20004,1.081248 0.26064,0.859176 0.254688,1.263616 -0.02157,1.465622 -0.20158,0.147399 -0.209019,0.293025 -0.07281,1.425272 0.08344,0.693605 0.191523,1.427333 0.240181,1.630507 0.07419,0.30979 0.0449,0.369407 -0.181479,0.369407 -0.313837,0 -0.383023,-0.149023 -0.643313,-1.385663 -0.295221,-1.402598 -0.261419,-1.953106 0.129039,-2.101558 0.401015,-0.152466 0.46963,-0.348455 0.331072,-0.945665 -0.05999,-0.258585 -0.110522,-0.752057 -0.112285,-1.096605 -0.0032,-0.617577 -0.0084,-0.625035 -0.372612,-0.526596 l -0.369407,0.09985 0.05019,1.567653 c 0.04937,1.54226 0.04538,1.567653 -0.246271,1.567653 -0.180057,0 -0.272574,0.06593 -0.235628,0.167913 0.03346,0.09235 -0.02301,0.264507 -0.125473,0.382567 -0.153625,0.177003 -0.161927,0.492721 -0.04733,1.799952 0.129622,1.478615 0.120684,1.856907 -0.03751,1.587655 z m 0.170704,-4.508989 c -6.42e-4,-0.166233 -0.03929,-0.619596 -0.08588,-1.007474 l -0.08471,-0.705232 h -0.513555 -0.513554 l 0.08255,0.906727 c 0.08869,0.974219 0.175639,1.102984 0.746904,1.106165 0.294487,0.0016 0.369171,-0.05924 0.36824,-0.300186 z m -13.00072,3.450132 c -0.261335,-0.183045 -0.295539,-0.323246 -0.286448,-1.174141 0.01105,-1.034746 0.25469,-2.083841 0.45837,-1.973749 0.06834,0.03694 0.106566,0.534158 0.08494,1.104926 -0.02163,0.570768 0.03283,1.256378 0.121012,1.523578 0.195526,0.592451 0.03718,0.8101 -0.377872,0.519386 z M 65.53778,63.976967 c 0,-0.115183 0.06045,-0.172064 0.13433,-0.126402 0.07388,0.04566 0.13433,0.139901 0.13433,0.209422 0,0.06952 -0.06045,0.126402 -0.13433,0.126402 -0.07388,0 -0.13433,-0.09424 -0.13433,-0.209422 z m 21.855277,-0.02566 c -0.03099,-0.05541 -0.06324,-0.335409 -0.07167,-0.622218 -0.02657,-0.904678 -0.12125,-1.04999 -0.638667,-0.980262 -0.378047,0.05095 -0.458138,0.01842 -0.458138,-0.186069 0,-0.176767 0.13453,-0.273046 0.469271,-0.335844 0.581273,-0.109047 1.239236,0.03305 1.04632,0.225962 -0.07846,0.07846 -0.107234,0.526485 -0.06855,1.067203 0.04412,0.61664 0.01781,0.931975 -0.07777,0.931975 -0.07945,0 -0.16981,-0.04534 -0.200802,-0.100747 z M 66.051003,63.212498 c -0.09233,-0.166234 -0.174949,-0.332467 -0.18359,-0.369408 -0.0086,-0.03694 -0.06202,-0.230804 -0.118624,-0.430807 -0.198221,-0.700431 0.01984,-0.704329 0.3225,-0.0058 0.168055,0.387878 0.355737,0.705232 0.417071,0.705232 0.06133,0 0.220124,-0.158472 0.352865,-0.352161 0.132742,-0.193688 0.37461,-0.49593 0.537485,-0.671649 0.295786,-0.319111 0.295804,-0.319489 0.01547,-0.319489 -0.261266,0 -0.256244,-0.01921 0.07264,-0.277912 0.366881,-0.288589 0.703222,-0.265811 1.205659,0.08165 0.22645,0.156601 0.207239,0.184772 -0.235077,0.344716 -0.496971,0.179707 -0.642377,0.388867 -0.270335,0.388867 0.129431,0 0.193331,0.09111 0.164869,0.235077 -0.03426,0.173284 -0.15746,0.226447 -0.468693,0.202244 -0.326812,-0.02541 -0.498699,0.05806 -0.760682,0.369407 -0.402165,0.477946 -0.819577,0.51764 -1.051554,0.1 z m -9.84915,-1.143861 c -0.172449,-0.126696 -0.873144,-1.528145 -0.873144,-1.746361 0,-0.115702 0.284055,-0.165783 0.940309,-0.165783 0.746277,0 0.940309,0.04158 0.940309,0.201494 0,0.152241 -0.164181,0.201495 -0.671649,0.201495 -0.369408,0 -0.67165,0.03323 -0.67165,0.07384 0,0.219712 0.442471,0.87815 0.67304,1.001547 0.146998,0.07867 0.267269,0.231585 0.267269,0.339807 0,0.205771 -0.373316,0.263801 -0.604484,0.09397 z m 18.537524,-0.566379 c 1.044507,-0.430064 2.606939,-0.803008 2.704285,-0.645498 0.04614,0.07466 0.0043,0.184963 -0.09306,0.245114 -0.270871,0.167407 -1.717594,0.506649 -2.544062,0.596556 l -0.738814,0.08037 z m 6.140555,-0.564973 c -0.195883,-0.195883 -0.218543,-1.402182 -0.02854,-1.519607 0.07388,-0.04566 0.13433,0.0048 0.13433,0.112031 0,0.107278 0.09418,0.231189 0.209279,0.275358 0.153458,0.05889 0.198245,0.230125 0.167912,0.641999 -0.04355,0.59138 -0.211425,0.76177 -0.482976,0.490219 z M 67.617174,60.689412 c -0.04417,-0.07146 -0.06162,-0.133834 -0.03879,-0.138606 0.02283,-0.0048 0.373977,-0.03804 0.780325,-0.07392 0.406348,-0.03589 0.964689,-0.124766 1.240758,-0.197512 0.459424,-0.121063 0.487871,-0.15532 0.335824,-0.404413 -0.139598,-0.228699 -0.127176,-0.301045 0.07781,-0.453159 0.458254,-0.340057 1.988441,-0.611288 3.181483,-0.563929 1.070011,0.04247 1.14463,0.06459 1.186759,0.351642 0.06384,0.435017 -0.10872,0.550168 -0.932217,0.622066 -0.772788,0.06747 -1.5619,0.278242 -1.826472,0.48785 -0.08881,0.07036 -0.283177,0.08929 -0.431934,0.04208 -0.148757,-0.04721 -0.831703,0.01052 -1.517657,0.128303 -1.951188,0.335025 -1.971005,0.336949 -2.055889,0.199603 z m 5.17442,-1.013675 0.604484,-0.09739 -0.428447,-0.178151 c -0.374662,-0.155786 -0.498581,-0.146751 -0.987121,0.07198 -0.512641,0.229517 -0.509211,0.462255 0.0051,0.346363 0.110822,-0.02497 0.473513,-0.08923 0.805979,-0.142795 z m 19.343504,0.635905 c 0,-0.382884 0.412959,-0.906383 0.581803,-0.737539 0.04942,0.04942 0.08985,0.03415 0.08985,-0.03392 0,-0.189667 1.920191,-0.138116 1.983984,0.05326 0.03792,0.113769 -0.220602,0.160057 -0.893935,0.160057 -0.797045,0 -0.934719,0.03275 -0.868046,0.206498 0.09982,0.260116 -0.317073,0.733811 -0.645812,0.733811 -0.182824,0 -0.24784,-0.100254 -0.24784,-0.38217 z m -27.732031,0.124984 c -0.04325,-0.06998 -0.02138,-0.162627 0.0486,-0.205878 0.06998,-0.04325 0.162626,-0.02138 0.205877,0.0486 0.04325,0.06998 0.02138,0.162627 -0.0486,0.205878 -0.06998,0.04325 -0.162626,0.02138 -0.205877,-0.0486 z m 25.924401,-0.697275 c -0.155143,-0.654805 -0.301799,-2.057001 -0.2399,-2.293703 0.03515,-0.134427 0.147538,-0.244413 0.249743,-0.244413 0.102206,0 0.185828,-0.123644 0.185828,-0.274766 0,-0.447771 0.591349,-0.934203 1.135698,-0.934203 0.33379,0 0.476261,0.06028 0.476261,0.201495 0,0.110822 -0.09424,0.201495 -0.209423,0.201495 -0.115182,0 -0.172566,-0.05963 -0.12752,-0.13252 0.182737,-0.295675 -0.542579,0.112732 -0.790906,0.445338 -0.240197,0.321718 -0.244714,0.372961 -0.05206,0.590634 0.133295,0.150606 0.246101,0.646327 0.306424,1.346573 0.09538,1.107233 0.09518,1.108222 -0.227472,1.108222 -0.177617,0 -0.392132,0.06919 -0.4767,0.15376 -0.11546,0.11546 -0.172744,0.07364 -0.229973,-0.167912 z m 0.710042,-0.735046 c 0.05567,-0.663466 -0.196726,-1.53441 -0.44467,-1.53441 -0.30704,0 -0.357538,0.230292 -0.105717,0.482113 0.168817,0.168817 0.188103,0.250782 0.0684,0.290684 -0.258172,0.08606 -0.201364,0.568939 0.06837,0.581107 0.140433,0.0063 0.167474,0.03788 0.06717,0.07836 -0.203922,0.08228 -0.224868,0.448355 -0.02566,0.448355 0.07824,0 0.100052,0.06829 0.04847,0.151757 -0.05686,0.092 -0.02031,0.127581 0.09282,0.09036 0.105646,-0.03476 0.205795,-0.290016 0.230827,-0.588329 z m -26.574369,0.749198 c 0,-0.07388 0.06045,-0.13433 0.13433,-0.13433 0.07388,0 0.13433,0.06045 0.13433,0.13433 0,0.07388 -0.06045,0.13433 -0.13433,0.13433 -0.07388,0 -0.13433,-0.06045 -0.13433,-0.13433 z m 16.791743,-0.186825 c 3.14e-4,-0.09232 0.394768,-0.165983 1.036977,-0.193646 0.570059,-0.02455 1.136254,-0.09805 1.258211,-0.163317 0.515823,-0.27606 2.634293,-0.559649 2.876006,-0.384996 0.07388,0.05338 0.285451,0.117966 0.470154,0.143516 0.224377,0.03104 0.349685,0.143816 0.377589,0.339835 0.03982,0.279751 0.0055,0.289937 -0.738814,0.219256 -0.459005,-0.04359 -0.847279,-0.157809 -0.942484,-0.277258 -0.136994,-0.171878 -0.258961,-0.178695 -0.792689,-0.0443 -0.34693,0.08736 -0.805939,0.24941 -1.020019,0.360115 -0.466647,0.241313 -2.525752,0.241961 -2.524931,7.95e-4 z M 64.194481,59.216183 c 0,-0.07388 0.09067,-0.134329 0.201495,-0.134329 0.110822,0 0.201495,0.06045 0.201495,0.134329 0,0.07388 -0.09067,0.13433 -0.201495,0.13433 -0.110822,0 -0.201495,-0.06045 -0.201495,-0.13433 z m 34.274932,-1.061777 c -0.131268,-0.08113 -0.125969,-0.138506 0.02431,-0.263225 0.15117,-0.12546 0.208589,-0.116684 0.269151,0.04114 0.09367,0.244094 -0.06435,0.363683 -0.29346,0.222087 z M 64.194481,57.73424 c 0,-0.978705 1.32187,-2.216614 2.063189,-1.932143 0.317946,0.122007 0.271099,0.558969 -0.07159,0.667734 -0.195429,0.06203 -0.343472,0.0223 -0.447616,-0.120129 -0.141945,-0.194122 -0.182456,-0.194005 -0.461344,0.0013 -0.352878,0.247166 -0.82245,1.209144 -0.720239,1.475502 0.04035,0.105155 -0.0209,0.180674 -0.146535,0.180674 -0.127451,0 -0.215867,-0.111806 -0.215867,-0.272974 z m 24.880702,-0.464138 c -0.257967,-0.257655 -0.273345,-0.318372 -0.0977,-0.385773 0.211666,-0.08122 0.739678,0.336777 0.739678,0.585566 0,0.22333 -0.317169,0.124623 -0.641978,-0.199793 z m 1.044967,-0.471857 c 0,-0.07388 0.06045,-0.134329 0.134329,-0.134329 0.07388,0 0.13433,0.06045 0.13433,0.134329 0,0.07388 -0.06045,0.13433 -0.13433,0.13433 -0.07388,0 -0.134329,-0.06045 -0.134329,-0.13433 z m 5.849356,-0.384065 c -0.08943,-0.281763 0.0365,-0.708281 0.252855,-0.856429 0.262089,-0.179463 0.838,-0.106606 1.045576,0.132273 0.282898,0.325559 0.441821,1.018658 0.216338,0.943497 -0.09354,-0.03118 -0.203332,-0.197607 -0.243991,-0.369841 -0.101885,-0.431589 -0.469239,-0.649148 -0.773047,-0.457824 -0.309898,0.19516 -0.383875,0.5894 -0.110597,0.5894 0.116239,0 0.211344,0.06045 0.211344,0.13433 0,0.240884 -0.51704,0.141182 -0.598478,-0.115406 z m -7.79714,-6.466759 c -0.04566,-0.07388 -0.0096,-0.13433 0.08006,-0.13433 0.102229,0 0.07405,-0.09838 -0.07553,-0.263656 -0.232361,-0.256756 -0.194323,-0.768298 0.04608,-0.61972 0.132718,0.08203 0.03581,-1.680257 -0.100469,-1.827035 -0.04646,-0.05004 -0.658731,-0.129926 -1.360605,-0.177529 -0.701873,-0.0476 -1.6086,-0.139545 -2.014948,-0.204317 -0.406348,-0.06477 -1.554868,-0.18497 -2.552268,-0.267105 -0.997399,-0.08214 -2.176144,-0.20771 -2.619433,-0.279055 -0.443288,-0.07135 -1.924275,-0.276233 -3.291082,-0.455306 -2.721986,-0.356623 -4.377876,-0.595153 -7.082183,-1.020184 -1.446402,-0.227328 -2.069874,-0.261434 -3.358247,-0.183707 -2.17188,0.131029 -2.18728,0.138762 -2.183592,1.09648 0.0022,0.56246 0.0752,0.868047 0.265672,1.111547 0.144478,0.184703 0.26403,0.502058 0.265673,0.705232 0.0025,0.305277 -0.05531,0.369407 -0.332838,0.369407 -0.184703,0 -0.378682,0.01511 -0.431065,0.03358 -0.118288,0.04171 -0.311783,-0.858689 -0.217363,-1.011464 0.03786,-0.06126 0.09776,-0.606054 0.133123,-1.210663 0.03536,-0.604608 0.08553,-1.120526 0.111486,-1.146485 0.02596,-0.02596 0.550576,-0.08187 1.165818,-0.124261 l 1.11862,-0.07706 -1.410464,-0.23732 c -0.775755,-0.130526 -2.045172,-0.304953 -2.820928,-0.387615 -0.775755,-0.08266 -1.954499,-0.236327 -2.619432,-0.341477 -0.664933,-0.105149 -2.297041,-0.284372 -3.626907,-0.398272 -1.329866,-0.1139 -2.810853,-0.265409 -3.291083,-0.336687 -1.380377,-0.204882 -4.875185,-0.419593 -4.97777,-0.30582 -0.05117,0.05675 -0.132534,0.511213 -0.180807,1.009912 -0.07505,0.77536 -0.05689,0.906727 0.125393,0.906727 0.11724,0 0.175805,0.06045 0.130144,0.13433 -0.108228,0.175116 -1.007475,0.175116 -1.007475,0 0,-0.07388 0.08632,-0.13433 0.191829,-0.13433 0.133794,0 0.218402,-0.233677 0.279664,-0.772397 0.04831,-0.424818 0.115287,-0.872216 0.14884,-0.994217 0.05298,-0.19263 -0.129664,-0.233158 -1.387885,-0.307969 -0.79689,-0.04738 -1.992927,-0.153527 -2.65786,-0.235878 -0.750232,-0.09291 -4.1597,-0.154456 -8.985419,-0.162186 l -7.776451,-0.01246 -0.05452,0.527988 c -0.05658,0.547981 0.164982,1.285466 0.386195,1.285466 0.181602,0 0.07375,0.707659 -0.117405,0.770377 -0.343416,0.112673 -0.615597,-0.618618 -0.631302,-1.69617 l -0.01533,-1.051555 1.599466,-0.08597 c 3.501869,-0.188213 13.550894,-0.0083 17.878367,0.32007 0.960459,0.07288 3.378397,0.251941 5.373196,0.39791 1.994799,0.145969 3.959373,0.32661 4.365721,0.401425 0.406348,0.07481 1.766438,0.231122 3.022423,0.34735 1.255984,0.116228 2.525402,0.262813 2.820927,0.325743 0.295526,0.06293 1.444047,0.21384 2.552268,0.335354 1.108222,0.121514 2.256742,0.288412 2.552268,0.370885 0.708125,0.197618 3.349431,0.187058 4.701546,-0.0188 0.591052,-0.08999 1.951142,-0.278445 3.022423,-0.418798 2.503115,-0.327944 6.548967,-1.140619 8.529947,-1.713379 0.51717,-0.149529 1.121655,-0.310863 1.343299,-0.35852 0.50501,-0.108585 5.009523,-1.526416 5.373196,-1.691256 0.147763,-0.06698 0.903368,-0.36926 1.679123,-0.671743 0.775756,-0.302483 1.656231,-0.667078 1.956613,-0.810213 0.300381,-0.143134 0.588465,-0.260244 0.640185,-0.260244 0.183031,0 4.557972,-2.153915 5.907408,-2.908394 0.752972,-0.420993 1.491862,-0.906004 1.641972,-1.077802 0.52033,-0.59549 0.60112,-0.424426 0.58202,1.232433 -0.0174,1.509022 -0.0248,1.544794 -0.32127,1.544794 -0.35986,0 -0.51898,-0.322624 -0.33171,-0.672549 0.18917,-0.353453 0.17247,-1.611059 -0.0214,-1.611059 -0.0854,0 -0.342283,0.140533 -0.570901,0.312295 -0.482756,0.362698 -2.478556,1.486639 -3.625123,2.041499 -0.482292,0.233396 -0.718448,0.412586 -0.604485,0.458669 0.127194,0.05143 0.188377,0.312002 0.191237,0.814444 0.0023,0.406348 0.03254,0.859711 0.06717,1.007474 0.09309,0.397207 -0.600258,0.459417 -0.807362,0.07244 -0.183263,-0.342431 -0.07697,-0.542594 0.288137,-0.542594 0.19567,0 0.251561,-0.06135 0.193567,-0.212482 -0.04484,-0.116864 -0.08246,-0.343546 -0.08359,-0.503737 -0.0041,-0.586927 -0.195671,-0.695468 -0.701043,-0.397291 -0.253012,0.14928 -0.999261,0.497381 -1.658332,0.773556 -0.65907,0.276175 -1.454557,0.616766 -1.767748,0.75687 -0.313191,0.140103 -0.61146,0.254733 -0.662821,0.254733 -0.05136,0 -0.339149,0.118327 -0.639531,0.262949 -0.886029,0.426588 -4.016559,1.470481 -6.590993,2.197804 -2.547257,0.719646 -3.977981,1.040005 -7.565824,1.694096 -1.401682,0.255537 -1.568608,0.317289 -1.568608,0.58028 0,0.08004 -0.07556,0.17071 -0.167913,0.201494 -0.09871,0.0329 -0.167912,-0.06002 -0.167912,-0.22547 0,-0.254443 -0.05477,-0.27356 -0.570902,-0.199278 -0.313996,0.04519 -0.782472,0.133125 -1.041057,0.195412 -0.258585,0.06229 -1.135087,0.159835 -1.947783,0.216774 -0.812696,0.05694 -1.326508,0.121543 -1.141804,0.143565 0.184704,0.02202 0.669297,0.100052 1.076874,0.173398 0.407577,0.07335 1.64677,0.256001 2.753763,0.405899 1.106992,0.149899 2.375404,0.328627 2.818692,0.397175 0.443289,0.06855 1.682482,0.219634 2.753763,0.335746 1.071281,0.116111 2.28025,0.266888 2.686598,0.335059 0.646643,0.108485 2.376329,0.258498 5.373195,0.466011 0.48023,0.03325 1.779871,0.100947 2.888093,0.150432 1.108222,0.04949 2.055762,0.113505 2.105645,0.142266 0.148448,0.08559 6.107514,-0.347203 7.633272,-0.554388 2.993236,-0.406458 4.764526,-0.903508 6.524046,-1.830738 0.65582,-0.345605 1.00885,-0.462637 1.1418,-0.378507 0.1229,0.07777 0.13424,0.122526 0.0314,0.12384 -0.11788,0.0015 -0.10717,0.131016 0.04,0.483159 0.12137,0.29047 0.18519,0.78282 0.16106,1.242552 -0.0353,0.673465 -0.075,0.766418 -0.3428,0.804453 -0.18165,0.0258 -0.33523,-0.0414 -0.38378,-0.167913 -0.0445,-0.116003 -0.16871,-0.210916 -0.27599,-0.210916 -0.10728,0 -0.15466,-0.06535 -0.1053,-0.145214 0.0494,-0.07987 0.23427,-0.10894 0.41092,-0.06461 0.29142,0.07314 0.32117,0.03838 0.32117,-0.375314 0,-0.250757 -0.0368,-0.639861 -0.0817,-0.864675 l -0.0818,-0.408753 -0.89214,0.442139 c -1.88398,0.933691 -4.97235,1.626271 -9.049225,2.02933 -0.806687,0.07975 -0.889786,0.114507 -0.777123,0.32502 0.06938,0.129645 0.08798,0.27389 0.04133,0.320545 -0.04666,0.04666 -0.0143,0.08483 0.07189,0.08483 0.0862,0 0.156718,0.06045 0.156718,0.13433 0,0.07388 -0.119745,0.13433 -0.2661,0.13433 -0.261162,0 -0.511416,-0.525934 -0.363896,-0.764762 0.03682,-0.05961 -1.534575,-0.108382 -3.49199,-0.108382 h -3.558936 l 0.09236,0.862425 c 0.09013,0.84158 0.124052,0.961351 0.4507,1.591432 0.140621,0.271249 0.119909,0.319024 -0.189267,0.436572 -0.43734,0.166276 -0.561564,0.16584 -0.665503,-0.0023 z M 21.164141,37.902508 c -0.190034,-0.190033 -0.07643,-0.447766 0.197365,-0.447766 0.26438,0 0.280154,-0.04935 0.200807,-0.62825 -0.04736,-0.345537 -0.185843,-0.738452 -0.307738,-0.873144 -0.121895,-0.134692 -0.197146,-0.248363 -0.167225,-0.252601 0.285769,-0.04048 3.716835,-0.177595 4.285794,-0.171274 0.406348,0.0045 2.491819,0.08625 4.634381,0.181634 2.494676,0.11106 9.354207,0.186375 19.074844,0.209434 8.348602,0.0198 19.410669,0.06807 24.582369,0.107255 8.846155,0.06703 12.074398,-2.61e-4 14.977783,-0.312189 1.801796,-0.193578 4.704849,-0.656272 5.44036,-0.867094 1.129904,-0.323868 2.753576,-0.662652 2.826476,-0.589752 0.03792,0.03792 -0.380782,0.228611 -0.930458,0.42375 -1.227998,0.435948 -3.741026,0.972893 -5.748635,1.228278 -0.625236,0.07953 -0.627957,0.08211 -0.493915,0.466618 0.250722,0.719221 -0.359811,1.292876 -0.699825,0.657554 -0.116317,-0.217341 -0.112055,-0.361526 0.01786,-0.604282 0.09385,-0.175358 0.145356,-0.341823 0.114461,-0.369924 -0.0309,-0.0281 -0.690882,0.0034 -1.466637,0.06995 -0.775756,0.06658 -2.332017,0.169788 -3.45836,0.229361 -1.126342,0.05957 -2.081347,0.141768 -2.122233,0.182654 -0.123766,0.123766 0.09111,0.777689 0.255542,0.777689 0.08434,0 0.15335,0.151121 0.15335,0.335824 0,0.46872 -0.434046,0.445253 -0.621148,-0.03358 -0.149503,-0.382613 -0.224025,-0.666144 -0.241719,-0.91966 -0.0071,-0.10205 -1.395507,-0.170596 -4.522198,-0.223263 -3.729587,-0.06282 -4.591384,-0.0428 -4.970206,0.115483 -0.50979,0.213004 -0.574937,0.407901 -0.223208,0.667763 0.291559,0.215407 0.0631,0.514865 -0.289557,0.379539 -0.180664,-0.06933 -0.22389,-0.215205 -0.190375,-0.64247 l 0.04336,-0.552779 -3.358247,-0.0948 c -1.847036,-0.05214 -3.992956,-0.08237 -4.768711,-0.06717 -1.371657,0.02688 -1.411701,0.03638 -1.455419,0.345372 -0.02473,0.174754 0.02061,0.383301 0.100747,0.463438 0.08014,0.08014 0.145703,0.314958 0.145703,0.521826 0,0.386118 -0.238132,0.482502 -0.727828,0.294587 -0.25484,-0.09779 -0.281327,-0.437796 -0.04128,-0.52991 0.113086,-0.0434 0.153308,-0.253315 0.118491,-0.618405 l -0.05271,-0.55271 -5.256609,0.09832 c -2.891135,0.05408 -5.27067,0.111562 -5.287855,0.127742 -0.01719,0.01618 0.04108,0.221045 0.129489,0.455256 0.202537,0.536582 0.01248,0.802906 -0.41117,0.576174 -0.223202,-0.119454 -0.260329,-0.234936 -0.19834,-0.616929 l 0.07626,-0.469965 h -5.64264 c -3.103452,0 -5.841055,-0.03968 -6.083561,-0.08818 l -0.440921,-0.08818 0.08648,0.591921 c 0.04757,0.325557 0.124578,0.727931 0.171137,0.894164 0.07488,0.267356 0.03584,0.302242 -0.338221,0.302242 -0.500931,0 -0.676672,-0.307671 -0.369571,-0.647013 0.192079,-0.212246 0.233628,-0.865554 0.06573,-1.033458 -0.104704,-0.104704 -10.589745,-0.46632 -13.559129,-0.467638 l -2.634978,-0.0012 0.110442,0.570902 c 0.06074,0.313996 0.113076,0.797584 0.116293,1.074639 0.0054,0.464946 -0.02346,0.503737 -0.374751,0.503737 -0.209331,0 -0.4209,-0.0403 -0.470154,-0.08955 z"
       id="path1" /></g></svg>
