<svg xmlns="http://www.w3.org/2000/svg" viewBox="0 0 100 100" fill="none">
  <path d="M20 80 Q35 60 50 50 Q65 40 80 20" stroke="currentColor" stroke-width="2" stroke-linecap="round"/>
  <path d="M50 50 Q42 35 30 32 Q32 44 50 50Z" fill="currentColor" opacity="0.85"/>
  <path d="M50 50 Q58 35 70 32 Q68 44 50 50Z" fill="currentColor" opacity="0.85"/>
  <path d="M62 38 Q54 25 44 24 Q46 36 62 38Z" fill="currentColor" opacity="0.7"/>
  <path d="M38 62 Q28 52 18 52 Q22 64 38 62Z" fill="currentColor" opacity="0.7"/>
  <path d="M44 68 Q36 55 24 56 Q28 68 44 68Z" fill="currentColor" opacity="0.85"/>
  <path d="M56 44 Q48 32 36 32 Q40 44 56 44Z" fill="currentColor" opacity="0.85"/>
</svg>
