<svg xmlns="http://www.w3.org/2000/svg" viewBox="0 0 100 100" fill="none">
  <ellipse cx="50" cy="50" rx="22" ry="20" fill="currentColor" opacity="0.3"/>
  <path d="M50 30 C56 38 58 44 50 50 C42 44 44 38 50 30Z" fill="currentColor" opacity="0.8"/>
  <path d="M70 38 C64 46 58 48 50 50 C50 42 54 36 70 38Z" fill="currentColor" opacity="0.8"/>
  <path d="M72 58 C64 54 58 52 50 50 C54 44 60 44 72 58Z" fill="currentColor" opacity="0.8"/>
  <path d="M58 72 C54 64 52 58 50 50 C58 50 62 56 58 72Z" fill="currentColor" opacity="0.8"/>
  <path d="M42 72 C46 64 48 58 50 50 C42 50 38 56 42 72Z" fill="currentColor" opacity="0.8"/>
  <path d="M28 58 C36 54 42 52 50 50 C46 44 40 44 28 58Z" fill="currentColor" opacity="0.8"/>
  <path d="M30 38 C36 46 42 48 50 50 C50 42 46 36 30 38Z" fill="currentColor" opacity="0.8"/>
  <path d="M50 32 C56 40 57 46 50 50 C43 46 44 40 50 32Z" fill="currentColor" opacity="0.6"/>
  <path d="M67 42 C61 48 56 49 50 50 C51 44 56 40 67 42Z" fill="currentColor" opacity="0.6"/>
  <path d="M65 62 C59 56 55 53 50 50 C55 46 61 48 65 62Z" fill="currentColor" opacity="0.6"/>
  <path d="M50 68 C50 60 50 55 50 50 C56 52 58 58 50 68Z" fill="currentColor" opacity="0.6"/>
  <path d="M35 62 C41 56 45 53 50 50 C45 46 39 48 35 62Z" fill="currentColor" opacity="0.6"/>
  <path d="M33 42 C39 48 44 49 50 50 C49 44 44 40 33 42Z" fill="currentColor" opacity="0.6"/>
  <circle cx="50" cy="50" r="7" fill="currentColor"/>
</svg>
