<svg xmlns="http://www.w3.org/2000/svg" viewBox="0 0 100 100" fill="none">
  <path d="M50 20 C50 20 42 28 42 36 C42 44 50 48 50 48 C50 48 58 44 58 36 C58 28 50 20 50 20Z" fill="currentColor" opacity="0.9"/>
  <path d="M50 48 C50 48 35 42 30 52 C25 62 34 70 50 68 C66 70 75 62 70 52 C65 42 50 48 50 48Z" fill="currentColor" opacity="0.7"/>
  <path d="M50 48 C50 48 38 55 40 65 C42 75 50 78 50 78 C50 78 58 75 60 65 C62 55 50 48 50 48Z" fill="currentColor" opacity="0.85"/>
  <path d="M50 48 C50 48 56 56 66 54 C76 52 78 44 70 38 C62 32 50 48 50 48Z" fill="currentColor" opacity="0.75"/>
  <path d="M50 48 C50 48 44 56 34 54 C24 52 22 44 30 38 C38 32 50 48 50 48Z" fill="currentColor" opacity="0.75"/>
  <circle cx="50" cy="48" r="6" fill="currentColor"/>
</svg>
