<svg xmlns="http://www.w3.org/2000/svg" viewBox="0 0 100 100" fill="none">
  <path d="M50 85 Q48 65 50 50" stroke="currentColor" stroke-width="2" stroke-linecap="round"/>
  <path d="M50 70 Q42 65 38 58" stroke="currentColor" stroke-width="1.5" stroke-linecap="round"/>
  <path d="M38 58 Q36 52 40 48" stroke="currentColor" stroke-width="1.2" stroke-linecap="round"/>
  <path d="M50 62 Q58 58 62 50" stroke="currentColor" stroke-width="1.5" stroke-linecap="round"/>
  <ellipse cx="50" cy="50" rx="5" ry="5" fill="currentColor"/>
  <ellipse cx="50" cy="38" rx="4" ry="8" fill="currentColor" opacity="0.7"/>
  <ellipse cx="50" cy="38" rx="4" ry="8" fill="currentColor" opacity="0.7" transform="rotate(45 50 50)"/>
  <ellipse cx="50" cy="38" rx="4" ry="8" fill="currentColor" opacity="0.7" transform="rotate(90 50 50)"/>
  <ellipse cx="50" cy="38" rx="4" ry="8" fill="currentColor" opacity="0.7" transform="rotate(135 50 50)"/>
  <ellipse cx="50" cy="38" rx="4" ry="8" fill="currentColor" opacity="0.7" transform="rotate(22.5 50 50)"/>
  <ellipse cx="50" cy="38" rx="4" ry="8" fill="currentColor" opacity="0.7" transform="rotate(67.5 50 50)"/>
  <ellipse cx="50" cy="38" rx="4" ry="8" fill="currentColor" opacity="0.7" transform="rotate(112.5 50 50)"/>
  <ellipse cx="50" cy="38" rx="4" ry="8" fill="currentColor" opacity="0.7" transform="rotate(157.5 50 50)"/>
  <circle cx="50" cy="50" r="6" fill="currentColor"/>
</svg>
