<svg xmlns="http://www.w3.org/2000/svg" viewBox="0 0 140 50" fill="none">
  <path d="M12 38 C8 30 8 22 14 16 C20 10 30 12 34 20 C38 28 34 38 28 42 C22 46 14 44 10 38" stroke="currentColor" stroke-width="3" stroke-linecap="round" fill="none"/>
  <path d="M28 30 C34 22 44 20 50 26 C56 32 54 42 48 44" stroke="currentColor" stroke-width="3" stroke-linecap="round" fill="none"/>
  <path d="M60 38 Q65 18 70 38" stroke="currentColor" stroke-width="3" stroke-linecap="round" fill="none"/>
  <path d="M78 18 Q78 38 78 42" stroke="currentColor" stroke-width="3" stroke-linecap="round" fill="none"/>
  <circle cx="78" cy="14" r="2.5" fill="currentColor"/>
  <path d="M86 28 Q92 16 98 28 Q104 40 110 28" stroke="currentColor" stroke-width="3" stroke-linecap="round" fill="none"/>
  <path d="M118 18 C114 18 112 22 112 28 C112 34 116 40 122 38 C128 36 130 30 128 24 C126 18 120 16 116 20" stroke="currentColor" stroke-width="3" stroke-linecap="round" fill="none"/>
</svg>
